ply
format ascii 1.0
comment Created by Blender 2.80 (sub 75) - www.blender.org, source file: 'bends.blend'
element vertex 44
property float x
property float y
property float z
property float nx
property float ny
property float nz
property float s
property float t
element face 28
property list uchar uint vertex_indices
end_header
0.500000 0.500000 0.500000 0.000000 -0.000000 1.000000 0.625000 0.250000
0.500000 -0.500000 0.500000 0.000000 -0.000000 1.000000 0.375000 0.250000
1.500000 -0.500000 0.500000 0.000000 -0.000000 1.000000 0.375000 0.250000
1.500000 0.500000 0.500000 0.000000 0.000000 1.000000 0.625000 0.250000
-0.500000 0.500000 0.500000 -0.000000 0.000000 1.000000 0.625000 0.500000
-0.500000 -0.500000 0.500000 -0.000000 0.000000 1.000000 0.375000 0.500000
-0.500000 -0.500000 0.500000 -1.000000 0.000000 0.000000 0.375000 0.500000
-0.500000 0.500000 0.500000 -1.000000 0.000000 0.000000 0.625000 0.500000
-0.500000 0.500000 -0.500000 -1.000000 0.000000 0.000000 0.625000 0.750000
-0.500000 -0.500000 -0.500000 -1.000000 0.000000 0.000000 0.375000 0.750000
0.500000 0.500000 -0.500000 1.000000 0.000000 0.000000 0.625000 0.000000
0.500000 -0.500000 -0.500000 1.000000 0.000000 0.000000 0.375000 0.000000
0.500000 -0.500000 -1.500000 1.000000 0.000000 0.000000 0.375000 0.000000
0.500000 0.500000 -1.500000 1.000000 0.000000 -0.000000 0.625000 0.000000
0.500000 -0.500000 0.500000 0.000000 -1.000000 0.000000 0.125000 0.500000
-0.500000 -0.500000 0.500000 0.000000 -1.000000 0.000000 0.375000 0.500000
-0.500000 -0.500000 -0.500000 0.000000 -1.000000 0.000000 0.375000 0.750000
0.500000 -0.500000 -0.500000 0.000000 -1.000000 0.000000 0.125000 0.750000
-0.500000 0.500000 0.500000 0.000000 1.000000 -0.000000 0.625000 0.500000
0.500000 0.500000 0.500000 0.000000 1.000000 -0.000000 0.875000 0.500000
0.500000 0.500000 -0.500000 0.000000 1.000000 -0.000000 0.875000 0.750000
-0.500000 0.500000 -0.500000 0.000000 1.000000 -0.000000 0.625000 0.750000
-0.500000 -0.500000 -1.500000 -0.000000 -0.000000 -1.000000 0.375000 0.750000
-0.500000 0.500000 -1.500000 -0.000000 -0.000000 -1.000000 0.625000 0.750000
0.500000 0.500000 -1.500000 -0.000000 -0.000000 -1.000000 0.625000 1.000000
0.500000 -0.500000 -1.500000 -0.000000 0.000000 -1.000000 0.375000 1.000000
-0.500000 -0.500000 -1.500000 0.000000 -1.000000 0.000000 0.375000 0.750000
0.500000 -0.500000 -1.500000 0.000000 -1.000000 0.000000 0.125000 0.750000
0.500000 0.500000 -1.500000 0.000000 1.000000 -0.000000 0.875000 0.750000
-0.500000 0.500000 -1.500000 0.000000 1.000000 -0.000000 0.625000 0.750000
-0.500000 0.500000 -1.500000 -1.000000 0.000000 0.000000 0.625000 0.750000
-0.500000 -0.500000 -1.500000 -1.000000 0.000000 0.000000 0.375000 0.750000
1.500000 -0.500000 -0.500000 1.000000 0.000000 0.000000 0.375000 0.000000
1.500000 0.500000 -0.500000 1.000000 0.000000 0.000000 0.625000 0.000000
1.500000 0.500000 0.500000 1.000000 0.000000 0.000000 0.625000 0.250000
1.500000 -0.500000 0.500000 1.000000 -0.000000 0.000000 0.375000 0.250000
0.500000 -0.500000 -0.500000 -0.000000 -0.000000 -1.000000 0.375000 0.000000
0.500000 0.500000 -0.500000 -0.000000 -0.000000 -1.000000 0.625000 0.000000
1.500000 0.500000 -0.500000 -0.000000 -0.000000 -1.000000 0.625000 0.000000
1.500000 -0.500000 -0.500000 -0.000000 0.000000 -1.000000 0.375000 0.000000
1.500000 0.500000 0.500000 0.000000 1.000000 0.000000 0.875000 0.500000
1.500000 0.500000 -0.500000 0.000000 1.000000 -0.000000 0.875000 0.750000
1.500000 -0.500000 -0.500000 0.000000 -1.000000 0.000000 0.125000 0.750000
1.500000 -0.500000 0.500000 -0.000000 -1.000000 -0.000000 0.125000 0.500000
3 0 1 2
3 0 2 3
3 1 0 4
3 1 4 5
3 6 7 8
3 6 8 9
3 10 11 12
3 10 12 13
3 14 15 16
3 14 16 17
3 18 19 20
3 18 20 21
3 22 23 24
3 22 24 25
3 17 16 26
3 17 26 27
3 21 20 28
3 21 28 29
3 9 8 30
3 9 30 31
3 32 33 34
3 32 34 35
3 36 37 38
3 36 38 39
3 20 19 40
3 20 40 41
3 14 17 42
3 14 42 43
