ply
format ascii 1.0
comment Created by Blender 2.80 (sub 75) - www.blender.org, source file: 'bends.blend'
element vertex 54
property float x
property float y
property float z
property float nx
property float ny
property float nz
property float s
property float t
element face 28
property list uchar uint vertex_indices
end_header
-0.500000 0.500000 0.500000 0.000000 -0.000000 1.000000 0.500000 0.000000
-0.500000 -0.500000 0.500000 0.000000 -0.000000 1.000000 0.625000 0.000000
0.500000 -0.500000 0.500000 0.000000 -0.000000 1.000000 0.625000 0.250000
0.500000 0.500000 0.500000 0.000000 -0.000000 1.000000 0.500000 0.250000
0.500000 0.500000 -0.500000 -0.215452 0.976514 0.000000 0.500000 0.500000
0.500000 0.500000 0.500000 -0.215452 0.976514 0.000000 0.500000 0.250000
1.500000 0.720633 0.720633 -0.215452 0.976514 0.000000 0.500000 0.250000
0.500000 0.500000 -0.500000 -0.215452 0.976515 0.000000 0.500000 0.500000
1.500000 0.720633 0.720633 -0.215452 0.976515 0.000000 0.500000 0.250000
1.500000 0.720633 -0.720634 -0.215452 0.976515 0.000000 0.500000 0.500000
0.500000 0.500000 -0.500000 -0.000000 0.000000 -1.000000 0.500000 0.500000
0.500000 -0.500000 -0.500000 -0.000000 0.000000 -1.000000 0.625000 0.500000
-0.500000 -0.500000 -0.500000 -0.000000 0.000000 -1.000000 0.625000 0.750000
-0.500000 0.500000 -0.500000 -0.000000 0.000000 -1.000000 0.500000 0.750000
-0.500000 0.500000 -0.500000 -1.000000 0.000000 0.000000 0.500000 0.750000
-0.500000 -0.500000 -0.500000 -1.000000 0.000000 0.000000 0.625000 0.750000
-0.500000 -0.500000 0.500000 -1.000000 0.000000 0.000000 0.625000 1.000000
-0.500000 0.500000 0.500000 -1.000000 0.000000 0.000000 0.500000 1.000000
0.500000 1.500000 0.500000 0.000000 1.000000 -0.000000 0.125000 0.500000
0.500000 1.500000 -0.500000 0.000000 1.000000 -0.000000 0.375000 0.500000
-0.500000 1.500000 -0.500000 0.000000 1.000000 -0.000000 0.375000 0.750000
-0.500000 1.500000 0.500000 0.000000 1.000000 -0.000000 0.125000 0.750000
0.500000 -0.500000 -0.500000 -0.000000 -1.000000 0.000000 0.625000 0.500000
0.500000 -0.500000 0.500000 -0.000000 -1.000000 0.000000 0.875000 0.500000
-0.500000 -0.500000 0.500000 -0.000000 -1.000000 0.000000 0.875000 0.750000
-0.500000 -0.500000 -0.500000 -0.000000 -1.000000 0.000000 0.625000 0.750000
-0.500000 1.500000 -0.500000 -1.000000 0.000000 0.000000 0.375000 0.750000
-0.500000 1.500000 0.500000 -1.000000 0.000000 0.000000 0.375000 1.000000
0.500000 1.500000 -0.500000 -0.000000 0.000000 -1.000000 0.375000 0.500000
-0.500000 1.500000 -0.500000 -0.000000 0.000000 -1.000000 0.375000 0.750000
0.500000 1.500000 0.500000 1.000000 -0.000000 -0.000000 0.375000 0.250000
0.500000 0.500000 0.500000 1.000000 -0.000000 -0.000000 0.500000 0.250000
0.500000 0.500000 -0.500000 1.000000 -0.000000 -0.000000 0.500000 0.500000
0.500000 1.500000 -0.500000 1.000000 -0.000000 -0.000000 0.375000 0.500000
-0.500000 1.500000 0.500000 0.000000 -0.000000 1.000000 0.375000 0.000000
0.500000 1.500000 0.500000 0.000000 -0.000000 1.000000 0.375000 0.250000
1.500000 0.720633 0.720633 1.000000 -0.000000 -0.000000 0.500000 0.250000
1.500000 -0.720634 0.720633 1.000000 -0.000000 -0.000000 0.625000 0.250000
1.500000 -0.720634 -0.720634 1.000000 -0.000000 -0.000000 0.625000 0.500000
1.500000 0.720633 -0.720634 1.000000 -0.000000 -0.000000 0.500000 0.500000
0.500000 -0.500000 0.500000 -0.215452 -0.976514 0.000000 0.875000 0.500000
0.500000 -0.500000 -0.500000 -0.215452 -0.976514 0.000000 0.625000 0.500000
1.500000 -0.720634 -0.720634 -0.215452 -0.976514 0.000000 0.625000 0.500000
1.500000 -0.720634 0.720633 -0.215452 -0.976514 0.000000 0.875000 0.500000
0.500000 -0.500000 -0.500000 -0.215452 0.000000 -0.976514 0.625000 0.500000
0.500000 0.500000 -0.500000 -0.215452 0.000000 -0.976514 0.500000 0.500000
1.500000 0.720633 -0.720634 -0.215452 0.000000 -0.976514 0.500000 0.500000
1.500000 -0.720634 -0.720634 -0.215452 0.000000 -0.976514 0.625000 0.500000
0.500000 0.500000 0.500000 -0.215452 0.000000 0.976514 0.500000 0.250000
0.500000 -0.500000 0.500000 -0.215452 0.000000 0.976514 0.625000 0.250000
1.500000 -0.720634 0.720633 -0.215452 0.000000 0.976514 0.625000 0.250000
0.500000 0.500000 0.500000 -0.215452 0.000000 0.976515 0.500000 0.250000
1.500000 -0.720634 0.720633 -0.215452 0.000000 0.976515 0.625000 0.250000
1.500000 0.720633 0.720633 -0.215452 0.000000 0.976515 0.500000 0.250000
3 0 1 2
3 0 2 3
3 4 5 6
3 7 8 9
3 10 11 12
3 10 12 13
3 14 15 16
3 14 16 17
3 18 19 20
3 18 20 21
3 22 23 24
3 22 24 25
3 26 14 17
3 26 17 27
3 28 10 13
3 28 13 29
3 30 31 32
3 30 32 33
3 34 0 3
3 34 3 35
3 36 37 38
3 36 38 39
3 40 41 42
3 40 42 43
3 44 45 46
3 44 46 47
3 48 49 50
3 51 52 53
