ply
format ascii 1.0
comment Created by Blender 2.80 (sub 75) - www.blender.org, source file: 'bends.blend'
element vertex 140
property float x
property float y
property float z
property float nx
property float ny
property float nz
property float s
property float t
element face 84
property list uchar uint vertex_indices
end_header
0.500000 0.500000 -0.500000 -0.578326 0.815806 0.000000 0.875000 0.750000
0.500000 0.500000 0.500000 -0.578326 0.815806 0.000000 0.875000 0.500000
0.856281 0.752568 0.752568 -0.578326 0.815806 0.000000 0.875000 0.500000
0.856281 0.752568 -0.752568 -0.578326 0.815806 0.000000 0.875000 0.750000
-0.259467 -0.259467 0.500000 -0.000000 -1.000000 -0.000000 0.435133 0.439867
0.259467 -0.259467 0.500000 -0.000000 -1.000000 -0.000000 0.435133 0.310133
0.259467 -0.259467 1.293908 -0.000000 -1.000000 -0.000000 0.435133 0.310133
-0.259467 -0.259467 1.293908 0.000000 -1.000000 -0.000000 0.435133 0.439867
-0.500000 -0.500000 0.500000 -0.616331 0.000000 0.787488 0.375000 0.500000
-0.500000 0.500000 0.500000 -0.616331 0.000000 0.787488 0.625000 0.500000
-0.825988 0.244864 0.244864 -0.616331 0.000000 0.787488 0.625000 0.500000
-0.825988 -0.244864 0.244864 -0.616331 0.000000 0.787488 0.375000 0.500000
-0.500000 -0.500000 -0.500000 -0.000000 -0.000000 -1.000000 0.375000 0.750000
-0.500000 0.500000 -0.500000 -0.000000 -0.000000 -1.000000 0.625000 0.750000
0.500000 0.500000 -0.500000 -0.000000 -0.000000 -1.000000 0.625000 1.000000
0.500000 -0.500000 -0.500000 -0.000000 0.000000 -1.000000 0.375000 1.000000
0.500000 -0.500000 0.500000 0.000000 -1.000000 0.000000 0.125000 0.500000
-0.500000 -0.500000 0.500000 0.000000 -1.000000 0.000000 0.375000 0.500000
-0.500000 -0.500000 -0.500000 0.000000 -1.000000 0.000000 0.375000 0.750000
0.500000 -0.500000 -0.500000 0.000000 -1.000000 0.000000 0.125000 0.750000
-0.500000 0.500000 0.500000 0.000000 0.000000 1.000000 0.625000 0.500000
0.500000 0.500000 0.500000 0.000000 0.000000 1.000000 0.625000 0.250000
0.500000 1.055293 0.500000 0.000000 0.000000 1.000000 0.625000 0.250000
-0.500000 1.055293 0.500000 -0.000000 0.000000 1.000000 0.625000 0.500000
0.259467 0.259467 0.500000 0.000000 -0.000000 1.000000 0.564867 0.310133
0.259467 -0.259467 0.500000 0.000000 -0.000000 1.000000 0.435133 0.310133
0.500000 -0.500000 0.500000 0.000000 -0.000000 1.000000 0.375000 0.250000
-0.259467 -0.259467 0.500000 0.000000 0.000000 1.000000 0.435133 0.439867
-0.500000 -0.500000 0.500000 0.000000 0.000000 1.000000 0.375000 0.500000
-0.259467 0.259467 0.500000 0.000000 0.000000 1.000000 0.564867 0.439867
0.259467 -0.259467 1.293908 -0.000000 0.000000 1.000000 0.435133 0.310133
0.259467 0.259467 1.293908 -0.000000 0.000000 1.000000 0.564867 0.310133
-0.259467 0.259467 1.293908 -0.000000 0.000000 1.000000 0.564867 0.439867
-0.259467 -0.259467 1.293908 -0.000000 0.000000 1.000000 0.435133 0.439867
0.259467 0.259467 0.500000 -0.000000 1.000000 0.000000 0.564867 0.310133
-0.259467 0.259467 0.500000 -0.000000 1.000000 0.000000 0.564867 0.439867
-0.259467 0.259467 1.293908 -0.000000 1.000000 0.000000 0.564867 0.439867
0.259467 0.259467 1.293908 0.000000 1.000000 0.000000 0.564867 0.310133
0.259467 -0.259467 0.500000 1.000000 0.000000 0.000000 0.435133 0.310133
0.259467 0.259467 0.500000 1.000000 0.000000 0.000000 0.564867 0.310133
0.259467 0.259467 1.293908 1.000000 0.000000 0.000000 0.564867 0.310133
0.259467 -0.259467 1.293908 1.000000 -0.000000 0.000000 0.435133 0.310133
-0.259467 0.259467 0.500000 -1.000000 0.000000 0.000000 0.564867 0.439867
-0.259467 -0.259467 0.500000 -1.000000 0.000000 0.000000 0.435133 0.439867
-0.259467 -0.259467 1.293908 -1.000000 0.000000 0.000000 0.435133 0.439867
-0.259467 0.259467 1.293908 -1.000000 -0.000000 -0.000000 0.564867 0.439867
0.856281 -0.752568 -0.752568 1.000000 0.000000 0.000000 0.375000 0.000000
0.856281 0.752568 -0.752568 1.000000 0.000000 0.000000 0.625000 0.000000
0.856281 0.752568 0.752568 1.000000 0.000000 0.000000 0.625000 0.250000
0.856281 -0.752568 0.752568 1.000000 -0.000000 0.000000 0.375000 0.250000
0.500000 -0.500000 0.500000 -0.578326 -0.815806 0.000000 0.125000 0.500000
0.500000 -0.500000 -0.500000 -0.578326 -0.815806 0.000000 0.125000 0.750000
0.856281 -0.752568 -0.752568 -0.578326 -0.815806 0.000000 0.125000 0.750000
0.856281 -0.752568 0.752568 -0.578326 -0.815806 -0.000000 0.125000 0.500000
0.500000 0.500000 0.500000 -0.578326 0.000000 0.815806 0.625000 0.250000
0.500000 -0.500000 0.500000 -0.578326 0.000000 0.815806 0.375000 0.250000
0.856281 -0.752568 0.752568 -0.578326 0.000000 0.815806 0.375000 0.250000
0.856281 0.752568 0.752568 -0.578326 0.000000 0.815806 0.625000 0.250000
0.500000 -0.500000 -0.500000 -0.578326 -0.000000 -0.815806 0.375000 1.000000
0.500000 0.500000 -0.500000 -0.578326 -0.000000 -0.815806 0.625000 1.000000
0.856281 0.752568 -0.752568 -0.578326 -0.000000 -0.815806 0.625000 1.000000
0.856281 -0.752568 -0.752568 -0.578326 0.000000 -0.815806 0.375000 1.000000
-0.825988 0.244864 -0.244864 0.000000 0.000000 -1.000000 0.625000 0.750000
-0.825988 -0.244864 -0.244864 0.000000 0.000000 -1.000000 0.375000 0.750000
-2.336205 -0.244864 -0.244864 0.000000 0.000000 -1.000000 0.375000 0.750000
-2.336205 0.244864 -0.244864 0.000000 0.000000 -1.000000 0.625000 0.750000
-0.500000 0.500000 -0.500000 -0.616331 0.000000 -0.787488 0.625000 0.750000
-0.500000 -0.500000 -0.500000 -0.616331 0.000000 -0.787488 0.375000 0.750000
-0.825988 -0.244864 -0.244864 -0.616331 0.000000 -0.787488 0.375000 0.750000
-0.825988 0.244864 -0.244864 -0.616331 -0.000000 -0.787488 0.625000 0.750000
-0.500000 -0.500000 -0.500000 -0.616331 -0.787488 -0.000000 0.375000 0.750000
-0.500000 -0.500000 0.500000 -0.616331 -0.787488 -0.000000 0.375000 0.500000
-0.825988 -0.244864 0.244864 -0.616331 -0.787488 -0.000000 0.375000 0.500000
-0.825988 -0.244864 -0.244864 -0.616331 -0.787488 0.000000 0.375000 0.750000
-0.500000 0.500000 0.500000 -0.616331 0.787488 0.000000 0.625000 0.500000
-0.500000 0.500000 -0.500000 -0.616331 0.787488 0.000000 0.625000 0.750000
-0.825988 0.244864 -0.244864 -0.616331 0.787488 0.000000 0.625000 0.750000
-0.825988 0.244864 0.244864 -0.616331 0.787488 0.000000 0.625000 0.500000
-0.825988 0.244864 0.244864 0.000000 0.000000 0.000000 0.625000 0.500000
-0.825988 -0.244864 0.244864 0.000000 0.000000 0.000000 0.375000 0.500000
-0.825988 -0.244864 0.244864 0.000000 0.000000 0.000000 0.375000 0.500000
-0.825988 0.244864 0.244864 0.000000 0.000000 0.000000 0.625000 0.500000
-0.825988 -0.244864 -0.244864 0.000000 0.000000 0.000000 0.375000 0.750000
-0.825988 -0.244864 -0.244864 0.000000 0.000000 0.000000 0.375000 0.750000
-0.825988 0.244864 -0.244864 0.000000 0.000000 0.000000 0.625000 0.750000
-0.825988 0.244864 -0.244864 0.000000 0.000000 0.000000 0.625000 0.750000
-2.336205 -0.244864 0.244864 -1.000000 0.000000 0.000000 0.375000 0.500000
-2.336205 0.244864 0.244864 -1.000000 0.000000 0.000000 0.625000 0.500000
-2.336205 0.244864 -0.244864 -1.000000 0.000000 0.000000 0.625000 0.750000
-2.336205 -0.244864 -0.244864 -1.000000 0.000000 0.000000 0.375000 0.750000
-0.825988 -0.244864 -0.244864 0.000000 -1.000000 0.000000 0.375000 0.750000
-0.825988 -0.244864 0.244864 0.000000 -1.000000 0.000000 0.375000 0.500000
-2.336205 -0.244864 0.244864 0.000000 -1.000000 0.000000 0.375000 0.500000
-2.336205 -0.244864 -0.244864 0.000000 -1.000000 0.000000 0.375000 0.750000
-0.825988 0.244864 0.244864 0.000000 1.000000 0.000000 0.625000 0.500000
-0.825988 0.244864 -0.244864 0.000000 1.000000 0.000000 0.625000 0.750000
-2.336205 0.244864 -0.244864 0.000000 1.000000 0.000000 0.625000 0.750000
-2.336205 0.244864 0.244864 -0.000000 1.000000 0.000000 0.625000 0.500000
-0.825988 -0.244864 0.244864 -0.000000 0.000000 1.000000 0.375000 0.500000
-0.825988 0.244864 0.244864 -0.000000 0.000000 1.000000 0.625000 0.500000
-2.336205 0.244864 0.244864 -0.000000 0.000000 1.000000 0.625000 0.500000
-2.336205 -0.244864 0.244864 -0.000000 0.000000 1.000000 0.375000 0.500000
0.333249 1.055293 0.333249 1.000000 0.000000 -0.000000 0.833312 0.541688
0.333249 1.055293 -0.333249 1.000000 0.000000 -0.000000 0.833312 0.708312
0.333249 1.587609 -0.333249 1.000000 0.000000 -0.000000 0.833312 0.708312
0.333249 1.587609 0.333249 1.000000 0.000000 0.000000 0.833312 0.541688
-0.500000 0.500000 -0.500000 -1.000000 -0.000000 -0.000000 0.625000 0.750000
-0.500000 0.500000 0.500000 -1.000000 -0.000000 -0.000000 0.625000 0.500000
-0.500000 1.055293 0.500000 -1.000000 -0.000000 -0.000000 0.625000 0.500000
-0.500000 1.055293 -0.500000 -1.000000 -0.000000 0.000000 0.625000 0.750000
0.500000 0.500000 0.500000 1.000000 0.000000 -0.000000 0.875000 0.500000
0.500000 0.500000 -0.500000 1.000000 0.000000 -0.000000 0.875000 0.750000
0.500000 1.055293 -0.500000 1.000000 0.000000 -0.000000 0.875000 0.750000
0.500000 1.055293 0.500000 1.000000 0.000000 0.000000 0.875000 0.500000
-0.500000 1.055293 -0.500000 0.000000 0.000000 -1.000000 0.625000 0.750000
0.500000 1.055293 -0.500000 -0.000000 -0.000000 -1.000000 0.625000 1.000000
0.333249 1.055293 -0.333249 0.000000 1.000000 0.000000 0.833312 0.708312
0.333249 1.055293 0.333249 0.000000 1.000000 0.000000 0.833312 0.541688
0.500000 1.055293 0.500000 0.000000 1.000000 0.000000 0.875000 0.500000
0.500000 1.055293 -0.500000 0.000000 1.000000 -0.000000 0.875000 0.750000
-0.333249 1.055293 0.333249 -0.000000 1.000000 0.000000 0.666688 0.541688
-0.500000 1.055293 0.500000 -0.000000 1.000000 0.000000 0.625000 0.500000
-0.333249 1.055293 -0.333249 0.000000 1.000000 0.000000 0.666688 0.708312
-0.500000 1.055293 -0.500000 0.000000 1.000000 0.000000 0.625000 0.750000
-0.333249 1.587609 0.333249 0.000000 1.000000 -0.000000 0.666688 0.541688
0.333249 1.587609 0.333249 0.000000 1.000000 -0.000000 0.833312 0.541688
0.333249 1.587609 -0.333249 0.000000 1.000000 -0.000000 0.833312 0.708312
-0.333249 1.587609 -0.333249 0.000000 1.000000 -0.000000 0.666688 0.708312
0.333249 1.055293 -0.333249 0.000000 0.000000 -1.000000 0.833312 0.708312
-0.333249 1.055293 -0.333249 0.000000 0.000000 -1.000000 0.666688 0.708312
-0.333249 1.587609 -0.333249 0.000000 0.000000 -1.000000 0.666688 0.708312
0.333249 1.587609 -0.333249 -0.000000 -0.000000 -1.000000 0.833312 0.708312
-0.333249 1.055293 0.333249 0.000000 0.000000 1.000000 0.666688 0.541688
0.333249 1.055293 0.333249 0.000000 0.000000 1.000000 0.833312 0.541688
0.333249 1.587609 0.333249 0.000000 0.000000 1.000000 0.833312 0.541688
-0.333249 1.587609 0.333249 -0.000000 0.000000 1.000000 0.666688 0.541688
-0.333249 1.055293 -0.333249 -1.000000 -0.000000 -0.000000 0.666688 0.708312
-0.333249 1.055293 0.333249 -1.000000 -0.000000 -0.000000 0.666688 0.541688
-0.333249 1.587609 0.333249 -1.000000 -0.000000 -0.000000 0.666688 0.541688
-0.333249 1.587609 -0.333249 -1.000000 -0.000000 0.000000 0.666688 0.708312
3 0 1 2
3 0 2 3
3 4 5 6
3 4 6 7
3 8 9 10
3 8 10 11
3 12 13 14
3 12 14 15
3 16 17 18
3 16 18 19
3 20 21 22
3 20 22 23
3 24 25 26
3 24 26 21
3 25 27 28
3 25 28 26
3 29 24 21
3 29 21 20
3 27 29 20
3 27 20 28
3 30 31 32
3 30 32 33
3 34 35 36
3 34 36 37
3 38 39 40
3 38 40 41
3 42 43 44
3 42 44 45
3 46 47 48
3 46 48 49
3 50 51 52
3 50 52 53
3 54 55 56
3 54 56 57
3 58 59 60
3 58 60 61
3 62 63 64
3 62 64 65
3 66 67 68
3 66 68 69
3 70 71 72
3 70 72 73
3 74 75 76
3 74 76 77
3 78 79 80
3 78 80 81
3 79 82 83
3 79 83 80
3 84 78 81
3 84 81 85
3 82 84 85
3 82 85 83
3 86 87 88
3 86 88 89
3 90 91 92
3 90 92 93
3 94 95 96
3 94 96 97
3 98 99 100
3 98 100 101
3 102 103 104
3 102 104 105
3 106 107 108
3 106 108 109
3 110 111 112
3 110 112 113
3 14 13 114
3 14 114 115
3 116 117 118
3 116 118 119
3 117 120 121
3 117 121 118
3 120 122 123
3 120 123 121
3 122 116 119
3 122 119 123
3 124 125 126
3 124 126 127
3 128 129 130
3 128 130 131
3 132 133 134
3 132 134 135
3 136 137 138
3 136 138 139
