ply
format ascii 1.0
comment Created by Blender 2.80 (sub 75) - www.blender.org, source file: 'bends.blend'
element vertex 54
property float x
property float y
property float z
property float nx
property float ny
property float nz
property float s
property float t
element face 28
property list uchar uint vertex_indices
end_header
-0.500000 -0.500000 -0.500000 0.000000 -1.000000 0.000000 0.500000 0.000000
0.500000 -0.500000 -0.500000 0.000000 -1.000000 0.000000 0.625000 0.000000
0.500000 -0.500000 0.500000 0.000000 -1.000000 0.000000 0.625000 0.250000
-0.500000 -0.500000 0.500000 0.000000 -1.000000 0.000000 0.500000 0.250000
-0.500000 0.500000 0.500000 -1.000000 -0.000000 -0.000000 0.500000 0.500000
-0.500000 -0.500000 0.500000 -1.000000 -0.000000 -0.000000 0.500000 0.250000
-0.500000 -0.500000 1.500000 -1.000000 -0.000000 -0.000000 0.500000 0.250000
-0.500000 0.500000 1.500000 -1.000000 -0.000000 0.000000 0.500000 0.500000
-0.500000 0.500000 0.500000 -0.000000 1.000000 0.000000 0.500000 0.500000
0.500000 0.500000 0.500000 -0.000000 1.000000 0.000000 0.625000 0.500000
0.500000 0.500000 -0.500000 -0.000000 1.000000 0.000000 0.625000 0.750000
-0.500000 0.500000 -0.500000 -0.000000 1.000000 0.000000 0.500000 0.750000
-0.500000 0.500000 -0.500000 -0.000000 0.000000 -1.000000 0.500000 0.750000
0.500000 0.500000 -0.500000 -0.000000 0.000000 -1.000000 0.625000 0.750000
0.500000 -0.500000 -0.500000 -0.000000 0.000000 -1.000000 0.625000 1.000000
-0.500000 -0.500000 -0.500000 0.000000 0.000000 -1.000000 0.500000 1.000000
-1.500000 -0.763817 0.763817 -1.000000 0.000000 0.000000 0.125000 0.500000
-1.500000 0.763817 0.763817 -1.000000 0.000000 0.000000 0.375000 0.500000
-1.500000 0.763817 -0.763817 -1.000000 0.000000 0.000000 0.375000 0.750000
-1.500000 -0.763817 -0.763817 -1.000000 0.000000 0.000000 0.125000 0.750000
0.500000 0.500000 0.500000 1.000000 0.000000 -0.000000 0.625000 0.500000
0.500000 -0.500000 0.500000 1.000000 0.000000 -0.000000 0.875000 0.500000
0.500000 -0.500000 -0.500000 1.000000 0.000000 -0.000000 0.875000 0.750000
0.500000 0.500000 -0.500000 1.000000 0.000000 0.000000 0.625000 0.750000
-1.500000 0.763817 -0.763817 0.255089 0.000000 -0.966917 0.375000 0.750000
-0.500000 0.500000 -0.500000 0.255089 0.000000 -0.966917 0.500000 0.750000
-0.500000 -0.500000 -0.500000 0.255089 0.000000 -0.966917 0.500000 1.000000
-1.500000 0.763817 -0.763817 0.255089 0.000000 -0.966918 0.375000 0.750000
-0.500000 -0.500000 -0.500000 0.255089 0.000000 -0.966918 0.500000 1.000000
-1.500000 -0.763817 -0.763817 0.255089 0.000000 -0.966918 0.375000 1.000000
-1.500000 0.763817 0.763817 0.255089 0.966917 -0.000000 0.375000 0.500000
-0.500000 0.500000 0.500000 0.255089 0.966917 -0.000000 0.500000 0.500000
-0.500000 0.500000 -0.500000 0.255089 0.966917 -0.000000 0.500000 0.750000
-1.500000 0.763817 0.763817 0.255089 0.966918 0.000000 0.375000 0.500000
-0.500000 0.500000 -0.500000 0.255089 0.966918 0.000000 0.500000 0.750000
-1.500000 0.763817 -0.763817 0.255089 0.966918 0.000000 0.375000 0.750000
-1.500000 -0.763817 0.763817 0.255089 0.000000 0.966918 0.375000 0.250000
-0.500000 -0.500000 0.500000 0.255089 0.000000 0.966918 0.500000 0.250000
-0.500000 0.500000 0.500000 0.255089 0.000000 0.966918 0.500000 0.500000
-1.500000 0.763817 0.763817 0.255089 0.000000 0.966918 0.375000 0.500000
-1.500000 -0.763817 -0.763817 0.255089 -0.966918 0.000000 0.375000 0.000000
-0.500000 -0.500000 -0.500000 0.255089 -0.966918 0.000000 0.500000 0.000000
-0.500000 -0.500000 0.500000 0.255089 -0.966918 0.000000 0.500000 0.250000
-1.500000 -0.763817 0.763817 0.255089 -0.966918 0.000000 0.375000 0.250000
-0.500000 -0.500000 1.500000 0.000000 0.000000 1.000000 0.500000 0.250000
0.500000 -0.500000 1.500000 0.000000 0.000000 1.000000 0.625000 0.250000
0.500000 0.500000 1.500000 0.000000 0.000000 1.000000 0.625000 0.500000
-0.500000 0.500000 1.500000 -0.000000 0.000000 1.000000 0.500000 0.500000
0.500000 0.500000 1.500000 1.000000 0.000000 0.000000 0.625000 0.500000
0.500000 -0.500000 1.500000 1.000000 0.000000 0.000000 0.875000 0.500000
-0.500000 0.500000 1.500000 -0.000000 1.000000 0.000000 0.500000 0.500000
0.500000 0.500000 1.500000 -0.000000 1.000000 0.000000 0.625000 0.500000
0.500000 -0.500000 1.500000 0.000000 -1.000000 0.000000 0.625000 0.250000
-0.500000 -0.500000 1.500000 0.000000 -1.000000 0.000000 0.500000 0.250000
3 0 1 2
3 0 2 3
3 4 5 6
3 4 6 7
3 8 9 10
3 8 10 11
3 12 13 14
3 12 14 15
3 16 17 18
3 16 18 19
3 20 21 22
3 20 22 23
3 24 25 26
3 27 28 29
3 30 31 32
3 33 34 35
3 36 37 38
3 36 38 39
3 40 41 42
3 40 42 43
3 44 45 46
3 44 46 47
3 21 20 48
3 21 48 49
3 9 8 50
3 9 50 51
3 3 2 52
3 3 52 53
