ply
format ascii 1.0
comment Created by Blender 2.80 (sub 75) - www.blender.org, source file: 'bends.blend'
element vertex 44
property float x
property float y
property float z
property float nx
property float ny
property float nz
property float s
property float t
element face 28
property list uchar uint vertex_indices
end_header
-0.500000 0.500000 -0.500000 -1.000000 -0.000000 -0.000000 0.375000 0.000000
-0.500000 -0.500000 -0.500000 -1.000000 -0.000000 -0.000000 0.625000 0.000000
-0.500000 -0.500000 0.500000 -1.000000 -0.000000 -0.000000 0.625000 0.250000
-0.500000 0.500000 0.500000 -1.000000 -0.000000 0.000000 0.375000 0.250000
-0.500000 -0.500000 0.500000 0.000000 -1.000000 0.000000 0.625000 0.250000
0.500000 -0.500000 0.500000 0.000000 -1.000000 0.000000 0.625000 0.500000
0.500000 -0.500000 1.500000 0.000000 -1.000000 0.000000 0.625000 0.500000
-0.500000 -0.500000 1.500000 0.000000 -1.000000 0.000000 0.625000 0.250000
0.500000 0.500000 0.500000 1.000000 0.000000 -0.000000 0.375000 0.500000
0.500000 -0.500000 0.500000 1.000000 0.000000 -0.000000 0.625000 0.500000
0.500000 -0.500000 -0.500000 1.000000 0.000000 -0.000000 0.625000 0.750000
0.500000 0.500000 -0.500000 1.000000 0.000000 0.000000 0.375000 0.750000
0.500000 0.500000 -0.500000 0.000000 0.000000 -1.000000 0.375000 0.750000
0.500000 -0.500000 -0.500000 0.000000 0.000000 -1.000000 0.625000 0.750000
-0.500000 -0.500000 -0.500000 0.000000 0.000000 -1.000000 0.625000 1.000000
-0.500000 0.500000 -0.500000 0.000000 0.000000 -1.000000 0.375000 1.000000
-0.500000 0.500000 0.500000 -0.000000 1.000000 0.000000 0.125000 0.500000
0.500000 0.500000 0.500000 -0.000000 1.000000 0.000000 0.375000 0.500000
0.500000 0.500000 -0.500000 -0.000000 1.000000 0.000000 0.375000 0.750000
-0.500000 0.500000 -0.500000 -0.000000 1.000000 0.000000 0.125000 0.750000
0.500000 -1.500000 0.500000 1.000000 0.000000 0.000000 0.625000 0.500000
0.500000 -1.500000 -0.500000 1.000000 0.000000 -0.000000 0.625000 0.750000
0.500000 -1.500000 0.500000 0.000000 -1.000000 0.000000 0.625000 0.500000
-0.500000 -1.500000 0.500000 0.000000 -1.000000 0.000000 0.875000 0.500000
-0.500000 -1.500000 -0.500000 0.000000 -1.000000 0.000000 0.875000 0.750000
0.500000 -1.500000 -0.500000 0.000000 -1.000000 0.000000 0.625000 0.750000
-0.500000 -1.500000 -0.500000 -1.000000 -0.000000 0.000000 0.625000 0.000000
-0.500000 -1.500000 0.500000 -1.000000 -0.000000 -0.000000 0.625000 0.250000
0.500000 -1.500000 -0.500000 -0.000000 0.000000 -1.000000 0.625000 0.750000
-0.500000 -1.500000 -0.500000 0.000000 0.000000 -1.000000 0.625000 1.000000
0.500000 -0.500000 0.500000 0.000000 -0.000000 1.000000 0.625000 0.500000
-0.500000 -0.500000 0.500000 0.000000 -0.000000 1.000000 0.625000 0.250000
-0.500000 -1.500000 0.500000 0.000000 -0.000000 1.000000 0.625000 0.250000
0.500000 -1.500000 0.500000 0.000000 -0.000000 1.000000 0.625000 0.500000
-0.500000 0.500000 1.500000 0.000000 0.000000 1.000000 0.375000 0.250000
-0.500000 -0.500000 1.500000 0.000000 0.000000 1.000000 0.625000 0.250000
0.500000 -0.500000 1.500000 0.000000 0.000000 1.000000 0.625000 0.500000
0.500000 0.500000 1.500000 0.000000 0.000000 1.000000 0.375000 0.500000
-0.500000 -0.500000 1.500000 -1.000000 -0.000000 -0.000000 0.625000 0.250000
-0.500000 0.500000 1.500000 -1.000000 -0.000000 0.000000 0.375000 0.250000
0.500000 0.500000 1.500000 1.000000 0.000000 0.000000 0.375000 0.500000
0.500000 -0.500000 1.500000 1.000000 0.000000 0.000000 0.625000 0.500000
-0.500000 0.500000 1.500000 -0.000000 1.000000 0.000000 0.125000 0.500000
0.500000 0.500000 1.500000 -0.000000 1.000000 0.000000 0.375000 0.500000
3 0 1 2
3 0 2 3
3 4 5 6
3 4 6 7
3 8 9 10
3 8 10 11
3 12 13 14
3 12 14 15
3 16 17 18
3 16 18 19
3 10 9 20
3 10 20 21
3 22 23 24
3 22 24 25
3 2 1 26
3 2 26 27
3 14 13 28
3 14 28 29
3 30 31 32
3 30 32 33
3 34 35 36
3 34 36 37
3 3 2 38
3 3 38 39
3 9 8 40
3 9 40 41
3 17 16 42
3 17 42 43
