ply
format ascii 1.0
comment Created by Blender 2.80 (sub 75) - www.blender.org, source file: 'bends.blend'
element vertex 50
property float x
property float y
property float z
property float nx
property float ny
property float nz
property float s
property float t
element face 28
property list uchar uint vertex_indices
end_header
-0.500000 0.500000 0.500000 -1.000000 -0.000000 0.000000 0.500000 0.000000
-0.500000 0.500000 -0.500000 -1.000000 -0.000000 0.000000 0.625000 0.000000
-0.500000 -0.500000 -0.500000 -1.000000 -0.000000 0.000000 0.625000 0.250000
-0.500000 -0.500000 0.500000 -1.000000 -0.000000 0.000000 0.500000 0.250000
0.500000 -0.500000 0.500000 0.000000 -0.000000 1.000000 0.500000 0.500000
-0.500000 -0.500000 0.500000 0.000000 -0.000000 1.000000 0.500000 0.250000
-0.500000 -1.500000 0.499999 0.000000 -0.000000 1.000000 0.500000 0.250000
0.500000 -1.500000 0.499999 0.000000 -0.000000 1.000000 0.500000 0.500000
0.500000 -0.500000 0.500000 1.000000 0.000000 -0.000000 0.500000 0.500000
0.500000 -0.500000 -0.500000 1.000000 0.000000 -0.000000 0.625000 0.500000
0.500000 0.500000 -0.500000 1.000000 0.000000 -0.000000 0.625000 0.750000
0.500000 0.500000 0.500000 1.000000 0.000000 -0.000000 0.500000 0.750000
0.500000 0.500000 0.500000 0.000000 1.000000 0.000000 0.500000 0.750000
0.500000 0.500000 -0.500000 0.000000 1.000000 0.000000 0.625000 0.750000
-0.500000 0.500000 -0.500000 0.000000 1.000000 0.000000 0.625000 1.000000
-0.500000 0.500000 0.500000 0.000000 1.000000 0.000000 0.500000 1.000000
-0.500000 -0.500001 1.500000 0.000000 -0.000000 1.000000 0.125000 0.500000
0.500000 -0.500001 1.500000 0.000000 -0.000000 1.000000 0.375000 0.500000
0.500000 0.499999 1.500000 0.000000 -0.000000 1.000000 0.375000 0.750000
-0.500000 0.499999 1.500000 0.000000 -0.000000 1.000000 0.125000 0.750000
0.500000 -0.500000 -0.500000 -0.000000 0.000001 -1.000000 0.625000 0.500000
-0.500000 -0.500000 -0.500000 -0.000000 0.000001 -1.000000 0.875000 0.500000
-0.500000 0.500000 -0.500000 -0.000000 0.000001 -1.000000 0.875000 0.750000
0.500000 -0.500000 -0.500000 -0.000000 0.000000 -1.000000 0.625000 0.500000
-0.500000 0.500000 -0.500000 -0.000000 0.000000 -1.000000 0.875000 0.750000
0.500000 0.500000 -0.500000 -0.000000 0.000000 -1.000000 0.625000 0.750000
0.500000 0.499999 1.500000 0.000000 1.000000 0.000001 0.375000 0.750000
0.500000 0.500000 0.500000 0.000000 1.000000 0.000001 0.500000 0.750000
-0.500000 0.500000 0.500000 0.000000 1.000000 0.000001 0.500000 1.000000
-0.500000 0.499999 1.500000 0.000000 1.000000 0.000001 0.375000 1.000000
0.500000 -0.500001 1.500000 1.000000 0.000000 -0.000000 0.375000 0.500000
0.500000 0.499999 1.500000 1.000000 0.000000 -0.000000 0.375000 0.750000
-0.500000 -0.500001 1.500000 -0.000000 -1.000000 -0.000000 0.375000 0.250000
-0.500000 -0.500000 0.500000 -0.000000 -1.000000 -0.000000 0.500000 0.250000
0.500000 -0.500000 0.500000 -0.000000 -1.000000 -0.000000 0.500000 0.500000
0.500000 -0.500001 1.500000 -0.000000 -1.000000 -0.000000 0.375000 0.500000
-0.500000 0.499999 1.500000 -1.000000 -0.000000 0.000000 0.375000 0.000000
-0.500000 -0.500001 1.500000 -1.000000 -0.000000 0.000000 0.375000 0.250000
-0.500000 -1.500000 0.499999 -0.000000 -1.000000 -0.000000 0.500000 0.250000
-0.500000 -1.500000 -0.500001 -0.000000 -1.000000 -0.000000 0.625000 0.250000
0.500000 -1.500000 -0.500001 -0.000000 -1.000000 -0.000000 0.625000 0.500000
0.500000 -1.500000 0.499999 -0.000000 -1.000000 -0.000000 0.500000 0.500000
0.500000 -1.500000 -0.500001 -0.000000 0.000001 -1.000000 0.625000 0.500000
-0.500000 -0.500000 -0.500000 -0.000000 0.000000 -1.000000 0.875000 0.500000
0.500000 -1.500000 -0.500001 -0.000000 0.000000 -1.000000 0.625000 0.500000
-0.500000 -1.500000 -0.500001 -0.000000 0.000000 -1.000000 0.875000 0.500000
0.500000 -1.500000 0.499999 1.000000 0.000000 -0.000000 0.500000 0.500000
0.500000 -1.500000 -0.500001 1.000000 0.000000 -0.000000 0.625000 0.500000
-0.500000 -1.500000 -0.500001 -1.000000 -0.000000 0.000000 0.625000 0.250000
-0.500000 -1.500000 0.499999 -1.000000 -0.000000 0.000000 0.500000 0.250000
3 0 1 2
3 0 2 3
3 4 5 6
3 4 6 7
3 8 9 10
3 8 10 11
3 12 13 14
3 12 14 15
3 16 17 18
3 16 18 19
3 20 21 22
3 23 24 25
3 26 27 28
3 26 28 29
3 30 8 11
3 30 11 31
3 32 33 34
3 32 34 35
3 36 0 3
3 36 3 37
3 38 39 40
3 38 40 41
3 21 20 42
3 43 44 45
3 9 8 46
3 9 46 47
3 3 2 48
3 3 48 49
