ply
format ascii 1.0
comment Created by Blender 2.80 (sub 75) - www.blender.org, source file: 'advance_models.blend'
element vertex 372
property float x
property float y
property float z
property float nx
property float ny
property float nz
property float s
property float t
element face 160
property list uchar uint vertex_indices
end_header
-0.018601 -1.000000 0.029000 -0.309017 0.000000 0.951056 1.000000 0.500000
-0.018601 1.000000 0.029000 -0.309017 0.000000 0.951056 1.000000 1.000000
-0.035647 1.000000 0.023462 -0.309017 0.000000 0.951056 0.900000 1.000000
-0.035647 -1.000000 0.023462 -0.309017 0.000000 0.951056 0.900000 0.500000
-0.035647 -1.000000 0.023462 -0.809017 0.000000 0.587785 0.900000 0.500000
-0.035647 1.000000 0.023462 -0.809017 0.000000 0.587785 0.900000 1.000000
-0.046181 1.000000 0.008962 -0.809017 0.000000 0.587785 0.800000 1.000000
-0.046181 -1.000000 0.008962 -0.809017 0.000000 0.587785 0.800000 0.500000
-0.046181 -1.000000 0.008962 -1.000000 0.000000 0.000000 0.800000 0.500000
-0.046181 1.000000 0.008962 -1.000000 0.000000 0.000000 0.800000 1.000000
-0.046181 1.000000 -0.008961 -1.000000 0.000000 0.000000 0.700000 1.000000
-0.046181 -1.000000 -0.008961 -1.000000 0.000000 0.000000 0.700000 0.500000
-0.046181 -1.000000 -0.008961 -0.809017 -0.000000 -0.587785 0.700000 0.500000
-0.046181 1.000000 -0.008961 -0.809017 -0.000000 -0.587785 0.700000 1.000000
-0.035647 1.000000 -0.023461 -0.809017 -0.000000 -0.587785 0.600000 1.000000
-0.035647 -1.000000 -0.023461 -0.809017 0.000000 -0.587785 0.600000 0.500000
-0.035647 -1.000000 -0.023461 -0.309017 -0.000000 -0.951057 0.600000 0.500000
-0.035647 1.000000 -0.023461 -0.309017 -0.000000 -0.951057 0.600000 1.000000
-0.018601 1.000000 -0.029000 -0.309017 -0.000000 -0.951057 0.500000 1.000000
-0.018601 -1.000000 -0.029000 -0.309017 0.000000 -0.951057 0.500000 0.500000
-0.018601 -1.000000 -0.029000 0.309017 0.000000 -0.951056 0.500000 0.500000
-0.018601 1.000000 -0.029000 0.309017 0.000000 -0.951056 0.500000 1.000000
-0.001555 1.000000 -0.023461 0.309017 0.000000 -0.951056 0.400000 1.000000
-0.001555 -1.000000 -0.023461 0.309017 0.000000 -0.951056 0.400000 0.500000
-0.001555 -1.000000 -0.023461 0.809017 0.000000 -0.587785 0.400000 0.500000
-0.001555 1.000000 -0.023461 0.809017 0.000000 -0.587785 0.400000 1.000000
0.008980 1.000000 -0.008961 0.809017 0.000000 -0.587785 0.300000 1.000000
0.008980 -1.000000 -0.008961 0.809017 0.000000 -0.587785 0.300000 0.500000
0.008980 -1.000000 -0.008961 1.000000 0.000000 0.000000 0.300000 0.500000
0.008980 1.000000 -0.008961 1.000000 0.000000 0.000000 0.300000 1.000000
0.008980 1.000000 0.008962 1.000000 0.000000 0.000000 0.200000 1.000000
0.008980 -1.000000 0.008962 1.000000 -0.000000 0.000000 0.200000 0.500000
-0.046181 1.000000 0.008962 0.000000 1.000000 0.000000 0.478254 0.324164
-0.035647 1.000000 0.023462 0.000000 1.000000 0.000000 0.391068 0.444164
-0.018601 1.000000 0.029000 0.000000 1.000000 0.000000 0.250000 0.490000
-0.001555 1.000000 0.023462 0.000000 1.000000 0.000000 0.108932 0.444164
0.008980 1.000000 0.008962 0.000000 1.000000 0.000000 0.021746 0.324164
0.008980 1.000000 -0.008961 0.000000 1.000000 0.000000 0.021746 0.175836
-0.001555 1.000000 -0.023461 0.000000 1.000000 0.000000 0.108932 0.055836
-0.018601 1.000000 -0.029000 -0.000000 1.000000 0.000000 0.250000 0.010000
-0.035647 1.000000 -0.023461 -0.000000 1.000000 0.000000 0.391068 0.055836
-0.046181 1.000000 -0.008961 0.000000 1.000000 0.000000 0.478254 0.175836
0.008980 -1.000000 0.008962 0.809017 0.000000 0.587785 0.200000 0.500000
0.008980 1.000000 0.008962 0.809017 0.000000 0.587785 0.200000 1.000000
-0.001555 1.000000 0.023462 0.809017 0.000000 0.587785 0.100000 1.000000
-0.001555 -1.000000 0.023462 0.809017 -0.000000 0.587785 0.100000 0.500000
-0.001555 -1.000000 0.023462 0.309016 0.000000 0.951057 0.100000 0.500000
-0.001555 1.000000 0.023462 0.309016 0.000000 0.951057 0.100000 1.000000
-0.018601 1.000000 0.029000 0.309016 0.000000 0.951057 -0.000000 1.000000
-0.018601 -1.000000 0.029000 0.309016 -0.000000 0.951057 -0.000000 0.500000
-0.918502 -1.000000 0.029000 -0.309018 0.000000 0.951056 1.000000 0.500000
-0.918502 1.000000 0.029000 -0.309018 0.000000 0.951056 1.000000 1.000000
-0.935548 1.000000 0.023461 -0.309018 0.000000 0.951056 0.900000 1.000000
-0.935548 -1.000000 0.023461 -0.309018 0.000000 0.951056 0.900000 0.500000
-0.935548 -1.000000 0.023461 -0.809017 0.000000 0.587786 0.900000 0.500000
-0.935548 1.000000 0.023461 -0.809017 0.000000 0.587786 0.900000 1.000000
-0.946083 1.000000 0.008961 -0.809017 0.000000 0.587786 0.800000 1.000000
-0.946083 -1.000000 0.008961 -0.809017 0.000000 0.587786 0.800000 0.500000
-0.946083 -1.000000 0.008961 -1.000000 0.000000 0.000000 0.800000 0.500000
-0.946083 1.000000 0.008961 -1.000000 0.000000 0.000000 0.800000 1.000000
-0.946083 1.000000 -0.008962 -1.000000 0.000000 0.000000 0.700000 1.000000
-0.946083 -1.000000 -0.008962 -1.000000 0.000000 0.000000 0.700000 0.500000
-0.946083 -1.000000 -0.008962 -0.809017 -0.000000 -0.587786 0.700000 0.500000
-0.946083 1.000000 -0.008962 -0.809017 -0.000000 -0.587786 0.700000 1.000000
-0.935548 1.000000 -0.023462 -0.809017 -0.000000 -0.587786 0.600000 1.000000
-0.935548 -1.000000 -0.023462 -0.809017 0.000000 -0.587786 0.600000 0.500000
-0.935548 -1.000000 -0.023462 -0.309017 -0.000000 -0.951056 0.600000 0.500000
-0.935548 1.000000 -0.023462 -0.309017 -0.000000 -0.951056 0.600000 1.000000
-0.918502 1.000000 -0.029000 -0.309017 -0.000000 -0.951056 0.500000 1.000000
-0.918502 -1.000000 -0.029000 -0.309017 0.000000 -0.951056 0.500000 0.500000
-0.918502 -1.000000 -0.029000 0.309018 0.000000 -0.951056 0.500000 0.500000
-0.918502 1.000000 -0.029000 0.309018 0.000000 -0.951056 0.500000 1.000000
-0.901457 1.000000 -0.023462 0.309018 0.000000 -0.951056 0.400000 1.000000
-0.901457 -1.000000 -0.023462 0.309018 0.000000 -0.951056 0.400000 0.500000
-0.901457 -1.000000 -0.023462 0.809017 0.000000 -0.587786 0.400000 0.500000
-0.901457 1.000000 -0.023462 0.809017 0.000000 -0.587786 0.400000 1.000000
-0.890922 1.000000 -0.008962 0.809017 0.000000 -0.587786 0.300000 1.000000
-0.890922 -1.000000 -0.008962 0.809017 0.000000 -0.587786 0.300000 0.500000
-0.890922 -1.000000 -0.008962 1.000000 0.000000 0.000000 0.300000 0.500000
-0.890922 1.000000 -0.008962 1.000000 0.000000 0.000000 0.300000 1.000000
-0.890922 1.000000 0.008961 1.000000 0.000000 0.000000 0.200000 1.000000
-0.890922 -1.000000 0.008961 1.000000 -0.000000 0.000000 0.200000 0.500000
-0.946083 1.000000 0.008961 0.000000 1.000000 0.000000 0.478254 0.324164
-0.935548 1.000000 0.023461 0.000000 1.000000 0.000000 0.391068 0.444164
-0.918502 1.000000 0.029000 0.000000 1.000000 0.000000 0.250000 0.490000
-0.901457 1.000000 0.023461 0.000000 1.000000 0.000000 0.108932 0.444164
-0.890922 1.000000 0.008961 0.000000 1.000000 0.000000 0.021746 0.324164
-0.890922 1.000000 -0.008962 0.000000 1.000000 0.000000 0.021746 0.175836
-0.901457 1.000000 -0.023462 0.000000 1.000000 0.000000 0.108932 0.055836
-0.918502 1.000000 -0.029000 -0.000000 1.000000 0.000000 0.250000 0.010000
-0.935548 1.000000 -0.023462 -0.000000 1.000000 0.000000 0.391068 0.055836
-0.946083 1.000000 -0.008962 0.000000 1.000000 0.000000 0.478254 0.175836
-0.890922 -1.000000 0.008961 0.809017 0.000000 0.587786 0.200000 0.500000
-0.890922 1.000000 0.008961 0.809017 0.000000 0.587786 0.200000 1.000000
-0.901457 1.000000 0.023461 0.809017 0.000000 0.587786 0.100000 1.000000
-0.901457 -1.000000 0.023461 0.809017 -0.000000 0.587786 0.100000 0.500000
-0.901457 -1.000000 0.023461 0.309017 0.000000 0.951056 0.100000 0.500000
-0.901457 1.000000 0.023461 0.309017 0.000000 0.951056 0.100000 1.000000
-0.918502 1.000000 0.029000 0.309017 0.000000 0.951056 -0.000000 1.000000
-0.918502 -1.000000 0.029000 0.309017 -0.000000 0.951056 -0.000000 0.500000
-0.980671 1.005634 0.003106 0.000015 0.707090 -0.707123 0.478254 0.324164
-0.973406 1.012706 0.010177 0.000015 0.707090 -0.707123 0.391068 0.444164
-0.961650 1.015406 0.012878 0.000015 0.707090 -0.707123 0.250000 0.490000
-0.961650 1.015406 0.012878 -0.000015 0.707090 -0.707123 0.250000 0.490000
-0.949894 1.012706 0.010177 -0.000015 0.707090 -0.707123 0.108932 0.444164
-0.942629 1.005634 0.003106 -0.000015 0.707090 -0.707123 0.021746 0.324164
-0.942629 1.005634 0.003106 -0.000021 0.707112 -0.707102 0.021746 0.324164
-0.942629 0.996894 -0.005634 -0.000021 0.707112 -0.707102 0.021746 0.175836
-0.949894 0.989823 -0.012705 -0.000021 0.707112 -0.707102 0.108932 0.055836
-0.949894 0.989823 -0.012705 0.000000 0.707107 -0.707107 0.108932 0.055836
-0.961650 0.987122 -0.015406 0.000000 0.707107 -0.707107 0.250000 0.010000
-0.973406 0.989823 -0.012705 0.000000 0.707107 -0.707107 0.391068 0.055836
-0.973406 0.989823 -0.012705 0.000021 0.707112 -0.707102 0.391068 0.055836
-0.980671 0.996894 -0.005634 0.000021 0.707112 -0.707102 0.478254 0.175836
-0.980671 1.005634 0.003106 0.000021 0.707112 -0.707102 0.478254 0.324164
-0.980671 1.005634 0.003106 0.000000 0.707105 -0.707109 0.478254 0.324164
-0.961650 1.015406 0.012878 0.000000 0.707105 -0.707109 0.250000 0.490000
-0.942629 1.005634 0.003106 0.000000 0.707105 -0.707109 0.021746 0.324164
-0.942629 1.005634 0.003106 0.000000 0.707107 -0.707107 0.021746 0.324164
-0.980671 1.005634 0.003106 0.000000 0.707107 -0.707107 0.478254 0.324164
-0.973406 0.022883 1.000000 -0.309014 0.672499 0.672499 0.900000 0.752857
-0.961650 0.028284 1.000000 -0.309014 0.672499 0.672499 1.000000 0.753531
-0.961650 1.015406 0.012878 -0.309014 0.672499 0.672499 1.000000 1.000000
-0.973406 0.022883 1.000000 -0.309013 0.672499 0.672499 0.900000 0.752857
-0.961650 1.015406 0.012878 -0.309013 0.672499 0.672499 1.000000 1.000000
-0.973406 1.012706 0.010177 -0.309013 0.672499 0.672499 0.900000 1.000000
-0.980671 0.008741 1.000000 -0.809019 0.415625 0.415625 0.800000 0.751091
-0.973406 0.022883 1.000000 -0.809019 0.415625 0.415625 0.900000 0.752857
-0.973406 1.012706 0.010177 -0.809019 0.415625 0.415625 0.900000 1.000000
-0.980671 0.008741 1.000000 -0.809022 0.415622 0.415622 0.800000 0.751091
-0.973406 1.012706 0.010177 -0.809022 0.415622 0.415622 0.900000 1.000000
-0.980671 1.005634 0.003106 -0.809022 0.415622 0.415622 0.800000 1.000000
-0.980671 -0.008740 1.000000 -1.000000 -0.000000 -0.000000 0.700000 0.748909
-0.980671 0.008741 1.000000 -1.000000 -0.000000 -0.000000 0.800000 0.751091
-0.980671 1.005634 0.003106 -1.000000 -0.000000 -0.000000 0.800000 1.000000
-0.980671 0.996894 -0.005634 -1.000000 0.000000 -0.000000 0.700000 1.000000
-0.961650 -0.028284 1.000000 -0.309014 -0.672499 -0.672499 0.500000 0.746469
-0.973406 -0.022882 1.000000 -0.309014 -0.672499 -0.672499 0.600000 0.747143
-0.973406 0.989823 -0.012705 -0.309014 -0.672499 -0.672499 0.600000 1.000000
-0.961650 -0.028284 1.000000 -0.309019 -0.672498 -0.672498 0.500000 0.746469
-0.973406 0.989823 -0.012705 -0.309019 -0.672498 -0.672498 0.600000 1.000000
-0.961650 0.987122 -0.015406 -0.309019 -0.672498 -0.672498 0.500000 1.000000
-0.973406 -0.022882 1.000000 -0.809018 -0.415626 -0.415626 0.600000 0.747143
-0.980671 -0.008740 1.000000 -0.809018 -0.415626 -0.415626 0.700000 0.748909
-0.980671 0.996894 -0.005634 -0.809018 -0.415626 -0.415626 0.700000 1.000000
-0.973406 -0.022882 1.000000 -0.809019 -0.415625 -0.415625 0.600000 0.747143
-0.980671 0.996894 -0.005634 -0.809019 -0.415625 -0.415625 0.700000 1.000000
-0.973406 0.989823 -0.012705 -0.809019 -0.415625 -0.415625 0.600000 1.000000
-0.949895 0.022883 1.000000 0.809019 0.415625 0.415625 0.100000 0.752857
-0.942629 0.008741 1.000000 0.809019 0.415625 0.415625 0.200000 0.751091
-0.942629 1.005634 0.003106 0.809019 0.415625 0.415625 0.200000 1.000000
-0.949895 0.022883 1.000000 0.809020 0.415624 0.415624 0.100000 0.752857
-0.942629 1.005634 0.003106 0.809020 0.415624 0.415624 0.200000 1.000000
-0.949894 1.012706 0.010177 0.809020 0.415624 0.415624 0.100000 1.000000
-0.949895 -0.022882 1.000000 0.309016 -0.672499 -0.672499 0.400000 0.747143
-0.961650 -0.028284 1.000000 0.309016 -0.672499 -0.672499 0.500000 0.746469
-0.961650 0.987122 -0.015406 0.309016 -0.672499 -0.672499 0.500000 1.000000
-0.949895 -0.022882 1.000000 0.309019 -0.672498 -0.672498 0.400000 0.747143
-0.961650 0.987122 -0.015406 0.309019 -0.672498 -0.672498 0.500000 1.000000
-0.949894 0.989823 -0.012705 0.309019 -0.672498 -0.672498 0.400000 1.000000
-0.961650 0.028284 1.000000 0.309016 0.672499 0.672499 -0.000000 0.753531
-0.949895 0.022883 1.000000 0.309016 0.672499 0.672499 0.100000 0.752857
-0.949894 1.012706 0.010177 0.309016 0.672499 0.672499 0.100000 1.000000
-0.961650 0.028284 1.000000 0.309013 0.672499 0.672500 -0.000000 0.753531
-0.949894 1.012706 0.010177 0.309013 0.672499 0.672500 0.100000 1.000000
-0.961650 1.015406 0.012878 0.309013 0.672499 0.672500 -0.000000 1.000000
-0.942629 0.008741 1.000000 1.000000 0.000000 0.000000 0.200000 0.751091
-0.942629 -0.008740 1.000000 1.000000 0.000000 0.000000 0.300000 0.748909
-0.942629 0.996894 -0.005634 1.000000 0.000000 0.000000 0.300000 1.000000
-0.942629 1.005634 0.003106 1.000000 -0.000000 0.000000 0.200000 1.000000
-0.942629 -0.008740 1.000000 0.809018 -0.415626 -0.415626 0.300000 0.748909
-0.949895 -0.022882 1.000000 0.809018 -0.415626 -0.415626 0.400000 0.747143
-0.949894 0.989823 -0.012705 0.809018 -0.415626 -0.415626 0.400000 1.000000
-0.942629 -0.008740 1.000000 0.809017 -0.415628 -0.415627 0.300000 0.748909
-0.949894 0.989823 -0.012705 0.809017 -0.415628 -0.415627 0.400000 1.000000
-0.942629 0.996894 -0.005634 0.809017 -0.415628 -0.415627 0.300000 1.000000
-0.015075 0.630715 0.023280 -0.000000 0.309016 0.951057 0.100000 0.500000
-0.918536 0.630715 0.023280 -0.000000 0.309016 0.951057 0.100000 1.000000
-0.918536 0.613801 0.028775 -0.000000 0.309016 0.951057 -0.000000 1.000000
-0.015075 0.613801 0.028775 -0.000000 0.309016 0.951057 -0.000000 0.500000
0.016777 -0.281302 1.000000 -0.309013 -0.951058 0.000000 0.600000 0.500000
0.016777 -0.281302 -0.113763 -0.309013 -0.951058 0.000000 0.600000 1.000000
0.028352 -0.285063 -0.113763 -0.309013 -0.951058 0.000000 0.500000 1.000000
0.016777 -0.281302 1.000000 -0.309022 -0.951055 -0.000000 0.600000 0.500000
0.028352 -0.285063 -0.113763 -0.309022 -0.951055 -0.000000 0.500000 1.000000
0.028352 -0.285063 1.000000 -0.309022 -0.951055 -0.000000 0.500000 0.500000
0.047079 -0.271457 1.000000 1.000000 0.000000 -0.000000 0.300000 0.500000
0.047079 -0.271457 -0.113763 1.000000 0.000000 -0.000000 0.300000 1.000000
0.047079 -0.259287 -0.113763 1.000000 0.000000 -0.000000 0.200000 1.000000
0.047079 -0.259287 1.000000 1.000000 0.000000 0.000000 0.200000 0.500000
0.028352 -0.285063 1.000000 0.309016 -0.951057 0.000000 0.500000 0.500000
0.028352 -0.285063 -0.113763 0.309016 -0.951057 0.000000 0.500000 1.000000
0.039926 -0.281302 -0.113763 0.309016 -0.951057 0.000000 0.400000 1.000000
0.028352 -0.285063 1.000000 0.309023 -0.951054 0.000000 0.500000 0.500000
0.039926 -0.281302 -0.113763 0.309023 -0.951054 0.000000 0.400000 1.000000
0.039926 -0.281302 1.000000 0.309023 -0.951054 0.000000 0.400000 0.500000
0.028352 -0.245680 1.000000 -0.309023 0.951054 -0.000000 1.000000 0.500000
0.028352 -0.245680 -0.113763 -0.309023 0.951054 -0.000000 1.000000 1.000000
0.016777 -0.249441 -0.113763 -0.309023 0.951054 -0.000000 0.900000 1.000000
0.028352 -0.245680 1.000000 -0.309019 0.951056 -0.000000 1.000000 0.500000
0.016777 -0.249441 -0.113763 -0.309019 0.951056 -0.000000 0.900000 1.000000
0.016777 -0.249441 1.000000 -0.309019 0.951056 -0.000000 0.900000 0.500000
-0.015075 0.641168 0.008892 -0.000000 0.809016 0.587786 0.200000 0.500000
-0.918536 0.641168 0.008892 -0.000000 0.809016 0.587786 0.200000 1.000000
-0.918536 0.630715 0.023280 -0.000000 0.809016 0.587786 0.100000 1.000000
-0.015075 0.641168 0.008892 -0.000000 0.809020 0.587782 0.200000 0.500000
-0.918536 0.630715 0.023280 -0.000000 0.809020 0.587782 0.100000 1.000000
-0.015075 0.630715 0.023280 -0.000000 0.809020 0.587782 0.100000 0.500000
-0.015075 0.613801 0.028775 0.000000 -0.309017 0.951057 1.000000 0.500000
-0.918536 0.613801 0.028775 0.000000 -0.309017 0.951057 1.000000 1.000000
-0.918536 0.596888 0.023280 0.000000 -0.309017 0.951057 0.900000 1.000000
-0.015075 0.613801 0.028775 0.000000 -0.309015 0.951057 1.000000 0.500000
-0.918536 0.596888 0.023280 0.000000 -0.309015 0.951057 0.900000 1.000000
-0.015075 0.596888 0.023280 0.000000 -0.309015 0.951057 0.900000 0.500000
0.047079 -0.259287 1.000000 0.809017 0.587785 -0.000000 0.200000 0.500000
0.047079 -0.259287 -0.113763 0.809017 0.587785 -0.000000 0.200000 1.000000
0.039926 -0.249441 -0.113763 0.809017 0.587785 -0.000000 0.100000 1.000000
0.047079 -0.259287 1.000000 0.809016 0.587787 -0.000000 0.200000 0.500000
0.039926 -0.249441 -0.113763 0.809016 0.587787 -0.000000 0.100000 1.000000
0.039926 -0.249441 1.000000 0.809016 0.587787 -0.000000 0.100000 0.500000
-0.015075 0.586435 0.008892 0.000000 -1.000000 0.000000 0.800000 0.500000
-0.918536 0.586434 0.008892 0.000000 -1.000000 0.000000 0.800000 1.000000
-0.918536 0.586434 -0.008892 0.000000 -1.000000 0.000000 0.700000 1.000000
-0.015075 0.586435 -0.008892 0.000000 -1.000000 0.000000 0.700000 0.500000
0.016777 -0.719468 1.000000 -0.309013 -0.951058 0.000000 0.600000 0.500000
0.016777 -0.719468 -0.113763 -0.309013 -0.951058 0.000000 0.600000 1.000000
0.028352 -0.723229 -0.113763 -0.309013 -0.951058 0.000000 0.500000 1.000000
0.016777 -0.719468 1.000000 -0.309022 -0.951055 -0.000000 0.600000 0.500000
0.028352 -0.723229 -0.113763 -0.309022 -0.951055 -0.000000 0.500000 1.000000
0.028352 -0.723229 1.000000 -0.309022 -0.951055 -0.000000 0.500000 0.500000
-0.015075 0.596888 -0.023280 0.000000 -0.309016 -0.951057 0.600000 0.500000
-0.918536 0.596888 -0.023280 0.000000 -0.309016 -0.951057 0.600000 1.000000
-0.918536 0.613801 -0.028775 0.000000 -0.309016 -0.951057 0.500000 1.000000
-0.015075 0.596888 -0.023280 0.000000 -0.309015 -0.951057 0.600000 0.500000
-0.918536 0.613801 -0.028775 0.000000 -0.309015 -0.951057 0.500000 1.000000
-0.015075 0.613801 -0.028775 0.000000 -0.309015 -0.951057 0.500000 0.500000
0.009624 -0.271457 1.000000 -0.809015 -0.587788 0.000000 0.700000 0.500000
0.009624 -0.271457 -0.113763 -0.809015 -0.587788 0.000000 0.700000 1.000000
0.016777 -0.281302 -0.113763 -0.809015 -0.587788 0.000000 0.600000 1.000000
0.009624 -0.271457 1.000000 -0.809017 -0.587785 0.000000 0.700000 0.500000
0.016777 -0.281302 -0.113763 -0.809017 -0.587785 0.000000 0.600000 1.000000
0.016777 -0.281302 1.000000 -0.809017 -0.587785 0.000000 0.600000 0.500000
-0.015075 0.596888 0.023280 0.000000 -0.809020 0.587782 0.900000 0.500000
-0.918536 0.596888 0.023280 0.000000 -0.809020 0.587782 0.900000 1.000000
-0.918536 0.586434 0.008892 0.000000 -0.809020 0.587782 0.800000 1.000000
-0.015075 0.596888 0.023280 0.000000 -0.809023 0.587777 0.900000 0.500000
-0.918536 0.586434 0.008892 0.000000 -0.809023 0.587777 0.800000 1.000000
-0.015075 0.586435 0.008892 0.000000 -0.809023 0.587777 0.800000 0.500000
0.047079 -0.709622 1.000000 1.000000 0.000000 -0.000000 0.300000 0.500000
0.047079 -0.709622 -0.113763 1.000000 0.000000 -0.000000 0.300000 1.000000
0.047079 -0.697452 -0.113763 1.000000 0.000000 -0.000000 0.200000 1.000000
0.047079 -0.697452 1.000000 1.000000 0.000000 0.000000 0.200000 0.500000
-0.015075 0.613801 -0.028775 -0.000000 0.309017 -0.951056 0.500000 0.500000
-0.918536 0.613801 -0.028775 -0.000000 0.309017 -0.951056 0.500000 1.000000
-0.918536 0.630715 -0.023280 -0.000000 0.309017 -0.951056 0.400000 1.000000
-0.015075 0.630715 -0.023280 -0.000000 0.309017 -0.951056 0.400000 0.500000
0.016777 -0.249441 1.000000 -0.809015 0.587788 -0.000000 0.900000 0.500000
0.016777 -0.249441 -0.113763 -0.809015 0.587788 -0.000000 0.900000 1.000000
0.009624 -0.259287 -0.113763 -0.809015 0.587788 -0.000000 0.800000 1.000000
0.016777 -0.249441 1.000000 -0.809016 0.587787 -0.000000 0.900000 0.500000
0.009624 -0.259287 -0.113763 -0.809016 0.587787 -0.000000 0.800000 1.000000
0.009624 -0.259287 1.000000 -0.809016 0.587787 -0.000000 0.800000 0.500000
-0.015075 0.586435 -0.008892 0.000000 -0.809019 -0.587782 0.700000 0.500000
-0.918536 0.586434 -0.008892 0.000000 -0.809019 -0.587782 0.700000 1.000000
-0.918536 0.596888 -0.023280 0.000000 -0.809019 -0.587782 0.600000 1.000000
-0.015075 0.586435 -0.008892 -0.000000 -0.809023 -0.587777 0.700000 0.500000
-0.918536 0.596888 -0.023280 -0.000000 -0.809023 -0.587777 0.600000 1.000000
-0.015075 0.596888 -0.023280 -0.000000 -0.809023 -0.587777 0.600000 0.500000
0.039926 -0.281302 1.000000 0.809017 -0.587785 0.000000 0.400000 0.500000
0.039926 -0.281302 -0.113763 0.809017 -0.587785 0.000000 0.400000 1.000000
0.047079 -0.271457 -0.113763 0.809017 -0.587785 0.000000 0.300000 1.000000
0.039926 -0.281302 1.000000 0.809018 -0.587785 0.000000 0.400000 0.500000
0.047079 -0.271457 -0.113763 0.809018 -0.587785 0.000000 0.300000 1.000000
0.047079 -0.271457 1.000000 0.809018 -0.587785 0.000000 0.300000 0.500000
-0.015075 0.630715 -0.023280 -0.000000 0.809016 -0.587786 0.400000 0.500000
-0.918536 0.630715 -0.023280 -0.000000 0.809016 -0.587786 0.400000 1.000000
-0.918536 0.641168 -0.008892 -0.000000 0.809016 -0.587786 0.300000 1.000000
-0.015075 0.630715 -0.023280 0.000000 0.809019 -0.587782 0.400000 0.500000
-0.918536 0.641168 -0.008892 0.000000 0.809019 -0.587782 0.300000 1.000000
-0.015075 0.641168 -0.008892 0.000000 0.809019 -0.587782 0.300000 0.500000
0.009624 -0.259287 1.000000 -1.000000 0.000000 0.000000 0.800000 0.500000
0.009624 -0.259287 -0.113763 -1.000000 0.000000 0.000000 0.800000 1.000000
0.009624 -0.271457 -0.113763 -1.000000 0.000000 0.000000 0.700000 1.000000
0.009624 -0.271457 1.000000 -1.000000 0.000000 -0.000000 0.700000 0.500000
-0.015075 0.641168 -0.008892 -0.000000 1.000000 0.000000 0.300000 0.500000
-0.918536 0.641168 -0.008892 -0.000000 1.000000 0.000000 0.300000 1.000000
-0.918536 0.641168 0.008892 -0.000000 1.000000 0.000000 0.200000 1.000000
-0.015075 0.641168 0.008892 0.000000 1.000000 0.000000 0.200000 0.500000
0.009624 -0.259287 -0.113763 0.000001 -0.000001 -1.000000 0.478254 0.324164
0.016777 -0.249441 -0.113763 0.000001 -0.000001 -1.000000 0.391068 0.444164
0.028352 -0.245680 -0.113763 0.000001 -0.000001 -1.000000 0.250000 0.490000
0.028352 -0.245680 -0.113763 0.000000 0.000000 -1.000000 0.250000 0.490000
0.039926 -0.249441 -0.113763 0.000000 0.000000 -1.000000 0.108932 0.444164
0.047079 -0.259287 -0.113763 0.000000 0.000000 -1.000000 0.021746 0.324164
0.047079 -0.259287 -0.113763 -0.000008 0.000000 -1.000000 0.021746 0.324164
0.047079 -0.271457 -0.113763 -0.000008 0.000000 -1.000000 0.021746 0.175836
0.039926 -0.281302 -0.113763 -0.000008 0.000000 -1.000000 0.108932 0.055836
0.039926 -0.281302 -0.113763 0.000003 0.000007 -1.000000 0.108932 0.055836
0.028352 -0.285063 -0.113763 0.000003 0.000007 -1.000000 0.250000 0.010000
0.016777 -0.281302 -0.113763 0.000003 0.000007 -1.000000 0.391068 0.055836
0.016777 -0.281302 -0.113763 0.000000 0.000000 -1.000000 0.391068 0.055836
0.009624 -0.271457 -0.113763 0.000000 0.000000 -1.000000 0.478254 0.175836
0.009624 -0.259287 -0.113763 0.000000 0.000000 -1.000000 0.478254 0.324164
0.047079 -0.259287 -0.113763 0.000003 -0.000004 -1.000000 0.021746 0.324164
0.039926 -0.281302 -0.113763 0.000003 -0.000004 -1.000000 0.108932 0.055836
0.016777 -0.281302 -0.113763 0.000003 -0.000004 -1.000000 0.391068 0.055836
0.016777 -0.687607 1.000000 -0.809017 0.587786 -0.000000 0.900000 0.500000
0.016777 -0.687607 -0.113763 -0.809017 0.587786 -0.000000 0.900000 1.000000
0.009624 -0.697452 -0.113763 -0.809017 0.587786 -0.000000 0.800000 1.000000
0.016777 -0.687607 1.000000 -0.809017 0.587785 -0.000000 0.900000 0.500000
0.009624 -0.697452 -0.113763 -0.809017 0.587785 -0.000000 0.800000 1.000000
0.009624 -0.697452 1.000000 -0.809017 0.587785 -0.000000 0.800000 0.500000
0.009624 -0.697452 -0.113763 0.000001 -0.000001 -1.000000 0.478254 0.324164
0.016777 -0.687607 -0.113763 0.000001 -0.000001 -1.000000 0.391068 0.444164
0.028352 -0.683846 -0.113763 0.000001 -0.000001 -1.000000 0.250000 0.490000
0.028352 -0.683846 -0.113763 0.000000 0.000000 -1.000000 0.250000 0.490000
0.039926 -0.687607 -0.113763 0.000000 0.000000 -1.000000 0.108932 0.444164
0.047079 -0.697452 -0.113763 0.000000 0.000000 -1.000000 0.021746 0.324164
0.047079 -0.709622 -0.113763 0.000000 0.000000 -1.000000 0.021746 0.175836
0.039926 -0.719468 -0.113763 0.000000 0.000000 -1.000000 0.108932 0.055836
0.039926 -0.719468 -0.113763 0.000000 -0.000001 -1.000000 0.108932 0.055836
0.028352 -0.723229 -0.113763 0.000000 -0.000001 -1.000000 0.250000 0.010000
0.016777 -0.719468 -0.113763 0.000000 -0.000001 -1.000000 0.391068 0.055836
0.016777 -0.719468 -0.113763 0.000000 0.000000 -1.000000 0.391068 0.055836
0.009624 -0.709622 -0.113763 0.000000 0.000000 -1.000000 0.478254 0.175836
0.009624 -0.697452 -0.113763 0.000000 0.000000 -1.000000 0.478254 0.324164
0.047079 -0.697452 1.000000 0.809017 0.587786 -0.000000 0.200000 0.500000
0.047079 -0.697452 -0.113763 0.809017 0.587786 -0.000000 0.200000 1.000000
0.039926 -0.687607 -0.113763 0.809017 0.587786 -0.000000 0.100000 1.000000
0.047079 -0.697452 1.000000 0.809015 0.587788 -0.000000 0.200000 0.500000
0.039926 -0.687607 -0.113763 0.809015 0.587788 -0.000000 0.100000 1.000000
0.039926 -0.687607 1.000000 0.809015 0.587788 -0.000000 0.100000 0.500000
0.039926 -0.687607 1.000000 0.309019 0.951056 -0.000000 0.100000 0.500000
0.039926 -0.687607 -0.113763 0.309019 0.951056 -0.000000 0.100000 1.000000
0.028352 -0.683846 -0.113763 0.309019 0.951056 -0.000000 -0.000000 1.000000
0.039926 -0.687607 1.000000 0.309013 0.951058 0.000000 0.100000 0.500000
0.028352 -0.683846 -0.113763 0.309013 0.951058 0.000000 -0.000000 1.000000
0.028352 -0.683846 1.000000 0.309013 0.951058 0.000000 -0.000000 0.500000
0.039926 -0.719468 1.000000 0.809017 -0.587786 0.000000 0.400000 0.500000
0.039926 -0.719468 -0.113763 0.809017 -0.587786 0.000000 0.400000 1.000000
0.047079 -0.709622 -0.113763 0.809017 -0.587786 0.000000 0.300000 1.000000
0.039926 -0.719468 1.000000 0.809015 -0.587788 0.000000 0.400000 0.500000
0.047079 -0.709622 -0.113763 0.809015 -0.587788 0.000000 0.300000 1.000000
0.047079 -0.709622 1.000000 0.809015 -0.587788 0.000000 0.300000 0.500000
0.009624 -0.709622 1.000000 -0.809017 -0.587786 0.000000 0.700000 0.500000
0.009624 -0.709622 -0.113763 -0.809017 -0.587786 0.000000 0.700000 1.000000
0.016777 -0.719468 -0.113763 -0.809017 -0.587786 0.000000 0.600000 1.000000
0.009624 -0.709622 1.000000 -0.809017 -0.587785 0.000000 0.700000 0.500000
0.016777 -0.719468 -0.113763 -0.809017 -0.587785 0.000000 0.600000 1.000000
0.016777 -0.719468 1.000000 -0.809017 -0.587785 0.000000 0.600000 0.500000
0.028352 -0.683846 1.000000 -0.309019 0.951056 -0.000000 1.000000 0.500000
0.028352 -0.683846 -0.113763 -0.309019 0.951056 -0.000000 1.000000 1.000000
0.016777 -0.687607 -0.113763 -0.309019 0.951056 -0.000000 0.900000 1.000000
0.028352 -0.683846 1.000000 -0.309015 0.951057 -0.000000 1.000000 0.500000
0.016777 -0.687607 -0.113763 -0.309015 0.951057 -0.000000 0.900000 1.000000
0.016777 -0.687607 1.000000 -0.309015 0.951057 -0.000000 0.900000 0.500000
0.028352 -0.723229 1.000000 0.309016 -0.951057 0.000000 0.500000 0.500000
0.028352 -0.723229 -0.113763 0.309016 -0.951057 0.000000 0.500000 1.000000
0.039926 -0.719468 -0.113763 0.309016 -0.951057 0.000000 0.400000 1.000000
0.028352 -0.723229 1.000000 0.309023 -0.951054 0.000000 0.500000 0.500000
0.039926 -0.719468 -0.113763 0.309023 -0.951054 0.000000 0.400000 1.000000
0.039926 -0.719468 1.000000 0.309023 -0.951054 0.000000 0.400000 0.500000
0.009624 -0.697452 1.000000 -1.000000 0.000000 0.000000 0.800000 0.500000
0.009624 -0.697452 -0.113763 -1.000000 0.000000 0.000000 0.800000 1.000000
0.009624 -0.709622 -0.113763 -1.000000 0.000000 0.000000 0.700000 1.000000
0.009624 -0.709622 1.000000 -1.000000 0.000000 -0.000000 0.700000 0.500000
0.039926 -0.249441 1.000000 0.309023 0.951054 -0.000000 0.100000 0.500000
0.039926 -0.249441 -0.113763 0.309023 0.951054 -0.000000 0.100000 1.000000
0.028352 -0.245680 -0.113763 0.309023 0.951054 -0.000000 -0.000000 1.000000
0.039926 -0.249441 1.000000 0.309018 0.951056 0.000000 0.100000 0.500000
0.028352 -0.245680 -0.113763 0.309018 0.951056 0.000000 -0.000000 1.000000
0.028352 -0.245680 1.000000 0.309018 0.951056 0.000000 -0.000000 0.500000
3 0 1 2
3 0 2 3
3 4 5 6
3 4 6 7
3 8 9 10
3 8 10 11
3 12 13 14
3 12 14 15
3 16 17 18
3 16 18 19
3 20 21 22
3 20 22 23
3 24 25 26
3 24 26 27
3 28 29 30
3 28 30 31
3 32 33 34
3 34 35 36
3 36 37 38
3 38 39 40
3 40 41 32
3 32 34 36
3 36 38 40
3 36 40 32
3 42 43 44
3 42 44 45
3 46 47 48
3 46 48 49
3 50 51 52
3 50 52 53
3 54 55 56
3 54 56 57
3 58 59 60
3 58 60 61
3 62 63 64
3 62 64 65
3 66 67 68
3 66 68 69
3 70 71 72
3 70 72 73
3 74 75 76
3 74 76 77
3 78 79 80
3 78 80 81
3 82 83 84
3 84 85 86
3 86 87 88
3 88 89 90
3 90 91 82
3 82 84 86
3 86 88 90
3 86 90 82
3 92 93 94
3 92 94 95
3 96 97 98
3 96 98 99
3 100 101 102
3 103 104 105
3 106 107 108
3 109 110 111
3 112 113 114
3 115 116 117
3 118 109 111
3 118 111 119
3 120 121 122
3 123 124 125
3 126 127 128
3 129 130 131
3 132 133 134
3 132 134 135
3 136 137 138
3 139 140 141
3 142 143 144
3 145 146 147
3 148 149 150
3 151 152 153
3 154 155 156
3 157 158 159
3 160 161 162
3 163 164 165
3 166 167 168
3 166 168 169
3 170 171 172
3 173 174 175
3 176 177 178
3 176 178 179
3 180 181 182
3 183 184 185
3 186 187 188
3 186 188 189
3 190 191 192
3 193 194 195
3 196 197 198
3 199 200 201
3 202 203 204
3 205 206 207
3 208 209 210
3 211 212 213
3 214 215 216
3 217 218 219
3 220 221 222
3 220 222 223
3 224 225 226
3 227 228 229
3 230 231 232
3 233 234 235
3 236 237 238
3 239 240 241
3 242 243 244
3 245 246 247
3 248 249 250
3 248 250 251
3 252 253 254
3 252 254 255
3 256 257 258
3 259 260 261
3 262 263 264
3 265 266 267
3 268 269 270
3 271 272 273
3 274 275 276
3 277 278 279
3 280 281 282
3 280 282 283
3 284 285 286
3 284 286 287
3 288 289 290
3 291 292 293
3 294 295 296
3 297 298 299
3 300 301 302
3 302 291 293
3 303 304 305
3 293 300 302
3 306 307 308
3 309 310 311
3 312 313 314
3 315 316 317
3 317 318 319
3 320 321 322
3 323 324 325
3 325 315 317
3 317 319 323
3 317 323 325
3 326 327 328
3 329 330 331
3 332 333 334
3 335 336 337
3 338 339 340
3 341 342 343
3 344 345 346
3 347 348 349
3 350 351 352
3 353 354 355
3 356 357 358
3 359 360 361
3 362 363 364
3 362 364 365
3 366 367 368
3 369 370 371
