ply
format ascii 1.0
comment Created by Blender 2.80 (sub 75) - www.blender.org, source file: 'advance_models.blend'
element vertex 440
property float x
property float y
property float z
property float nx
property float ny
property float nz
property float s
property float t
element face 192
property list uchar uint vertex_indices
end_header
-0.015075 0.630715 0.023280 -0.000000 0.309016 0.951057 0.100000 0.500000
-0.918536 0.630715 0.023280 -0.000000 0.309016 0.951057 0.100000 1.000000
-0.918536 0.613801 0.028775 -0.000000 0.309016 0.951057 -0.000000 1.000000
-0.015075 0.613801 0.028775 -0.000000 0.309016 0.951057 -0.000000 0.500000
-0.015075 0.641168 0.008892 -0.000000 0.809016 0.587786 0.200000 0.500000
-0.918536 0.641168 0.008892 -0.000000 0.809016 0.587786 0.200000 1.000000
-0.918536 0.630715 0.023280 -0.000000 0.809016 0.587786 0.100000 1.000000
-0.015075 0.641168 0.008892 -0.000000 0.809020 0.587782 0.200000 0.500000
-0.918536 0.630715 0.023280 -0.000000 0.809020 0.587782 0.100000 1.000000
-0.015075 0.630715 0.023280 -0.000000 0.809020 0.587782 0.100000 0.500000
-0.015075 0.613801 0.028775 0.000000 -0.309017 0.951057 1.000000 0.500000
-0.918536 0.613801 0.028775 0.000000 -0.309017 0.951057 1.000000 1.000000
-0.918536 0.596888 0.023280 0.000000 -0.309017 0.951057 0.900000 1.000000
-0.015075 0.613801 0.028775 0.000000 -0.309015 0.951057 1.000000 0.500000
-0.918536 0.596888 0.023280 0.000000 -0.309015 0.951057 0.900000 1.000000
-0.015075 0.596888 0.023280 0.000000 -0.309015 0.951057 0.900000 0.500000
-0.015075 0.586435 0.008892 0.000000 -1.000000 0.000000 0.800000 0.500000
-0.918536 0.586434 0.008892 0.000000 -1.000000 0.000000 0.800000 1.000000
-0.918536 0.586434 -0.008892 0.000000 -1.000000 0.000000 0.700000 1.000000
-0.015075 0.586435 -0.008892 0.000000 -1.000000 0.000000 0.700000 0.500000
-0.015075 0.596888 -0.023280 0.000000 -0.309016 -0.951057 0.600000 0.500000
-0.918536 0.596888 -0.023280 0.000000 -0.309016 -0.951057 0.600000 1.000000
-0.918536 0.613801 -0.028775 0.000000 -0.309016 -0.951057 0.500000 1.000000
-0.015075 0.596888 -0.023280 0.000000 -0.309015 -0.951057 0.600000 0.500000
-0.918536 0.613801 -0.028775 0.000000 -0.309015 -0.951057 0.500000 1.000000
-0.015075 0.613801 -0.028775 0.000000 -0.309015 -0.951057 0.500000 0.500000
-0.015075 0.596888 0.023280 0.000000 -0.809020 0.587782 0.900000 0.500000
-0.918536 0.596888 0.023280 0.000000 -0.809020 0.587782 0.900000 1.000000
-0.918536 0.586434 0.008892 0.000000 -0.809020 0.587782 0.800000 1.000000
-0.015075 0.596888 0.023280 0.000000 -0.809023 0.587777 0.900000 0.500000
-0.918536 0.586434 0.008892 0.000000 -0.809023 0.587777 0.800000 1.000000
-0.015075 0.586435 0.008892 0.000000 -0.809023 0.587777 0.800000 0.500000
-0.015075 0.613801 -0.028775 -0.000000 0.309017 -0.951056 0.500000 0.500000
-0.918536 0.613801 -0.028775 -0.000000 0.309017 -0.951056 0.500000 1.000000
-0.918536 0.630715 -0.023280 -0.000000 0.309017 -0.951056 0.400000 1.000000
-0.015075 0.630715 -0.023280 -0.000000 0.309017 -0.951056 0.400000 0.500000
-0.015075 0.586435 -0.008892 0.000000 -0.809019 -0.587782 0.700000 0.500000
-0.918536 0.586434 -0.008892 0.000000 -0.809019 -0.587782 0.700000 1.000000
-0.918536 0.596888 -0.023280 0.000000 -0.809019 -0.587782 0.600000 1.000000
-0.015075 0.586435 -0.008892 -0.000000 -0.809023 -0.587777 0.700000 0.500000
-0.918536 0.596888 -0.023280 -0.000000 -0.809023 -0.587777 0.600000 1.000000
-0.015075 0.596888 -0.023280 -0.000000 -0.809023 -0.587777 0.600000 0.500000
-0.015075 0.630715 -0.023280 -0.000000 0.809016 -0.587786 0.400000 0.500000
-0.918536 0.630715 -0.023280 -0.000000 0.809016 -0.587786 0.400000 1.000000
-0.918536 0.641168 -0.008892 -0.000000 0.809016 -0.587786 0.300000 1.000000
-0.015075 0.630715 -0.023280 0.000000 0.809019 -0.587782 0.400000 0.500000
-0.918536 0.641168 -0.008892 0.000000 0.809019 -0.587782 0.300000 1.000000
-0.015075 0.641168 -0.008892 0.000000 0.809019 -0.587782 0.300000 0.500000
-0.015075 0.641168 -0.008892 -0.000000 1.000000 0.000000 0.300000 0.500000
-0.918536 0.641168 -0.008892 -0.000000 1.000000 0.000000 0.300000 1.000000
-0.918536 0.641168 0.008892 -0.000000 1.000000 0.000000 0.200000 1.000000
-0.015075 0.641168 0.008892 0.000000 1.000000 0.000000 0.200000 0.500000
-0.018601 -1.000000 0.029000 -0.309017 0.000000 0.951056 1.000000 0.500000
-0.018601 1.000000 0.029000 -0.309017 0.000000 0.951056 1.000000 1.000000
-0.035647 1.000000 0.023461 -0.309017 0.000000 0.951056 0.900000 1.000000
-0.035647 -1.000000 0.023461 -0.309017 0.000000 0.951056 0.900000 0.500000
-0.035647 -1.000000 0.023461 -0.809018 0.000000 0.587784 0.900000 0.500000
-0.035647 1.000000 0.023461 -0.809018 0.000000 0.587784 0.900000 1.000000
-0.046182 1.000000 0.008961 -0.809018 0.000000 0.587784 0.800000 1.000000
-0.046182 -1.000000 0.008961 -0.809018 0.000000 0.587784 0.800000 0.500000
-0.046182 -1.000000 0.008961 -1.000000 0.000000 0.000000 0.800000 0.500000
-0.046182 1.000000 0.008961 -1.000000 0.000000 0.000000 0.800000 1.000000
-0.046182 1.000000 -0.008961 -1.000000 0.000000 0.000000 0.700000 1.000000
-0.046182 -1.000000 -0.008961 -1.000000 0.000000 0.000000 0.700000 0.500000
-0.046182 -1.000000 -0.008961 -0.809018 -0.000000 -0.587784 0.700000 0.500000
-0.046182 1.000000 -0.008961 -0.809018 -0.000000 -0.587784 0.700000 1.000000
-0.035647 1.000000 -0.023461 -0.809018 -0.000000 -0.587784 0.600000 1.000000
-0.035647 -1.000000 -0.023461 -0.809018 0.000000 -0.587784 0.600000 0.500000
-0.035647 -1.000000 -0.023461 -0.309017 -0.000000 -0.951056 0.600000 0.500000
-0.035647 1.000000 -0.023461 -0.309017 -0.000000 -0.951056 0.600000 1.000000
-0.018601 1.000000 -0.029000 -0.309017 -0.000000 -0.951056 0.500000 1.000000
-0.018601 -1.000000 -0.029000 -0.309017 0.000000 -0.951056 0.500000 0.500000
-0.018601 -1.000000 -0.029000 0.309017 0.000000 -0.951057 0.500000 0.500000
-0.018601 1.000000 -0.029000 0.309017 0.000000 -0.951057 0.500000 1.000000
-0.001555 1.000000 -0.023461 0.309017 0.000000 -0.951057 0.400000 1.000000
-0.001555 -1.000000 -0.023461 0.309017 0.000000 -0.951057 0.400000 0.500000
-0.001555 -1.000000 -0.023461 0.809017 0.000000 -0.587785 0.400000 0.500000
-0.001555 1.000000 -0.023461 0.809017 0.000000 -0.587785 0.400000 1.000000
0.008980 1.000000 -0.008961 0.809017 0.000000 -0.587785 0.300000 1.000000
0.008980 -1.000000 -0.008961 0.809017 0.000000 -0.587785 0.300000 0.500000
0.008980 -1.000000 -0.008961 1.000000 0.000000 0.000000 0.300000 0.500000
0.008980 1.000000 -0.008961 1.000000 0.000000 0.000000 0.300000 1.000000
0.008980 1.000000 0.008961 1.000000 0.000000 0.000000 0.200000 1.000000
0.008980 -1.000000 0.008961 1.000000 -0.000000 0.000000 0.200000 0.500000
-0.046182 1.000000 0.008961 0.000000 1.000000 0.000000 0.478254 0.324164
-0.035647 1.000000 0.023461 0.000000 1.000000 0.000000 0.391068 0.444164
-0.018601 1.000000 0.029000 0.000000 1.000000 0.000000 0.250000 0.490000
-0.001555 1.000000 0.023462 0.000000 1.000000 0.000000 0.108932 0.444164
0.008980 1.000000 0.008961 0.000000 1.000000 0.000000 0.021746 0.324164
0.008980 1.000000 -0.008961 0.000000 1.000000 0.000000 0.021746 0.175836
-0.001555 1.000000 -0.023461 0.000000 1.000000 0.000000 0.108932 0.055836
-0.018601 1.000000 -0.029000 -0.000000 1.000000 0.000000 0.250000 0.010000
-0.035647 1.000000 -0.023461 -0.000000 1.000000 0.000000 0.391068 0.055836
-0.046182 1.000000 -0.008961 0.000000 1.000000 0.000000 0.478254 0.175836
0.008980 -1.000000 0.008961 0.809017 0.000000 0.587785 0.200000 0.500000
0.008980 1.000000 0.008961 0.809017 0.000000 0.587785 0.200000 1.000000
-0.001555 1.000000 0.023462 0.809017 0.000000 0.587785 0.100000 1.000000
-0.001555 -1.000000 0.023462 0.809017 -0.000000 0.587785 0.100000 0.500000
-0.001555 -1.000000 0.023462 0.309016 0.000000 0.951057 0.100000 0.500000
-0.001555 1.000000 0.023462 0.309016 0.000000 0.951057 0.100000 1.000000
-0.018601 1.000000 0.029000 0.309016 0.000000 0.951057 -0.000000 1.000000
-0.018601 -1.000000 0.029000 0.309016 -0.000000 0.951057 -0.000000 0.500000
-0.918502 -1.000000 0.029000 -0.309018 0.000000 0.951056 1.000000 0.500000
-0.918502 1.000000 0.029000 -0.309018 0.000000 0.951056 1.000000 1.000000
-0.935548 1.000000 0.023461 -0.309018 0.000000 0.951056 0.900000 1.000000
-0.935548 -1.000000 0.023461 -0.309018 0.000000 0.951056 0.900000 0.500000
-0.935548 -1.000000 0.023461 -0.809018 0.000000 0.587784 0.900000 0.500000
-0.935548 1.000000 0.023461 -0.809018 0.000000 0.587784 0.900000 1.000000
-0.946083 1.000000 0.008961 -0.809018 0.000000 0.587784 0.800000 1.000000
-0.946083 -1.000000 0.008961 -0.809018 0.000000 0.587784 0.800000 0.500000
-0.946083 -1.000000 0.008961 -1.000000 0.000000 0.000000 0.800000 0.500000
-0.946083 1.000000 0.008961 -1.000000 0.000000 0.000000 0.800000 1.000000
-0.946083 1.000000 -0.008961 -1.000000 0.000000 0.000000 0.700000 1.000000
-0.946083 -1.000000 -0.008961 -1.000000 0.000000 0.000000 0.700000 0.500000
-0.946083 -1.000000 -0.008961 -0.809018 -0.000000 -0.587784 0.700000 0.500000
-0.946083 1.000000 -0.008961 -0.809018 -0.000000 -0.587784 0.700000 1.000000
-0.935548 1.000000 -0.023461 -0.809018 -0.000000 -0.587784 0.600000 1.000000
-0.935548 -1.000000 -0.023461 -0.809018 0.000000 -0.587784 0.600000 0.500000
-0.935548 -1.000000 -0.023461 -0.309018 -0.000000 -0.951056 0.600000 0.500000
-0.935548 1.000000 -0.023461 -0.309018 -0.000000 -0.951056 0.600000 1.000000
-0.918502 1.000000 -0.029000 -0.309018 -0.000000 -0.951056 0.500000 1.000000
-0.918502 -1.000000 -0.029000 -0.309018 0.000000 -0.951056 0.500000 0.500000
-0.918502 -1.000000 -0.029000 0.309017 0.000000 -0.951057 0.500000 0.500000
-0.918502 1.000000 -0.029000 0.309017 0.000000 -0.951057 0.500000 1.000000
-0.901457 1.000000 -0.023461 0.309017 0.000000 -0.951057 0.400000 1.000000
-0.901457 -1.000000 -0.023461 0.309017 0.000000 -0.951057 0.400000 0.500000
-0.901457 -1.000000 -0.023461 0.809018 0.000000 -0.587784 0.400000 0.500000
-0.901457 1.000000 -0.023461 0.809018 0.000000 -0.587784 0.400000 1.000000
-0.890922 1.000000 -0.008961 0.809018 0.000000 -0.587784 0.300000 1.000000
-0.890922 -1.000000 -0.008961 0.809018 0.000000 -0.587784 0.300000 0.500000
-0.890922 -1.000000 -0.008961 1.000000 0.000000 0.000000 0.300000 0.500000
-0.890922 1.000000 -0.008961 1.000000 0.000000 0.000000 0.300000 1.000000
-0.890922 1.000000 0.008961 1.000000 0.000000 0.000000 0.200000 1.000000
-0.890922 -1.000000 0.008961 1.000000 -0.000000 0.000000 0.200000 0.500000
-0.946083 1.000000 0.008961 0.000000 1.000000 0.000000 0.478254 0.324164
-0.935548 1.000000 0.023461 0.000000 1.000000 0.000000 0.391068 0.444164
-0.918502 1.000000 0.029000 0.000000 1.000000 0.000000 0.250000 0.490000
-0.901457 1.000000 0.023462 0.000000 1.000000 0.000000 0.108932 0.444164
-0.890922 1.000000 0.008961 0.000000 1.000000 0.000000 0.021746 0.324164
-0.890922 1.000000 -0.008961 0.000000 1.000000 0.000000 0.021746 0.175836
-0.901457 1.000000 -0.023461 0.000000 1.000000 0.000000 0.108932 0.055836
-0.918502 1.000000 -0.029000 -0.000000 1.000000 0.000000 0.250000 0.010000
-0.935548 1.000000 -0.023461 -0.000000 1.000000 0.000000 0.391068 0.055836
-0.946083 1.000000 -0.008961 0.000000 1.000000 0.000000 0.478254 0.175836
-0.890922 -1.000000 0.008961 0.809018 0.000000 0.587784 0.200000 0.500000
-0.890922 1.000000 0.008961 0.809018 0.000000 0.587784 0.200000 1.000000
-0.901457 1.000000 0.023462 0.809018 0.000000 0.587784 0.100000 1.000000
-0.901457 -1.000000 0.023462 0.809018 -0.000000 0.587784 0.100000 0.500000
-0.901457 -1.000000 0.023462 0.309016 0.000000 0.951057 0.100000 0.500000
-0.901457 1.000000 0.023462 0.309016 0.000000 0.951057 0.100000 1.000000
-0.918502 1.000000 0.029000 0.309016 0.000000 0.951057 -0.000000 1.000000
-0.918502 -1.000000 0.029000 0.309016 -0.000000 0.951057 -0.000000 0.500000
-0.980671 1.005634 0.003106 0.000034 0.707081 -0.707133 0.478254 0.324164
-0.973406 1.012706 0.010177 0.000034 0.707081 -0.707133 0.391068 0.444164
-0.961650 1.015406 0.012878 0.000034 0.707081 -0.707133 0.250000 0.490000
-0.961650 1.015406 0.012878 -0.000034 0.707081 -0.707133 0.250000 0.490000
-0.949894 1.012706 0.010177 -0.000034 0.707081 -0.707133 0.108932 0.444164
-0.942629 1.005634 0.003106 -0.000034 0.707081 -0.707133 0.021746 0.324164
-0.942629 1.005634 0.003106 0.000000 0.707107 -0.707107 0.021746 0.324164
-0.942629 0.996894 -0.005634 0.000000 0.707107 -0.707107 0.021746 0.175836
-0.949894 0.989823 -0.012705 0.000000 0.707107 -0.707107 0.108932 0.055836
-0.949894 0.989823 -0.012705 0.000000 0.707091 -0.707123 0.108932 0.055836
-0.961650 0.987122 -0.015406 0.000000 0.707091 -0.707123 0.250000 0.010000
-0.973406 0.989823 -0.012705 0.000000 0.707091 -0.707123 0.391068 0.055836
-0.973406 0.989823 -0.012705 0.000000 0.707107 -0.707107 0.391068 0.055836
-0.980671 0.996894 -0.005634 0.000000 0.707107 -0.707107 0.478254 0.175836
-0.980671 1.005634 0.003106 0.000000 0.707107 -0.707107 0.478254 0.324164
-0.980671 1.005634 0.003106 0.000000 0.707113 -0.707100 0.478254 0.324164
-0.961650 1.015406 0.012878 0.000000 0.707113 -0.707100 0.250000 0.490000
-0.942629 1.005634 0.003106 0.000000 0.707113 -0.707100 0.021746 0.324164
-0.973406 0.022883 1.000000 -0.309016 0.672499 0.672499 0.900000 0.752857
-0.961650 0.028284 1.000000 -0.309016 0.672499 0.672499 1.000000 0.753531
-0.961650 1.015406 0.012878 -0.309016 0.672499 0.672499 1.000000 1.000000
-0.973406 0.022883 1.000000 -0.308999 0.672503 0.672503 0.900000 0.752857
-0.961650 1.015406 0.012878 -0.308999 0.672503 0.672503 1.000000 1.000000
-0.973406 1.012706 0.010177 -0.308999 0.672503 0.672503 0.900000 1.000000
-0.980671 0.008741 1.000000 -0.809016 0.415627 0.415627 0.800000 0.751091
-0.973406 0.022883 1.000000 -0.809016 0.415627 0.415627 0.900000 0.752857
-0.973406 1.012706 0.010177 -0.809016 0.415627 0.415627 0.900000 1.000000
-0.980671 0.008741 1.000000 -0.809022 0.415622 0.415622 0.800000 0.751091
-0.973406 1.012706 0.010177 -0.809022 0.415622 0.415622 0.900000 1.000000
-0.980671 1.005634 0.003106 -0.809022 0.415622 0.415622 0.800000 1.000000
-0.980671 -0.008740 1.000000 -1.000000 -0.000000 -0.000000 0.700000 0.748909
-0.980671 0.008741 1.000000 -1.000000 -0.000000 -0.000000 0.800000 0.751091
-0.980671 1.005634 0.003106 -1.000000 -0.000000 -0.000000 0.800000 1.000000
-0.980671 0.996894 -0.005634 -1.000000 0.000000 -0.000000 0.700000 1.000000
-0.961650 -0.028284 1.000000 -0.309016 -0.672499 -0.672499 0.500000 0.746469
-0.973406 -0.022882 1.000000 -0.309016 -0.672499 -0.672499 0.600000 0.747143
-0.973406 0.989823 -0.012705 -0.309016 -0.672499 -0.672499 0.600000 1.000000
-0.961650 -0.028284 1.000000 -0.309024 -0.672497 -0.672497 0.500000 0.746469
-0.973406 0.989823 -0.012705 -0.309024 -0.672497 -0.672497 0.600000 1.000000
-0.961650 0.987122 -0.015406 -0.309024 -0.672497 -0.672497 0.500000 1.000000
-0.973406 -0.022882 1.000000 -0.809015 -0.415629 -0.415629 0.600000 0.747143
-0.980671 -0.008740 1.000000 -0.809015 -0.415629 -0.415629 0.700000 0.748909
-0.980671 0.996894 -0.005634 -0.809015 -0.415629 -0.415629 0.700000 1.000000
-0.973406 -0.022882 1.000000 -0.809016 -0.415627 -0.415627 0.600000 0.747143
-0.980671 0.996894 -0.005634 -0.809016 -0.415627 -0.415627 0.700000 1.000000
-0.973406 0.989823 -0.012705 -0.809016 -0.415627 -0.415627 0.600000 1.000000
-0.949894 0.022883 1.000000 0.809019 0.415625 0.415625 0.100000 0.752857
-0.942629 0.008741 1.000000 0.809019 0.415625 0.415625 0.200000 0.751091
-0.942629 1.005634 0.003106 0.809019 0.415625 0.415625 0.200000 1.000000
-0.949894 0.022883 1.000000 0.809025 0.415619 0.415620 0.100000 0.752857
-0.942629 1.005634 0.003106 0.809025 0.415619 0.415620 0.200000 1.000000
-0.949894 1.012706 0.010177 0.809025 0.415619 0.415620 0.100000 1.000000
-0.949894 -0.022882 1.000000 0.309016 -0.672499 -0.672499 0.400000 0.747143
-0.961650 -0.028284 1.000000 0.309016 -0.672499 -0.672499 0.500000 0.746469
-0.961650 0.987122 -0.015406 0.309016 -0.672499 -0.672499 0.500000 1.000000
-0.949894 -0.022882 1.000000 0.309025 -0.672497 -0.672497 0.400000 0.747143
-0.961650 0.987122 -0.015406 0.309025 -0.672497 -0.672497 0.500000 1.000000
-0.949894 0.989823 -0.012705 0.309025 -0.672497 -0.672497 0.400000 1.000000
-0.961650 0.028284 1.000000 0.309016 0.672499 0.672499 -0.000000 0.753531
-0.949894 0.022883 1.000000 0.309016 0.672499 0.672499 0.100000 0.752857
-0.949894 1.012706 0.010177 0.309016 0.672499 0.672499 0.100000 1.000000
-0.961650 0.028284 1.000000 0.309000 0.672502 0.672502 -0.000000 0.753531
-0.949894 1.012706 0.010177 0.309000 0.672502 0.672502 0.100000 1.000000
-0.961650 1.015406 0.012878 0.309000 0.672502 0.672502 -0.000000 1.000000
-0.942629 0.008741 1.000000 1.000000 -0.000000 -0.000000 0.200000 0.751091
-0.942629 -0.008740 1.000000 1.000000 -0.000000 -0.000000 0.300000 0.748909
-0.942629 0.996894 -0.005634 1.000000 -0.000000 -0.000000 0.300000 1.000000
-0.942629 1.005634 0.003106 1.000000 0.000000 0.000000 0.200000 1.000000
-0.942629 -0.008740 1.000000 0.809018 -0.415626 -0.415626 0.300000 0.748909
-0.949894 -0.022882 1.000000 0.809018 -0.415626 -0.415626 0.400000 0.747143
-0.949894 0.989823 -0.012705 0.809018 -0.415626 -0.415626 0.400000 1.000000
-0.942629 -0.008740 1.000000 0.809019 -0.415625 -0.415625 0.300000 0.748909
-0.949894 0.989823 -0.012705 0.809019 -0.415625 -0.415625 0.400000 1.000000
-0.942629 0.996894 -0.005634 0.809019 -0.415625 -0.415625 0.300000 1.000000
-0.961650 -0.987122 0.015406 -0.309016 0.672499 0.672499 1.000000 0.500000
-0.961650 0.028284 -1.000000 -0.309016 0.672499 0.672499 1.000000 0.753531
-0.973406 0.022883 -1.000000 -0.309016 0.672499 0.672499 0.900000 0.752857
-0.961650 -0.987122 0.015406 -0.309025 0.672497 0.672497 1.000000 0.500000
-0.973406 0.022883 -1.000000 -0.309025 0.672497 0.672497 0.900000 0.752857
-0.973406 -0.989823 0.012705 -0.309025 0.672497 0.672497 0.900000 0.500000
-0.973406 -0.989823 0.012705 -0.809018 0.415626 0.415626 0.900000 0.500000
-0.973406 0.022883 -1.000000 -0.809018 0.415626 0.415626 0.900000 0.752857
-0.980671 0.008741 -1.000000 -0.809018 0.415626 0.415626 0.800000 0.751091
-0.973406 -0.989823 0.012705 -0.809015 0.415628 0.415628 0.900000 0.500000
-0.980671 0.008741 -1.000000 -0.809015 0.415628 0.415628 0.800000 0.751091
-0.980671 -0.996894 0.005634 -0.809015 0.415628 0.415628 0.800000 0.500000
-0.980671 -0.996894 0.005634 -1.000000 0.000000 0.000000 0.800000 0.500000
-0.980671 0.008741 -1.000000 -1.000000 0.000000 0.000000 0.800000 0.751091
-0.980671 -0.008740 -1.000000 -1.000000 0.000000 0.000000 0.700000 0.748909
-0.980671 -1.005634 -0.003106 -1.000000 0.000000 0.000000 0.700000 0.500000
-0.980671 -1.005634 -0.003106 -0.809017 -0.415627 -0.415627 0.700000 0.500000
-0.980671 -0.008740 -1.000000 -0.809017 -0.415627 -0.415627 0.700000 0.748909
-0.973406 -0.022882 -1.000000 -0.809017 -0.415627 -0.415627 0.600000 0.747143
-0.973406 -1.012705 -0.010177 -0.809017 -0.415627 -0.415627 0.600000 0.500000
-0.973406 -1.012705 -0.010177 -0.309016 -0.672499 -0.672499 0.600000 0.500000
-0.973406 -0.022882 -1.000000 -0.309016 -0.672499 -0.672499 0.600000 0.747143
-0.961650 -0.028284 -1.000000 -0.309016 -0.672499 -0.672499 0.500000 0.746469
-0.973406 -1.012705 -0.010177 -0.309024 -0.672497 -0.672497 0.600000 0.500000
-0.961650 -0.028284 -1.000000 -0.309024 -0.672497 -0.672497 0.500000 0.746469
-0.961650 -1.015406 -0.012878 -0.309024 -0.672497 -0.672497 0.500000 0.500000
-0.961650 -1.015406 -0.012878 0.309016 -0.672499 -0.672499 0.500000 0.500000
-0.961650 -0.028284 -1.000000 0.309016 -0.672499 -0.672499 0.500000 0.746469
-0.949894 -0.022882 -1.000000 0.309016 -0.672499 -0.672499 0.400000 0.747143
-0.961650 -1.015406 -0.012878 0.309026 -0.672496 -0.672496 0.500000 0.500000
-0.949894 -0.022882 -1.000000 0.309026 -0.672496 -0.672496 0.400000 0.747143
-0.949894 -1.012705 -0.010177 0.309026 -0.672496 -0.672496 0.400000 0.500000
-0.949894 -1.012705 -0.010177 0.809019 -0.415625 -0.415625 0.400000 0.500000
-0.949894 -0.022882 -1.000000 0.809019 -0.415625 -0.415625 0.400000 0.747143
-0.942629 -0.008740 -1.000000 0.809019 -0.415625 -0.415625 0.300000 0.748909
-0.949894 -1.012705 -0.010177 0.809021 -0.415623 -0.415623 0.400000 0.500000
-0.942629 -0.008740 -1.000000 0.809021 -0.415623 -0.415623 0.300000 0.748909
-0.942629 -1.005634 -0.003106 0.809021 -0.415623 -0.415623 0.300000 0.500000
-0.942629 -1.005634 -0.003106 1.000000 0.000000 0.000000 0.300000 0.500000
-0.942629 -0.008740 -1.000000 1.000000 0.000000 0.000000 0.300000 0.748909
-0.942629 0.008741 -1.000000 1.000000 0.000000 0.000000 0.200000 0.751091
-0.942629 -0.996894 0.005634 1.000000 -0.000000 0.000000 0.200000 0.500000
-0.942629 -0.996894 0.005634 0.809020 0.415624 0.415624 0.200000 0.500000
-0.942629 0.008741 -1.000000 0.809020 0.415624 0.415624 0.200000 0.751091
-0.949894 0.022883 -1.000000 0.809020 0.415624 0.415624 0.100000 0.752857
-0.949894 -0.989823 0.012705 0.809020 0.415624 0.415624 0.100000 0.500000
-0.949894 -0.989823 0.012705 0.309016 0.672499 0.672499 0.100000 0.500000
-0.949894 0.022883 -1.000000 0.309016 0.672499 0.672499 0.100000 0.752857
-0.961650 0.028284 -1.000000 0.309016 0.672499 0.672499 -0.000000 0.753531
-0.949894 -0.989823 0.012705 0.309018 0.672498 0.672498 0.100000 0.500000
-0.961650 0.028284 -1.000000 0.309018 0.672498 0.672498 -0.000000 0.753531
-0.961650 -0.987122 0.015406 0.309018 0.672498 0.672498 -0.000000 0.500000
-0.949894 -0.989823 0.012705 0.000000 -0.707099 0.707115 0.608932 0.444164
-0.961650 -0.987122 0.015406 0.000000 -0.707099 0.707115 0.750000 0.490000
-0.973406 -0.989823 0.012705 0.000000 -0.707099 0.707115 0.891068 0.444164
-0.973406 -0.989823 0.012705 0.000005 -0.707109 0.707104 0.891068 0.444164
-0.980671 -0.996894 0.005634 0.000005 -0.707109 0.707104 0.978254 0.324164
-0.980671 -1.005634 -0.003106 0.000005 -0.707109 0.707104 0.978254 0.175836
-0.980671 -1.005634 -0.003106 -0.000011 -0.707115 0.707098 0.978254 0.175836
-0.973406 -1.012705 -0.010177 -0.000011 -0.707115 0.707098 0.891068 0.055836
-0.961650 -1.015406 -0.012878 -0.000011 -0.707115 0.707098 0.750000 0.010000
-0.961650 -1.015406 -0.012878 0.000011 -0.707115 0.707098 0.750000 0.010000
-0.949894 -1.012705 -0.010177 0.000011 -0.707115 0.707098 0.608932 0.055836
-0.942629 -1.005634 -0.003106 0.000011 -0.707115 0.707098 0.521746 0.175836
-0.942629 -1.005634 -0.003106 -0.000005 -0.707109 0.707104 0.521746 0.175836
-0.942629 -0.996894 0.005634 -0.000005 -0.707109 0.707104 0.521746 0.324164
-0.949894 -0.989823 0.012705 -0.000005 -0.707109 0.707104 0.608932 0.444164
-0.949894 -0.989823 0.012705 0.000000 -0.707108 0.707105 0.608932 0.444164
-0.973406 -0.989823 0.012705 0.000000 -0.707108 0.707105 0.891068 0.444164
-0.980671 -1.005634 -0.003106 0.000000 -0.707108 0.707105 0.978254 0.175836
-0.980671 -1.005634 -0.003106 0.000000 -0.707105 0.707109 0.978254 0.175836
-0.961650 -1.015406 -0.012878 0.000000 -0.707105 0.707109 0.750000 0.010000
-0.942629 -1.005634 -0.003106 0.000000 -0.707105 0.707109 0.521746 0.175836
-0.942629 -1.005634 -0.003106 0.000000 -0.707108 0.707105 0.521746 0.175836
-0.015075 0.913230 0.023280 -0.000000 0.309016 0.951057 0.100000 0.500000
-0.918536 0.913230 0.023280 -0.000000 0.309016 0.951057 0.100000 1.000000
-0.918536 0.896316 0.028775 -0.000000 0.309016 0.951057 -0.000000 1.000000
-0.015075 0.896316 0.028775 -0.000000 0.309016 0.951057 -0.000000 0.500000
-0.015075 0.923683 0.008892 -0.000000 0.809016 0.587786 0.200000 0.500000
-0.918536 0.923683 0.008892 -0.000000 0.809016 0.587786 0.200000 1.000000
-0.918536 0.913230 0.023280 -0.000000 0.809016 0.587786 0.100000 1.000000
-0.015075 0.923683 0.008892 -0.000000 0.809020 0.587782 0.200000 0.500000
-0.918536 0.913230 0.023280 -0.000000 0.809020 0.587782 0.100000 1.000000
-0.015075 0.913230 0.023280 -0.000000 0.809020 0.587782 0.100000 0.500000
-0.015075 0.896316 0.028775 0.000000 -0.309017 0.951057 1.000000 0.500000
-0.918536 0.896316 0.028775 0.000000 -0.309017 0.951057 1.000000 1.000000
-0.918536 0.879402 0.023280 0.000000 -0.309017 0.951057 0.900000 1.000000
-0.015075 0.896316 0.028775 0.000000 -0.309015 0.951057 1.000000 0.500000
-0.918536 0.879402 0.023280 0.000000 -0.309015 0.951057 0.900000 1.000000
-0.015075 0.879402 0.023280 0.000000 -0.309015 0.951057 0.900000 0.500000
-0.015075 0.868949 0.008892 0.000000 -1.000000 0.000000 0.800000 0.500000
-0.918536 0.868949 0.008892 0.000000 -1.000000 0.000000 0.800000 1.000000
-0.918536 0.868949 -0.008892 0.000000 -1.000000 0.000000 0.700000 1.000000
-0.015075 0.868949 -0.008892 0.000000 -1.000000 0.000000 0.700000 0.500000
-0.015075 0.879402 -0.023280 0.000000 -0.309016 -0.951057 0.600000 0.500000
-0.918536 0.879402 -0.023280 0.000000 -0.309016 -0.951057 0.600000 1.000000
-0.918536 0.896316 -0.028775 0.000000 -0.309016 -0.951057 0.500000 1.000000
-0.015075 0.879402 -0.023280 0.000000 -0.309015 -0.951057 0.600000 0.500000
-0.918536 0.896316 -0.028775 0.000000 -0.309015 -0.951057 0.500000 1.000000
-0.015075 0.896316 -0.028775 0.000000 -0.309015 -0.951057 0.500000 0.500000
-0.015075 0.879402 0.023280 0.000000 -0.809016 0.587786 0.900000 0.500000
-0.918536 0.879402 0.023280 0.000000 -0.809016 0.587786 0.900000 1.000000
-0.918536 0.868949 0.008892 0.000000 -0.809016 0.587786 0.800000 1.000000
-0.015075 0.879402 0.023280 0.000000 -0.809023 0.587777 0.900000 0.500000
-0.918536 0.868949 0.008892 0.000000 -0.809023 0.587777 0.800000 1.000000
-0.015075 0.868949 0.008892 0.000000 -0.809023 0.587777 0.800000 0.500000
-0.015075 0.896316 -0.028775 -0.000000 0.309017 -0.951056 0.500000 0.500000
-0.918536 0.896316 -0.028775 -0.000000 0.309017 -0.951056 0.500000 1.000000
-0.918536 0.913230 -0.023280 -0.000000 0.309017 -0.951056 0.400000 1.000000
-0.015075 0.913230 -0.023280 -0.000000 0.309017 -0.951056 0.400000 0.500000
-0.015075 0.868949 -0.008892 0.000000 -0.809016 -0.587786 0.700000 0.500000
-0.918536 0.868949 -0.008892 0.000000 -0.809016 -0.587786 0.700000 1.000000
-0.918536 0.879402 -0.023280 0.000000 -0.809016 -0.587786 0.600000 1.000000
-0.015075 0.868949 -0.008892 -0.000000 -0.809023 -0.587777 0.700000 0.500000
-0.918536 0.879402 -0.023280 -0.000000 -0.809023 -0.587777 0.600000 1.000000
-0.015075 0.879402 -0.023280 -0.000000 -0.809023 -0.587777 0.600000 0.500000
-0.015075 0.913230 -0.023280 -0.000000 0.809016 -0.587786 0.400000 0.500000
-0.918536 0.913230 -0.023280 -0.000000 0.809016 -0.587786 0.400000 1.000000
-0.918536 0.923683 -0.008892 -0.000000 0.809016 -0.587786 0.300000 1.000000
-0.015075 0.913230 -0.023280 0.000000 0.809019 -0.587782 0.400000 0.500000
-0.918536 0.923683 -0.008892 0.000000 0.809019 -0.587782 0.300000 1.000000
-0.015075 0.923683 -0.008892 0.000000 0.809019 -0.587782 0.300000 0.500000
-0.015075 0.923683 -0.008892 -0.000000 1.000000 0.000000 0.300000 0.500000
-0.918536 0.923683 -0.008892 -0.000000 1.000000 0.000000 0.300000 1.000000
-0.918536 0.923683 0.008892 -0.000000 1.000000 0.000000 0.200000 1.000000
-0.015075 0.923683 0.008892 0.000000 1.000000 0.000000 0.200000 0.500000
0.039926 -0.281302 1.000000 0.309023 -0.951054 0.000000 0.000000 0.000000
0.028352 -0.285063 1.000000 0.309023 -0.951054 0.000000 0.000000 0.000000
0.028352 -0.285063 -1.000000 0.309023 -0.951054 0.000000 0.000000 0.000000
0.039926 -0.281302 -1.000000 0.309023 -0.951054 0.000000 0.000000 0.000000
0.009624 -0.271457 1.000000 -1.000000 0.000000 0.000000 0.000000 0.000000
0.009624 -0.259287 1.000000 -1.000000 0.000000 0.000000 0.000000 0.000000
0.009624 -0.259287 -1.000000 -1.000000 0.000000 0.000000 0.000000 0.000000
0.009624 -0.271457 -1.000000 -1.000000 0.000000 0.000000 0.000000 0.000000
0.028352 -0.285063 1.000000 -0.309022 -0.951055 0.000000 0.000000 0.000000
0.016777 -0.281302 1.000000 -0.309022 -0.951055 0.000000 0.000000 0.000000
0.016777 -0.281302 -1.000000 -0.309022 -0.951055 0.000000 0.000000 0.000000
0.028352 -0.285063 -1.000000 -0.309022 -0.951055 0.000000 0.000000 0.000000
0.009624 -0.259287 1.000000 -0.809016 0.587787 0.000000 0.000000 0.000000
0.016777 -0.249441 1.000000 -0.809016 0.587787 0.000000 0.000000 0.000000
0.016777 -0.249441 -1.000000 -0.809016 0.587787 0.000000 0.000000 0.000000
0.009624 -0.259287 -1.000000 -0.809016 0.587787 0.000000 0.000000 0.000000
0.047079 -0.259287 1.000000 1.000000 0.000000 0.000000 0.000000 0.000000
0.047079 -0.271457 1.000000 1.000000 0.000000 0.000000 0.000000 0.000000
0.047079 -0.271457 -1.000000 1.000000 0.000000 0.000000 0.000000 0.000000
0.047079 -0.259287 -1.000000 1.000000 0.000000 -0.000000 0.000000 0.000000
0.009624 -0.709622 1.000000 -1.000000 0.000000 0.000000 0.000000 0.000000
0.009624 -0.697452 1.000000 -1.000000 0.000000 0.000000 0.000000 0.000000
0.009624 -0.697452 -1.000000 -1.000000 0.000000 0.000000 0.000000 0.000000
0.009624 -0.709622 -1.000000 -1.000000 0.000000 0.000000 0.000000 0.000000
0.047079 -0.271457 1.000000 0.809017 -0.587785 0.000000 0.000000 0.000000
0.039926 -0.281302 1.000000 0.809017 -0.587785 0.000000 0.000000 0.000000
0.039926 -0.281302 -1.000000 0.809017 -0.587785 0.000000 0.000000 0.000000
0.047079 -0.271457 -1.000000 0.809017 -0.587785 0.000000 0.000000 0.000000
0.039926 -0.719468 1.000000 0.309023 -0.951054 -0.000000 0.000000 0.000000
0.028352 -0.723229 1.000000 0.309023 -0.951054 -0.000000 0.000000 0.000000
0.028352 -0.723229 -1.000000 0.309023 -0.951054 -0.000000 0.000000 0.000000
0.039926 -0.719468 1.000000 0.309019 -0.951056 0.000000 0.000000 0.000000
0.028352 -0.723229 -1.000000 0.309019 -0.951056 0.000000 0.000000 0.000000
0.039926 -0.719468 -1.000000 0.309019 -0.951056 0.000000 0.000000 0.000000
0.016777 -0.281302 1.000000 -0.809017 -0.587785 0.000000 0.000000 0.000000
0.009624 -0.271457 1.000000 -0.809017 -0.587785 0.000000 0.000000 0.000000
0.009624 -0.271457 -1.000000 -0.809017 -0.587785 0.000000 0.000000 0.000000
0.016777 -0.281302 -1.000000 -0.809017 -0.587785 0.000000 0.000000 0.000000
0.028352 -0.245680 1.000000 0.309018 0.951056 -0.000000 0.000000 0.000000
0.039926 -0.249441 1.000000 0.309018 0.951056 -0.000000 0.000000 0.000000
0.039926 -0.249441 -1.000000 0.309018 0.951056 -0.000000 0.000000 0.000000
0.028352 -0.245680 -1.000000 0.309018 0.951056 0.000000 0.000000 0.000000
0.016777 -0.249441 1.000000 -0.309019 0.951056 0.000000 0.000000 0.000000
0.028352 -0.245680 1.000000 -0.309019 0.951056 0.000000 0.000000 0.000000
0.028352 -0.245680 -1.000000 -0.309019 0.951056 0.000000 0.000000 0.000000
0.016777 -0.249441 -1.000000 -0.309019 0.951056 0.000000 0.000000 0.000000
0.028352 -0.723229 1.000000 -0.309022 -0.951055 0.000000 0.000000 0.000000
0.016777 -0.719468 1.000000 -0.309022 -0.951055 0.000000 0.000000 0.000000
0.016777 -0.719468 -1.000000 -0.309022 -0.951055 0.000000 0.000000 0.000000
0.028352 -0.723229 1.000000 -0.309018 -0.951056 -0.000000 0.000000 0.000000
0.016777 -0.719468 -1.000000 -0.309018 -0.951056 -0.000000 0.000000 0.000000
0.028352 -0.723229 -1.000000 -0.309018 -0.951056 -0.000000 0.000000 0.000000
0.016777 -0.687607 1.000000 -0.309015 0.951057 0.000000 0.000000 0.000000
0.028352 -0.683846 1.000000 -0.309015 0.951057 0.000000 0.000000 0.000000
0.028352 -0.683846 -1.000000 -0.309015 0.951057 0.000000 0.000000 0.000000
0.016777 -0.687607 1.000000 -0.309019 0.951056 -0.000000 0.000000 0.000000
0.028352 -0.683846 -1.000000 -0.309019 0.951056 -0.000000 0.000000 0.000000
0.016777 -0.687607 -1.000000 -0.309019 0.951056 -0.000000 0.000000 0.000000
0.028352 -0.683846 1.000000 0.309013 0.951058 -0.000000 0.000000 0.000000
0.039926 -0.687607 1.000000 0.309013 0.951058 -0.000000 0.000000 0.000000
0.039926 -0.687607 -1.000000 0.309013 0.951058 -0.000000 0.000000 0.000000
0.028352 -0.683846 1.000000 0.309018 0.951056 0.000000 0.000000 0.000000
0.039926 -0.687607 -1.000000 0.309018 0.951056 0.000000 0.000000 0.000000
0.028352 -0.683846 -1.000000 0.309018 0.951056 0.000000 0.000000 0.000000
0.039926 -0.687607 1.000000 0.809015 0.587788 -0.000000 0.000000 0.000000
0.047079 -0.697452 1.000000 0.809015 0.587788 -0.000000 0.000000 0.000000
0.047079 -0.697452 -1.000000 0.809015 0.587788 -0.000000 0.000000 0.000000
0.039926 -0.687607 -1.000000 0.809015 0.587788 -0.000000 0.000000 0.000000
0.009624 -0.697452 1.000000 -0.809017 0.587785 -0.000000 0.000000 0.000000
0.016777 -0.687607 1.000000 -0.809017 0.587785 -0.000000 0.000000 0.000000
0.016777 -0.687607 -1.000000 -0.809017 0.587785 -0.000000 0.000000 0.000000
0.009624 -0.697452 -1.000000 -0.809017 0.587785 -0.000000 0.000000 0.000000
0.047079 -0.709622 1.000000 0.809015 -0.587788 0.000000 0.000000 0.000000
0.039926 -0.719468 1.000000 0.809015 -0.587788 0.000000 0.000000 0.000000
0.039926 -0.719468 -1.000000 0.809015 -0.587788 0.000000 0.000000 0.000000
0.047079 -0.709622 -1.000000 0.809015 -0.587788 0.000000 0.000000 0.000000
0.016777 -0.719468 1.000000 -0.809017 -0.587785 0.000000 0.000000 0.000000
0.009624 -0.709622 1.000000 -0.809017 -0.587785 0.000000 0.000000 0.000000
0.009624 -0.709622 -1.000000 -0.809017 -0.587785 0.000000 0.000000 0.000000
0.016777 -0.719468 -1.000000 -0.809017 -0.587785 0.000000 0.000000 0.000000
0.047079 -0.697452 1.000000 1.000000 0.000000 0.000000 0.000000 0.000000
0.047079 -0.709622 1.000000 1.000000 0.000000 0.000000 0.000000 0.000000
0.047079 -0.709622 -1.000000 1.000000 0.000000 0.000000 0.000000 0.000000
0.047079 -0.697452 -1.000000 1.000000 0.000000 -0.000000 0.000000 0.000000
0.039926 -0.249441 1.000000 0.809016 0.587787 -0.000000 0.000000 0.000000
0.047079 -0.259287 1.000000 0.809016 0.587787 -0.000000 0.000000 0.000000
0.047079 -0.259287 -1.000000 0.809016 0.587787 -0.000000 0.000000 0.000000
0.039926 -0.249441 -1.000000 0.809016 0.587787 0.000000 0.000000 0.000000
3 0 1 2
3 0 2 3
3 4 5 6
3 7 8 9
3 10 11 12
3 13 14 15
3 16 17 18
3 16 18 19
3 20 21 22
3 23 24 25
3 26 27 28
3 29 30 31
3 32 33 34
3 32 34 35
3 36 37 38
3 39 40 41
3 42 43 44
3 45 46 47
3 48 49 50
3 48 50 51
3 52 53 54
3 52 54 55
3 56 57 58
3 56 58 59
3 60 61 62
3 60 62 63
3 64 65 66
3 64 66 67
3 68 69 70
3 68 70 71
3 72 73 74
3 72 74 75
3 76 77 78
3 76 78 79
3 80 81 82
3 80 82 83
3 84 85 86
3 86 87 88
3 88 89 90
3 90 91 92
3 92 93 84
3 84 86 88
3 88 90 92
3 88 92 84
3 94 95 96
3 94 96 97
3 98 99 100
3 98 100 101
3 102 103 104
3 102 104 105
3 106 107 108
3 106 108 109
3 110 111 112
3 110 112 113
3 114 115 116
3 114 116 117
3 118 119 120
3 118 120 121
3 122 123 124
3 122 124 125
3 126 127 128
3 126 128 129
3 130 131 132
3 130 132 133
3 134 135 136
3 136 137 138
3 138 139 140
3 140 141 142
3 142 143 134
3 134 136 138
3 138 140 142
3 138 142 134
3 144 145 146
3 144 146 147
3 148 149 150
3 148 150 151
3 152 153 154
3 155 156 157
3 158 159 160
3 161 162 163
3 164 165 166
3 167 168 169
3 158 160 164
3 158 164 166
3 170 171 172
3 173 174 175
3 176 177 178
3 179 180 181
3 182 183 184
3 182 184 185
3 186 187 188
3 189 190 191
3 192 193 194
3 195 196 197
3 198 199 200
3 201 202 203
3 204 205 206
3 207 208 209
3 210 211 212
3 213 214 215
3 216 217 218
3 216 218 219
3 220 221 222
3 223 224 225
3 226 227 228
3 229 230 231
3 232 233 234
3 235 236 237
3 238 239 240
3 238 240 241
3 242 243 244
3 242 244 245
3 246 247 248
3 249 250 251
3 252 253 254
3 255 256 257
3 258 259 260
3 261 262 263
3 264 265 266
3 264 266 267
3 268 269 270
3 268 270 271
3 272 273 274
3 275 276 277
3 278 279 280
3 281 282 283
3 284 285 286
3 287 288 289
3 290 291 292
3 293 294 295
3 296 297 298
3 295 299 293
3 300 301 302
3 300 302 303
3 304 305 306
3 307 308 309
3 310 311 312
3 313 314 315
3 316 317 318
3 316 318 319
3 320 321 322
3 323 324 325
3 326 327 328
3 329 330 331
3 332 333 334
3 332 334 335
3 336 337 338
3 339 340 341
3 342 343 344
3 345 346 347
3 348 349 350
3 348 350 351
3 352 353 354
3 352 354 355
3 356 357 358
3 356 358 359
3 360 361 362
3 360 362 363
3 364 365 366
3 364 366 367
3 368 369 370
3 368 370 371
3 372 373 374
3 372 374 375
3 376 377 378
3 376 378 379
3 380 381 382
3 383 384 385
3 386 387 388
3 386 388 389
3 390 391 392
3 390 392 393
3 394 395 396
3 394 396 397
3 398 399 400
3 401 402 403
3 404 405 406
3 407 408 409
3 410 411 412
3 413 414 415
3 416 417 418
3 416 418 419
3 420 421 422
3 420 422 423
3 424 425 426
3 424 426 427
3 428 429 430
3 428 430 431
3 432 433 434
3 432 434 435
3 436 437 438
3 436 438 439
