ply
format ascii 1.0
comment Created by Blender 2.80 (sub 75) - www.blender.org, source file: 'advance_models.blend'
element vertex 374
property float x
property float y
property float z
property float nx
property float ny
property float nz
property float s
property float t
element face 160
property list uchar uint vertex_indices
end_header
-0.018601 -1.000000 0.029000 -0.309016 0.000000 0.951057 1.000000 0.500000
-0.018601 1.000000 0.029000 -0.309016 0.000000 0.951057 1.000000 1.000000
-0.035647 1.000000 0.023461 -0.309016 0.000000 0.951057 0.900000 1.000000
-0.035647 -1.000000 0.023461 -0.309016 0.000000 0.951057 0.900000 0.500000
-0.035647 -1.000000 0.023461 -0.809016 0.000000 0.587786 0.900000 0.500000
-0.035647 1.000000 0.023461 -0.809016 0.000000 0.587786 0.900000 1.000000
-0.046181 1.000000 0.008961 -0.809016 0.000000 0.587786 0.800000 1.000000
-0.046181 -1.000000 0.008961 -0.809016 0.000000 0.587786 0.800000 0.500000
-0.046181 -1.000000 0.008961 -1.000000 0.000000 0.000000 0.800000 0.500000
-0.046181 1.000000 0.008961 -1.000000 0.000000 0.000000 0.800000 1.000000
-0.046181 1.000000 -0.008962 -1.000000 0.000000 0.000000 0.700000 1.000000
-0.046181 -1.000000 -0.008962 -1.000000 0.000000 0.000000 0.700000 0.500000
-0.046181 -1.000000 -0.008962 -0.809018 -0.000000 -0.587783 0.700000 0.500000
-0.046181 1.000000 -0.008962 -0.809018 -0.000000 -0.587783 0.700000 1.000000
-0.035647 1.000000 -0.023462 -0.809018 -0.000000 -0.587783 0.600000 1.000000
-0.035647 -1.000000 -0.023462 -0.809018 0.000000 -0.587783 0.600000 0.500000
-0.035647 -1.000000 -0.023462 -0.309018 -0.000000 -0.951056 0.600000 0.500000
-0.035647 1.000000 -0.023462 -0.309018 -0.000000 -0.951056 0.600000 1.000000
-0.018601 1.000000 -0.029000 -0.309018 -0.000000 -0.951056 0.500000 1.000000
-0.018601 -1.000000 -0.029000 -0.309018 0.000000 -0.951056 0.500000 0.500000
-0.018601 -1.000000 -0.029000 0.309016 0.000000 -0.951057 0.500000 0.500000
-0.018601 1.000000 -0.029000 0.309016 0.000000 -0.951057 0.500000 1.000000
-0.001555 1.000000 -0.023462 0.309016 0.000000 -0.951057 0.400000 1.000000
-0.001555 -1.000000 -0.023462 0.309016 0.000000 -0.951057 0.400000 0.500000
-0.001555 -1.000000 -0.023462 0.809016 0.000000 -0.587786 0.400000 0.500000
-0.001555 1.000000 -0.023462 0.809016 0.000000 -0.587786 0.400000 1.000000
0.008980 1.000000 -0.008962 0.809016 0.000000 -0.587786 0.300000 1.000000
0.008980 -1.000000 -0.008962 0.809016 0.000000 -0.587786 0.300000 0.500000
0.008980 -1.000000 -0.008962 1.000000 0.000000 0.000000 0.300000 0.500000
0.008980 1.000000 -0.008962 1.000000 0.000000 0.000000 0.300000 1.000000
0.008980 1.000000 0.008961 1.000000 0.000000 0.000000 0.200000 1.000000
0.008980 -1.000000 0.008961 1.000000 -0.000000 0.000000 0.200000 0.500000
-0.046181 1.000000 0.008961 0.000000 1.000000 0.000000 0.478254 0.324164
-0.035647 1.000000 0.023461 0.000000 1.000000 0.000000 0.391068 0.444164
-0.018601 1.000000 0.029000 0.000000 1.000000 0.000000 0.250000 0.490000
-0.001555 1.000000 0.023461 0.000000 1.000000 0.000000 0.108932 0.444164
0.008980 1.000000 0.008961 0.000000 1.000000 0.000000 0.021746 0.324164
0.008980 1.000000 -0.008962 0.000000 1.000000 0.000000 0.021746 0.175836
-0.001555 1.000000 -0.023462 0.000000 1.000000 0.000000 0.108932 0.055836
-0.018601 1.000000 -0.029000 -0.000000 1.000000 0.000000 0.250000 0.010000
-0.035647 1.000000 -0.023462 -0.000000 1.000000 0.000000 0.391068 0.055836
-0.046181 1.000000 -0.008962 0.000000 1.000000 0.000000 0.478254 0.175836
0.008980 -1.000000 0.008961 0.809018 0.000000 0.587783 0.200000 0.500000
0.008980 1.000000 0.008961 0.809018 0.000000 0.587783 0.200000 1.000000
-0.001555 1.000000 0.023461 0.809018 0.000000 0.587783 0.100000 1.000000
-0.001555 -1.000000 0.023461 0.809018 -0.000000 0.587783 0.100000 0.500000
-0.001555 -1.000000 0.023461 0.309017 0.000000 0.951056 0.100000 0.500000
-0.001555 1.000000 0.023461 0.309017 0.000000 0.951056 0.100000 1.000000
-0.018601 1.000000 0.029000 0.309017 0.000000 0.951056 -0.000000 1.000000
-0.018601 -1.000000 0.029000 0.309017 -0.000000 0.951056 -0.000000 0.500000
-0.918502 -1.000000 0.029001 -0.309017 0.000000 0.951057 1.000000 0.500000
-0.918502 1.000000 0.029001 -0.309017 0.000000 0.951057 1.000000 1.000000
-0.935548 1.000000 0.023462 -0.309017 0.000000 0.951057 0.900000 1.000000
-0.935548 -1.000000 0.023462 -0.309017 0.000000 0.951057 0.900000 0.500000
-0.935548 -1.000000 0.023462 -0.809016 0.000000 0.587786 0.900000 0.500000
-0.935548 1.000000 0.023462 -0.809016 0.000000 0.587786 0.900000 1.000000
-0.946083 1.000000 0.008962 -0.809016 0.000000 0.587786 0.800000 1.000000
-0.946083 -1.000000 0.008962 -0.809016 0.000000 0.587786 0.800000 0.500000
-0.946083 -1.000000 0.008962 -1.000000 0.000000 0.000000 0.800000 0.500000
-0.946083 1.000000 0.008962 -1.000000 0.000000 0.000000 0.800000 1.000000
-0.946083 1.000000 -0.008961 -1.000000 0.000000 0.000000 0.700000 1.000000
-0.946083 -1.000000 -0.008961 -1.000000 0.000000 0.000000 0.700000 0.500000
-0.946083 -1.000000 -0.008961 -0.809018 -0.000000 -0.587783 0.700000 0.500000
-0.946083 1.000000 -0.008961 -0.809018 -0.000000 -0.587783 0.700000 1.000000
-0.935548 1.000000 -0.023461 -0.809018 -0.000000 -0.587783 0.600000 1.000000
-0.935548 -1.000000 -0.023461 -0.809018 0.000000 -0.587783 0.600000 0.500000
-0.935548 -1.000000 -0.023461 -0.309018 -0.000000 -0.951056 0.600000 0.500000
-0.935548 1.000000 -0.023461 -0.309018 -0.000000 -0.951056 0.600000 1.000000
-0.918502 1.000000 -0.028999 -0.309018 -0.000000 -0.951056 0.500000 1.000000
-0.918502 -1.000000 -0.028999 -0.309018 0.000000 -0.951056 0.500000 0.500000
-0.918502 -1.000000 -0.028999 0.309016 0.000000 -0.951057 0.500000 0.500000
-0.918502 1.000000 -0.028999 0.309016 0.000000 -0.951057 0.500000 1.000000
-0.901457 1.000000 -0.023461 0.309016 0.000000 -0.951057 0.400000 1.000000
-0.901457 -1.000000 -0.023461 0.309016 0.000000 -0.951057 0.400000 0.500000
-0.901457 -1.000000 -0.023461 0.809016 0.000000 -0.587786 0.400000 0.500000
-0.901457 1.000000 -0.023461 0.809016 0.000000 -0.587786 0.400000 1.000000
-0.890922 1.000000 -0.008961 0.809016 0.000000 -0.587786 0.300000 1.000000
-0.890922 -1.000000 -0.008961 0.809016 0.000000 -0.587786 0.300000 0.500000
-0.890922 -1.000000 -0.008961 1.000000 0.000000 0.000000 0.300000 0.500000
-0.890922 1.000000 -0.008961 1.000000 0.000000 0.000000 0.300000 1.000000
-0.890922 1.000000 0.008962 1.000000 0.000000 0.000000 0.200000 1.000000
-0.890922 -1.000000 0.008962 1.000000 -0.000000 0.000000 0.200000 0.500000
-0.946083 1.000000 0.008962 0.000000 1.000000 0.000000 0.478254 0.324164
-0.935548 1.000000 0.023462 0.000000 1.000000 0.000000 0.391068 0.444164
-0.918502 1.000000 0.029001 0.000000 1.000000 0.000000 0.250000 0.490000
-0.901457 1.000000 0.023462 0.000000 1.000000 0.000000 0.108932 0.444164
-0.890922 1.000000 0.008962 0.000000 1.000000 0.000000 0.021746 0.324164
-0.890922 1.000000 -0.008961 0.000000 1.000000 0.000000 0.021746 0.175836
-0.901457 1.000000 -0.023461 0.000000 1.000000 0.000000 0.108932 0.055836
-0.918502 1.000000 -0.028999 -0.000000 1.000000 0.000000 0.250000 0.010000
-0.935548 1.000000 -0.023461 -0.000000 1.000000 0.000000 0.391068 0.055836
-0.946083 1.000000 -0.008961 0.000000 1.000000 0.000000 0.478254 0.175836
-0.890922 -1.000000 0.008962 0.809018 0.000000 0.587783 0.200000 0.500000
-0.890922 1.000000 0.008962 0.809018 0.000000 0.587783 0.200000 1.000000
-0.901457 1.000000 0.023462 0.809018 0.000000 0.587783 0.100000 1.000000
-0.901457 -1.000000 0.023462 0.809018 -0.000000 0.587783 0.100000 0.500000
-0.901457 -1.000000 0.023462 0.309017 0.000000 0.951056 0.100000 0.500000
-0.901457 1.000000 0.023462 0.309017 0.000000 0.951056 0.100000 1.000000
-0.918502 1.000000 0.029001 0.309017 0.000000 0.951056 -0.000000 1.000000
-0.918502 -1.000000 0.029001 0.309017 -0.000000 0.951056 -0.000000 0.500000
-0.961650 -0.987122 0.015407 -0.309009 0.672500 0.672500 1.000000 0.500000
-0.961651 0.028284 -0.999999 -0.309009 0.672500 0.672500 1.000000 0.753531
-0.973407 0.022883 -0.999999 -0.309009 0.672500 0.672500 0.900000 0.752857
-0.961650 -0.987122 0.015407 -0.309019 0.672498 0.672498 1.000000 0.500000
-0.973407 0.022883 -0.999999 -0.309019 0.672498 0.672498 0.900000 0.752857
-0.973406 -0.989823 0.012706 -0.309019 0.672498 0.672498 0.900000 0.500000
-0.973406 -0.989823 0.012706 -0.809020 0.415624 0.415625 0.900000 0.500000
-0.973407 0.022883 -0.999999 -0.809020 0.415624 0.415625 0.900000 0.752857
-0.980672 0.008741 -0.999999 -0.809020 0.415624 0.415625 0.800000 0.751091
-0.973406 -0.989823 0.012706 -0.809013 0.415630 0.415631 0.900000 0.500000
-0.980672 0.008741 -0.999999 -0.809013 0.415630 0.415631 0.800000 0.751091
-0.980671 -0.996894 0.005635 -0.809013 0.415630 0.415631 0.800000 0.500000
-0.980671 -0.996894 0.005635 -1.000000 0.000000 0.000001 0.800000 0.500000
-0.980672 0.008741 -0.999999 -1.000000 0.000000 0.000001 0.800000 0.751091
-0.980672 -0.008740 -0.999999 -1.000000 0.000000 0.000001 0.700000 0.748909
-0.980671 -0.996894 0.005635 -1.000000 -0.000001 0.000001 0.800000 0.500000
-0.980672 -0.008740 -0.999999 -1.000000 -0.000001 0.000001 0.700000 0.748909
-0.980671 -1.005634 -0.003106 -1.000000 -0.000001 0.000001 0.700000 0.500000
-0.980671 -1.005634 -0.003106 -0.809018 -0.415627 -0.415626 0.700000 0.500000
-0.980672 -0.008740 -0.999999 -0.809018 -0.415627 -0.415626 0.700000 0.748909
-0.973407 -0.022882 -0.999999 -0.809018 -0.415627 -0.415626 0.600000 0.747143
-0.980671 -1.005634 -0.003106 -0.809017 -0.415627 -0.415626 0.700000 0.500000
-0.973407 -0.022882 -0.999999 -0.809017 -0.415627 -0.415626 0.600000 0.747143
-0.973406 -1.012705 -0.010177 -0.809017 -0.415627 -0.415626 0.600000 0.500000
-0.973406 -1.012705 -0.010177 -0.309022 -0.672498 -0.672497 0.600000 0.500000
-0.973407 -0.022882 -0.999999 -0.309022 -0.672498 -0.672497 0.600000 0.747143
-0.961651 -0.028284 -0.999999 -0.309022 -0.672498 -0.672497 0.500000 0.746469
-0.973406 -1.012705 -0.010177 -0.309018 -0.672499 -0.672498 0.600000 0.500000
-0.961651 -0.028284 -0.999999 -0.309018 -0.672499 -0.672498 0.500000 0.746469
-0.961650 -1.015406 -0.012878 -0.309018 -0.672499 -0.672498 0.500000 0.500000
-0.961650 -1.015406 -0.012878 0.309016 -0.672499 -0.672499 0.500000 0.500000
-0.961651 -0.028284 -0.999999 0.309016 -0.672499 -0.672499 0.500000 0.746469
-0.949896 -0.022882 -0.999999 0.309016 -0.672499 -0.672499 0.400000 0.747143
-0.961650 -1.015406 -0.012878 0.309020 -0.672498 -0.672498 0.500000 0.500000
-0.949896 -0.022882 -0.999999 0.309020 -0.672498 -0.672498 0.400000 0.747143
-0.949894 -1.012705 -0.010177 0.309020 -0.672498 -0.672498 0.400000 0.500000
-0.949894 -1.012705 -0.010177 0.809017 -0.415626 -0.415627 0.400000 0.500000
-0.949896 -0.022882 -0.999999 0.809017 -0.415626 -0.415627 0.400000 0.747143
-0.942630 -0.008740 -0.999999 0.809017 -0.415626 -0.415627 0.300000 0.748909
-0.949894 -1.012705 -0.010177 0.809020 -0.415624 -0.415625 0.400000 0.500000
-0.942630 -0.008740 -0.999999 0.809020 -0.415624 -0.415625 0.300000 0.748909
-0.942629 -1.005634 -0.003106 0.809020 -0.415624 -0.415625 0.300000 0.500000
-0.942629 -1.005634 -0.003106 1.000000 -0.000000 -0.000001 0.300000 0.500000
-0.942630 -0.008740 -0.999999 1.000000 -0.000000 -0.000001 0.300000 0.748909
-0.942630 0.008741 -1.000000 1.000000 -0.000000 -0.000001 0.200000 0.751091
-0.942629 -1.005634 -0.003106 1.000000 0.000001 -0.000001 0.300000 0.500000
-0.942630 0.008741 -1.000000 1.000000 0.000001 -0.000001 0.200000 0.751091
-0.942629 -0.996894 0.005635 1.000000 0.000001 -0.000001 0.200000 0.500000
-0.942629 -0.996894 0.005635 0.809018 0.415626 0.415625 0.200000 0.500000
-0.942630 0.008741 -1.000000 0.809018 0.415626 0.415625 0.200000 0.751091
-0.949896 0.022883 -0.999999 0.809018 0.415626 0.415625 0.100000 0.752857
-0.949894 -0.989823 0.012706 0.809018 0.415626 0.415625 0.100000 0.500000
-0.949894 -0.989823 0.012706 0.309016 0.672499 0.672499 0.100000 0.500000
-0.949896 0.022883 -0.999999 0.309016 0.672499 0.672499 0.100000 0.752857
-0.961651 0.028284 -0.999999 0.309016 0.672499 0.672499 -0.000000 0.753531
-0.949894 -0.989823 0.012706 0.309018 0.672498 0.672498 0.100000 0.500000
-0.961651 0.028284 -0.999999 0.309018 0.672498 0.672498 -0.000000 0.753531
-0.961650 -0.987122 0.015407 0.309018 0.672498 0.672498 -0.000000 0.500000
-0.949894 -0.989823 0.012706 0.000001 -0.707099 0.707115 0.608932 0.444164
-0.961650 -0.987122 0.015407 0.000001 -0.707099 0.707115 0.750000 0.490000
-0.973406 -0.989823 0.012706 0.000001 -0.707099 0.707115 0.891068 0.444164
-0.973406 -0.989823 0.012706 -0.000010 -0.707104 0.707109 0.891068 0.444164
-0.980671 -0.996894 0.005635 -0.000010 -0.707104 0.707109 0.978254 0.324164
-0.980671 -1.005634 -0.003106 -0.000010 -0.707104 0.707109 0.978254 0.175836
-0.980671 -1.005634 -0.003106 -0.000001 -0.707111 0.707103 0.978254 0.175836
-0.973406 -1.012705 -0.010177 -0.000001 -0.707111 0.707103 0.891068 0.055836
-0.961650 -1.015406 -0.012878 -0.000001 -0.707111 0.707103 0.750000 0.010000
-0.961650 -1.015406 -0.012878 0.000003 -0.707111 0.707103 0.750000 0.010000
-0.949894 -1.012705 -0.010177 0.000003 -0.707111 0.707103 0.608932 0.055836
-0.942629 -1.005634 -0.003106 0.000003 -0.707111 0.707103 0.521746 0.175836
-0.942629 -1.005634 -0.003106 0.000011 -0.707104 0.707109 0.521746 0.175836
-0.942629 -0.996894 0.005635 0.000011 -0.707104 0.707109 0.521746 0.324164
-0.949894 -0.989823 0.012706 0.000011 -0.707104 0.707109 0.608932 0.444164
-0.949894 -0.989823 0.012706 0.000001 -0.707107 0.707107 0.608932 0.444164
-0.973406 -0.989823 0.012706 0.000001 -0.707107 0.707107 0.891068 0.444164
-0.980671 -1.005634 -0.003106 0.000001 -0.707107 0.707107 0.978254 0.175836
-0.980671 -1.005634 -0.003106 0.000001 -0.707109 0.707105 0.978254 0.175836
-0.961650 -1.015406 -0.012878 0.000001 -0.707109 0.707105 0.750000 0.010000
-0.942629 -1.005634 -0.003106 0.000001 -0.707109 0.707105 0.521746 0.175836
-0.942629 -1.005634 -0.003106 0.000001 -0.707107 0.707107 0.521746 0.175836
-0.015075 0.630715 -0.023280 0.000000 0.309016 -0.951057 0.100000 0.500000
-0.015075 0.613801 -0.028775 0.000000 0.309016 -0.951057 -0.000000 0.500000
-0.918536 0.613801 -0.028775 0.000000 0.309016 -0.951057 -0.000000 1.000000
-0.918536 0.630715 -0.023280 0.000000 0.309016 -0.951057 0.100000 1.000000
0.016778 -0.281302 -1.000000 -0.309022 -0.951055 -0.000000 0.600000 0.500000
0.028352 -0.285063 -1.000000 -0.309022 -0.951055 -0.000000 0.500000 0.500000
0.028352 -0.285063 0.113763 -0.309022 -0.951055 -0.000000 0.500000 1.000000
0.016778 -0.281302 -1.000000 -0.309013 -0.951058 -0.000000 0.600000 0.500000
0.028352 -0.285063 0.113763 -0.309013 -0.951058 -0.000000 0.500000 1.000000
0.016777 -0.281302 0.113763 -0.309013 -0.951058 -0.000000 0.600000 1.000000
0.047080 -0.271457 -1.000000 1.000000 0.000000 0.000000 0.300000 0.500000
0.047080 -0.259287 -1.000000 1.000000 0.000000 0.000000 0.200000 0.500000
0.047079 -0.259287 0.113763 1.000000 0.000000 0.000000 0.200000 1.000000
0.047079 -0.271457 0.113763 1.000000 -0.000000 0.000000 0.300000 1.000000
0.028352 -0.285063 -1.000000 0.309024 -0.951054 -0.000000 0.500000 0.500000
0.039926 -0.281302 -1.000000 0.309024 -0.951054 -0.000000 0.400000 0.500000
0.039926 -0.281302 0.113763 0.309024 -0.951054 -0.000000 0.400000 1.000000
0.028352 -0.285063 -1.000000 0.309015 -0.951057 0.000000 0.500000 0.500000
0.039926 -0.281302 0.113763 0.309015 -0.951057 0.000000 0.400000 1.000000
0.028352 -0.285063 0.113763 0.309015 -0.951057 0.000000 0.500000 1.000000
0.028352 -0.245680 -1.000000 -0.309018 0.951056 -0.000000 1.000000 0.500000
0.016778 -0.249441 -1.000000 -0.309018 0.951056 -0.000000 0.900000 0.500000
0.016777 -0.249441 0.113763 -0.309018 0.951056 -0.000000 0.900000 1.000000
0.028352 -0.245680 -1.000000 -0.309023 0.951054 -0.000000 1.000000 0.500000
0.016777 -0.249441 0.113763 -0.309023 0.951054 -0.000000 0.900000 1.000000
0.028352 -0.245680 0.113763 -0.309023 0.951054 -0.000000 1.000000 1.000000
-0.015075 0.641168 -0.008892 0.000000 0.809020 -0.587782 0.200000 0.500000
-0.015075 0.630715 -0.023280 0.000000 0.809020 -0.587782 0.100000 0.500000
-0.918536 0.630715 -0.023280 0.000000 0.809020 -0.587782 0.100000 1.000000
-0.015075 0.641168 -0.008892 0.000000 0.809016 -0.587786 0.200000 0.500000
-0.918536 0.630715 -0.023280 0.000000 0.809016 -0.587786 0.100000 1.000000
-0.918536 0.641168 -0.008892 0.000000 0.809016 -0.587786 0.200000 1.000000
-0.015075 0.613801 -0.028775 0.000000 -0.309015 -0.951057 1.000000 0.500000
-0.015075 0.596888 -0.023280 0.000000 -0.309015 -0.951057 0.900000 0.500000
-0.918536 0.596888 -0.023280 0.000000 -0.309015 -0.951057 0.900000 1.000000
-0.015075 0.613801 -0.028775 0.000000 -0.309017 -0.951057 1.000000 0.500000
-0.918536 0.596888 -0.023280 0.000000 -0.309017 -0.951057 0.900000 1.000000
-0.918536 0.613801 -0.028775 0.000000 -0.309017 -0.951057 1.000000 1.000000
0.047080 -0.259287 -1.000000 0.809016 0.587787 0.000000 0.200000 0.500000
0.039926 -0.249441 -1.000000 0.809016 0.587787 0.000000 0.100000 0.500000
0.039926 -0.249441 0.113763 0.809016 0.587787 0.000000 0.100000 1.000000
0.047080 -0.259287 -1.000000 0.809020 0.587781 0.000000 0.200000 0.500000
0.039926 -0.249441 0.113763 0.809020 0.587781 0.000000 0.100000 1.000000
0.047079 -0.259287 0.113763 0.809020 0.587781 0.000000 0.200000 1.000000
-0.015075 0.586435 -0.008892 0.000000 -1.000000 0.000000 0.800000 0.500000
-0.015075 0.586435 0.008892 0.000000 -1.000000 0.000000 0.700000 0.500000
-0.918536 0.586434 0.008892 0.000000 -1.000000 0.000000 0.700000 1.000000
-0.918536 0.586434 -0.008892 0.000000 -1.000000 0.000000 0.800000 1.000000
0.016778 -0.719468 -1.000000 -0.309022 -0.951055 -0.000000 0.600000 0.500000
0.028352 -0.723229 -1.000000 -0.309022 -0.951055 -0.000000 0.500000 0.500000
0.028352 -0.723229 0.113763 -0.309022 -0.951055 -0.000000 0.500000 1.000000
0.016778 -0.719468 -1.000000 -0.309013 -0.951058 -0.000000 0.600000 0.500000
0.028352 -0.723229 0.113763 -0.309013 -0.951058 -0.000000 0.500000 1.000000
0.016777 -0.719468 0.113763 -0.309013 -0.951058 -0.000000 0.600000 1.000000
-0.015075 0.596888 0.023280 -0.000000 -0.309015 0.951057 0.600000 0.500000
-0.015075 0.613801 0.028775 -0.000000 -0.309015 0.951057 0.500000 0.500000
-0.918536 0.613801 0.028775 -0.000000 -0.309015 0.951057 0.500000 1.000000
-0.015075 0.596888 0.023280 -0.000000 -0.309016 0.951057 0.600000 0.500000
-0.918536 0.613801 0.028775 -0.000000 -0.309016 0.951057 0.500000 1.000000
-0.918536 0.596888 0.023279 -0.000000 -0.309016 0.951057 0.600000 1.000000
0.009624 -0.271457 -1.000000 -0.809017 -0.587785 -0.000000 0.700000 0.500000
0.016778 -0.281302 -1.000000 -0.809017 -0.587785 -0.000000 0.600000 0.500000
0.016777 -0.281302 0.113763 -0.809017 -0.587785 -0.000000 0.600000 1.000000
0.009624 -0.271457 -1.000000 -0.809015 -0.587788 -0.000000 0.700000 0.500000
0.016777 -0.281302 0.113763 -0.809015 -0.587788 -0.000000 0.600000 1.000000
0.009624 -0.271457 0.113763 -0.809015 -0.587788 -0.000000 0.700000 1.000000
-0.015075 0.596888 -0.023280 0.000000 -0.809023 -0.587777 0.900000 0.500000
-0.015075 0.586435 -0.008892 0.000000 -0.809023 -0.587777 0.800000 0.500000
-0.918536 0.586434 -0.008892 0.000000 -0.809023 -0.587777 0.800000 1.000000
-0.015075 0.596888 -0.023280 0.000000 -0.809020 -0.587782 0.900000 0.500000
-0.918536 0.586434 -0.008892 0.000000 -0.809020 -0.587782 0.800000 1.000000
-0.918536 0.596888 -0.023280 0.000000 -0.809020 -0.587782 0.900000 1.000000
0.047080 -0.709622 -1.000000 1.000000 0.000000 0.000000 0.300000 0.500000
0.047080 -0.697452 -1.000000 1.000000 0.000000 0.000000 0.200000 0.500000
0.047079 -0.697452 0.113763 1.000000 0.000000 0.000000 0.200000 1.000000
0.047079 -0.709622 0.113763 1.000000 -0.000000 0.000000 0.300000 1.000000
-0.015075 0.613801 0.028775 -0.000000 0.309017 0.951056 0.500000 0.500000
-0.015075 0.630715 0.023280 -0.000000 0.309017 0.951056 0.400000 0.500000
-0.918536 0.630715 0.023279 -0.000000 0.309017 0.951056 0.400000 1.000000
-0.015075 0.613801 0.028775 -0.000000 0.309017 0.951057 0.500000 0.500000
-0.918536 0.630715 0.023279 -0.000000 0.309017 0.951057 0.400000 1.000000
-0.918536 0.613801 0.028775 -0.000000 0.309017 0.951057 0.500000 1.000000
0.016778 -0.249441 -1.000000 -0.809016 0.587787 -0.000000 0.900000 0.500000
0.009624 -0.259287 -1.000000 -0.809016 0.587787 -0.000000 0.800000 0.500000
0.009624 -0.259287 0.113763 -0.809016 0.587787 -0.000000 0.800000 1.000000
0.016778 -0.249441 -1.000000 -0.809015 0.587788 -0.000000 0.900000 0.500000
0.009624 -0.259287 0.113763 -0.809015 0.587788 -0.000000 0.800000 1.000000
0.016777 -0.249441 0.113763 -0.809015 0.587788 -0.000000 0.900000 1.000000
-0.015075 0.586435 0.008892 -0.000000 -0.809023 0.587777 0.700000 0.500000
-0.015075 0.596888 0.023280 -0.000000 -0.809023 0.587777 0.600000 0.500000
-0.918536 0.596888 0.023279 -0.000000 -0.809023 0.587777 0.600000 1.000000
-0.015075 0.586435 0.008892 -0.000000 -0.809019 0.587782 0.700000 0.500000
-0.918536 0.596888 0.023279 -0.000000 -0.809019 0.587782 0.600000 1.000000
-0.918536 0.586434 0.008892 -0.000000 -0.809019 0.587782 0.700000 1.000000
0.039926 -0.281302 -1.000000 0.809017 -0.587785 0.000000 0.400000 0.500000
0.047080 -0.271457 -1.000000 0.809017 -0.587785 0.000000 0.300000 0.500000
0.047079 -0.271457 0.113763 0.809017 -0.587785 0.000000 0.300000 1.000000
0.039926 -0.281302 -1.000000 0.809020 -0.587781 0.000000 0.400000 0.500000
0.047079 -0.271457 0.113763 0.809020 -0.587781 0.000000 0.300000 1.000000
0.039926 -0.281302 0.113763 0.809020 -0.587781 0.000000 0.400000 1.000000
-0.015075 0.630715 0.023280 -0.000000 0.809019 0.587782 0.400000 0.500000
-0.015075 0.641168 0.008892 -0.000000 0.809019 0.587782 0.300000 0.500000
-0.918536 0.641168 0.008892 -0.000000 0.809019 0.587782 0.300000 1.000000
-0.015075 0.630715 0.023280 -0.000000 0.809016 0.587786 0.400000 0.500000
-0.918536 0.641168 0.008892 -0.000000 0.809016 0.587786 0.300000 1.000000
-0.918536 0.630715 0.023279 -0.000000 0.809016 0.587786 0.400000 1.000000
0.009624 -0.259287 -1.000000 -1.000000 0.000000 -0.000000 0.800000 0.500000
0.009624 -0.271457 -1.000000 -1.000000 0.000000 -0.000000 0.700000 0.500000
0.009624 -0.271457 0.113763 -1.000000 0.000000 -0.000000 0.700000 1.000000
0.009624 -0.259287 0.113763 -1.000000 -0.000000 -0.000000 0.800000 1.000000
-0.015075 0.641168 0.008892 0.000000 1.000000 0.000000 0.300000 0.500000
-0.015075 0.641168 -0.008892 0.000000 1.000000 0.000000 0.200000 0.500000
-0.918536 0.641168 -0.008892 0.000000 1.000000 0.000000 0.200000 1.000000
-0.918536 0.641168 0.008892 -0.000000 1.000000 0.000000 0.300000 1.000000
0.028352 -0.245680 0.113763 -0.000001 0.000001 1.000000 0.250000 0.490000
0.016777 -0.249441 0.113763 -0.000001 0.000001 1.000000 0.391068 0.444164
0.009624 -0.259287 0.113763 -0.000001 0.000001 1.000000 0.478254 0.324164
0.009624 -0.259287 0.113763 0.000000 -0.000000 1.000000 0.478254 0.324164
0.009624 -0.271457 0.113763 0.000000 -0.000000 1.000000 0.478254 0.175836
0.016777 -0.281302 0.113763 0.000000 -0.000000 1.000000 0.391068 0.055836
0.016777 -0.281302 0.113763 0.000002 0.000009 1.000000 0.391068 0.055836
0.028352 -0.285063 0.113763 0.000002 0.000009 1.000000 0.250000 0.010000
0.039926 -0.281302 0.113763 0.000002 0.000009 1.000000 0.108932 0.055836
0.039926 -0.281302 0.113763 -0.000008 0.000000 1.000000 0.108932 0.055836
0.047079 -0.271457 0.113763 -0.000008 0.000000 1.000000 0.021746 0.175836
0.047079 -0.259287 0.113763 -0.000008 0.000000 1.000000 0.021746 0.324164
0.047079 -0.259287 0.113763 0.000000 0.000000 1.000000 0.021746 0.324164
0.039926 -0.249441 0.113763 0.000000 0.000000 1.000000 0.108932 0.444164
0.028352 -0.245680 0.113763 0.000000 0.000000 1.000000 0.250000 0.490000
0.016777 -0.281302 0.113763 0.000002 -0.000003 1.000000 0.391068 0.055836
0.039926 -0.281302 0.113763 0.000002 -0.000003 1.000000 0.108932 0.055836
0.047079 -0.259287 0.113763 0.000002 -0.000003 1.000000 0.021746 0.324164
0.016778 -0.687607 -1.000000 -0.809017 0.587785 -0.000000 0.900000 0.500000
0.009624 -0.697452 -1.000000 -0.809017 0.587785 -0.000000 0.800000 0.500000
0.009624 -0.697452 0.113763 -0.809017 0.587785 -0.000000 0.800000 1.000000
0.016777 -0.687607 0.113763 -0.809017 0.587785 -0.000000 0.900000 1.000000
0.028352 -0.683846 0.113763 -0.000001 0.000001 1.000000 0.250000 0.490000
0.016777 -0.687607 0.113763 -0.000001 0.000001 1.000000 0.391068 0.444164
0.009624 -0.697452 0.113763 -0.000001 0.000001 1.000000 0.478254 0.324164
0.009624 -0.697452 0.113763 0.000000 -0.000000 1.000000 0.478254 0.324164
0.009624 -0.709622 0.113763 0.000000 -0.000000 1.000000 0.478254 0.175836
0.016777 -0.719468 0.113763 0.000000 -0.000000 1.000000 0.391068 0.055836
0.016777 -0.719468 0.113763 -0.000000 0.000001 1.000000 0.391068 0.055836
0.028352 -0.723229 0.113763 -0.000000 0.000001 1.000000 0.250000 0.010000
0.039926 -0.719468 0.113763 -0.000000 0.000001 1.000000 0.108932 0.055836
0.039926 -0.719468 0.113763 0.000000 0.000000 1.000000 0.108932 0.055836
0.047079 -0.709622 0.113763 0.000000 0.000000 1.000000 0.021746 0.175836
0.047079 -0.697452 0.113763 0.000000 0.000000 1.000000 0.021746 0.324164
0.039926 -0.687607 0.113763 0.000000 0.000000 1.000000 0.108932 0.444164
0.028352 -0.683846 0.113763 0.000000 0.000000 1.000000 0.250000 0.490000
0.047080 -0.697452 -1.000000 0.809015 0.587788 0.000000 0.200000 0.500000
0.039926 -0.687607 -1.000000 0.809015 0.587788 0.000000 0.100000 0.500000
0.039926 -0.687607 0.113763 0.809015 0.587788 0.000000 0.100000 1.000000
0.047080 -0.697452 -1.000000 0.809019 0.587782 0.000000 0.200000 0.500000
0.039926 -0.687607 0.113763 0.809019 0.587782 0.000000 0.100000 1.000000
0.047079 -0.697452 0.113763 0.809019 0.587782 0.000000 0.200000 1.000000
0.039926 -0.687607 -1.000000 0.309014 0.951057 0.000000 0.100000 0.500000
0.028352 -0.683846 -1.000000 0.309014 0.951057 0.000000 -0.000000 0.500000
0.028352 -0.683846 0.113763 0.309014 0.951057 0.000000 -0.000000 1.000000
0.039926 -0.687607 -1.000000 0.309018 0.951056 0.000000 0.100000 0.500000
0.028352 -0.683846 0.113763 0.309018 0.951056 0.000000 -0.000000 1.000000
0.039926 -0.687607 0.113763 0.309018 0.951056 0.000000 0.100000 1.000000
0.039926 -0.719468 -1.000000 0.809015 -0.587788 0.000000 0.400000 0.500000
0.047080 -0.709622 -1.000000 0.809015 -0.587788 0.000000 0.300000 0.500000
0.047079 -0.709622 0.113763 0.809015 -0.587788 0.000000 0.300000 1.000000
0.039926 -0.719468 -1.000000 0.809019 -0.587782 0.000000 0.400000 0.500000
0.047079 -0.709622 0.113763 0.809019 -0.587782 0.000000 0.300000 1.000000
0.039926 -0.719468 0.113763 0.809019 -0.587782 0.000000 0.400000 1.000000
0.009624 -0.709622 -1.000000 -0.809017 -0.587785 -0.000000 0.700000 0.500000
0.016778 -0.719468 -1.000000 -0.809017 -0.587785 -0.000000 0.600000 0.500000
0.016777 -0.719468 0.113763 -0.809017 -0.587785 -0.000000 0.600000 1.000000
0.009624 -0.709622 0.113763 -0.809017 -0.587785 -0.000000 0.700000 1.000000
0.028352 -0.683846 -1.000000 -0.309014 0.951057 -0.000000 1.000000 0.500000
0.016778 -0.687607 -1.000000 -0.309014 0.951057 -0.000000 0.900000 0.500000
0.016777 -0.687607 0.113763 -0.309014 0.951057 -0.000000 0.900000 1.000000
0.028352 -0.683846 -1.000000 -0.309019 0.951056 -0.000000 1.000000 0.500000
0.016777 -0.687607 0.113763 -0.309019 0.951056 -0.000000 0.900000 1.000000
0.028352 -0.683846 0.113763 -0.309019 0.951056 -0.000000 1.000000 1.000000
0.028352 -0.723229 -1.000000 0.309024 -0.951054 -0.000000 0.500000 0.500000
0.039926 -0.719468 -1.000000 0.309024 -0.951054 -0.000000 0.400000 0.500000
0.039926 -0.719468 0.113763 0.309024 -0.951054 -0.000000 0.400000 1.000000
0.028352 -0.723229 -1.000000 0.309015 -0.951057 0.000000 0.500000 0.500000
0.039926 -0.719468 0.113763 0.309015 -0.951057 0.000000 0.400000 1.000000
0.028352 -0.723229 0.113763 0.309015 -0.951057 0.000000 0.500000 1.000000
0.009624 -0.697452 -1.000000 -1.000000 0.000000 -0.000000 0.800000 0.500000
0.009624 -0.709622 -1.000000 -1.000000 0.000000 -0.000000 0.700000 0.500000
0.009624 -0.709622 0.113763 -1.000000 0.000000 -0.000000 0.700000 1.000000
0.009624 -0.697452 0.113763 -1.000000 -0.000000 -0.000000 0.800000 1.000000
0.039926 -0.249441 -1.000000 0.309018 0.951056 0.000000 0.100000 0.500000
0.028352 -0.245680 -1.000000 0.309018 0.951056 0.000000 -0.000000 0.500000
0.028352 -0.245680 0.113763 0.309018 0.951056 0.000000 -0.000000 1.000000
0.039926 -0.249441 -1.000000 0.309022 0.951055 0.000000 0.100000 0.500000
0.028352 -0.245680 0.113763 0.309022 0.951055 0.000000 -0.000000 1.000000
0.039926 -0.249441 0.113763 0.309022 0.951055 0.000000 0.100000 1.000000
3 0 1 2
3 0 2 3
3 4 5 6
3 4 6 7
3 8 9 10
3 8 10 11
3 12 13 14
3 12 14 15
3 16 17 18
3 16 18 19
3 20 21 22
3 20 22 23
3 24 25 26
3 24 26 27
3 28 29 30
3 28 30 31
3 32 33 34
3 34 35 36
3 36 37 38
3 38 39 40
3 40 41 32
3 32 34 36
3 36 38 40
3 36 40 32
3 42 43 44
3 42 44 45
3 46 47 48
3 46 48 49
3 50 51 52
3 50 52 53
3 54 55 56
3 54 56 57
3 58 59 60
3 58 60 61
3 62 63 64
3 62 64 65
3 66 67 68
3 66 68 69
3 70 71 72
3 70 72 73
3 74 75 76
3 74 76 77
3 78 79 80
3 78 80 81
3 82 83 84
3 84 85 86
3 86 87 88
3 88 89 90
3 90 91 82
3 82 84 86
3 86 88 90
3 86 90 82
3 92 93 94
3 92 94 95
3 96 97 98
3 96 98 99
3 100 101 102
3 103 104 105
3 106 107 108
3 109 110 111
3 112 113 114
3 115 116 117
3 118 119 120
3 121 122 123
3 124 125 126
3 127 128 129
3 130 131 132
3 133 134 135
3 136 137 138
3 139 140 141
3 142 143 144
3 145 146 147
3 148 149 150
3 148 150 151
3 152 153 154
3 155 156 157
3 158 159 160
3 161 162 163
3 164 165 166
3 167 168 169
3 170 171 172
3 173 174 175
3 176 177 178
3 175 179 173
3 180 181 182
3 180 182 183
3 184 185 186
3 187 188 189
3 190 191 192
3 190 192 193
3 194 195 196
3 197 198 199
3 200 201 202
3 203 204 205
3 206 207 208
3 209 210 211
3 212 213 214
3 215 216 217
3 218 219 220
3 221 222 223
3 224 225 226
3 224 226 227
3 228 229 230
3 231 232 233
3 234 235 236
3 237 238 239
3 240 241 242
3 243 244 245
3 246 247 248
3 249 250 251
3 252 253 254
3 252 254 255
3 256 257 258
3 259 260 261
3 262 263 264
3 265 266 267
3 268 269 270
3 271 272 273
3 274 275 276
3 277 278 279
3 280 281 282
3 283 284 285
3 286 287 288
3 286 288 289
3 290 291 292
3 290 292 293
3 294 295 296
3 297 298 299
3 300 301 302
3 303 304 305
3 306 307 308
3 308 297 299
3 309 310 311
3 299 306 308
3 312 313 314
3 312 314 315
3 316 317 318
3 319 320 321
3 322 323 324
3 325 326 327
3 327 328 329
3 329 319 321
3 321 325 327
3 321 327 329
3 330 331 332
3 333 334 335
3 336 337 338
3 339 340 341
3 342 343 344
3 345 346 347
3 348 349 350
3 348 350 351
3 352 353 354
3 355 356 357
3 358 359 360
3 361 362 363
3 364 365 366
3 364 366 367
3 368 369 370
3 371 372 373
