ply
format ascii 1.0
comment Created by Blender 2.80 (sub 75) - www.blender.org, source file: 'advance_models.blend'
element vertex 522
property float x
property float y
property float z
property float nx
property float ny
property float nz
property float s
property float t
element face 226
property list uchar uint vertex_indices
end_header
-0.044923 -0.845080 -0.043061 1.000000 0.000000 0.000000 0.375000 0.125000
-0.044923 -0.805590 -0.043061 1.000000 0.000000 0.000000 0.625000 0.125000
-0.044924 -0.805590 1.000000 1.000000 0.000000 0.000000 0.625000 0.250000
-0.044924 -0.845080 1.000000 1.000000 -0.000000 0.000000 0.375000 0.250000
-0.894924 -0.845080 -0.043061 -1.000000 0.000000 0.000000 0.375000 0.625000
-0.894924 -0.805590 -0.043061 -1.000000 0.000000 0.000000 0.625000 0.625000
-0.894924 -0.805590 -0.069691 -1.000000 0.000000 0.000000 0.625000 0.625000
-0.894924 -0.845080 -0.069691 -1.000000 0.000000 0.000000 0.375000 0.625000
-0.018601 -1.000000 0.029000 -0.309017 0.000000 0.951056 1.000000 0.500000
-0.018601 1.000000 0.029000 -0.309017 0.000000 0.951056 1.000000 1.000000
-0.035647 1.000000 0.023462 -0.309017 0.000000 0.951056 0.900000 1.000000
-0.035647 -1.000000 0.023462 -0.309017 0.000000 0.951056 0.900000 0.500000
-0.035647 -1.000000 0.023462 -0.809017 0.000000 0.587785 0.900000 0.500000
-0.035647 1.000000 0.023462 -0.809017 0.000000 0.587785 0.900000 1.000000
-0.046181 1.000000 0.008962 -0.809017 0.000000 0.587785 0.800000 1.000000
-0.046181 -1.000000 0.008962 -0.809017 0.000000 0.587785 0.800000 0.500000
-0.046181 -1.000000 0.008962 -1.000000 0.000000 0.000000 0.800000 0.500000
-0.046181 1.000000 0.008962 -1.000000 0.000000 0.000000 0.800000 1.000000
-0.046181 1.000000 -0.008961 -1.000000 0.000000 0.000000 0.700000 1.000000
-0.046181 -1.000000 -0.008961 -1.000000 0.000000 0.000000 0.700000 0.500000
-0.046181 -1.000000 -0.008961 -0.809017 -0.000000 -0.587785 0.700000 0.500000
-0.046181 1.000000 -0.008961 -0.809017 -0.000000 -0.587785 0.700000 1.000000
-0.035647 1.000000 -0.023461 -0.809017 -0.000000 -0.587785 0.600000 1.000000
-0.035647 -1.000000 -0.023461 -0.809017 0.000000 -0.587785 0.600000 0.500000
-0.035647 -1.000000 -0.023461 -0.309017 -0.000000 -0.951057 0.600000 0.500000
-0.035647 1.000000 -0.023461 -0.309017 -0.000000 -0.951057 0.600000 1.000000
-0.018601 1.000000 -0.029000 -0.309017 -0.000000 -0.951057 0.500000 1.000000
-0.018601 -1.000000 -0.029000 -0.309017 0.000000 -0.951057 0.500000 0.500000
-0.018601 -1.000000 -0.029000 0.309017 0.000000 -0.951056 0.500000 0.500000
-0.018601 1.000000 -0.029000 0.309017 0.000000 -0.951056 0.500000 1.000000
-0.001555 1.000000 -0.023461 0.309017 0.000000 -0.951056 0.400000 1.000000
-0.001555 -1.000000 -0.023461 0.309017 0.000000 -0.951056 0.400000 0.500000
-0.001555 -1.000000 -0.023461 0.809017 0.000000 -0.587785 0.400000 0.500000
-0.001555 1.000000 -0.023461 0.809017 0.000000 -0.587785 0.400000 1.000000
0.008980 1.000000 -0.008961 0.809017 0.000000 -0.587785 0.300000 1.000000
0.008980 -1.000000 -0.008961 0.809017 0.000000 -0.587785 0.300000 0.500000
0.008980 -1.000000 -0.008961 1.000000 0.000000 0.000000 0.300000 0.500000
0.008980 1.000000 -0.008961 1.000000 0.000000 0.000000 0.300000 1.000000
0.008980 1.000000 0.008962 1.000000 0.000000 0.000000 0.200000 1.000000
0.008980 -1.000000 0.008962 1.000000 -0.000000 0.000000 0.200000 0.500000
-0.046181 1.000000 0.008962 0.000000 1.000000 0.000000 0.478254 0.324164
-0.035647 1.000000 0.023462 0.000000 1.000000 0.000000 0.391068 0.444164
-0.018601 1.000000 0.029000 0.000000 1.000000 0.000000 0.250000 0.490000
-0.001555 1.000000 0.023462 0.000000 1.000000 0.000000 0.108932 0.444164
0.008980 1.000000 0.008962 0.000000 1.000000 0.000000 0.021746 0.324164
0.008980 1.000000 -0.008961 0.000000 1.000000 0.000000 0.021746 0.175836
-0.001555 1.000000 -0.023461 0.000000 1.000000 0.000000 0.108932 0.055836
-0.018601 1.000000 -0.029000 -0.000000 1.000000 0.000000 0.250000 0.010000
-0.035647 1.000000 -0.023461 -0.000000 1.000000 0.000000 0.391068 0.055836
-0.046181 1.000000 -0.008961 0.000000 1.000000 0.000000 0.478254 0.175836
0.008980 -1.000000 0.008962 0.809017 0.000000 0.587785 0.200000 0.500000
0.008980 1.000000 0.008962 0.809017 0.000000 0.587785 0.200000 1.000000
-0.001555 1.000000 0.023462 0.809017 0.000000 0.587785 0.100000 1.000000
-0.001555 -1.000000 0.023462 0.809017 -0.000000 0.587785 0.100000 0.500000
-0.001555 -1.000000 0.023462 0.309016 0.000000 0.951057 0.100000 0.500000
-0.001555 1.000000 0.023462 0.309016 0.000000 0.951057 0.100000 1.000000
-0.018601 1.000000 0.029000 0.309016 0.000000 0.951057 -0.000000 1.000000
-0.018601 -1.000000 0.029000 0.309016 -0.000000 0.951057 -0.000000 0.500000
-0.918502 -1.000000 0.029000 -0.309018 0.000000 0.951056 1.000000 0.500000
-0.918502 1.000000 0.029000 -0.309018 0.000000 0.951056 1.000000 1.000000
-0.935548 1.000000 0.023461 -0.309018 0.000000 0.951056 0.900000 1.000000
-0.935548 -1.000000 0.023461 -0.309018 0.000000 0.951056 0.900000 0.500000
-0.935548 -1.000000 0.023461 -0.809017 0.000000 0.587786 0.900000 0.500000
-0.935548 1.000000 0.023461 -0.809017 0.000000 0.587786 0.900000 1.000000
-0.946083 1.000000 0.008961 -0.809017 0.000000 0.587786 0.800000 1.000000
-0.946083 -1.000000 0.008961 -0.809017 0.000000 0.587786 0.800000 0.500000
-0.946083 -1.000000 0.008961 -1.000000 0.000000 0.000000 0.800000 0.500000
-0.946083 1.000000 0.008961 -1.000000 0.000000 0.000000 0.800000 1.000000
-0.946083 1.000000 -0.008962 -1.000000 0.000000 0.000000 0.700000 1.000000
-0.946083 -1.000000 -0.008962 -1.000000 0.000000 0.000000 0.700000 0.500000
-0.946083 -1.000000 -0.008962 -0.809017 -0.000000 -0.587786 0.700000 0.500000
-0.946083 1.000000 -0.008962 -0.809017 -0.000000 -0.587786 0.700000 1.000000
-0.935548 1.000000 -0.023462 -0.809017 -0.000000 -0.587786 0.600000 1.000000
-0.935548 -1.000000 -0.023462 -0.809017 0.000000 -0.587786 0.600000 0.500000
-0.935548 -1.000000 -0.023462 -0.309017 -0.000000 -0.951056 0.600000 0.500000
-0.935548 1.000000 -0.023462 -0.309017 -0.000000 -0.951056 0.600000 1.000000
-0.918502 1.000000 -0.029000 -0.309017 -0.000000 -0.951056 0.500000 1.000000
-0.918502 -1.000000 -0.029000 -0.309017 0.000000 -0.951056 0.500000 0.500000
-0.918502 -1.000000 -0.029000 0.309018 0.000000 -0.951056 0.500000 0.500000
-0.918502 1.000000 -0.029000 0.309018 0.000000 -0.951056 0.500000 1.000000
-0.901457 1.000000 -0.023462 0.309018 0.000000 -0.951056 0.400000 1.000000
-0.901457 -1.000000 -0.023462 0.309018 0.000000 -0.951056 0.400000 0.500000
-0.901457 -1.000000 -0.023462 0.809017 0.000000 -0.587786 0.400000 0.500000
-0.901457 1.000000 -0.023462 0.809017 0.000000 -0.587786 0.400000 1.000000
-0.890922 1.000000 -0.008962 0.809017 0.000000 -0.587786 0.300000 1.000000
-0.890922 -1.000000 -0.008962 0.809017 0.000000 -0.587786 0.300000 0.500000
-0.890922 -1.000000 -0.008962 1.000000 0.000000 0.000000 0.300000 0.500000
-0.890922 1.000000 -0.008962 1.000000 0.000000 0.000000 0.300000 1.000000
-0.890922 1.000000 0.008961 1.000000 0.000000 0.000000 0.200000 1.000000
-0.890922 -1.000000 0.008961 1.000000 -0.000000 0.000000 0.200000 0.500000
-0.946083 1.000000 0.008961 0.000000 1.000000 0.000000 0.478254 0.324164
-0.935548 1.000000 0.023461 0.000000 1.000000 0.000000 0.391068 0.444164
-0.918502 1.000000 0.029000 0.000000 1.000000 0.000000 0.250000 0.490000
-0.901457 1.000000 0.023461 0.000000 1.000000 0.000000 0.108932 0.444164
-0.890922 1.000000 0.008961 0.000000 1.000000 0.000000 0.021746 0.324164
-0.890922 1.000000 -0.008962 0.000000 1.000000 0.000000 0.021746 0.175836
-0.901457 1.000000 -0.023462 0.000000 1.000000 0.000000 0.108932 0.055836
-0.918502 1.000000 -0.029000 -0.000000 1.000000 0.000000 0.250000 0.010000
-0.935548 1.000000 -0.023462 -0.000000 1.000000 0.000000 0.391068 0.055836
-0.946083 1.000000 -0.008962 0.000000 1.000000 0.000000 0.478254 0.175836
-0.890922 -1.000000 0.008961 0.809017 0.000000 0.587786 0.200000 0.500000
-0.890922 1.000000 0.008961 0.809017 0.000000 0.587786 0.200000 1.000000
-0.901457 1.000000 0.023461 0.809017 0.000000 0.587786 0.100000 1.000000
-0.901457 -1.000000 0.023461 0.809017 -0.000000 0.587786 0.100000 0.500000
-0.901457 -1.000000 0.023461 0.309017 0.000000 0.951056 0.100000 0.500000
-0.901457 1.000000 0.023461 0.309017 0.000000 0.951056 0.100000 1.000000
-0.918502 1.000000 0.029000 0.309017 0.000000 0.951056 -0.000000 1.000000
-0.918502 -1.000000 0.029000 0.309017 -0.000000 0.951056 -0.000000 0.500000
-0.980671 1.005634 0.003106 0.000015 0.707090 -0.707123 0.478254 0.324164
-0.973406 1.012706 0.010177 0.000015 0.707090 -0.707123 0.391068 0.444164
-0.961650 1.015406 0.012878 0.000015 0.707090 -0.707123 0.250000 0.490000
-0.961650 1.015406 0.012878 -0.000015 0.707090 -0.707123 0.250000 0.490000
-0.949894 1.012706 0.010177 -0.000015 0.707090 -0.707123 0.108932 0.444164
-0.942629 1.005634 0.003106 -0.000015 0.707090 -0.707123 0.021746 0.324164
-0.942629 1.005634 0.003106 -0.000021 0.707112 -0.707102 0.021746 0.324164
-0.942629 0.996894 -0.005634 -0.000021 0.707112 -0.707102 0.021746 0.175836
-0.949894 0.989823 -0.012705 -0.000021 0.707112 -0.707102 0.108932 0.055836
-0.949894 0.989823 -0.012705 0.000000 0.707107 -0.707107 0.108932 0.055836
-0.961650 0.987122 -0.015406 0.000000 0.707107 -0.707107 0.250000 0.010000
-0.973406 0.989823 -0.012705 0.000000 0.707107 -0.707107 0.391068 0.055836
-0.973406 0.989823 -0.012705 0.000021 0.707112 -0.707102 0.391068 0.055836
-0.980671 0.996894 -0.005634 0.000021 0.707112 -0.707102 0.478254 0.175836
-0.980671 1.005634 0.003106 0.000021 0.707112 -0.707102 0.478254 0.324164
-0.980671 1.005634 0.003106 0.000000 0.707105 -0.707109 0.478254 0.324164
-0.961650 1.015406 0.012878 0.000000 0.707105 -0.707109 0.250000 0.490000
-0.942629 1.005634 0.003106 0.000000 0.707105 -0.707109 0.021746 0.324164
-0.942629 1.005634 0.003106 0.000000 0.707107 -0.707107 0.021746 0.324164
-0.980671 1.005634 0.003106 0.000000 0.707107 -0.707107 0.478254 0.324164
-0.973406 0.022883 1.000000 -0.309014 0.672499 0.672499 0.900000 0.752857
-0.961650 0.028284 1.000000 -0.309014 0.672499 0.672499 1.000000 0.753531
-0.961650 1.015406 0.012878 -0.309014 0.672499 0.672499 1.000000 1.000000
-0.973406 0.022883 1.000000 -0.309013 0.672499 0.672499 0.900000 0.752857
-0.961650 1.015406 0.012878 -0.309013 0.672499 0.672499 1.000000 1.000000
-0.973406 1.012706 0.010177 -0.309013 0.672499 0.672499 0.900000 1.000000
-0.980671 0.008741 1.000000 -0.809019 0.415625 0.415625 0.800000 0.751091
-0.973406 0.022883 1.000000 -0.809019 0.415625 0.415625 0.900000 0.752857
-0.973406 1.012706 0.010177 -0.809019 0.415625 0.415625 0.900000 1.000000
-0.980671 0.008741 1.000000 -0.809022 0.415622 0.415622 0.800000 0.751091
-0.973406 1.012706 0.010177 -0.809022 0.415622 0.415622 0.900000 1.000000
-0.980671 1.005634 0.003106 -0.809022 0.415622 0.415622 0.800000 1.000000
-0.980671 -0.008740 1.000000 -1.000000 -0.000000 -0.000000 0.700000 0.748909
-0.980671 0.008741 1.000000 -1.000000 -0.000000 -0.000000 0.800000 0.751091
-0.980671 1.005634 0.003106 -1.000000 -0.000000 -0.000000 0.800000 1.000000
-0.980671 0.996894 -0.005634 -1.000000 0.000000 -0.000000 0.700000 1.000000
-0.961650 -0.028284 1.000000 -0.309014 -0.672499 -0.672499 0.500000 0.746469
-0.973406 -0.022882 1.000000 -0.309014 -0.672499 -0.672499 0.600000 0.747143
-0.973406 0.989823 -0.012705 -0.309014 -0.672499 -0.672499 0.600000 1.000000
-0.961650 -0.028284 1.000000 -0.309019 -0.672498 -0.672498 0.500000 0.746469
-0.973406 0.989823 -0.012705 -0.309019 -0.672498 -0.672498 0.600000 1.000000
-0.961650 0.987122 -0.015406 -0.309019 -0.672498 -0.672498 0.500000 1.000000
-0.973406 -0.022882 1.000000 -0.809018 -0.415626 -0.415626 0.600000 0.747143
-0.980671 -0.008740 1.000000 -0.809018 -0.415626 -0.415626 0.700000 0.748909
-0.980671 0.996894 -0.005634 -0.809018 -0.415626 -0.415626 0.700000 1.000000
-0.973406 -0.022882 1.000000 -0.809019 -0.415625 -0.415625 0.600000 0.747143
-0.980671 0.996894 -0.005634 -0.809019 -0.415625 -0.415625 0.700000 1.000000
-0.973406 0.989823 -0.012705 -0.809019 -0.415625 -0.415625 0.600000 1.000000
-0.949895 0.022883 1.000000 0.809019 0.415625 0.415625 0.100000 0.752857
-0.942629 0.008741 1.000000 0.809019 0.415625 0.415625 0.200000 0.751091
-0.942629 1.005634 0.003106 0.809019 0.415625 0.415625 0.200000 1.000000
-0.949895 0.022883 1.000000 0.809020 0.415624 0.415624 0.100000 0.752857
-0.942629 1.005634 0.003106 0.809020 0.415624 0.415624 0.200000 1.000000
-0.949894 1.012706 0.010177 0.809020 0.415624 0.415624 0.100000 1.000000
-0.949895 -0.022882 1.000000 0.309016 -0.672499 -0.672499 0.400000 0.747143
-0.961650 -0.028284 1.000000 0.309016 -0.672499 -0.672499 0.500000 0.746469
-0.961650 0.987122 -0.015406 0.309016 -0.672499 -0.672499 0.500000 1.000000
-0.949895 -0.022882 1.000000 0.309019 -0.672498 -0.672498 0.400000 0.747143
-0.961650 0.987122 -0.015406 0.309019 -0.672498 -0.672498 0.500000 1.000000
-0.949894 0.989823 -0.012705 0.309019 -0.672498 -0.672498 0.400000 1.000000
-0.961650 0.028284 1.000000 0.309016 0.672499 0.672499 -0.000000 0.753531
-0.949895 0.022883 1.000000 0.309016 0.672499 0.672499 0.100000 0.752857
-0.949894 1.012706 0.010177 0.309016 0.672499 0.672499 0.100000 1.000000
-0.961650 0.028284 1.000000 0.309013 0.672499 0.672500 -0.000000 0.753531
-0.949894 1.012706 0.010177 0.309013 0.672499 0.672500 0.100000 1.000000
-0.961650 1.015406 0.012878 0.309013 0.672499 0.672500 -0.000000 1.000000
-0.942629 0.008741 1.000000 1.000000 0.000000 0.000000 0.200000 0.751091
-0.942629 -0.008740 1.000000 1.000000 0.000000 0.000000 0.300000 0.748909
-0.942629 0.996894 -0.005634 1.000000 0.000000 0.000000 0.300000 1.000000
-0.942629 1.005634 0.003106 1.000000 -0.000000 0.000000 0.200000 1.000000
-0.942629 -0.008740 1.000000 0.809018 -0.415626 -0.415626 0.300000 0.748909
-0.949895 -0.022882 1.000000 0.809018 -0.415626 -0.415626 0.400000 0.747143
-0.949894 0.989823 -0.012705 0.809018 -0.415626 -0.415626 0.400000 1.000000
-0.942629 -0.008740 1.000000 0.809017 -0.415628 -0.415627 0.300000 0.748909
-0.949894 0.989823 -0.012705 0.809017 -0.415628 -0.415627 0.400000 1.000000
-0.942629 0.996894 -0.005634 0.809017 -0.415628 -0.415627 0.300000 1.000000
-0.876653 -0.904711 0.240426 -0.239357 0.839885 0.487136 1.000000 0.680953
-0.876653 -0.838896 0.126953 -0.239357 0.839885 0.487136 1.000000 0.750000
-0.886300 -0.838896 0.122213 -0.239357 0.839885 0.487136 0.900000 0.750000
-0.876653 -0.904711 0.240426 -0.270225 0.831670 0.485081 1.000000 0.680953
-0.886300 -0.838896 0.122213 -0.270225 0.831670 0.485081 0.900000 0.750000
-0.886300 -0.907845 0.240426 -0.270225 0.831670 0.485081 0.900000 0.680953
-0.892262 -0.916051 0.240426 -1.000000 0.000000 0.000000 0.800000 0.680953
-0.892262 -0.838896 0.109803 -1.000000 0.000000 0.000000 0.800000 0.750000
-0.892262 -0.838896 0.094463 -1.000000 0.000000 0.000000 0.700000 0.750000
-0.892262 -0.926195 0.240426 -1.000000 0.000000 0.000000 0.700000 0.680953
-0.892262 -0.926195 0.240426 -0.730080 -0.586471 -0.350764 0.700000 0.680953
-0.892262 -0.838896 0.094463 -0.730080 -0.586471 -0.350764 0.700000 0.750000
-0.886300 -0.838896 0.082054 -0.730080 -0.586471 -0.350764 0.600000 0.750000
-0.892262 -0.926195 0.240426 -0.762528 -0.554015 -0.334095 0.700000 0.680953
-0.886300 -0.838896 0.082054 -0.762528 -0.554015 -0.334095 0.600000 0.750000
-0.886300 -0.934401 0.240426 -0.762528 -0.554015 -0.334095 0.600000 0.680953
-0.886300 -0.934401 0.240426 -0.245948 -0.830037 -0.500548 0.600000 0.680953
-0.886300 -0.838896 0.082054 -0.245948 -0.830037 -0.500548 0.600000 0.750000
-0.876653 -0.838896 0.077313 -0.245948 -0.830037 -0.500548 0.500000 0.750000
-0.886300 -0.934401 0.240426 -0.267872 -0.824428 -0.498560 0.600000 0.680953
-0.876653 -0.838896 0.077313 -0.267872 -0.824428 -0.498560 0.500000 0.750000
-0.876653 -0.937536 0.240426 -0.267872 -0.824428 -0.498560 0.500000 0.680953
-0.876653 -0.937536 0.240426 0.246423 -0.829313 -0.501514 0.500000 0.680953
-0.876653 -0.838896 0.077313 0.246423 -0.829313 -0.501514 0.500000 0.750000
-0.867006 -0.838896 0.082054 0.246423 -0.829313 -0.501514 0.400000 0.750000
-0.876653 -0.937536 0.240426 0.268058 -0.825001 -0.497511 0.500000 0.680953
-0.867006 -0.838896 0.082054 0.268058 -0.825001 -0.497511 0.400000 0.750000
-0.867006 -0.934401 0.240426 0.268058 -0.825001 -0.497511 0.400000 0.680953
-0.867006 -0.934401 0.240426 0.732145 -0.583296 -0.351753 0.400000 0.680953
-0.867006 -0.838896 0.082054 0.732145 -0.583296 -0.351753 0.400000 0.750000
-0.861044 -0.838896 0.094463 0.732145 -0.583296 -0.351753 0.300000 0.750000
-0.867006 -0.934401 0.240426 0.763228 -0.554518 -0.331653 0.400000 0.680953
-0.861044 -0.838896 0.094463 0.763228 -0.554518 -0.331653 0.300000 0.750000
-0.861044 -0.926195 0.240426 0.763228 -0.554518 -0.331653 0.300000 0.680953
-0.861044 -0.926195 0.240426 1.000000 0.000000 0.000000 0.300000 0.680953
-0.861044 -0.838896 0.094463 1.000000 0.000000 0.000000 0.300000 0.750000
-0.861044 -0.838896 0.109803 1.000000 0.000000 0.000000 0.200000 0.750000
-0.861044 -0.916051 0.240426 1.000000 0.000000 0.000000 0.200000 0.680953
-0.861044 -0.916051 0.240426 0.726930 0.591269 0.349247 0.200000 0.680953
-0.861044 -0.838896 0.109803 0.726930 0.591269 0.349247 0.200000 0.750000
-0.867006 -0.838896 0.122213 0.726930 0.591269 0.349247 0.100000 0.750000
-0.861044 -0.916051 0.240426 0.765292 0.556018 0.324304 0.200000 0.680953
-0.867006 -0.838896 0.122213 0.765292 0.556018 0.324304 0.100000 0.750000
-0.867006 -0.907845 0.240426 0.765292 0.556018 0.324304 0.100000 0.680953
-0.867006 -0.907845 0.240426 0.240303 0.838494 0.489062 0.100000 0.680953
-0.867006 -0.838896 0.122213 0.240303 0.838494 0.489062 0.100000 0.750000
-0.876653 -0.838896 0.126953 0.240303 0.838494 0.489062 -0.000000 0.750000
-0.867006 -0.907845 0.240426 0.270580 0.832762 0.483005 0.100000 0.680953
-0.876653 -0.838896 0.126953 0.270580 0.832762 0.483005 -0.000000 0.750000
-0.876653 -0.904711 0.240426 0.270580 0.832762 0.483005 -0.000000 0.680953
-0.886300 -0.907845 0.240426 -0.723699 0.596126 0.347698 0.900000 0.680953
-0.886300 -0.838896 0.122213 -0.723699 0.596126 0.347698 0.900000 0.750000
-0.892262 -0.838896 0.109803 -0.723699 0.596126 0.347698 0.800000 0.750000
-0.886300 -0.907845 0.240426 -0.764261 0.555275 0.327986 0.900000 0.680953
-0.892262 -0.838896 0.109803 -0.764261 0.555275 0.327986 0.800000 0.750000
-0.892262 -0.916051 0.240426 -0.764261 0.555275 0.327986 0.800000 0.680953
-0.894924 -0.805590 1.000000 0.000000 1.000000 0.000000 0.625000 0.500000
-0.044924 -0.805590 1.000000 0.000000 1.000000 0.000000 0.875000 0.500000
-0.044923 -0.805590 -0.043061 0.000000 1.000000 0.000000 0.875000 0.625000
-0.894924 -0.805590 -0.043061 0.000000 1.000000 -0.000000 0.625000 0.625000
-0.044924 -0.845080 1.000000 0.000000 -1.000000 0.000000 0.125000 0.500000
-0.894924 -0.845080 1.000000 0.000000 -1.000000 0.000000 0.375000 0.500000
-0.894924 -0.845080 -0.043061 0.000000 -1.000000 0.000000 0.375000 0.625000
-0.044923 -0.845080 -0.043061 -0.000000 -1.000000 0.000000 0.125000 0.625000
-0.894924 -0.845080 1.000000 -1.000000 -0.000000 -0.000000 0.375000 0.500000
-0.894924 -0.805590 1.000000 -1.000000 -0.000000 -0.000000 0.625000 0.500000
-0.886300 -0.907845 1.000000 -0.809014 0.587789 -0.000000 0.900000 0.500000
-0.886300 -0.907845 0.240426 -0.809014 0.587789 -0.000000 0.900000 0.680953
-0.892262 -0.916051 0.240426 -0.809014 0.587789 -0.000000 0.800000 0.680953
-0.886300 -0.907845 1.000000 -0.809017 0.587786 -0.000000 0.900000 0.500000
-0.892262 -0.916051 0.240426 -0.809017 0.587786 -0.000000 0.800000 0.680953
-0.892262 -0.916051 1.000000 -0.809017 0.587786 -0.000000 0.800000 0.500000
-0.867006 -0.907845 1.000000 0.309016 0.951057 -0.000000 0.100000 0.500000
-0.867006 -0.907845 0.240426 0.309016 0.951057 -0.000000 0.100000 0.680953
-0.876653 -0.904711 0.240426 0.309016 0.951057 -0.000000 -0.000000 0.680953
-0.876653 -0.904711 1.000000 0.309016 0.951057 -0.000000 -0.000000 0.500000
-0.861044 -0.916051 1.000000 0.809017 0.587786 0.000000 0.200000 0.500000
-0.861044 -0.916051 0.240426 0.809017 0.587786 0.000000 0.200000 0.680953
-0.867006 -0.907845 0.240426 0.809017 0.587786 0.000000 0.100000 0.680953
-0.861044 -0.916051 1.000000 0.809020 0.587782 0.000000 0.200000 0.500000
-0.867006 -0.907845 0.240426 0.809020 0.587782 0.000000 0.100000 0.680953
-0.867006 -0.907845 1.000000 0.809020 0.587782 0.000000 0.100000 0.500000
-0.861044 -0.926195 1.000000 1.000000 0.000000 0.000000 0.300000 0.500000
-0.861044 -0.916051 1.000000 1.000000 0.000000 0.000000 0.200000 0.500000
-0.867006 -0.934401 1.000000 0.809017 -0.587786 0.000000 0.400000 0.500000
-0.867006 -0.934401 0.240426 0.809017 -0.587786 0.000000 0.400000 0.680953
-0.861044 -0.926195 0.240426 0.809017 -0.587786 0.000000 0.300000 0.680953
-0.867006 -0.934401 1.000000 0.809020 -0.587782 0.000000 0.400000 0.500000
-0.861044 -0.926195 0.240426 0.809020 -0.587782 0.000000 0.300000 0.680953
-0.861044 -0.926195 1.000000 0.809020 -0.587782 0.000000 0.300000 0.500000
-0.876653 -0.937536 1.000000 0.309016 -0.951057 0.000000 0.500000 0.500000
-0.876653 -0.937536 0.240426 0.309016 -0.951057 0.000000 0.500000 0.680953
-0.867006 -0.934401 0.240426 0.309016 -0.951057 0.000000 0.400000 0.680953
-0.867006 -0.934401 1.000000 0.309016 -0.951057 0.000000 0.400000 0.500000
-0.886300 -0.934401 1.000000 -0.309016 -0.951057 -0.000000 0.600000 0.500000
-0.886300 -0.934401 0.240426 -0.309016 -0.951057 -0.000000 0.600000 0.680953
-0.876653 -0.937536 0.240426 -0.309016 -0.951057 -0.000000 0.500000 0.680953
-0.886300 -0.934401 1.000000 -0.309014 -0.951057 -0.000000 0.600000 0.500000
-0.876653 -0.937536 0.240426 -0.309014 -0.951057 -0.000000 0.500000 0.680953
-0.876653 -0.937536 1.000000 -0.309014 -0.951057 -0.000000 0.500000 0.500000
-0.892262 -0.926195 1.000000 -0.809014 -0.587789 -0.000000 0.700000 0.500000
-0.892262 -0.926195 0.240426 -0.809014 -0.587789 -0.000000 0.700000 0.680953
-0.886300 -0.934401 0.240426 -0.809014 -0.587789 -0.000000 0.600000 0.680953
-0.892262 -0.926195 1.000000 -0.809017 -0.587786 -0.000000 0.700000 0.500000
-0.886300 -0.934401 0.240426 -0.809017 -0.587786 -0.000000 0.600000 0.680953
-0.886300 -0.934401 1.000000 -0.809017 -0.587786 -0.000000 0.600000 0.500000
-0.892262 -0.916051 1.000000 -1.000000 0.000000 -0.000000 0.800000 0.500000
-0.892262 -0.926195 1.000000 -1.000000 0.000000 -0.000000 0.700000 0.500000
-0.876653 -0.904711 1.000000 -0.309016 0.951057 -0.000000 1.000000 0.500000
-0.876653 -0.904711 0.240426 -0.309016 0.951057 -0.000000 1.000000 0.680953
-0.886300 -0.907845 0.240426 -0.309016 0.951057 -0.000000 0.900000 0.680953
-0.876653 -0.904711 1.000000 -0.309014 0.951057 -0.000000 1.000000 0.500000
-0.886300 -0.907845 0.240426 -0.309014 0.951057 -0.000000 0.900000 0.680953
-0.886300 -0.907845 1.000000 -0.309014 0.951057 -0.000000 0.900000 0.500000
-0.044923 -0.805590 -0.069690 0.000000 0.000000 -1.000000 0.625000 0.125000
-0.044923 -0.845080 -0.069690 0.000000 0.000000 -1.000000 0.375000 0.125000
-0.894924 -0.845080 -0.069691 0.000000 0.000000 -1.000000 0.375000 0.625000
-0.894924 -0.805590 -0.069691 0.000000 0.000000 -1.000000 0.625000 0.625000
-0.044923 -0.805590 -0.069690 0.000000 1.000000 -0.000000 0.875000 0.625000
-0.894924 -0.805590 -0.069691 0.000000 1.000000 -0.000000 0.625000 0.625000
-0.044923 -0.845080 -0.069690 1.000000 0.000000 0.000000 0.375000 0.125000
-0.044923 -0.805590 -0.069690 1.000000 0.000000 -0.000000 0.625000 0.125000
-0.044923 -0.876614 -0.043061 1.000000 -0.000000 0.000000 0.375000 0.125000
-0.044923 -0.876614 -0.069690 1.000000 -0.000000 0.000000 0.375000 0.125000
-0.044923 -0.876614 -0.043061 0.000000 -1.000000 0.000000 0.125000 0.625000
-0.894924 -0.876614 -0.043061 0.000000 -1.000000 0.000000 0.375000 0.625000
-0.894924 -0.876614 -0.069691 0.000000 -1.000000 0.000000 0.375000 0.625000
-0.044923 -0.876614 -0.069690 -0.000000 -1.000000 0.000000 0.125000 0.625000
-0.894924 -0.876614 -0.069691 -1.000000 0.000000 0.000000 0.375000 0.625000
-0.894924 -0.876614 -0.043061 -1.000000 0.000000 0.000000 0.375000 0.625000
-0.044923 -0.876614 -0.069690 0.000000 0.000000 -1.000000 0.375000 0.125000
-0.894924 -0.876614 -0.069691 0.000000 0.000000 -1.000000 0.375000 0.625000
-0.044923 -0.845080 -0.043061 -0.000000 0.000000 1.000000 0.125000 0.625000
-0.894924 -0.845080 -0.043061 -0.000000 0.000000 1.000000 0.375000 0.625000
-0.894924 -0.876614 -0.043061 -0.000000 0.000000 1.000000 0.375000 0.625000
-0.044923 -0.876614 -0.043061 -0.000000 0.000000 1.000000 0.125000 0.625000
-1.023583 0.021530 -0.050767 -1.000000 0.000000 0.000000 0.490000 0.250000
-1.023583 0.027455 -0.036463 -1.000000 0.000000 0.000000 0.419706 0.419706
-1.023583 0.041759 -0.030538 -1.000000 0.000000 0.000000 0.250000 0.490000
-1.023583 0.056064 -0.036463 -1.000000 0.000000 0.000000 0.080295 0.419706
-1.023583 0.061989 -0.050767 -1.000000 0.000000 0.000000 0.010000 0.250000
-1.023583 0.056064 -0.065071 -1.000000 0.000000 0.000000 0.080295 0.080294
-1.023583 0.041759 -0.070996 -1.000000 0.000000 0.000000 0.250000 0.010000
-1.023583 0.027455 -0.065071 -1.000000 0.000000 0.000000 0.419706 0.080294
0.090355 0.056064 -0.065071 -0.000000 0.923877 -0.382689 0.375000 0.500000
-1.023583 0.056064 -0.065071 -0.000000 0.923877 -0.382689 0.375000 1.000000
-1.023583 0.061989 -0.050767 -0.000000 0.923877 -0.382689 0.250000 1.000000
0.090355 0.056064 -0.065071 -0.000000 0.923881 -0.382680 0.375000 0.500000
-1.023583 0.061989 -0.050767 -0.000000 0.923881 -0.382680 0.250000 1.000000
0.090355 0.061989 -0.050767 -0.000000 0.923881 -0.382680 0.250000 0.500000
0.090355 0.041760 -0.070996 -0.000000 0.382686 -0.923879 0.500000 0.500000
-1.023583 0.041759 -0.070996 -0.000000 0.382686 -0.923879 0.500000 1.000000
-1.023583 0.056064 -0.065071 -0.000000 0.382686 -0.923879 0.375000 1.000000
0.090355 0.041760 -0.070996 -0.000000 0.382683 -0.923880 0.500000 0.500000
-1.023583 0.056064 -0.065071 -0.000000 0.382683 -0.923880 0.375000 1.000000
0.090355 0.056064 -0.065071 -0.000000 0.382683 -0.923880 0.375000 0.500000
0.090355 0.027455 -0.065071 0.000000 -0.382684 -0.923879 0.625000 0.500000
-1.023583 0.027455 -0.065071 0.000000 -0.382684 -0.923879 0.625000 1.000000
-1.023583 0.041759 -0.070996 0.000000 -0.382684 -0.923879 0.500000 1.000000
0.090355 0.027455 -0.065071 0.000000 -0.382683 -0.923880 0.625000 0.500000
-1.023583 0.041759 -0.070996 0.000000 -0.382683 -0.923880 0.500000 1.000000
0.090355 0.041760 -0.070996 0.000000 -0.382683 -0.923880 0.500000 0.500000
0.090355 0.056064 -0.036463 1.000000 -0.000000 0.000000 0.580295 0.419706
0.090355 0.041760 -0.030538 1.000000 -0.000000 0.000000 0.750000 0.490000
0.090355 0.027455 -0.036463 1.000000 -0.000000 0.000000 0.919706 0.419706
0.090355 0.021530 -0.050767 1.000000 0.000000 -0.000000 0.990000 0.250000
0.090355 0.027455 -0.065071 1.000000 0.000000 -0.000000 0.919706 0.080294
0.090355 0.041760 -0.070996 1.000000 0.000000 0.000000 0.750000 0.010000
0.090355 0.056064 -0.065071 1.000000 0.000000 0.000000 0.580295 0.080294
0.090355 0.061989 -0.050767 1.000000 0.000000 0.000000 0.510000 0.250000
0.090355 0.021530 -0.050767 -0.000000 -0.923880 -0.382683 0.750000 0.500000
-1.023583 0.021530 -0.050767 -0.000000 -0.923880 -0.382683 0.750000 1.000000
-1.023583 0.027455 -0.065071 -0.000000 -0.923880 -0.382683 0.625000 1.000000
0.090355 0.027455 -0.065071 -0.000000 -0.923880 -0.382683 0.625000 0.500000
0.090355 0.056064 -0.036463 -0.000000 0.382686 0.923878 0.125000 0.500000
-1.023583 0.056064 -0.036463 -0.000000 0.382686 0.923878 0.125000 1.000000
-1.023583 0.041759 -0.030538 -0.000000 0.382686 0.923878 0.000000 1.000000
0.090355 0.056064 -0.036463 -0.000000 0.382683 0.923880 0.125000 0.500000
-1.023583 0.041759 -0.030538 -0.000000 0.382683 0.923880 0.000000 1.000000
0.090355 0.041760 -0.030538 -0.000000 0.382683 0.923880 0.000000 0.500000
0.090355 0.027455 -0.036463 0.000000 -0.923880 0.382683 0.875000 0.500000
-1.023583 0.027455 -0.036463 0.000000 -0.923880 0.382683 0.875000 1.000000
-1.023583 0.021530 -0.050767 0.000000 -0.923880 0.382683 0.750000 1.000000
0.090355 0.021530 -0.050767 0.000000 -0.923880 0.382683 0.750000 0.500000
0.090355 0.041760 -0.030538 0.000000 -0.382685 0.923879 1.000000 0.500000
-1.023583 0.041759 -0.030538 0.000000 -0.382685 0.923879 1.000000 1.000000
-1.023583 0.027455 -0.036463 0.000000 -0.382685 0.923879 0.875000 1.000000
0.090355 0.041760 -0.030538 0.000000 -0.382683 0.923880 1.000000 0.500000
-1.023583 0.027455 -0.036463 0.000000 -0.382683 0.923880 0.875000 1.000000
0.090355 0.027455 -0.036463 0.000000 -0.382683 0.923880 0.875000 0.500000
0.090355 0.061989 -0.050767 0.000000 0.923877 0.382690 0.250000 0.500000
-1.023583 0.061989 -0.050767 0.000000 0.923877 0.382690 0.250000 1.000000
-1.023583 0.056064 -0.036463 0.000000 0.923877 0.382690 0.125000 1.000000
0.090355 0.061989 -0.050767 -0.000000 0.923881 0.382679 0.250000 0.500000
-1.023583 0.056064 -0.036463 -0.000000 0.923881 0.382679 0.125000 1.000000
0.090355 0.056064 -0.036463 -0.000000 0.923881 0.382679 0.125000 0.500000
-0.637881 -0.417354 -0.065071 0.923876 0.002147 -0.382685 0.375000 0.833333
-0.638937 0.037104 -0.065071 0.923876 0.002147 -0.382685 0.375000 1.000000
-0.633012 0.037104 -0.050767 0.923876 0.002147 -0.382685 0.250000 1.000000
-0.637881 -0.417354 -0.065071 0.922773 0.002242 -0.385338 0.375000 0.833333
-0.633012 0.037104 -0.050767 0.922773 0.002242 -0.385338 0.250000 1.000000
-0.631921 -0.411989 -0.050767 0.922773 0.002242 -0.385338 0.250000 0.833333
-0.652270 -0.430306 -0.070996 0.382684 0.000795 -0.923879 0.500000 0.833333
-0.653242 0.037104 -0.070996 0.382684 0.000795 -0.923879 0.500000 1.000000
-0.638937 0.037104 -0.065071 0.382684 0.000795 -0.923879 0.375000 1.000000
-0.652270 -0.430306 -0.070996 0.380076 0.000883 -0.924955 0.500000 0.833333
-0.638937 0.037104 -0.065071 0.380076 0.000883 -0.924955 0.375000 1.000000
-0.637881 -0.417354 -0.065071 0.380076 0.000883 -0.924955 0.375000 0.833333
-0.666660 -0.443258 -0.065071 -0.382684 -0.000706 -0.923879 0.625000 0.833333
-0.667546 0.037104 -0.065071 -0.382684 -0.000706 -0.923879 0.625000 1.000000
-0.653242 0.037104 -0.070996 -0.382684 -0.000706 -0.923879 0.500000 1.000000
-0.666660 -0.443258 -0.065071 -0.380146 -0.000790 -0.924926 0.625000 0.833333
-0.653242 0.037104 -0.070996 -0.380146 -0.000790 -0.924926 0.500000 1.000000
-0.652270 -0.430306 -0.070996 -0.380146 -0.000790 -0.924926 0.500000 0.833333
-0.672620 -0.448623 -0.050767 -0.923879 -0.001619 -0.382682 0.750000 0.833333
-0.673471 0.037104 -0.050767 -0.923879 -0.001619 -0.382682 0.750000 1.000000
-0.667546 0.037104 -0.065071 -0.923879 -0.001619 -0.382682 0.625000 1.000000
-0.672620 -0.448623 -0.050767 -0.922847 -0.001703 -0.385162 0.750000 0.833333
-0.667546 0.037104 -0.065071 -0.922847 -0.001703 -0.385162 0.625000 1.000000
-0.666660 -0.443258 -0.065071 -0.922847 -0.001703 -0.385162 0.625000 0.833333
-0.637881 -0.417354 -0.036463 0.382684 0.000889 0.923879 0.125000 0.833333
-0.638937 0.037104 -0.036463 0.382684 0.000889 0.923879 0.125000 1.000000
-0.653242 0.037104 -0.030538 0.382684 0.000889 0.923879 0.000000 1.000000
-0.637881 -0.417354 -0.036463 0.380146 0.000790 0.924926 0.125000 0.833333
-0.653242 0.037104 -0.030538 0.380146 0.000790 0.924926 0.000000 1.000000
-0.652270 -0.430306 -0.030538 0.380146 0.000790 0.924926 0.000000 0.833333
-0.666660 -0.443258 -0.036463 -0.923878 -0.001705 0.382682 0.875000 0.833333
-0.667546 0.037104 -0.036463 -0.923878 -0.001705 0.382682 0.875000 1.000000
-0.673471 0.037104 -0.050767 -0.923878 -0.001705 0.382682 0.750000 1.000000
-0.666660 -0.443258 -0.036463 -0.922859 -0.001617 0.385135 0.875000 0.833333
-0.673471 0.037104 -0.050767 -0.922859 -0.001617 0.385135 0.750000 1.000000
-0.672620 -0.448623 -0.050767 -0.922859 -0.001617 0.385135 0.750000 0.833333
-0.652270 -0.430306 -0.030538 -0.382684 -0.000795 0.923879 1.000000 0.833333
-0.653242 0.037104 -0.030538 -0.382684 -0.000795 0.923879 1.000000 1.000000
-0.667546 0.037104 -0.036463 -0.382684 -0.000795 0.923879 0.875000 1.000000
-0.652270 -0.430306 -0.030538 -0.380218 -0.000702 0.924897 1.000000 0.833333
-0.667546 0.037104 -0.036463 -0.380218 -0.000702 0.924897 0.875000 1.000000
-0.666660 -0.443258 -0.036463 -0.380218 -0.000702 0.924897 0.875000 0.833333
-0.631921 -0.411989 -0.050767 0.923876 0.002245 0.382685 0.250000 0.833333
-0.633012 0.037104 -0.050767 0.923876 0.002245 0.382685 0.250000 1.000000
-0.638937 0.037104 -0.036463 0.923876 0.002245 0.382685 0.125000 1.000000
-0.631921 -0.411989 -0.050767 0.922786 0.002144 0.385307 0.250000 0.833333
-0.638937 0.037104 -0.036463 0.922786 0.002144 0.385307 0.125000 1.000000
-0.637881 -0.417354 -0.036463 0.922786 0.002144 0.385307 0.125000 0.833333
-0.299366 0.037104 -0.050767 -0.924522 0.003410 0.381113 0.250000 0.500000
-0.301023 -0.411989 -0.050767 -0.924522 0.003410 0.381113 0.250000 0.666667
-0.295146 -0.417354 -0.036463 -0.924522 0.003410 0.381113 0.125000 0.666667
-0.299366 0.037104 -0.050767 -0.923876 0.003466 0.382677 0.250000 0.500000
-0.295146 -0.417354 -0.036463 -0.923876 0.003466 0.382677 0.125000 0.666667
-0.293441 0.037104 -0.036463 -0.923876 0.003466 0.382677 0.125000 0.500000
-0.301023 -0.411989 -0.050767 0.000000 0.936311 0.351172 0.250000 0.666667
-0.631921 -0.411989 -0.050767 0.000000 0.936311 0.351172 0.250000 0.833333
-0.637881 -0.417354 -0.036463 0.000000 0.936311 0.351172 0.125000 0.833333
-0.301023 -0.411989 -0.050767 -0.000000 0.936312 0.351168 0.250000 0.666667
-0.637881 -0.417354 -0.036463 -0.000000 0.936312 0.351168 0.125000 0.833333
-0.295146 -0.417354 -0.036463 -0.000000 0.936312 0.351168 0.125000 0.666667
-0.279137 0.037104 -0.030538 0.384188 -0.001497 0.923254 1.000000 0.500000
-0.280958 -0.430306 -0.030538 0.384188 -0.001497 0.923254 1.000000 0.666667
-0.266769 -0.443258 -0.036463 0.384188 -0.001497 0.923254 0.875000 0.666667
-0.279137 0.037104 -0.030538 0.382683 -0.001543 0.923879 1.000000 0.500000
-0.266769 -0.443258 -0.036463 0.382683 -0.001543 0.923879 0.875000 0.666667
-0.264832 0.037104 -0.036463 0.382683 -0.001543 0.923879 0.875000 0.500000
-0.280958 -0.430306 -0.030538 -0.000000 -0.415994 0.909367 1.000000 0.666667
-0.652270 -0.430306 -0.030538 -0.000000 -0.415994 0.909367 1.000000 0.833333
-0.666660 -0.443258 -0.036463 -0.000000 -0.415994 0.909367 0.875000 0.833333
-0.280958 -0.430306 -0.030538 -0.000000 -0.415996 0.909367 1.000000 0.666667
-0.666660 -0.443258 -0.036463 -0.000000 -0.415996 0.909367 0.875000 0.833333
-0.266769 -0.443258 -0.036463 -0.000000 -0.415996 0.909367 0.875000 0.666667
-0.264832 0.037104 -0.036463 0.924478 -0.003728 0.381216 0.875000 0.500000
-0.266769 -0.443258 -0.036463 0.924478 -0.003728 0.381216 0.875000 0.666667
-0.260892 -0.448623 -0.050767 0.924478 -0.003728 0.381216 0.750000 0.666667
-0.264832 0.037104 -0.036463 0.923873 -0.003776 0.382680 0.875000 0.500000
-0.260892 -0.448623 -0.050767 0.923873 -0.003776 0.382680 0.750000 0.666667
-0.258907 0.037104 -0.050767 0.923873 -0.003776 0.382680 0.750000 0.500000
-0.266769 -0.443258 -0.036463 -0.000000 -0.936311 0.351172 0.875000 0.666667
-0.666660 -0.443258 -0.036463 -0.000000 -0.936311 0.351172 0.875000 0.833333
-0.672620 -0.448623 -0.050767 -0.000000 -0.936311 0.351172 0.750000 0.833333
-0.266769 -0.443258 -0.036463 -0.000000 -0.936312 0.351170 0.875000 0.666667
-0.672620 -0.448623 -0.050767 -0.000000 -0.936312 0.351170 0.750000 0.833333
-0.260892 -0.448623 -0.050767 -0.000000 -0.936312 0.351170 0.750000 0.666667
-0.293441 0.037104 -0.036463 -0.384235 0.001441 0.923234 0.125000 0.500000
-0.295146 -0.417354 -0.036463 -0.384235 0.001441 0.923234 0.125000 0.666667
-0.280958 -0.430306 -0.030538 -0.384235 0.001441 0.923234 0.000000 0.666667
-0.293441 0.037104 -0.036463 -0.382683 0.001491 0.923879 0.125000 0.500000
-0.280958 -0.430306 -0.030538 -0.382683 0.001491 0.923879 0.000000 0.666667
-0.279137 0.037104 -0.030538 -0.382683 0.001491 0.923879 0.000000 0.500000
-0.295146 -0.417354 -0.036463 -0.000000 0.415997 0.909366 0.125000 0.666667
-0.637881 -0.417354 -0.036463 -0.000000 0.415997 0.909366 0.125000 0.833333
-0.652270 -0.430306 -0.030538 -0.000000 0.415997 0.909366 0.000000 0.833333
-0.295146 -0.417354 -0.036463 0.000000 0.415994 0.909368 0.125000 0.666667
-0.652270 -0.430306 -0.030538 0.000000 0.415994 0.909368 0.000000 0.833333
-0.280958 -0.430306 -0.030538 0.000000 0.415994 0.909368 0.000000 0.666667
-0.258907 0.037104 -0.050767 0.924471 -0.003779 -0.381233 0.750000 0.500000
-0.260892 -0.448623 -0.050767 0.924471 -0.003779 -0.381233 0.750000 0.666667
-0.266769 -0.443258 -0.065071 0.924471 -0.003779 -0.381233 0.625000 0.666667
-0.258907 0.037104 -0.050767 0.923874 -0.003726 -0.382679 0.750000 0.500000
-0.266769 -0.443258 -0.065071 0.923874 -0.003726 -0.382679 0.625000 0.666667
-0.264832 0.037104 -0.065071 0.923874 -0.003726 -0.382679 0.625000 0.500000
-0.260892 -0.448623 -0.050767 -0.000000 -0.936311 -0.351172 0.750000 0.666667
-0.672620 -0.448623 -0.050767 -0.000000 -0.936311 -0.351172 0.750000 0.833333
-0.666660 -0.443258 -0.065071 -0.000000 -0.936311 -0.351172 0.625000 0.833333
-0.260892 -0.448623 -0.050767 -0.000000 -0.936312 -0.351170 0.750000 0.666667
-0.666660 -0.443258 -0.065071 -0.000000 -0.936312 -0.351170 0.625000 0.833333
-0.266769 -0.443258 -0.065071 -0.000000 -0.936312 -0.351170 0.625000 0.666667
-0.264832 0.037104 -0.065071 0.384149 -0.001549 -0.923270 0.625000 0.500000
-0.266769 -0.443258 -0.065071 0.384149 -0.001549 -0.923270 0.625000 0.666667
-0.280958 -0.430306 -0.070996 0.384149 -0.001549 -0.923270 0.500000 0.666667
-0.264832 0.037104 -0.065071 0.382683 -0.001491 -0.923879 0.625000 0.500000
-0.280958 -0.430306 -0.070996 0.382683 -0.001491 -0.923879 0.500000 0.666667
-0.279137 0.037104 -0.070996 0.382683 -0.001491 -0.923879 0.500000 0.500000
-0.266769 -0.443258 -0.065071 -0.000000 -0.415995 -0.909367 0.625000 0.666667
-0.666660 -0.443258 -0.065071 -0.000000 -0.415995 -0.909367 0.625000 0.833333
-0.652270 -0.430306 -0.070996 -0.000000 -0.415995 -0.909367 0.500000 0.833333
-0.280958 -0.430306 -0.070996 -0.000000 -0.415995 -0.909367 0.500000 0.666667
-0.279137 0.037104 -0.070996 -0.384190 0.001497 -0.923253 0.500000 0.500000
-0.280958 -0.430306 -0.070996 -0.384190 0.001497 -0.923253 0.500000 0.666667
-0.295146 -0.417354 -0.065071 -0.384190 0.001497 -0.923253 0.375000 0.666667
-0.279137 0.037104 -0.070996 -0.382683 0.001436 -0.923879 0.500000 0.500000
-0.295146 -0.417354 -0.065071 -0.382683 0.001436 -0.923879 0.375000 0.666667
-0.293441 0.037104 -0.065071 -0.382683 0.001436 -0.923879 0.375000 0.500000
-0.280958 -0.430306 -0.070996 0.000000 0.415995 -0.909367 0.500000 0.666667
-0.652270 -0.430306 -0.070996 0.000000 0.415995 -0.909367 0.500000 0.833333
-0.637881 -0.417354 -0.065071 0.000000 0.415995 -0.909367 0.375000 0.833333
-0.280958 -0.430306 -0.070996 -0.000000 0.415994 -0.909368 0.500000 0.666667
-0.637881 -0.417354 -0.065071 -0.000000 0.415994 -0.909368 0.375000 0.833333
-0.295146 -0.417354 -0.065071 -0.000000 0.415994 -0.909368 0.375000 0.666667
-0.293441 0.037104 -0.065071 -0.924514 0.003468 -0.381132 0.375000 0.500000
-0.295146 -0.417354 -0.065071 -0.924514 0.003468 -0.381132 0.375000 0.666667
-0.301023 -0.411989 -0.050767 -0.924514 0.003468 -0.381132 0.250000 0.666667
-0.293441 0.037104 -0.065071 -0.923876 0.003408 -0.382677 0.375000 0.500000
-0.301023 -0.411989 -0.050767 -0.923876 0.003408 -0.382677 0.250000 0.666667
-0.299366 0.037104 -0.050767 -0.923876 0.003408 -0.382677 0.250000 0.500000
-0.295146 -0.417354 -0.065071 -0.000000 0.936311 -0.351172 0.375000 0.666667
-0.637881 -0.417354 -0.065071 -0.000000 0.936311 -0.351172 0.375000 0.833333
-0.631921 -0.411989 -0.050767 -0.000000 0.936311 -0.351172 0.250000 0.833333
-0.295146 -0.417354 -0.065071 0.000000 0.936312 -0.351168 0.375000 0.666667
-0.631921 -0.411989 -0.050767 0.000000 0.936312 -0.351168 0.250000 0.833333
-0.301023 -0.411989 -0.050767 0.000000 0.936312 -0.351168 0.250000 0.666667
3 0 1 2
3 0 2 3
3 4 5 6
3 4 6 7
3 8 9 10
3 8 10 11
3 12 13 14
3 12 14 15
3 16 17 18
3 16 18 19
3 20 21 22
3 20 22 23
3 24 25 26
3 24 26 27
3 28 29 30
3 28 30 31
3 32 33 34
3 32 34 35
3 36 37 38
3 36 38 39
3 40 41 42
3 42 43 44
3 44 45 46
3 46 47 48
3 48 49 40
3 40 42 44
3 44 46 48
3 44 48 40
3 50 51 52
3 50 52 53
3 54 55 56
3 54 56 57
3 58 59 60
3 58 60 61
3 62 63 64
3 62 64 65
3 66 67 68
3 66 68 69
3 70 71 72
3 70 72 73
3 74 75 76
3 74 76 77
3 78 79 80
3 78 80 81
3 82 83 84
3 82 84 85
3 86 87 88
3 86 88 89
3 90 91 92
3 92 93 94
3 94 95 96
3 96 97 98
3 98 99 90
3 90 92 94
3 94 96 98
3 94 98 90
3 100 101 102
3 100 102 103
3 104 105 106
3 104 106 107
3 108 109 110
3 111 112 113
3 114 115 116
3 117 118 119
3 120 121 122
3 123 124 125
3 126 117 119
3 126 119 127
3 128 129 130
3 131 132 133
3 134 135 136
3 137 138 139
3 140 141 142
3 140 142 143
3 144 145 146
3 147 148 149
3 150 151 152
3 153 154 155
3 156 157 158
3 159 160 161
3 162 163 164
3 165 166 167
3 168 169 170
3 171 172 173
3 174 175 176
3 174 176 177
3 178 179 180
3 181 182 183
3 184 185 186
3 187 188 189
3 190 191 192
3 190 192 193
3 194 195 196
3 197 198 199
3 200 201 202
3 203 204 205
3 206 207 208
3 209 210 211
3 212 213 214
3 215 216 217
3 218 219 220
3 218 220 221
3 222 223 224
3 225 226 227
3 228 229 230
3 231 232 233
3 234 235 236
3 237 238 239
3 240 241 242
3 240 242 243
3 244 245 246
3 244 246 247
3 248 249 5
3 248 5 4
3 250 251 252
3 253 254 255
3 256 257 258
3 256 258 259
3 260 261 262
3 263 264 265
3 266 218 221
3 266 221 267
3 268 269 270
3 271 272 273
3 274 275 276
3 274 276 277
3 278 279 280
3 281 282 283
3 284 285 286
3 287 288 289
3 290 190 193
3 290 193 291
3 292 293 294
3 295 296 297
3 298 299 300
3 298 300 301
3 243 242 302
3 243 302 303
3 1 0 304
3 1 304 305
3 304 0 306
3 304 306 307
3 308 309 310
3 308 310 311
3 4 7 312
3 4 312 313
3 300 299 314
3 300 314 315
3 316 317 318
3 316 318 319
3 320 321 322
3 322 323 324
3 324 325 326
3 326 327 320
3 320 322 324
3 324 326 320
3 328 329 330
3 331 332 333
3 334 335 336
3 337 338 339
3 340 341 342
3 343 344 345
3 346 347 348
3 348 349 350
3 350 351 352
3 352 353 346
3 346 348 350
3 350 352 346
3 354 355 356
3 354 356 357
3 358 359 360
3 361 362 363
3 364 365 366
3 364 366 367
3 368 369 370
3 371 372 373
3 374 375 376
3 377 378 379
3 380 381 382
3 383 384 385
3 386 387 388
3 389 390 391
3 392 393 394
3 395 396 397
3 398 399 400
3 401 402 403
3 404 405 406
3 407 408 409
3 410 411 412
3 413 414 415
3 416 417 418
3 419 420 421
3 422 423 424
3 425 426 427
3 428 429 430
3 431 432 433
3 434 435 436
3 437 438 439
3 440 441 442
3 443 444 445
3 446 447 448
3 449 450 451
3 452 453 454
3 455 456 457
3 458 459 460
3 461 462 463
3 464 465 466
3 467 468 469
3 470 471 472
3 473 474 475
3 476 477 478
3 479 480 481
3 482 483 484
3 485 486 487
3 488 489 490
3 491 492 493
3 494 495 496
3 494 496 497
3 498 499 500
3 501 502 503
3 504 505 506
3 507 508 509
3 510 511 512
3 513 514 515
3 516 517 518
3 519 520 521
