ply
format ascii 1.0
comment Created by Blender 2.80 (sub 75) - www.blender.org, source file: 'advance_models.blend'
element vertex 326
property float x
property float y
property float z
property float nx
property float ny
property float nz
property float s
property float t
element face 150
property list uchar uint vertex_indices
end_header
-0.018601 -1.000000 0.020000 -0.309016 0.000000 0.951057 1.000000 0.500000
-0.018601 1.000000 0.020000 -0.309016 0.000000 0.951057 1.000000 1.000000
-0.030357 1.000000 0.016180 -0.309016 0.000000 0.951057 0.900000 1.000000
-0.030357 -1.000000 0.016180 -0.309016 0.000000 0.951057 0.900000 0.500000
-0.030357 -1.000000 0.016180 -0.809016 0.000000 0.587787 0.900000 0.500000
-0.030357 1.000000 0.016180 -0.809016 0.000000 0.587787 0.900000 1.000000
-0.037622 1.000000 0.006180 -0.809016 0.000000 0.587787 0.800000 1.000000
-0.037622 -1.000000 0.006180 -0.809016 0.000000 0.587787 0.800000 0.500000
-0.037622 -1.000000 0.006180 -1.000000 0.000000 0.000000 0.800000 0.500000
-0.037622 1.000000 0.006180 -1.000000 0.000000 0.000000 0.800000 1.000000
-0.037622 1.000000 -0.006181 -1.000000 0.000000 0.000000 0.700000 1.000000
-0.037622 -1.000000 -0.006181 -1.000000 0.000000 0.000000 0.700000 0.500000
-0.037622 -1.000000 -0.006181 -0.809019 -0.000000 -0.587783 0.700000 0.500000
-0.037622 1.000000 -0.006181 -0.809019 -0.000000 -0.587783 0.700000 1.000000
-0.030357 1.000000 -0.016181 -0.809019 -0.000000 -0.587783 0.600000 1.000000
-0.030357 -1.000000 -0.016181 -0.809019 0.000000 -0.587783 0.600000 0.500000
-0.030357 -1.000000 -0.016181 -0.309018 -0.000000 -0.951056 0.600000 0.500000
-0.030357 1.000000 -0.016181 -0.309018 -0.000000 -0.951056 0.600000 1.000000
-0.018601 1.000000 -0.020000 -0.309018 -0.000000 -0.951056 0.500000 1.000000
-0.018601 -1.000000 -0.020000 -0.309018 0.000000 -0.951056 0.500000 0.500000
-0.018601 -1.000000 -0.020000 0.309016 0.000000 -0.951057 0.500000 0.500000
-0.018601 1.000000 -0.020000 0.309016 0.000000 -0.951057 0.500000 1.000000
-0.006845 1.000000 -0.016181 0.309016 0.000000 -0.951057 0.400000 1.000000
-0.006845 -1.000000 -0.016181 0.309016 0.000000 -0.951057 0.400000 0.500000
-0.006845 -1.000000 -0.016181 0.809016 0.000000 -0.587787 0.400000 0.500000
-0.006845 1.000000 -0.016181 0.809016 0.000000 -0.587787 0.400000 1.000000
0.000420 1.000000 -0.006181 0.809016 0.000000 -0.587787 0.300000 1.000000
0.000420 -1.000000 -0.006181 0.809016 0.000000 -0.587787 0.300000 0.500000
0.000420 -1.000000 -0.006181 1.000000 0.000000 0.000000 0.300000 0.500000
0.000420 1.000000 -0.006181 1.000000 0.000000 0.000000 0.300000 1.000000
0.000420 1.000000 0.006180 1.000000 0.000000 0.000000 0.200000 1.000000
0.000420 -1.000000 0.006180 1.000000 -0.000000 0.000000 0.200000 0.500000
-0.037622 1.000000 0.006180 0.000000 1.000000 0.000000 0.478254 0.324164
-0.030357 1.000000 0.016180 0.000000 1.000000 0.000000 0.391068 0.444164
-0.018601 1.000000 0.020000 0.000000 1.000000 0.000000 0.250000 0.490000
-0.006845 1.000000 0.016180 0.000000 1.000000 0.000000 0.108932 0.444164
0.000420 1.000000 0.006180 0.000000 1.000000 0.000000 0.021746 0.324164
0.000420 1.000000 -0.006181 0.000000 1.000000 0.000000 0.021746 0.175836
-0.006845 1.000000 -0.016181 0.000000 1.000000 0.000000 0.108932 0.055836
-0.018601 1.000000 -0.020000 -0.000000 1.000000 0.000000 0.250000 0.010000
-0.030357 1.000000 -0.016181 -0.000000 1.000000 0.000000 0.391068 0.055836
-0.037622 1.000000 -0.006181 0.000000 1.000000 0.000000 0.478254 0.175836
0.000420 -1.000000 0.006180 0.809019 0.000000 0.587783 0.200000 0.500000
0.000420 1.000000 0.006180 0.809019 0.000000 0.587783 0.200000 1.000000
-0.006845 1.000000 0.016180 0.809019 0.000000 0.587783 0.100000 1.000000
-0.006845 -1.000000 0.016180 0.809019 -0.000000 0.587783 0.100000 0.500000
-0.006845 -1.000000 0.016180 0.309018 0.000000 0.951056 0.100000 0.500000
-0.006845 1.000000 0.016180 0.309018 0.000000 0.951056 0.100000 1.000000
-0.018601 1.000000 0.020000 0.309018 0.000000 0.951056 -0.000000 1.000000
-0.018601 -1.000000 0.020000 0.309018 -0.000000 0.951056 -0.000000 0.500000
-0.918502 -1.000000 0.020001 -0.309016 0.000000 0.951057 1.000000 0.500000
-0.918502 1.000000 0.020001 -0.309016 0.000000 0.951057 1.000000 1.000000
-0.930258 1.000000 0.016181 -0.309016 0.000000 0.951057 0.900000 1.000000
-0.930258 -1.000000 0.016181 -0.309016 0.000000 0.951057 0.900000 0.500000
-0.930258 -1.000000 0.016181 -0.809016 0.000000 0.587787 0.900000 0.500000
-0.930258 1.000000 0.016181 -0.809016 0.000000 0.587787 0.900000 1.000000
-0.937523 1.000000 0.006181 -0.809016 0.000000 0.587787 0.800000 1.000000
-0.937523 -1.000000 0.006181 -0.809016 0.000000 0.587787 0.800000 0.500000
-0.937523 -1.000000 0.006181 -1.000000 0.000000 0.000000 0.800000 0.500000
-0.937523 1.000000 0.006181 -1.000000 0.000000 0.000000 0.800000 1.000000
-0.937523 1.000000 -0.006180 -1.000000 0.000000 0.000000 0.700000 1.000000
-0.937523 -1.000000 -0.006180 -1.000000 0.000000 0.000000 0.700000 0.500000
-0.937523 -1.000000 -0.006180 -0.809019 -0.000000 -0.587783 0.700000 0.500000
-0.937523 1.000000 -0.006180 -0.809019 -0.000000 -0.587783 0.700000 1.000000
-0.930258 1.000000 -0.016180 -0.809019 -0.000000 -0.587783 0.600000 1.000000
-0.930258 -1.000000 -0.016180 -0.809019 0.000000 -0.587783 0.600000 0.500000
-0.930258 -1.000000 -0.016180 -0.309018 -0.000000 -0.951056 0.600000 0.500000
-0.930258 1.000000 -0.016180 -0.309018 -0.000000 -0.951056 0.600000 1.000000
-0.918502 1.000000 -0.019999 -0.309018 -0.000000 -0.951056 0.500000 1.000000
-0.918502 -1.000000 -0.019999 -0.309018 0.000000 -0.951056 0.500000 0.500000
-0.918502 -1.000000 -0.019999 0.309016 0.000000 -0.951057 0.500000 0.500000
-0.918502 1.000000 -0.019999 0.309016 0.000000 -0.951057 0.500000 1.000000
-0.906747 1.000000 -0.016180 0.309016 0.000000 -0.951057 0.400000 1.000000
-0.906747 -1.000000 -0.016180 0.309016 0.000000 -0.951057 0.400000 0.500000
-0.906747 -1.000000 -0.016180 0.809016 0.000000 -0.587787 0.400000 0.500000
-0.906747 1.000000 -0.016180 0.809016 0.000000 -0.587787 0.400000 1.000000
-0.899481 1.000000 -0.006180 0.809016 0.000000 -0.587787 0.300000 1.000000
-0.899481 -1.000000 -0.006180 0.809016 0.000000 -0.587787 0.300000 0.500000
-0.899481 -1.000000 -0.006180 1.000000 0.000000 0.000000 0.300000 0.500000
-0.899481 1.000000 -0.006180 1.000000 0.000000 0.000000 0.300000 1.000000
-0.899481 1.000000 0.006181 1.000000 0.000000 0.000000 0.200000 1.000000
-0.899481 -1.000000 0.006181 1.000000 -0.000000 0.000000 0.200000 0.500000
-0.937523 1.000000 0.006181 0.000000 1.000000 0.000000 0.478254 0.324164
-0.930258 1.000000 0.016181 0.000000 1.000000 0.000000 0.391068 0.444164
-0.918502 1.000000 0.020001 0.000000 1.000000 0.000000 0.250000 0.490000
-0.906747 1.000000 0.016181 0.000000 1.000000 0.000000 0.108932 0.444164
-0.899481 1.000000 0.006181 0.000000 1.000000 0.000000 0.021746 0.324164
-0.899481 1.000000 -0.006180 0.000000 1.000000 0.000000 0.021746 0.175836
-0.906747 1.000000 -0.016180 0.000000 1.000000 0.000000 0.108932 0.055836
-0.918502 1.000000 -0.019999 -0.000000 1.000000 0.000000 0.250000 0.010000
-0.930258 1.000000 -0.016180 -0.000000 1.000000 0.000000 0.391068 0.055836
-0.937523 1.000000 -0.006180 0.000000 1.000000 0.000000 0.478254 0.175836
-0.899481 -1.000000 0.006181 0.809019 0.000000 0.587783 0.200000 0.500000
-0.899481 1.000000 0.006181 0.809019 0.000000 0.587783 0.200000 1.000000
-0.906747 1.000000 0.016181 0.809019 0.000000 0.587783 0.100000 1.000000
-0.906747 -1.000000 0.016181 0.809019 -0.000000 0.587783 0.100000 0.500000
-0.906747 -1.000000 0.016181 0.309018 0.000000 0.951056 0.100000 0.500000
-0.906747 1.000000 0.016181 0.309018 0.000000 0.951056 0.100000 1.000000
-0.918502 1.000000 0.020001 0.309018 0.000000 0.951056 -0.000000 1.000000
-0.918502 -1.000000 0.020001 0.309018 -0.000000 0.951056 -0.000000 0.500000
-0.044924 -0.845080 0.043062 1.000000 0.000000 -0.000001 0.375000 0.125000
-0.044925 -0.845080 -1.000000 1.000000 0.000000 -0.000001 0.375000 0.250000
-0.044925 -0.805590 -1.000000 1.000000 0.000000 -0.000001 0.625000 0.250000
-0.044924 -0.805590 0.043062 1.000000 0.000000 -0.000001 0.625000 0.125000
-0.894923 -0.845080 0.043063 -1.000000 0.000000 0.000002 0.375000 0.625000
-0.894923 -0.845080 0.069692 -1.000000 0.000000 0.000002 0.375000 0.625000
-0.894923 -0.805590 0.069692 -1.000000 0.000000 0.000002 0.625000 0.625000
-0.894923 -0.805590 0.043063 -1.000000 0.000000 0.000002 0.625000 0.625000
-0.876653 -0.904711 -0.240425 -0.270225 0.831670 -0.485081 1.000000 0.680953
-0.886300 -0.907845 -0.240425 -0.270225 0.831670 -0.485081 0.900000 0.680953
-0.886300 -0.838896 -0.122211 -0.270225 0.831670 -0.485081 0.900000 0.750000
-0.876653 -0.904711 -0.240425 -0.239358 0.839885 -0.487136 1.000000 0.680953
-0.886300 -0.838896 -0.122211 -0.239358 0.839885 -0.487136 0.900000 0.750000
-0.876653 -0.838896 -0.126951 -0.239358 0.839885 -0.487136 1.000000 0.750000
-0.892262 -0.916051 -0.240425 -1.000000 0.000000 0.000001 0.800000 0.680953
-0.892262 -0.926195 -0.240425 -1.000000 0.000000 0.000001 0.700000 0.680953
-0.892262 -0.838896 -0.094462 -1.000000 0.000000 0.000001 0.700000 0.750000
-0.892262 -0.916051 -0.240425 -1.000000 0.000002 0.000000 0.800000 0.680953
-0.892262 -0.838896 -0.094462 -1.000000 0.000002 0.000000 0.700000 0.750000
-0.892262 -0.838896 -0.109801 -1.000000 0.000002 0.000000 0.800000 0.750000
-0.892262 -0.926195 -0.240425 -0.762534 -0.554008 0.334092 0.700000 0.680953
-0.886300 -0.934401 -0.240425 -0.762534 -0.554008 0.334092 0.600000 0.680953
-0.886300 -0.838896 -0.082052 -0.762534 -0.554008 0.334092 0.600000 0.750000
-0.892262 -0.926195 -0.240425 -0.730081 -0.586470 0.350764 0.700000 0.680953
-0.886300 -0.838896 -0.082052 -0.730081 -0.586470 0.350764 0.600000 0.750000
-0.892262 -0.838896 -0.094462 -0.730081 -0.586470 0.350764 0.700000 0.750000
-0.886300 -0.934401 -0.240425 -0.267871 -0.824428 0.498561 0.600000 0.680953
-0.876653 -0.937536 -0.240425 -0.267871 -0.824428 0.498561 0.500000 0.680953
-0.876653 -0.838896 -0.077312 -0.267871 -0.824428 0.498561 0.500000 0.750000
-0.886300 -0.934401 -0.240425 -0.245947 -0.830037 0.500548 0.600000 0.680953
-0.876653 -0.838896 -0.077312 -0.245947 -0.830037 0.500548 0.500000 0.750000
-0.886300 -0.838896 -0.082052 -0.245947 -0.830037 0.500548 0.600000 0.750000
-0.876653 -0.937536 -0.240425 0.268057 -0.825002 0.497511 0.500000 0.680953
-0.867006 -0.934401 -0.240425 0.268057 -0.825002 0.497511 0.400000 0.680953
-0.867006 -0.838896 -0.082052 0.268057 -0.825002 0.497511 0.400000 0.750000
-0.876653 -0.937536 -0.240425 0.246423 -0.829313 0.501514 0.500000 0.680953
-0.867006 -0.838896 -0.082052 0.246423 -0.829313 0.501514 0.400000 0.750000
-0.876653 -0.838896 -0.077312 0.246423 -0.829313 0.501514 0.500000 0.750000
-0.867006 -0.934401 -0.240425 0.763228 -0.554518 0.331652 0.400000 0.680953
-0.861044 -0.926195 -0.240425 0.763228 -0.554518 0.331652 0.300000 0.680953
-0.861044 -0.838896 -0.094462 0.763228 -0.554518 0.331652 0.300000 0.750000
-0.867006 -0.934401 -0.240425 0.732149 -0.583293 0.351750 0.400000 0.680953
-0.861044 -0.838896 -0.094462 0.732149 -0.583293 0.351750 0.300000 0.750000
-0.867006 -0.838896 -0.082052 0.732149 -0.583293 0.351750 0.400000 0.750000
-0.861044 -0.926195 -0.240425 1.000000 0.000000 -0.000001 0.300000 0.680953
-0.861044 -0.916051 -0.240425 1.000000 0.000000 -0.000001 0.200000 0.680953
-0.861044 -0.838896 -0.109801 1.000000 0.000000 -0.000001 0.200000 0.750000
-0.861044 -0.926195 -0.240425 1.000000 -0.000001 0.000000 0.300000 0.680953
-0.861044 -0.838896 -0.109801 1.000000 -0.000001 0.000000 0.200000 0.750000
-0.861044 -0.838896 -0.094462 1.000000 -0.000001 0.000000 0.300000 0.750000
-0.861044 -0.916051 -0.240425 0.765292 0.556017 -0.324305 0.200000 0.680953
-0.867006 -0.907845 -0.240425 0.765292 0.556017 -0.324305 0.100000 0.680953
-0.867006 -0.838896 -0.122211 0.765292 0.556017 -0.324305 0.100000 0.750000
-0.861044 -0.916051 -0.240425 0.726931 0.591268 -0.349247 0.200000 0.680953
-0.867006 -0.838896 -0.122211 0.726931 0.591268 -0.349247 0.100000 0.750000
-0.861044 -0.838896 -0.109801 0.726931 0.591268 -0.349247 0.200000 0.750000
-0.867006 -0.907845 -0.240425 0.270577 0.832763 -0.483006 0.100000 0.680953
-0.876653 -0.904711 -0.240425 0.270577 0.832763 -0.483006 -0.000000 0.680953
-0.876653 -0.838896 -0.126951 0.270577 0.832763 -0.483006 -0.000000 0.750000
-0.867006 -0.907845 -0.240425 0.240302 0.838495 -0.489062 0.100000 0.680953
-0.876653 -0.838896 -0.126951 0.240302 0.838495 -0.489062 -0.000000 0.750000
-0.867006 -0.838896 -0.122211 0.240302 0.838495 -0.489062 0.100000 0.750000
-0.886300 -0.907845 -0.240425 -0.764268 0.555268 -0.327981 0.900000 0.680953
-0.892262 -0.916051 -0.240425 -0.764268 0.555268 -0.327981 0.800000 0.680953
-0.892262 -0.838896 -0.109801 -0.764268 0.555268 -0.327981 0.800000 0.750000
-0.886300 -0.907845 -0.240425 -0.723706 0.596120 -0.347693 0.900000 0.680953
-0.892262 -0.838896 -0.109801 -0.723706 0.596120 -0.347693 0.800000 0.750000
-0.886300 -0.838896 -0.122211 -0.723706 0.596120 -0.347693 0.900000 0.750000
-0.894925 -0.805590 -0.999999 0.000000 1.000000 0.000000 0.625000 0.500000
-0.894923 -0.805590 0.043063 0.000000 1.000000 0.000000 0.625000 0.625000
-0.044924 -0.805590 0.043062 0.000000 1.000000 0.000000 0.875000 0.625000
-0.044925 -0.805590 -1.000000 0.000000 1.000000 -0.000000 0.875000 0.500000
-0.044925 -0.845080 -1.000000 0.000000 -1.000000 -0.000000 0.125000 0.500000
-0.044924 -0.845080 0.043062 0.000000 -1.000000 -0.000000 0.125000 0.625000
-0.894923 -0.845080 0.043063 0.000000 -1.000000 -0.000000 0.375000 0.625000
-0.894925 -0.845080 -0.999999 0.000000 -1.000000 0.000000 0.375000 0.500000
-0.894925 -0.845080 -0.999999 -1.000000 0.000000 0.000001 0.375000 0.500000
-0.894923 -0.845080 0.043063 -1.000000 0.000000 0.000001 0.375000 0.625000
-0.894923 -0.805590 0.043063 -1.000000 0.000000 0.000001 0.625000 0.625000
-0.894925 -0.805590 -0.999999 -1.000000 0.000000 0.000001 0.625000 0.500000
-0.886301 -0.907845 -0.999999 -0.809017 0.587786 0.000001 0.900000 0.500000
-0.892263 -0.916051 -0.999999 -0.809017 0.587786 0.000001 0.800000 0.500000
-0.892262 -0.916051 -0.240425 -0.809017 0.587786 0.000001 0.800000 0.680953
-0.886301 -0.907845 -0.999999 -0.809020 0.587782 0.000001 0.900000 0.500000
-0.892262 -0.916051 -0.240425 -0.809020 0.587782 0.000001 0.800000 0.680953
-0.886300 -0.907845 -0.240425 -0.809020 0.587782 0.000001 0.900000 0.680953
-0.867007 -0.907845 -0.999999 0.309016 0.951057 -0.000000 0.100000 0.500000
-0.876654 -0.904711 -0.999999 0.309016 0.951057 -0.000000 -0.000000 0.500000
-0.876653 -0.904711 -0.240425 0.309016 0.951057 -0.000000 -0.000000 0.680953
-0.867007 -0.907845 -0.999999 0.309014 0.951057 -0.000000 0.100000 0.500000
-0.876653 -0.904711 -0.240425 0.309014 0.951057 -0.000000 -0.000000 0.680953
-0.867006 -0.907845 -0.240425 0.309014 0.951057 -0.000000 0.100000 0.680953
-0.861045 -0.916051 -0.999999 0.809017 0.587786 -0.000001 0.200000 0.500000
-0.867007 -0.907845 -0.999999 0.809017 0.587786 -0.000001 0.100000 0.500000
-0.867006 -0.907845 -0.240425 0.809017 0.587786 -0.000001 0.100000 0.680953
-0.861044 -0.916051 -0.240425 0.809017 0.587786 -0.000001 0.200000 0.680953
-0.861045 -0.926195 -0.999999 1.000000 0.000000 -0.000001 0.300000 0.500000
-0.861045 -0.916051 -0.999999 1.000000 0.000000 -0.000001 0.200000 0.500000
-0.867007 -0.934401 -0.999999 0.809017 -0.587786 -0.000001 0.400000 0.500000
-0.861045 -0.926195 -0.999999 0.809017 -0.587786 -0.000001 0.300000 0.500000
-0.861044 -0.926195 -0.240425 0.809017 -0.587786 -0.000001 0.300000 0.680953
-0.867006 -0.934401 -0.240425 0.809017 -0.587786 -0.000001 0.400000 0.680953
-0.876654 -0.937536 -0.999999 0.309016 -0.951057 -0.000000 0.500000 0.500000
-0.867007 -0.934401 -0.999999 0.309016 -0.951057 -0.000000 0.400000 0.500000
-0.867006 -0.934401 -0.240425 0.309016 -0.951057 -0.000000 0.400000 0.680953
-0.876654 -0.937536 -0.999999 0.309014 -0.951057 -0.000000 0.500000 0.500000
-0.867006 -0.934401 -0.240425 0.309014 -0.951057 -0.000000 0.400000 0.680953
-0.876653 -0.937536 -0.240425 0.309014 -0.951057 -0.000000 0.500000 0.680953
-0.886301 -0.934401 -0.999999 -0.309016 -0.951057 0.000000 0.600000 0.500000
-0.876654 -0.937536 -0.999999 -0.309016 -0.951057 0.000000 0.500000 0.500000
-0.876653 -0.937536 -0.240425 -0.309016 -0.951057 0.000000 0.500000 0.680953
-0.886300 -0.934401 -0.240425 -0.309016 -0.951057 0.000000 0.600000 0.680953
-0.892263 -0.926195 -0.999999 -0.809017 -0.587786 0.000001 0.700000 0.500000
-0.886301 -0.934401 -0.999999 -0.809017 -0.587786 0.000001 0.600000 0.500000
-0.886300 -0.934401 -0.240425 -0.809017 -0.587786 0.000001 0.600000 0.680953
-0.892263 -0.926195 -0.999999 -0.809020 -0.587782 0.000001 0.700000 0.500000
-0.886300 -0.934401 -0.240425 -0.809020 -0.587782 0.000001 0.600000 0.680953
-0.892262 -0.926195 -0.240425 -0.809020 -0.587782 0.000001 0.700000 0.680953
-0.892263 -0.916051 -0.999999 -1.000000 0.000000 0.000001 0.800000 0.500000
-0.892263 -0.926195 -0.999999 -1.000000 0.000000 0.000001 0.700000 0.500000
-0.876654 -0.904711 -0.999999 -0.309016 0.951057 0.000000 1.000000 0.500000
-0.886301 -0.907845 -0.999999 -0.309016 0.951057 0.000000 0.900000 0.500000
-0.886300 -0.907845 -0.240425 -0.309016 0.951057 0.000000 0.900000 0.680953
-0.876653 -0.904711 -0.240425 -0.309016 0.951057 0.000000 1.000000 0.680953
-0.044923 -0.805590 0.069691 0.000001 -0.000000 1.000000 0.625000 0.125000
-0.894923 -0.805590 0.069692 0.000001 -0.000000 1.000000 0.625000 0.625000
-0.894923 -0.845080 0.069692 0.000001 -0.000000 1.000000 0.375000 0.625000
-0.044923 -0.845080 0.069691 0.000001 0.000000 1.000000 0.375000 0.125000
-0.894923 -0.805590 0.069692 0.000000 1.000000 0.000000 0.625000 0.625000
-0.044923 -0.805590 0.069691 0.000000 1.000000 0.000000 0.875000 0.625000
-0.044923 -0.805590 0.069691 1.000000 0.000000 -0.000001 0.625000 0.125000
-0.044923 -0.845080 0.069691 1.000000 0.000000 -0.000001 0.375000 0.125000
-0.044923 -0.876614 0.069691 1.000000 0.000000 -0.000001 0.375000 0.125000
-0.044924 -0.876614 0.043062 1.000000 0.000000 -0.000001 0.375000 0.125000
-0.044924 -0.876614 0.043062 0.000000 -1.000000 -0.000000 0.125000 0.625000
-0.044923 -0.876614 0.069691 0.000000 -1.000000 -0.000000 0.125000 0.625000
-0.894923 -0.876614 0.069692 0.000000 -1.000000 -0.000000 0.375000 0.625000
-0.894923 -0.876614 0.043063 0.000000 -1.000000 0.000000 0.375000 0.625000
-0.894923 -0.876614 0.043063 -1.000000 0.000000 0.000002 0.375000 0.625000
-0.894923 -0.876614 0.069692 -1.000000 0.000000 0.000002 0.375000 0.625000
-0.894923 -0.876614 0.069692 0.000001 -0.000000 1.000000 0.375000 0.625000
-0.044923 -0.876614 0.069691 0.000001 -0.000000 1.000000 0.375000 0.125000
-0.044924 -0.845080 0.043062 -0.000001 0.000000 -1.000000 0.125000 0.625000
-0.044924 -0.876614 0.043062 -0.000001 0.000000 -1.000000 0.125000 0.625000
-0.894923 -0.876614 0.043063 -0.000001 0.000000 -1.000000 0.375000 0.625000
-0.894923 -0.845080 0.043063 -0.000001 -0.000000 -1.000000 0.375000 0.625000
-0.961650 -0.987122 0.015407 -0.309009 0.672500 0.672500 1.000000 0.500000
-0.961651 0.028284 -0.999999 -0.309009 0.672500 0.672500 1.000000 0.753531
-0.973407 0.022883 -0.999999 -0.309009 0.672500 0.672500 0.900000 0.752857
-0.961650 -0.987122 0.015407 -0.309019 0.672498 0.672498 1.000000 0.500000
-0.973407 0.022883 -0.999999 -0.309019 0.672498 0.672498 0.900000 0.752857
-0.973406 -0.989823 0.012706 -0.309019 0.672498 0.672498 0.900000 0.500000
-0.973406 -0.989823 0.012706 -0.809020 0.415624 0.415625 0.900000 0.500000
-0.973407 0.022883 -0.999999 -0.809020 0.415624 0.415625 0.900000 0.752857
-0.980672 0.008741 -0.999999 -0.809020 0.415624 0.415625 0.800000 0.751091
-0.973406 -0.989823 0.012706 -0.809013 0.415630 0.415631 0.900000 0.500000
-0.980672 0.008741 -0.999999 -0.809013 0.415630 0.415631 0.800000 0.751091
-0.980671 -0.996894 0.005635 -0.809013 0.415630 0.415631 0.800000 0.500000
-0.980671 -0.996894 0.005635 -1.000000 0.000000 0.000001 0.800000 0.500000
-0.980672 0.008741 -0.999999 -1.000000 0.000000 0.000001 0.800000 0.751091
-0.980672 -0.008740 -0.999999 -1.000000 0.000000 0.000001 0.700000 0.748909
-0.980671 -0.996894 0.005635 -1.000000 -0.000001 0.000001 0.800000 0.500000
-0.980672 -0.008740 -0.999999 -1.000000 -0.000001 0.000001 0.700000 0.748909
-0.980671 -1.005634 -0.003106 -1.000000 -0.000001 0.000001 0.700000 0.500000
-0.980671 -1.005634 -0.003106 -0.809018 -0.415627 -0.415626 0.700000 0.500000
-0.980672 -0.008740 -0.999999 -0.809018 -0.415627 -0.415626 0.700000 0.748909
-0.973407 -0.022882 -0.999999 -0.809018 -0.415627 -0.415626 0.600000 0.747143
-0.980671 -1.005634 -0.003106 -0.809017 -0.415627 -0.415626 0.700000 0.500000
-0.973407 -0.022882 -0.999999 -0.809017 -0.415627 -0.415626 0.600000 0.747143
-0.973406 -1.012705 -0.010177 -0.809017 -0.415627 -0.415626 0.600000 0.500000
-0.973406 -1.012705 -0.010177 -0.309022 -0.672498 -0.672497 0.600000 0.500000
-0.973407 -0.022882 -0.999999 -0.309022 -0.672498 -0.672497 0.600000 0.747143
-0.961651 -0.028284 -0.999999 -0.309022 -0.672498 -0.672497 0.500000 0.746469
-0.973406 -1.012705 -0.010177 -0.309018 -0.672499 -0.672498 0.600000 0.500000
-0.961651 -0.028284 -0.999999 -0.309018 -0.672499 -0.672498 0.500000 0.746469
-0.961650 -1.015406 -0.012878 -0.309018 -0.672499 -0.672498 0.500000 0.500000
-0.961650 -1.015406 -0.012878 0.309016 -0.672499 -0.672499 0.500000 0.500000
-0.961651 -0.028284 -0.999999 0.309016 -0.672499 -0.672499 0.500000 0.746469
-0.949896 -0.022882 -0.999999 0.309016 -0.672499 -0.672499 0.400000 0.747143
-0.961650 -1.015406 -0.012878 0.309020 -0.672498 -0.672498 0.500000 0.500000
-0.949896 -0.022882 -0.999999 0.309020 -0.672498 -0.672498 0.400000 0.747143
-0.949894 -1.012705 -0.010177 0.309020 -0.672498 -0.672498 0.400000 0.500000
-0.949894 -1.012705 -0.010177 0.809017 -0.415626 -0.415627 0.400000 0.500000
-0.949896 -0.022882 -0.999999 0.809017 -0.415626 -0.415627 0.400000 0.747143
-0.942630 -0.008740 -0.999999 0.809017 -0.415626 -0.415627 0.300000 0.748909
-0.949894 -1.012705 -0.010177 0.809020 -0.415624 -0.415625 0.400000 0.500000
-0.942630 -0.008740 -0.999999 0.809020 -0.415624 -0.415625 0.300000 0.748909
-0.942629 -1.005634 -0.003106 0.809020 -0.415624 -0.415625 0.300000 0.500000
-0.942629 -1.005634 -0.003106 1.000000 -0.000000 -0.000001 0.300000 0.500000
-0.942630 -0.008740 -0.999999 1.000000 -0.000000 -0.000001 0.300000 0.748909
-0.942630 0.008741 -1.000000 1.000000 -0.000000 -0.000001 0.200000 0.751091
-0.942629 -1.005634 -0.003106 1.000000 0.000001 -0.000001 0.300000 0.500000
-0.942630 0.008741 -1.000000 1.000000 0.000001 -0.000001 0.200000 0.751091
-0.942629 -0.996894 0.005635 1.000000 0.000001 -0.000001 0.200000 0.500000
-0.942629 -0.996894 0.005635 0.809018 0.415626 0.415625 0.200000 0.500000
-0.942630 0.008741 -1.000000 0.809018 0.415626 0.415625 0.200000 0.751091
-0.949896 0.022883 -0.999999 0.809018 0.415626 0.415625 0.100000 0.752857
-0.949894 -0.989823 0.012706 0.809018 0.415626 0.415625 0.100000 0.500000
-0.949894 -0.989823 0.012706 0.309016 0.672499 0.672499 0.100000 0.500000
-0.949896 0.022883 -0.999999 0.309016 0.672499 0.672499 0.100000 0.752857
-0.961651 0.028284 -0.999999 0.309016 0.672499 0.672499 -0.000000 0.753531
-0.949894 -0.989823 0.012706 0.309018 0.672498 0.672498 0.100000 0.500000
-0.961651 0.028284 -0.999999 0.309018 0.672498 0.672498 -0.000000 0.753531
-0.961650 -0.987122 0.015407 0.309018 0.672498 0.672498 -0.000000 0.500000
-0.949894 -0.989823 0.012706 0.000001 -0.707099 0.707115 0.608932 0.444164
-0.961650 -0.987122 0.015407 0.000001 -0.707099 0.707115 0.750000 0.490000
-0.973406 -0.989823 0.012706 0.000001 -0.707099 0.707115 0.891068 0.444164
-0.973406 -0.989823 0.012706 -0.000010 -0.707104 0.707109 0.891068 0.444164
-0.980671 -0.996894 0.005635 -0.000010 -0.707104 0.707109 0.978254 0.324164
-0.980671 -1.005634 -0.003106 -0.000010 -0.707104 0.707109 0.978254 0.175836
-0.980671 -1.005634 -0.003106 -0.000001 -0.707111 0.707103 0.978254 0.175836
-0.973406 -1.012705 -0.010177 -0.000001 -0.707111 0.707103 0.891068 0.055836
-0.961650 -1.015406 -0.012878 -0.000001 -0.707111 0.707103 0.750000 0.010000
-0.961650 -1.015406 -0.012878 0.000003 -0.707111 0.707103 0.750000 0.010000
-0.949894 -1.012705 -0.010177 0.000003 -0.707111 0.707103 0.608932 0.055836
-0.942629 -1.005634 -0.003106 0.000003 -0.707111 0.707103 0.521746 0.175836
-0.942629 -1.005634 -0.003106 0.000011 -0.707104 0.707109 0.521746 0.175836
-0.942629 -0.996894 0.005635 0.000011 -0.707104 0.707109 0.521746 0.324164
-0.949894 -0.989823 0.012706 0.000011 -0.707104 0.707109 0.608932 0.444164
-0.949894 -0.989823 0.012706 0.000001 -0.707107 0.707107 0.608932 0.444164
-0.973406 -0.989823 0.012706 0.000001 -0.707107 0.707107 0.891068 0.444164
-0.980671 -1.005634 -0.003106 0.000001 -0.707107 0.707107 0.978254 0.175836
-0.980671 -1.005634 -0.003106 0.000001 -0.707109 0.707105 0.978254 0.175836
-0.961650 -1.015406 -0.012878 0.000001 -0.707109 0.707105 0.750000 0.010000
-0.942629 -1.005634 -0.003106 0.000001 -0.707109 0.707105 0.521746 0.175836
-0.942629 -1.005634 -0.003106 0.000001 -0.707107 0.707107 0.521746 0.175836
3 0 1 2
3 0 2 3
3 4 5 6
3 4 6 7
3 8 9 10
3 8 10 11
3 12 13 14
3 12 14 15
3 16 17 18
3 16 18 19
3 20 21 22
3 20 22 23
3 24 25 26
3 24 26 27
3 28 29 30
3 28 30 31
3 32 33 34
3 34 35 36
3 36 37 38
3 38 39 40
3 40 41 32
3 32 34 36
3 36 38 40
3 36 40 32
3 42 43 44
3 42 44 45
3 46 47 48
3 46 48 49
3 50 51 52
3 50 52 53
3 54 55 56
3 54 56 57
3 58 59 60
3 58 60 61
3 62 63 64
3 62 64 65
3 66 67 68
3 66 68 69
3 70 71 72
3 70 72 73
3 74 75 76
3 74 76 77
3 78 79 80
3 78 80 81
3 82 83 84
3 84 85 86
3 86 87 88
3 88 89 90
3 90 91 82
3 82 84 86
3 86 88 90
3 86 90 82
3 92 93 94
3 92 94 95
3 96 97 98
3 96 98 99
3 100 101 102
3 100 102 103
3 104 105 106
3 104 106 107
3 108 109 110
3 111 112 113
3 114 115 116
3 117 118 119
3 120 121 122
3 123 124 125
3 126 127 128
3 129 130 131
3 132 133 134
3 135 136 137
3 138 139 140
3 141 142 143
3 144 145 146
3 147 148 149
3 150 151 152
3 153 154 155
3 156 157 158
3 159 160 161
3 162 163 164
3 165 166 167
3 168 169 170
3 168 170 171
3 172 173 174
3 172 174 175
3 176 177 178
3 176 178 179
3 180 181 182
3 183 184 185
3 186 187 188
3 189 190 191
3 192 193 194
3 192 194 195
3 196 197 145
3 196 145 144
3 198 199 200
3 198 200 201
3 202 203 204
3 205 206 207
3 208 209 210
3 208 210 211
3 212 213 214
3 215 216 217
3 218 219 115
3 218 115 114
3 220 221 222
3 220 222 223
3 224 225 226
3 224 226 227
3 169 228 229
3 169 229 170
3 103 230 231
3 103 231 100
3 231 232 233
3 231 233 100
3 234 235 236
3 234 236 237
3 104 238 239
3 104 239 105
3 226 240 241
3 226 241 227
3 242 243 244
3 242 244 245
3 246 247 248
3 249 250 251
3 252 253 254
3 255 256 257
3 258 259 260
3 261 262 263
3 264 265 266
3 267 268 269
3 270 271 272
3 273 274 275
3 276 277 278
3 279 280 281
3 282 283 284
3 285 286 287
3 288 289 290
3 291 292 293
3 294 295 296
3 294 296 297
3 298 299 300
3 301 302 303
3 304 305 306
3 307 308 309
3 310 311 312
3 313 314 315
3 316 317 318
3 319 320 321
3 322 323 324
3 321 325 319
