ply
format ascii 1.0
comment Created by Blender 2.80 (sub 75) - www.blender.org, source file: 'advance_models.blend'
element vertex 316
property float x
property float y
property float z
property float nx
property float ny
property float nz
property float s
property float t
element face 150
property list uchar uint vertex_indices
end_header
0.020000 -1.000000 0.018601 0.951057 0.000000 0.309017 1.000000 0.500000
0.020000 1.000000 0.018601 0.951057 0.000000 0.309017 1.000000 1.000000
0.016180 1.000000 0.030357 0.951057 0.000000 0.309017 0.900000 1.000000
0.016180 -1.000000 0.030357 0.951057 -0.000000 0.309017 0.900000 0.500000
0.016180 -1.000000 0.030357 0.587785 0.000000 0.809017 0.900000 0.500000
0.016180 1.000000 0.030357 0.587785 0.000000 0.809017 0.900000 1.000000
0.006180 1.000000 0.037622 0.587785 0.000000 0.809017 0.800000 1.000000
0.006180 -1.000000 0.037622 0.587785 -0.000000 0.809017 0.800000 0.500000
0.006180 -1.000000 0.037622 -0.000000 0.000000 1.000000 0.800000 0.500000
0.006180 1.000000 0.037622 -0.000000 0.000000 1.000000 0.800000 1.000000
-0.006180 1.000000 0.037622 -0.000000 0.000000 1.000000 0.700000 1.000000
-0.006180 -1.000000 0.037622 -0.000000 0.000000 1.000000 0.700000 0.500000
-0.006180 -1.000000 0.037622 -0.587785 0.000000 0.809017 0.700000 0.500000
-0.006180 1.000000 0.037622 -0.587785 0.000000 0.809017 0.700000 1.000000
-0.016180 1.000000 0.030357 -0.587785 0.000000 0.809017 0.600000 1.000000
-0.016180 -1.000000 0.030357 -0.587785 0.000000 0.809017 0.600000 0.500000
-0.016180 -1.000000 0.030357 -0.951056 0.000000 0.309017 0.600000 0.500000
-0.016180 1.000000 0.030357 -0.951056 0.000000 0.309017 0.600000 1.000000
-0.020000 1.000000 0.018601 -0.951056 0.000000 0.309017 0.500000 1.000000
-0.020000 -1.000000 0.018601 -0.951056 0.000000 0.309017 0.500000 0.500000
-0.020000 -1.000000 0.018601 -0.951056 -0.000000 -0.309017 0.500000 0.500000
-0.020000 1.000000 0.018601 -0.951056 -0.000000 -0.309017 0.500000 1.000000
-0.016180 1.000000 0.006845 -0.951056 -0.000000 -0.309017 0.400000 1.000000
-0.016180 -1.000000 0.006845 -0.951056 0.000000 -0.309017 0.400000 0.500000
-0.016180 -1.000000 0.006845 -0.587785 -0.000000 -0.809017 0.400000 0.500000
-0.016180 1.000000 0.006845 -0.587785 -0.000000 -0.809017 0.400000 1.000000
-0.006180 1.000000 -0.000420 -0.587785 -0.000000 -0.809017 0.300000 1.000000
-0.006180 -1.000000 -0.000420 -0.587785 0.000000 -0.809017 0.300000 0.500000
-0.006180 -1.000000 -0.000420 -0.000000 -0.000000 -1.000000 0.300000 0.500000
-0.006180 1.000000 -0.000420 -0.000000 -0.000000 -1.000000 0.300000 1.000000
0.006180 1.000000 -0.000420 -0.000000 -0.000000 -1.000000 0.200000 1.000000
0.006180 -1.000000 -0.000420 -0.000000 0.000000 -1.000000 0.200000 0.500000
0.006180 1.000000 0.037622 0.000000 1.000000 0.000000 0.478254 0.324164
0.016180 1.000000 0.030357 0.000000 1.000000 0.000000 0.391068 0.444164
0.020000 1.000000 0.018601 0.000000 1.000000 0.000000 0.250000 0.490000
0.016180 1.000000 0.006845 0.000000 1.000000 0.000000 0.108932 0.444164
0.006180 1.000000 -0.000420 0.000000 1.000000 0.000000 0.021746 0.324164
-0.006180 1.000000 -0.000420 -0.000000 1.000000 0.000000 0.021746 0.175836
-0.016180 1.000000 0.006845 -0.000000 1.000000 0.000000 0.108932 0.055836
-0.020000 1.000000 0.018601 0.000000 1.000000 0.000000 0.250000 0.010000
-0.016180 1.000000 0.030357 0.000000 1.000000 0.000000 0.391068 0.055836
-0.006180 1.000000 0.037622 0.000000 1.000000 0.000000 0.478254 0.175836
0.006180 -1.000000 -0.000420 0.587785 0.000000 -0.809017 0.200000 0.500000
0.006180 1.000000 -0.000420 0.587785 0.000000 -0.809017 0.200000 1.000000
0.016180 1.000000 0.006845 0.587785 0.000000 -0.809017 0.100000 1.000000
0.016180 -1.000000 0.006845 0.587785 0.000000 -0.809017 0.100000 0.500000
0.016180 -1.000000 0.006845 0.951057 0.000000 -0.309017 0.100000 0.500000
0.016180 1.000000 0.006845 0.951057 0.000000 -0.309017 0.100000 1.000000
0.020000 1.000000 0.018601 0.951057 0.000000 -0.309017 -0.000000 1.000000
0.020000 -1.000000 0.018601 0.951057 0.000000 -0.309017 -0.000000 0.500000
0.020000 -1.000000 0.918502 0.951057 0.000000 0.309017 1.000000 0.500000
0.020000 1.000000 0.918502 0.951057 0.000000 0.309017 1.000000 1.000000
0.016180 1.000000 0.930258 0.951057 0.000000 0.309017 0.900000 1.000000
0.016180 -1.000000 0.930258 0.951057 -0.000000 0.309017 0.900000 0.500000
0.016180 -1.000000 0.930258 0.587786 0.000000 0.809016 0.900000 0.500000
0.016180 1.000000 0.930258 0.587786 0.000000 0.809016 0.900000 1.000000
0.006180 1.000000 0.937523 0.587786 0.000000 0.809016 0.800000 1.000000
0.006180 -1.000000 0.937523 0.587786 -0.000000 0.809016 0.800000 0.500000
0.006180 -1.000000 0.937523 -0.000000 0.000000 1.000000 0.800000 0.500000
0.006180 1.000000 0.937523 -0.000000 0.000000 1.000000 0.800000 1.000000
-0.006180 1.000000 0.937523 -0.000000 0.000000 1.000000 0.700000 1.000000
-0.006180 -1.000000 0.937523 -0.000000 0.000000 1.000000 0.700000 0.500000
-0.006180 -1.000000 0.937523 -0.587786 0.000000 0.809016 0.700000 0.500000
-0.006180 1.000000 0.937523 -0.587786 0.000000 0.809016 0.700000 1.000000
-0.016180 1.000000 0.930258 -0.587786 0.000000 0.809016 0.600000 1.000000
-0.016180 -1.000000 0.930258 -0.587786 0.000000 0.809016 0.600000 0.500000
-0.016180 -1.000000 0.930258 -0.951057 0.000000 0.309017 0.600000 0.500000
-0.016180 1.000000 0.930258 -0.951057 0.000000 0.309017 0.600000 1.000000
-0.020000 1.000000 0.918502 -0.951057 0.000000 0.309017 0.500000 1.000000
-0.020000 -1.000000 0.918502 -0.951057 0.000000 0.309017 0.500000 0.500000
-0.020000 -1.000000 0.918502 -0.951057 -0.000000 -0.309017 0.500000 0.500000
-0.020000 1.000000 0.918502 -0.951057 -0.000000 -0.309017 0.500000 1.000000
-0.016180 1.000000 0.906747 -0.951057 -0.000000 -0.309017 0.400000 1.000000
-0.016180 -1.000000 0.906747 -0.951057 0.000000 -0.309017 0.400000 0.500000
-0.016180 -1.000000 0.906747 -0.587784 -0.000000 -0.809018 0.400000 0.500000
-0.016180 1.000000 0.906747 -0.587784 -0.000000 -0.809018 0.400000 1.000000
-0.006180 1.000000 0.899481 -0.587784 -0.000000 -0.809018 0.300000 1.000000
-0.006180 -1.000000 0.899481 -0.587784 0.000000 -0.809018 0.300000 0.500000
-0.006180 -1.000000 0.899481 -0.000000 -0.000000 -1.000000 0.300000 0.500000
-0.006180 1.000000 0.899481 -0.000000 -0.000000 -1.000000 0.300000 1.000000
0.006180 1.000000 0.899481 -0.000000 -0.000000 -1.000000 0.200000 1.000000
0.006180 -1.000000 0.899481 -0.000000 0.000000 -1.000000 0.200000 0.500000
0.006180 1.000000 0.937523 0.000000 1.000000 0.000000 0.478254 0.324164
0.016180 1.000000 0.930258 0.000000 1.000000 0.000000 0.391068 0.444164
0.020000 1.000000 0.918502 0.000000 1.000000 0.000000 0.250000 0.490000
0.016180 1.000000 0.906747 0.000000 1.000000 0.000000 0.108932 0.444164
0.006180 1.000000 0.899481 0.000000 1.000000 0.000000 0.021746 0.324164
-0.006180 1.000000 0.899481 -0.000000 1.000000 0.000000 0.021746 0.175836
-0.016180 1.000000 0.906747 -0.000000 1.000000 0.000000 0.108932 0.055836
-0.020000 1.000000 0.918502 0.000000 1.000000 0.000000 0.250000 0.010000
-0.016180 1.000000 0.930258 0.000000 1.000000 0.000000 0.391068 0.055836
-0.006180 1.000000 0.937523 0.000000 1.000000 0.000000 0.478254 0.175836
0.006180 -1.000000 0.899481 0.587783 0.000000 -0.809018 0.200000 0.500000
0.006180 1.000000 0.899481 0.587783 0.000000 -0.809018 0.200000 1.000000
0.016180 1.000000 0.906747 0.587783 0.000000 -0.809018 0.100000 1.000000
0.016180 -1.000000 0.906747 0.587783 0.000000 -0.809018 0.100000 0.500000
0.016180 -1.000000 0.906747 0.951057 0.000000 -0.309017 0.100000 0.500000
0.016180 1.000000 0.906747 0.951057 0.000000 -0.309017 0.100000 1.000000
0.020000 1.000000 0.918502 0.951057 0.000000 -0.309017 -0.000000 1.000000
0.020000 -1.000000 0.918502 0.951057 0.000000 -0.309017 -0.000000 0.500000
0.043062 -0.845080 0.044924 -0.000000 -0.000000 -1.000000 0.375000 0.125000
-0.999999 -0.845080 0.044924 -0.000000 -0.000000 -1.000000 0.375000 0.250000
-0.999999 -0.805590 0.044924 -0.000000 -0.000000 -1.000000 0.625000 0.250000
0.043062 -0.805590 0.044924 -0.000000 0.000000 -1.000000 0.625000 0.125000
0.043062 -0.845080 0.894923 0.000000 0.000000 1.000000 0.375000 0.625000
0.069691 -0.845080 0.894923 0.000000 0.000000 1.000000 0.375000 0.625000
0.069691 -0.805590 0.894923 0.000000 0.000000 1.000000 0.625000 0.625000
0.043062 -0.805590 0.894923 -0.000000 0.000000 1.000000 0.625000 0.625000
-0.240425 -0.904711 0.876653 -0.485081 0.831670 0.270225 1.000000 0.680953
-0.240425 -0.907845 0.886300 -0.485081 0.831670 0.270225 0.900000 0.680953
-0.122212 -0.838896 0.886300 -0.485081 0.831670 0.270225 0.900000 0.750000
-0.240425 -0.904711 0.876653 -0.487136 0.839885 0.239357 1.000000 0.680953
-0.122212 -0.838896 0.886300 -0.487136 0.839885 0.239357 0.900000 0.750000
-0.126952 -0.838896 0.876653 -0.487136 0.839885 0.239357 1.000000 0.750000
-0.240425 -0.916052 0.892262 0.000000 -0.000000 1.000000 0.800000 0.680953
-0.240425 -0.926195 0.892262 0.000000 -0.000000 1.000000 0.700000 0.680953
-0.094463 -0.838896 0.892262 0.000000 -0.000000 1.000000 0.700000 0.750000
-0.109802 -0.838896 0.892262 -0.000000 0.000000 1.000000 0.800000 0.750000
-0.240425 -0.926195 0.892262 0.334093 -0.554012 0.762531 0.700000 0.680953
-0.240425 -0.934401 0.886300 0.334093 -0.554012 0.762531 0.600000 0.680953
-0.082053 -0.838896 0.886300 0.334093 -0.554012 0.762531 0.600000 0.750000
-0.240425 -0.926195 0.892262 0.350761 -0.586467 0.730084 0.700000 0.680953
-0.082053 -0.838896 0.886300 0.350761 -0.586467 0.730084 0.600000 0.750000
-0.094463 -0.838896 0.892262 0.350761 -0.586467 0.730084 0.700000 0.750000
-0.240425 -0.934401 0.886300 0.498560 -0.824428 0.267872 0.600000 0.680953
-0.240425 -0.937536 0.876653 0.498560 -0.824428 0.267872 0.500000 0.680953
-0.077313 -0.838896 0.876653 0.498560 -0.824428 0.267872 0.500000 0.750000
-0.240425 -0.934401 0.886300 0.500548 -0.830037 0.245947 0.600000 0.680953
-0.077313 -0.838896 0.876653 0.500548 -0.830037 0.245947 0.500000 0.750000
-0.082053 -0.838896 0.886300 0.500548 -0.830037 0.245947 0.600000 0.750000
-0.240425 -0.937536 0.876653 0.497511 -0.825002 -0.268056 0.500000 0.680953
-0.240425 -0.934401 0.867006 0.497511 -0.825002 -0.268056 0.400000 0.680953
-0.082053 -0.838896 0.867006 0.497511 -0.825002 -0.268056 0.400000 0.750000
-0.240425 -0.937536 0.876653 0.501514 -0.829313 -0.246421 0.500000 0.680953
-0.082053 -0.838896 0.867006 0.501514 -0.829313 -0.246421 0.400000 0.750000
-0.077313 -0.838896 0.876653 0.501514 -0.829313 -0.246421 0.500000 0.750000
-0.240425 -0.934401 0.867006 0.331651 -0.554515 -0.763231 0.400000 0.680953
-0.240425 -0.926195 0.861044 0.331651 -0.554515 -0.763231 0.300000 0.680953
-0.094463 -0.838896 0.861044 0.331651 -0.554515 -0.763231 0.300000 0.750000
-0.240425 -0.934401 0.867006 0.351750 -0.583292 -0.732149 0.400000 0.680953
-0.094463 -0.838896 0.861044 0.351750 -0.583292 -0.732149 0.300000 0.750000
-0.082053 -0.838896 0.867006 0.351750 -0.583292 -0.732149 0.400000 0.750000
-0.240425 -0.926195 0.861044 0.000000 -0.000000 -1.000000 0.300000 0.680953
-0.240425 -0.916052 0.861044 0.000000 -0.000000 -1.000000 0.200000 0.680953
-0.109802 -0.838896 0.861044 0.000000 -0.000000 -1.000000 0.200000 0.750000
-0.094463 -0.838896 0.861044 -0.000000 0.000000 -1.000000 0.300000 0.750000
-0.240425 -0.916052 0.861044 -0.324302 0.556014 -0.765295 0.200000 0.680953
-0.240425 -0.907845 0.867006 -0.324302 0.556014 -0.765295 0.100000 0.680953
-0.122212 -0.838896 0.867006 -0.324302 0.556014 -0.765295 0.100000 0.750000
-0.240425 -0.916052 0.861044 -0.349245 0.591265 -0.726934 0.200000 0.680953
-0.122212 -0.838896 0.867006 -0.349245 0.591265 -0.726934 0.100000 0.750000
-0.109802 -0.838896 0.861044 -0.349245 0.591265 -0.726934 0.200000 0.750000
-0.240425 -0.907845 0.867006 -0.483005 0.832763 -0.270578 0.100000 0.680953
-0.240425 -0.904711 0.876653 -0.483005 0.832763 -0.270578 -0.000000 0.680953
-0.126952 -0.838896 0.876653 -0.483005 0.832763 -0.270578 -0.000000 0.750000
-0.240425 -0.907845 0.867006 -0.489062 0.838495 -0.240302 0.100000 0.680953
-0.126952 -0.838896 0.876653 -0.489062 0.838495 -0.240302 -0.000000 0.750000
-0.122212 -0.838896 0.867006 -0.489062 0.838495 -0.240302 0.100000 0.750000
-0.240425 -0.907845 0.886300 -0.327984 0.555271 0.764265 0.900000 0.680953
-0.240425 -0.916052 0.892262 -0.327984 0.555271 0.764265 0.800000 0.680953
-0.109802 -0.838896 0.892262 -0.327984 0.555271 0.764265 0.800000 0.750000
-0.240425 -0.907845 0.886300 -0.347696 0.596122 0.723703 0.900000 0.680953
-0.109802 -0.838896 0.892262 -0.347696 0.596122 0.723703 0.800000 0.750000
-0.122212 -0.838896 0.886300 -0.347696 0.596122 0.723703 0.900000 0.750000
-0.999999 -0.805590 0.894923 0.000000 1.000000 -0.000000 0.625000 0.500000
0.043062 -0.805590 0.894923 0.000000 1.000000 -0.000000 0.625000 0.625000
0.043062 -0.805590 0.044924 0.000000 1.000000 -0.000000 0.875000 0.625000
-0.999999 -0.805590 0.044924 -0.000000 1.000000 -0.000000 0.875000 0.500000
-0.999999 -0.845080 0.044924 -0.000000 -1.000000 0.000000 0.125000 0.500000
0.043062 -0.845080 0.044924 -0.000000 -1.000000 0.000000 0.125000 0.625000
0.043062 -0.845080 0.894923 -0.000000 -1.000000 0.000000 0.375000 0.625000
-0.999999 -0.845080 0.894923 0.000000 -1.000000 -0.000000 0.375000 0.500000
-0.999999 -0.845080 0.894923 0.000000 0.000000 1.000000 0.375000 0.500000
-0.999999 -0.805590 0.894923 -0.000000 0.000000 1.000000 0.625000 0.500000
-0.999999 -0.907845 0.886300 0.000000 0.587782 0.809020 0.900000 0.500000
-0.999999 -0.916052 0.892262 0.000000 0.587782 0.809020 0.800000 0.500000
-0.240425 -0.916052 0.892262 0.000000 0.587782 0.809020 0.800000 0.680953
-0.999999 -0.907845 0.886300 0.000000 0.587786 0.809017 0.900000 0.500000
-0.240425 -0.916052 0.892262 0.000000 0.587786 0.809017 0.800000 0.680953
-0.240425 -0.907845 0.886300 0.000000 0.587786 0.809017 0.900000 0.680953
-0.999999 -0.907845 0.867006 0.000000 0.951057 -0.309014 0.100000 0.500000
-0.999999 -0.904711 0.876653 0.000000 0.951057 -0.309014 -0.000000 0.500000
-0.240425 -0.904711 0.876653 0.000000 0.951057 -0.309014 -0.000000 0.680953
-0.240425 -0.907845 0.867006 0.000000 0.951057 -0.309014 0.100000 0.680953
-0.999999 -0.916052 0.861044 -0.000000 0.587786 -0.809017 0.200000 0.500000
-0.999999 -0.907845 0.867006 -0.000000 0.587786 -0.809017 0.100000 0.500000
-0.240425 -0.907845 0.867006 -0.000000 0.587786 -0.809017 0.100000 0.680953
-0.999999 -0.916052 0.861044 0.000000 0.587782 -0.809020 0.200000 0.500000
-0.240425 -0.907845 0.867006 0.000000 0.587782 -0.809020 0.100000 0.680953
-0.240425 -0.916052 0.861044 0.000000 0.587782 -0.809020 0.200000 0.680953
-0.999999 -0.926195 0.861044 -0.000000 -0.000000 -1.000000 0.300000 0.500000
-0.999999 -0.916052 0.861044 -0.000000 -0.000000 -1.000000 0.200000 0.500000
-0.999999 -0.934401 0.867006 -0.000000 -0.587786 -0.809017 0.400000 0.500000
-0.999999 -0.926195 0.861044 -0.000000 -0.587786 -0.809017 0.300000 0.500000
-0.240425 -0.926195 0.861044 -0.000000 -0.587786 -0.809017 0.300000 0.680953
-0.999999 -0.934401 0.867006 -0.000000 -0.587782 -0.809020 0.400000 0.500000
-0.240425 -0.926195 0.861044 -0.000000 -0.587782 -0.809020 0.300000 0.680953
-0.240425 -0.934401 0.867006 -0.000000 -0.587782 -0.809020 0.400000 0.680953
-0.999999 -0.937536 0.876653 -0.000000 -0.951057 -0.309014 0.500000 0.500000
-0.999999 -0.934401 0.867006 -0.000000 -0.951057 -0.309014 0.400000 0.500000
-0.240425 -0.934401 0.867006 -0.000000 -0.951057 -0.309014 0.400000 0.680953
-0.240425 -0.937536 0.876653 -0.000000 -0.951057 -0.309014 0.500000 0.680953
-0.999999 -0.934401 0.886300 0.000000 -0.951057 0.309016 0.600000 0.500000
-0.999999 -0.937536 0.876653 0.000000 -0.951057 0.309016 0.500000 0.500000
-0.240425 -0.937536 0.876653 0.000000 -0.951057 0.309016 0.500000 0.680953
-0.240425 -0.934401 0.886300 0.000000 -0.951057 0.309016 0.600000 0.680953
-0.999999 -0.926195 0.892262 0.000000 -0.587782 0.809020 0.700000 0.500000
-0.999999 -0.934401 0.886300 0.000000 -0.587782 0.809020 0.600000 0.500000
-0.240425 -0.934401 0.886300 0.000000 -0.587782 0.809020 0.600000 0.680953
-0.999999 -0.926195 0.892262 0.000000 -0.587786 0.809017 0.700000 0.500000
-0.240425 -0.934401 0.886300 0.000000 -0.587786 0.809017 0.600000 0.680953
-0.240425 -0.926195 0.892262 0.000000 -0.587786 0.809017 0.700000 0.680953
-0.999999 -0.916052 0.892262 0.000000 -0.000000 1.000000 0.800000 0.500000
-0.999999 -0.926195 0.892262 0.000000 -0.000000 1.000000 0.700000 0.500000
-0.999999 -0.904711 0.876653 0.000000 0.951057 0.309016 1.000000 0.500000
-0.999999 -0.907845 0.886300 0.000000 0.951057 0.309016 0.900000 0.500000
-0.240425 -0.907845 0.886300 0.000000 0.951057 0.309016 0.900000 0.680953
-0.240425 -0.904711 0.876653 0.000000 0.951057 0.309016 1.000000 0.680953
0.069691 -0.805590 0.044924 1.000000 0.000000 -0.000000 0.625000 0.125000
0.069691 -0.805590 0.894923 1.000000 0.000000 -0.000000 0.625000 0.625000
0.069691 -0.845080 0.894923 1.000000 0.000000 -0.000000 0.375000 0.625000
0.069691 -0.845080 0.044924 1.000000 0.000000 -0.000000 0.375000 0.125000
0.069691 -0.805590 0.894923 0.000000 1.000000 -0.000000 0.625000 0.625000
0.069691 -0.805590 0.044924 0.000000 1.000000 -0.000000 0.875000 0.625000
0.069691 -0.805590 0.044924 0.000000 0.000000 -1.000000 0.625000 0.125000
0.069691 -0.845080 0.044924 0.000000 0.000000 -1.000000 0.375000 0.125000
0.069691 -0.876614 0.044924 0.000000 0.000000 -1.000000 0.375000 0.125000
0.043062 -0.876614 0.044924 0.000000 0.000000 -1.000000 0.375000 0.125000
0.043062 -0.876614 0.044924 -0.000000 -1.000000 0.000000 0.125000 0.625000
0.069691 -0.876614 0.044924 -0.000000 -1.000000 0.000000 0.125000 0.625000
0.069691 -0.876614 0.894923 -0.000000 -1.000000 0.000000 0.375000 0.625000
0.043062 -0.876614 0.894923 0.000000 -1.000000 -0.000000 0.375000 0.625000
0.043062 -0.876614 0.894923 0.000000 -0.000000 1.000000 0.375000 0.625000
0.069691 -0.876614 0.894923 0.000000 -0.000000 1.000000 0.375000 0.625000
0.069691 -0.876614 0.894923 1.000000 0.000000 -0.000000 0.375000 0.625000
0.069691 -0.876614 0.044924 1.000000 0.000000 -0.000000 0.375000 0.125000
0.043062 -0.845080 0.044924 -1.000000 0.000000 0.000000 0.125000 0.625000
0.043062 -0.876614 0.044924 -1.000000 0.000000 0.000000 0.125000 0.625000
0.043062 -0.876614 0.894923 -1.000000 0.000000 0.000000 0.375000 0.625000
0.043062 -0.845080 0.894923 -1.000000 0.000000 0.000000 0.375000 0.625000
0.015406 -0.987122 0.961650 0.672499 0.672499 0.309014 1.000000 0.500000
-1.000000 0.028284 0.961650 0.672499 0.672499 0.309014 1.000000 0.753531
-1.000000 0.022883 0.973406 0.672499 0.672499 0.309014 0.900000 0.752857
0.015406 -0.987122 0.961650 0.672497 0.672497 0.309025 1.000000 0.500000
-1.000000 0.022883 0.973406 0.672497 0.672497 0.309025 0.900000 0.752857
0.012705 -0.989823 0.973406 0.672497 0.672497 0.309025 0.900000 0.500000
0.012705 -0.989823 0.973406 0.415624 0.415624 0.809020 0.900000 0.500000
-1.000000 0.022883 0.973406 0.415624 0.415624 0.809020 0.900000 0.752857
-1.000000 0.008740 0.980671 0.415624 0.415624 0.809020 0.800000 0.751091
0.012705 -0.989823 0.973406 0.415628 0.415628 0.809015 0.900000 0.500000
-1.000000 0.008740 0.980671 0.415628 0.415628 0.809015 0.800000 0.751091
0.005634 -0.996894 0.980671 0.415628 0.415628 0.809015 0.800000 0.500000
0.005634 -0.996894 0.980671 0.000000 0.000000 1.000000 0.800000 0.500000
-1.000000 0.008740 0.980671 0.000000 0.000000 1.000000 0.800000 0.751091
-1.000000 -0.008740 0.980671 0.000000 0.000000 1.000000 0.700000 0.748909
-0.003106 -1.005634 0.980671 0.000000 -0.000000 1.000000 0.700000 0.500000
-0.003106 -1.005634 0.980671 -0.415624 -0.415624 0.809020 0.700000 0.500000
-1.000000 -0.008740 0.980671 -0.415624 -0.415624 0.809020 0.700000 0.748909
-1.000000 -0.022882 0.973406 -0.415624 -0.415624 0.809020 0.600000 0.747143
-0.003106 -1.005634 0.980671 -0.415627 -0.415627 0.809017 0.700000 0.500000
-1.000000 -0.022882 0.973406 -0.415627 -0.415627 0.809017 0.600000 0.747143
-0.010177 -1.012705 0.973406 -0.415627 -0.415627 0.809017 0.600000 0.500000
-0.010177 -1.012705 0.973406 -0.672499 -0.672499 0.309014 0.600000 0.500000
-1.000000 -0.022882 0.973406 -0.672499 -0.672499 0.309014 0.600000 0.747143
-1.000000 -0.028284 0.961650 -0.672499 -0.672499 0.309014 0.500000 0.746469
-0.010177 -1.012705 0.973406 -0.672497 -0.672497 0.309024 0.600000 0.500000
-1.000000 -0.028284 0.961650 -0.672497 -0.672497 0.309024 0.500000 0.746469
-0.012878 -1.015406 0.961650 -0.672497 -0.672497 0.309024 0.500000 0.500000
-0.012878 -1.015406 0.961650 -0.672499 -0.672499 -0.309016 0.500000 0.500000
-1.000000 -0.028284 0.961650 -0.672499 -0.672499 -0.309016 0.500000 0.746469
-1.000000 -0.022882 0.949894 -0.672499 -0.672499 -0.309016 0.400000 0.747143
-0.012878 -1.015406 0.961650 -0.672496 -0.672496 -0.309026 0.500000 0.500000
-1.000000 -0.022882 0.949894 -0.672496 -0.672496 -0.309026 0.400000 0.747143
-0.010177 -1.012705 0.949894 -0.672496 -0.672496 -0.309026 0.400000 0.500000
-0.010177 -1.012705 0.949894 -0.415624 -0.415624 -0.809020 0.400000 0.500000
-1.000000 -0.022882 0.949894 -0.415624 -0.415624 -0.809020 0.400000 0.747143
-1.000000 -0.008740 0.942629 -0.415624 -0.415624 -0.809020 0.300000 0.748909
-0.010177 -1.012705 0.949894 -0.415623 -0.415623 -0.809021 0.400000 0.500000
-1.000000 -0.008740 0.942629 -0.415623 -0.415623 -0.809021 0.300000 0.748909
-0.003106 -1.005634 0.942629 -0.415623 -0.415623 -0.809021 0.300000 0.500000
-0.003106 -1.005634 0.942629 0.000000 0.000000 -1.000000 0.300000 0.500000
-1.000000 -0.008740 0.942629 0.000000 0.000000 -1.000000 0.300000 0.748909
-1.000000 0.008740 0.942629 0.000000 0.000000 -1.000000 0.200000 0.751091
0.005634 -0.996894 0.942629 -0.000000 -0.000000 -1.000000 0.200000 0.500000
0.005634 -0.996894 0.942629 0.415624 0.415624 -0.809020 0.200000 0.500000
-1.000000 0.008740 0.942629 0.415624 0.415624 -0.809020 0.200000 0.751091
-1.000000 0.022883 0.949894 0.415624 0.415624 -0.809020 0.100000 0.752857
0.012705 -0.989823 0.949894 0.415624 0.415624 -0.809020 0.100000 0.500000
0.012705 -0.989823 0.949894 0.672499 0.672499 -0.309016 0.100000 0.500000
-1.000000 0.022883 0.949894 0.672499 0.672499 -0.309016 0.100000 0.752857
-1.000000 0.028284 0.961650 0.672499 0.672499 -0.309016 -0.000000 0.753531
0.012705 -0.989823 0.949894 0.672498 0.672498 -0.309018 0.100000 0.500000
-1.000000 0.028284 0.961650 0.672498 0.672498 -0.309018 -0.000000 0.753531
0.015406 -0.987122 0.961650 0.672498 0.672498 -0.309018 -0.000000 0.500000
0.012705 -0.989823 0.949894 0.707115 -0.707099 -0.000000 0.608932 0.444164
0.015406 -0.987122 0.961650 0.707115 -0.707099 -0.000000 0.750000 0.490000
0.012705 -0.989823 0.973406 0.707115 -0.707099 -0.000000 0.891068 0.444164
0.012705 -0.989823 0.973406 0.707104 -0.707109 -0.000005 0.891068 0.444164
0.005634 -0.996894 0.980671 0.707104 -0.707109 -0.000005 0.978254 0.324164
-0.003106 -1.005634 0.980671 0.707104 -0.707109 -0.000005 0.978254 0.175836
-0.003106 -1.005634 0.980671 0.707098 -0.707115 0.000011 0.978254 0.175836
-0.010177 -1.012705 0.973406 0.707098 -0.707115 0.000011 0.891068 0.055836
-0.012878 -1.015406 0.961650 0.707098 -0.707115 0.000011 0.750000 0.010000
-0.012878 -1.015406 0.961650 0.707098 -0.707115 -0.000011 0.750000 0.010000
-0.010177 -1.012705 0.949894 0.707098 -0.707115 -0.000011 0.608932 0.055836
-0.003106 -1.005634 0.942629 0.707098 -0.707115 -0.000011 0.521746 0.175836
-0.003106 -1.005634 0.942629 0.707104 -0.707109 0.000005 0.521746 0.175836
0.005634 -0.996894 0.942629 0.707104 -0.707109 0.000005 0.521746 0.324164
0.012705 -0.989823 0.949894 0.707104 -0.707109 0.000005 0.608932 0.444164
0.012705 -0.989823 0.949894 0.707105 -0.707108 -0.000000 0.608932 0.444164
0.012705 -0.989823 0.973406 0.707105 -0.707108 -0.000000 0.891068 0.444164
-0.003106 -1.005634 0.980671 0.707105 -0.707108 -0.000000 0.978254 0.175836
-0.003106 -1.005634 0.980671 0.707109 -0.707105 -0.000000 0.978254 0.175836
-0.012878 -1.015406 0.961650 0.707109 -0.707105 -0.000000 0.750000 0.010000
-0.003106 -1.005634 0.942629 0.707109 -0.707105 -0.000000 0.521746 0.175836
-0.003106 -1.005634 0.942629 0.707105 -0.707108 -0.000000 0.521746 0.175836
3 0 1 2
3 0 2 3
3 4 5 6
3 4 6 7
3 8 9 10
3 8 10 11
3 12 13 14
3 12 14 15
3 16 17 18
3 16 18 19
3 20 21 22
3 20 22 23
3 24 25 26
3 24 26 27
3 28 29 30
3 28 30 31
3 32 33 34
3 34 35 36
3 36 37 38
3 38 39 40
3 40 41 32
3 32 34 36
3 36 38 40
3 36 40 32
3 42 43 44
3 42 44 45
3 46 47 48
3 46 48 49
3 50 51 52
3 50 52 53
3 54 55 56
3 54 56 57
3 58 59 60
3 58 60 61
3 62 63 64
3 62 64 65
3 66 67 68
3 66 68 69
3 70 71 72
3 70 72 73
3 74 75 76
3 74 76 77
3 78 79 80
3 78 80 81
3 82 83 84
3 84 85 86
3 86 87 88
3 88 89 90
3 90 91 82
3 82 84 86
3 86 88 90
3 86 90 82
3 92 93 94
3 92 94 95
3 96 97 98
3 96 98 99
3 100 101 102
3 100 102 103
3 104 105 106
3 104 106 107
3 108 109 110
3 111 112 113
3 114 115 116
3 114 116 117
3 118 119 120
3 121 122 123
3 124 125 126
3 127 128 129
3 130 131 132
3 133 134 135
3 136 137 138
3 139 140 141
3 142 143 144
3 142 144 145
3 146 147 148
3 149 150 151
3 152 153 154
3 155 156 157
3 158 159 160
3 161 162 163
3 164 165 166
3 164 166 167
3 168 169 170
3 168 170 171
3 172 104 107
3 172 107 173
3 174 175 176
3 177 178 179
3 180 181 182
3 180 182 183
3 184 185 186
3 187 188 189
3 190 191 143
3 190 143 142
3 192 193 194
3 195 196 197
3 198 199 200
3 198 200 201
3 202 203 204
3 202 204 205
3 206 207 208
3 209 210 211
3 212 213 115
3 212 115 114
3 214 215 216
3 214 216 217
3 218 219 220
3 218 220 221
3 165 222 223
3 165 223 166
3 103 224 225
3 103 225 100
3 225 226 227
3 225 227 100
3 228 229 230
3 228 230 231
3 104 232 233
3 104 233 105
3 220 234 235
3 220 235 221
3 236 237 238
3 236 238 239
3 240 241 242
3 243 244 245
3 246 247 248
3 249 250 251
3 252 253 254
3 252 254 255
3 256 257 258
3 259 260 261
3 262 263 264
3 265 266 267
3 268 269 270
3 271 272 273
3 274 275 276
3 277 278 279
3 280 281 282
3 280 282 283
3 284 285 286
3 284 286 287
3 288 289 290
3 291 292 293
3 294 295 296
3 297 298 299
3 300 301 302
3 303 304 305
3 306 307 308
3 309 310 311
3 312 313 314
3 311 315 309
