ply
format ascii 1.0
comment Created by Blender 2.80 (sub 75) - www.blender.org, source file: 'advance_models.blend'
element vertex 544
property float x
property float y
property float z
property float nx
property float ny
property float nz
property float s
property float t
element face 226
property list uchar uint vertex_indices
end_header
-0.018601 -1.000000 0.029000 -0.309016 0.000000 0.951057 1.000000 0.500000
-0.018601 1.000000 0.029000 -0.309016 0.000000 0.951057 1.000000 1.000000
-0.035647 1.000000 0.023461 -0.309016 0.000000 0.951057 0.900000 1.000000
-0.035647 -1.000000 0.023461 -0.309016 0.000000 0.951057 0.900000 0.500000
-0.035647 -1.000000 0.023461 -0.809016 0.000000 0.587786 0.900000 0.500000
-0.035647 1.000000 0.023461 -0.809016 0.000000 0.587786 0.900000 1.000000
-0.046181 1.000000 0.008961 -0.809016 0.000000 0.587786 0.800000 1.000000
-0.046181 -1.000000 0.008961 -0.809016 0.000000 0.587786 0.800000 0.500000
-0.046181 -1.000000 0.008961 -1.000000 0.000000 0.000000 0.800000 0.500000
-0.046181 1.000000 0.008961 -1.000000 0.000000 0.000000 0.800000 1.000000
-0.046181 1.000000 -0.008962 -1.000000 0.000000 0.000000 0.700000 1.000000
-0.046181 -1.000000 -0.008962 -1.000000 0.000000 0.000000 0.700000 0.500000
-0.046181 -1.000000 -0.008962 -0.809018 -0.000000 -0.587783 0.700000 0.500000
-0.046181 1.000000 -0.008962 -0.809018 -0.000000 -0.587783 0.700000 1.000000
-0.035647 1.000000 -0.023462 -0.809018 -0.000000 -0.587783 0.600000 1.000000
-0.035647 -1.000000 -0.023462 -0.809018 0.000000 -0.587783 0.600000 0.500000
-0.035647 -1.000000 -0.023462 -0.309018 -0.000000 -0.951056 0.600000 0.500000
-0.035647 1.000000 -0.023462 -0.309018 -0.000000 -0.951056 0.600000 1.000000
-0.018601 1.000000 -0.029000 -0.309018 -0.000000 -0.951056 0.500000 1.000000
-0.018601 -1.000000 -0.029000 -0.309018 0.000000 -0.951056 0.500000 0.500000
-0.018601 -1.000000 -0.029000 0.309016 0.000000 -0.951057 0.500000 0.500000
-0.018601 1.000000 -0.029000 0.309016 0.000000 -0.951057 0.500000 1.000000
-0.001555 1.000000 -0.023462 0.309016 0.000000 -0.951057 0.400000 1.000000
-0.001555 -1.000000 -0.023462 0.309016 0.000000 -0.951057 0.400000 0.500000
-0.001555 -1.000000 -0.023462 0.809016 0.000000 -0.587786 0.400000 0.500000
-0.001555 1.000000 -0.023462 0.809016 0.000000 -0.587786 0.400000 1.000000
0.008980 1.000000 -0.008962 0.809016 0.000000 -0.587786 0.300000 1.000000
0.008980 -1.000000 -0.008962 0.809016 0.000000 -0.587786 0.300000 0.500000
0.008980 -1.000000 -0.008962 1.000000 0.000000 0.000000 0.300000 0.500000
0.008980 1.000000 -0.008962 1.000000 0.000000 0.000000 0.300000 1.000000
0.008980 1.000000 0.008961 1.000000 0.000000 0.000000 0.200000 1.000000
0.008980 -1.000000 0.008961 1.000000 -0.000000 0.000000 0.200000 0.500000
-0.046181 1.000000 0.008961 0.000000 1.000000 0.000000 0.478254 0.324164
-0.035647 1.000000 0.023461 0.000000 1.000000 0.000000 0.391068 0.444164
-0.018601 1.000000 0.029000 0.000000 1.000000 0.000000 0.250000 0.490000
-0.001555 1.000000 0.023461 0.000000 1.000000 0.000000 0.108932 0.444164
0.008980 1.000000 0.008961 0.000000 1.000000 0.000000 0.021746 0.324164
0.008980 1.000000 -0.008962 0.000000 1.000000 0.000000 0.021746 0.175836
-0.001555 1.000000 -0.023462 0.000000 1.000000 0.000000 0.108932 0.055836
-0.018601 1.000000 -0.029000 -0.000000 1.000000 0.000000 0.250000 0.010000
-0.035647 1.000000 -0.023462 -0.000000 1.000000 0.000000 0.391068 0.055836
-0.046181 1.000000 -0.008962 0.000000 1.000000 0.000000 0.478254 0.175836
0.008980 -1.000000 0.008961 0.809018 0.000000 0.587783 0.200000 0.500000
0.008980 1.000000 0.008961 0.809018 0.000000 0.587783 0.200000 1.000000
-0.001555 1.000000 0.023461 0.809018 0.000000 0.587783 0.100000 1.000000
-0.001555 -1.000000 0.023461 0.809018 -0.000000 0.587783 0.100000 0.500000
-0.001555 -1.000000 0.023461 0.309017 0.000000 0.951056 0.100000 0.500000
-0.001555 1.000000 0.023461 0.309017 0.000000 0.951056 0.100000 1.000000
-0.018601 1.000000 0.029000 0.309017 0.000000 0.951056 -0.000000 1.000000
-0.018601 -1.000000 0.029000 0.309017 -0.000000 0.951056 -0.000000 0.500000
-0.918502 -1.000000 0.029001 -0.309017 0.000000 0.951057 1.000000 0.500000
-0.918502 1.000000 0.029001 -0.309017 0.000000 0.951057 1.000000 1.000000
-0.935548 1.000000 0.023462 -0.309017 0.000000 0.951057 0.900000 1.000000
-0.935548 -1.000000 0.023462 -0.309017 0.000000 0.951057 0.900000 0.500000
-0.935548 -1.000000 0.023462 -0.809016 0.000000 0.587786 0.900000 0.500000
-0.935548 1.000000 0.023462 -0.809016 0.000000 0.587786 0.900000 1.000000
-0.946083 1.000000 0.008962 -0.809016 0.000000 0.587786 0.800000 1.000000
-0.946083 -1.000000 0.008962 -0.809016 0.000000 0.587786 0.800000 0.500000
-0.946083 -1.000000 0.008962 -1.000000 0.000000 0.000000 0.800000 0.500000
-0.946083 1.000000 0.008962 -1.000000 0.000000 0.000000 0.800000 1.000000
-0.946083 1.000000 -0.008961 -1.000000 0.000000 0.000000 0.700000 1.000000
-0.946083 -1.000000 -0.008961 -1.000000 0.000000 0.000000 0.700000 0.500000
-0.946083 -1.000000 -0.008961 -0.809018 -0.000000 -0.587783 0.700000 0.500000
-0.946083 1.000000 -0.008961 -0.809018 -0.000000 -0.587783 0.700000 1.000000
-0.935548 1.000000 -0.023461 -0.809018 -0.000000 -0.587783 0.600000 1.000000
-0.935548 -1.000000 -0.023461 -0.809018 0.000000 -0.587783 0.600000 0.500000
-0.935548 -1.000000 -0.023461 -0.309018 -0.000000 -0.951056 0.600000 0.500000
-0.935548 1.000000 -0.023461 -0.309018 -0.000000 -0.951056 0.600000 1.000000
-0.918502 1.000000 -0.028999 -0.309018 -0.000000 -0.951056 0.500000 1.000000
-0.918502 -1.000000 -0.028999 -0.309018 0.000000 -0.951056 0.500000 0.500000
-0.918502 -1.000000 -0.028999 0.309016 0.000000 -0.951057 0.500000 0.500000
-0.918502 1.000000 -0.028999 0.309016 0.000000 -0.951057 0.500000 1.000000
-0.901457 1.000000 -0.023461 0.309016 0.000000 -0.951057 0.400000 1.000000
-0.901457 -1.000000 -0.023461 0.309016 0.000000 -0.951057 0.400000 0.500000
-0.901457 -1.000000 -0.023461 0.809016 0.000000 -0.587786 0.400000 0.500000
-0.901457 1.000000 -0.023461 0.809016 0.000000 -0.587786 0.400000 1.000000
-0.890922 1.000000 -0.008961 0.809016 0.000000 -0.587786 0.300000 1.000000
-0.890922 -1.000000 -0.008961 0.809016 0.000000 -0.587786 0.300000 0.500000
-0.890922 -1.000000 -0.008961 1.000000 0.000000 0.000000 0.300000 0.500000
-0.890922 1.000000 -0.008961 1.000000 0.000000 0.000000 0.300000 1.000000
-0.890922 1.000000 0.008962 1.000000 0.000000 0.000000 0.200000 1.000000
-0.890922 -1.000000 0.008962 1.000000 -0.000000 0.000000 0.200000 0.500000
-0.946083 1.000000 0.008962 0.000000 1.000000 0.000000 0.478254 0.324164
-0.935548 1.000000 0.023462 0.000000 1.000000 0.000000 0.391068 0.444164
-0.918502 1.000000 0.029001 0.000000 1.000000 0.000000 0.250000 0.490000
-0.901457 1.000000 0.023462 0.000000 1.000000 0.000000 0.108932 0.444164
-0.890922 1.000000 0.008962 0.000000 1.000000 0.000000 0.021746 0.324164
-0.890922 1.000000 -0.008961 0.000000 1.000000 0.000000 0.021746 0.175836
-0.901457 1.000000 -0.023461 0.000000 1.000000 0.000000 0.108932 0.055836
-0.918502 1.000000 -0.028999 -0.000000 1.000000 0.000000 0.250000 0.010000
-0.935548 1.000000 -0.023461 -0.000000 1.000000 0.000000 0.391068 0.055836
-0.946083 1.000000 -0.008961 0.000000 1.000000 0.000000 0.478254 0.175836
-0.890922 -1.000000 0.008962 0.809018 0.000000 0.587783 0.200000 0.500000
-0.890922 1.000000 0.008962 0.809018 0.000000 0.587783 0.200000 1.000000
-0.901457 1.000000 0.023462 0.809018 0.000000 0.587783 0.100000 1.000000
-0.901457 -1.000000 0.023462 0.809018 -0.000000 0.587783 0.100000 0.500000
-0.901457 -1.000000 0.023462 0.309017 0.000000 0.951056 0.100000 0.500000
-0.901457 1.000000 0.023462 0.309017 0.000000 0.951056 0.100000 1.000000
-0.918502 1.000000 0.029001 0.309017 0.000000 0.951056 -0.000000 1.000000
-0.918502 -1.000000 0.029001 0.309017 -0.000000 0.951056 -0.000000 0.500000
-0.044924 -0.845080 0.043062 1.000000 0.000000 -0.000001 0.375000 0.125000
-0.044925 -0.845080 -1.000000 1.000000 0.000000 -0.000001 0.375000 0.250000
-0.044925 -0.805590 -1.000000 1.000000 0.000000 -0.000001 0.625000 0.250000
-0.044924 -0.805590 0.043062 1.000000 0.000000 -0.000001 0.625000 0.125000
-0.894923 -0.845080 0.043063 -1.000000 0.000000 0.000002 0.375000 0.625000
-0.894923 -0.845080 0.069692 -1.000000 0.000000 0.000002 0.375000 0.625000
-0.894923 -0.805590 0.069692 -1.000000 0.000000 0.000002 0.625000 0.625000
-0.894923 -0.805590 0.043063 -1.000000 0.000000 0.000002 0.625000 0.625000
-0.876653 -0.904711 -0.240425 -0.270225 0.831670 -0.485081 1.000000 0.680953
-0.886300 -0.907845 -0.240425 -0.270225 0.831670 -0.485081 0.900000 0.680953
-0.886300 -0.838896 -0.122211 -0.270225 0.831670 -0.485081 0.900000 0.750000
-0.876653 -0.904711 -0.240425 -0.239358 0.839885 -0.487136 1.000000 0.680953
-0.886300 -0.838896 -0.122211 -0.239358 0.839885 -0.487136 0.900000 0.750000
-0.876653 -0.838896 -0.126951 -0.239358 0.839885 -0.487136 1.000000 0.750000
-0.892262 -0.916051 -0.240425 -1.000000 0.000000 0.000001 0.800000 0.680953
-0.892262 -0.926195 -0.240425 -1.000000 0.000000 0.000001 0.700000 0.680953
-0.892262 -0.838896 -0.094462 -1.000000 0.000000 0.000001 0.700000 0.750000
-0.892262 -0.916051 -0.240425 -1.000000 0.000002 0.000000 0.800000 0.680953
-0.892262 -0.838896 -0.094462 -1.000000 0.000002 0.000000 0.700000 0.750000
-0.892262 -0.838896 -0.109801 -1.000000 0.000002 0.000000 0.800000 0.750000
-0.892262 -0.926195 -0.240425 -0.762534 -0.554008 0.334092 0.700000 0.680953
-0.886300 -0.934401 -0.240425 -0.762534 -0.554008 0.334092 0.600000 0.680953
-0.886300 -0.838896 -0.082052 -0.762534 -0.554008 0.334092 0.600000 0.750000
-0.892262 -0.926195 -0.240425 -0.730081 -0.586470 0.350764 0.700000 0.680953
-0.886300 -0.838896 -0.082052 -0.730081 -0.586470 0.350764 0.600000 0.750000
-0.892262 -0.838896 -0.094462 -0.730081 -0.586470 0.350764 0.700000 0.750000
-0.886300 -0.934401 -0.240425 -0.267871 -0.824428 0.498561 0.600000 0.680953
-0.876653 -0.937536 -0.240425 -0.267871 -0.824428 0.498561 0.500000 0.680953
-0.876653 -0.838896 -0.077312 -0.267871 -0.824428 0.498561 0.500000 0.750000
-0.886300 -0.934401 -0.240425 -0.245947 -0.830037 0.500548 0.600000 0.680953
-0.876653 -0.838896 -0.077312 -0.245947 -0.830037 0.500548 0.500000 0.750000
-0.886300 -0.838896 -0.082052 -0.245947 -0.830037 0.500548 0.600000 0.750000
-0.876653 -0.937536 -0.240425 0.268057 -0.825002 0.497511 0.500000 0.680953
-0.867006 -0.934401 -0.240425 0.268057 -0.825002 0.497511 0.400000 0.680953
-0.867006 -0.838896 -0.082052 0.268057 -0.825002 0.497511 0.400000 0.750000
-0.876653 -0.937536 -0.240425 0.246423 -0.829313 0.501514 0.500000 0.680953
-0.867006 -0.838896 -0.082052 0.246423 -0.829313 0.501514 0.400000 0.750000
-0.876653 -0.838896 -0.077312 0.246423 -0.829313 0.501514 0.500000 0.750000
-0.867006 -0.934401 -0.240425 0.763228 -0.554518 0.331652 0.400000 0.680953
-0.861044 -0.926195 -0.240425 0.763228 -0.554518 0.331652 0.300000 0.680953
-0.861044 -0.838896 -0.094462 0.763228 -0.554518 0.331652 0.300000 0.750000
-0.867006 -0.934401 -0.240425 0.732149 -0.583293 0.351750 0.400000 0.680953
-0.861044 -0.838896 -0.094462 0.732149 -0.583293 0.351750 0.300000 0.750000
-0.867006 -0.838896 -0.082052 0.732149 -0.583293 0.351750 0.400000 0.750000
-0.861044 -0.926195 -0.240425 1.000000 0.000000 -0.000001 0.300000 0.680953
-0.861044 -0.916051 -0.240425 1.000000 0.000000 -0.000001 0.200000 0.680953
-0.861044 -0.838896 -0.109801 1.000000 0.000000 -0.000001 0.200000 0.750000
-0.861044 -0.926195 -0.240425 1.000000 -0.000001 0.000000 0.300000 0.680953
-0.861044 -0.838896 -0.109801 1.000000 -0.000001 0.000000 0.200000 0.750000
-0.861044 -0.838896 -0.094462 1.000000 -0.000001 0.000000 0.300000 0.750000
-0.861044 -0.916051 -0.240425 0.765292 0.556017 -0.324305 0.200000 0.680953
-0.867006 -0.907845 -0.240425 0.765292 0.556017 -0.324305 0.100000 0.680953
-0.867006 -0.838896 -0.122211 0.765292 0.556017 -0.324305 0.100000 0.750000
-0.861044 -0.916051 -0.240425 0.726931 0.591268 -0.349247 0.200000 0.680953
-0.867006 -0.838896 -0.122211 0.726931 0.591268 -0.349247 0.100000 0.750000
-0.861044 -0.838896 -0.109801 0.726931 0.591268 -0.349247 0.200000 0.750000
-0.867006 -0.907845 -0.240425 0.270577 0.832763 -0.483006 0.100000 0.680953
-0.876653 -0.904711 -0.240425 0.270577 0.832763 -0.483006 -0.000000 0.680953
-0.876653 -0.838896 -0.126951 0.270577 0.832763 -0.483006 -0.000000 0.750000
-0.867006 -0.907845 -0.240425 0.240302 0.838495 -0.489062 0.100000 0.680953
-0.876653 -0.838896 -0.126951 0.240302 0.838495 -0.489062 -0.000000 0.750000
-0.867006 -0.838896 -0.122211 0.240302 0.838495 -0.489062 0.100000 0.750000
-0.886300 -0.907845 -0.240425 -0.764268 0.555268 -0.327981 0.900000 0.680953
-0.892262 -0.916051 -0.240425 -0.764268 0.555268 -0.327981 0.800000 0.680953
-0.892262 -0.838896 -0.109801 -0.764268 0.555268 -0.327981 0.800000 0.750000
-0.886300 -0.907845 -0.240425 -0.723706 0.596120 -0.347693 0.900000 0.680953
-0.892262 -0.838896 -0.109801 -0.723706 0.596120 -0.347693 0.800000 0.750000
-0.886300 -0.838896 -0.122211 -0.723706 0.596120 -0.347693 0.900000 0.750000
-0.894925 -0.805590 -0.999999 0.000000 1.000000 0.000000 0.625000 0.500000
-0.894923 -0.805590 0.043063 0.000000 1.000000 0.000000 0.625000 0.625000
-0.044924 -0.805590 0.043062 0.000000 1.000000 0.000000 0.875000 0.625000
-0.044925 -0.805590 -1.000000 0.000000 1.000000 -0.000000 0.875000 0.500000
-0.044925 -0.845080 -1.000000 0.000000 -1.000000 -0.000000 0.125000 0.500000
-0.044924 -0.845080 0.043062 0.000000 -1.000000 -0.000000 0.125000 0.625000
-0.894923 -0.845080 0.043063 0.000000 -1.000000 -0.000000 0.375000 0.625000
-0.894925 -0.845080 -0.999999 0.000000 -1.000000 0.000000 0.375000 0.500000
-0.894925 -0.845080 -0.999999 -1.000000 0.000000 0.000001 0.375000 0.500000
-0.894923 -0.845080 0.043063 -1.000000 0.000000 0.000001 0.375000 0.625000
-0.894923 -0.805590 0.043063 -1.000000 0.000000 0.000001 0.625000 0.625000
-0.894925 -0.805590 -0.999999 -1.000000 0.000000 0.000001 0.625000 0.500000
-0.886301 -0.907845 -0.999999 -0.809017 0.587786 0.000001 0.900000 0.500000
-0.892263 -0.916051 -0.999999 -0.809017 0.587786 0.000001 0.800000 0.500000
-0.892262 -0.916051 -0.240425 -0.809017 0.587786 0.000001 0.800000 0.680953
-0.886301 -0.907845 -0.999999 -0.809020 0.587782 0.000001 0.900000 0.500000
-0.892262 -0.916051 -0.240425 -0.809020 0.587782 0.000001 0.800000 0.680953
-0.886300 -0.907845 -0.240425 -0.809020 0.587782 0.000001 0.900000 0.680953
-0.867007 -0.907845 -0.999999 0.309016 0.951057 -0.000000 0.100000 0.500000
-0.876654 -0.904711 -0.999999 0.309016 0.951057 -0.000000 -0.000000 0.500000
-0.876653 -0.904711 -0.240425 0.309016 0.951057 -0.000000 -0.000000 0.680953
-0.867007 -0.907845 -0.999999 0.309014 0.951057 -0.000000 0.100000 0.500000
-0.876653 -0.904711 -0.240425 0.309014 0.951057 -0.000000 -0.000000 0.680953
-0.867006 -0.907845 -0.240425 0.309014 0.951057 -0.000000 0.100000 0.680953
-0.861045 -0.916051 -0.999999 0.809017 0.587786 -0.000001 0.200000 0.500000
-0.867007 -0.907845 -0.999999 0.809017 0.587786 -0.000001 0.100000 0.500000
-0.867006 -0.907845 -0.240425 0.809017 0.587786 -0.000001 0.100000 0.680953
-0.861044 -0.916051 -0.240425 0.809017 0.587786 -0.000001 0.200000 0.680953
-0.861045 -0.926195 -0.999999 1.000000 0.000000 -0.000001 0.300000 0.500000
-0.861045 -0.916051 -0.999999 1.000000 0.000000 -0.000001 0.200000 0.500000
-0.867007 -0.934401 -0.999999 0.809017 -0.587786 -0.000001 0.400000 0.500000
-0.861045 -0.926195 -0.999999 0.809017 -0.587786 -0.000001 0.300000 0.500000
-0.861044 -0.926195 -0.240425 0.809017 -0.587786 -0.000001 0.300000 0.680953
-0.867006 -0.934401 -0.240425 0.809017 -0.587786 -0.000001 0.400000 0.680953
-0.876654 -0.937536 -0.999999 0.309016 -0.951057 -0.000000 0.500000 0.500000
-0.867007 -0.934401 -0.999999 0.309016 -0.951057 -0.000000 0.400000 0.500000
-0.867006 -0.934401 -0.240425 0.309016 -0.951057 -0.000000 0.400000 0.680953
-0.876654 -0.937536 -0.999999 0.309014 -0.951057 -0.000000 0.500000 0.500000
-0.867006 -0.934401 -0.240425 0.309014 -0.951057 -0.000000 0.400000 0.680953
-0.876653 -0.937536 -0.240425 0.309014 -0.951057 -0.000000 0.500000 0.680953
-0.886301 -0.934401 -0.999999 -0.309016 -0.951057 0.000000 0.600000 0.500000
-0.876654 -0.937536 -0.999999 -0.309016 -0.951057 0.000000 0.500000 0.500000
-0.876653 -0.937536 -0.240425 -0.309016 -0.951057 0.000000 0.500000 0.680953
-0.886300 -0.934401 -0.240425 -0.309016 -0.951057 0.000000 0.600000 0.680953
-0.892263 -0.926195 -0.999999 -0.809017 -0.587786 0.000001 0.700000 0.500000
-0.886301 -0.934401 -0.999999 -0.809017 -0.587786 0.000001 0.600000 0.500000
-0.886300 -0.934401 -0.240425 -0.809017 -0.587786 0.000001 0.600000 0.680953
-0.892263 -0.926195 -0.999999 -0.809020 -0.587782 0.000001 0.700000 0.500000
-0.886300 -0.934401 -0.240425 -0.809020 -0.587782 0.000001 0.600000 0.680953
-0.892262 -0.926195 -0.240425 -0.809020 -0.587782 0.000001 0.700000 0.680953
-0.892263 -0.916051 -0.999999 -1.000000 0.000000 0.000001 0.800000 0.500000
-0.892263 -0.926195 -0.999999 -1.000000 0.000000 0.000001 0.700000 0.500000
-0.876654 -0.904711 -0.999999 -0.309016 0.951057 0.000000 1.000000 0.500000
-0.886301 -0.907845 -0.999999 -0.309016 0.951057 0.000000 0.900000 0.500000
-0.886300 -0.907845 -0.240425 -0.309016 0.951057 0.000000 0.900000 0.680953
-0.876653 -0.904711 -0.240425 -0.309016 0.951057 0.000000 1.000000 0.680953
-0.044923 -0.805590 0.069691 0.000001 -0.000000 1.000000 0.625000 0.125000
-0.894923 -0.805590 0.069692 0.000001 -0.000000 1.000000 0.625000 0.625000
-0.894923 -0.845080 0.069692 0.000001 -0.000000 1.000000 0.375000 0.625000
-0.044923 -0.845080 0.069691 0.000001 0.000000 1.000000 0.375000 0.125000
-0.894923 -0.805590 0.069692 0.000000 1.000000 0.000000 0.625000 0.625000
-0.044923 -0.805590 0.069691 0.000000 1.000000 0.000000 0.875000 0.625000
-0.044923 -0.805590 0.069691 1.000000 0.000000 -0.000001 0.625000 0.125000
-0.044923 -0.845080 0.069691 1.000000 0.000000 -0.000001 0.375000 0.125000
-0.044923 -0.876614 0.069691 1.000000 0.000000 -0.000001 0.375000 0.125000
-0.044924 -0.876614 0.043062 1.000000 0.000000 -0.000001 0.375000 0.125000
-0.044924 -0.876614 0.043062 0.000000 -1.000000 -0.000000 0.125000 0.625000
-0.044923 -0.876614 0.069691 0.000000 -1.000000 -0.000000 0.125000 0.625000
-0.894923 -0.876614 0.069692 0.000000 -1.000000 -0.000000 0.375000 0.625000
-0.894923 -0.876614 0.043063 0.000000 -1.000000 0.000000 0.375000 0.625000
-0.894923 -0.876614 0.043063 -1.000000 0.000000 0.000002 0.375000 0.625000
-0.894923 -0.876614 0.069692 -1.000000 0.000000 0.000002 0.375000 0.625000
-0.894923 -0.876614 0.069692 0.000001 -0.000000 1.000000 0.375000 0.625000
-0.044923 -0.876614 0.069691 0.000001 -0.000000 1.000000 0.375000 0.125000
-0.044924 -0.845080 0.043062 -0.000001 0.000000 -1.000000 0.125000 0.625000
-0.044924 -0.876614 0.043062 -0.000001 0.000000 -1.000000 0.125000 0.625000
-0.894923 -0.876614 0.043063 -0.000001 0.000000 -1.000000 0.375000 0.625000
-0.894923 -0.845080 0.043063 -0.000001 -0.000000 -1.000000 0.375000 0.625000
-0.961650 -0.987122 0.015407 -0.309009 0.672500 0.672500 1.000000 0.500000
-0.961651 0.028284 -0.999999 -0.309009 0.672500 0.672500 1.000000 0.753531
-0.973407 0.022883 -0.999999 -0.309009 0.672500 0.672500 0.900000 0.752857
-0.961650 -0.987122 0.015407 -0.309019 0.672498 0.672498 1.000000 0.500000
-0.973407 0.022883 -0.999999 -0.309019 0.672498 0.672498 0.900000 0.752857
-0.973406 -0.989823 0.012706 -0.309019 0.672498 0.672498 0.900000 0.500000
-0.973406 -0.989823 0.012706 -0.809020 0.415624 0.415625 0.900000 0.500000
-0.973407 0.022883 -0.999999 -0.809020 0.415624 0.415625 0.900000 0.752857
-0.980672 0.008741 -0.999999 -0.809020 0.415624 0.415625 0.800000 0.751091
-0.973406 -0.989823 0.012706 -0.809013 0.415630 0.415631 0.900000 0.500000
-0.980672 0.008741 -0.999999 -0.809013 0.415630 0.415631 0.800000 0.751091
-0.980671 -0.996894 0.005635 -0.809013 0.415630 0.415631 0.800000 0.500000
-0.980671 -0.996894 0.005635 -1.000000 0.000000 0.000001 0.800000 0.500000
-0.980672 0.008741 -0.999999 -1.000000 0.000000 0.000001 0.800000 0.751091
-0.980672 -0.008740 -0.999999 -1.000000 0.000000 0.000001 0.700000 0.748909
-0.980671 -0.996894 0.005635 -1.000000 -0.000001 0.000001 0.800000 0.500000
-0.980672 -0.008740 -0.999999 -1.000000 -0.000001 0.000001 0.700000 0.748909
-0.980671 -1.005634 -0.003106 -1.000000 -0.000001 0.000001 0.700000 0.500000
-0.980671 -1.005634 -0.003106 -0.809018 -0.415627 -0.415626 0.700000 0.500000
-0.980672 -0.008740 -0.999999 -0.809018 -0.415627 -0.415626 0.700000 0.748909
-0.973407 -0.022882 -0.999999 -0.809018 -0.415627 -0.415626 0.600000 0.747143
-0.980671 -1.005634 -0.003106 -0.809017 -0.415627 -0.415626 0.700000 0.500000
-0.973407 -0.022882 -0.999999 -0.809017 -0.415627 -0.415626 0.600000 0.747143
-0.973406 -1.012705 -0.010177 -0.809017 -0.415627 -0.415626 0.600000 0.500000
-0.973406 -1.012705 -0.010177 -0.309022 -0.672498 -0.672497 0.600000 0.500000
-0.973407 -0.022882 -0.999999 -0.309022 -0.672498 -0.672497 0.600000 0.747143
-0.961651 -0.028284 -0.999999 -0.309022 -0.672498 -0.672497 0.500000 0.746469
-0.973406 -1.012705 -0.010177 -0.309018 -0.672499 -0.672498 0.600000 0.500000
-0.961651 -0.028284 -0.999999 -0.309018 -0.672499 -0.672498 0.500000 0.746469
-0.961650 -1.015406 -0.012878 -0.309018 -0.672499 -0.672498 0.500000 0.500000
-0.961650 -1.015406 -0.012878 0.309016 -0.672499 -0.672499 0.500000 0.500000
-0.961651 -0.028284 -0.999999 0.309016 -0.672499 -0.672499 0.500000 0.746469
-0.949896 -0.022882 -0.999999 0.309016 -0.672499 -0.672499 0.400000 0.747143
-0.961650 -1.015406 -0.012878 0.309020 -0.672498 -0.672498 0.500000 0.500000
-0.949896 -0.022882 -0.999999 0.309020 -0.672498 -0.672498 0.400000 0.747143
-0.949894 -1.012705 -0.010177 0.309020 -0.672498 -0.672498 0.400000 0.500000
-0.949894 -1.012705 -0.010177 0.809017 -0.415626 -0.415627 0.400000 0.500000
-0.949896 -0.022882 -0.999999 0.809017 -0.415626 -0.415627 0.400000 0.747143
-0.942630 -0.008740 -0.999999 0.809017 -0.415626 -0.415627 0.300000 0.748909
-0.949894 -1.012705 -0.010177 0.809020 -0.415624 -0.415625 0.400000 0.500000
-0.942630 -0.008740 -0.999999 0.809020 -0.415624 -0.415625 0.300000 0.748909
-0.942629 -1.005634 -0.003106 0.809020 -0.415624 -0.415625 0.300000 0.500000
-0.942629 -1.005634 -0.003106 1.000000 -0.000000 -0.000001 0.300000 0.500000
-0.942630 -0.008740 -0.999999 1.000000 -0.000000 -0.000001 0.300000 0.748909
-0.942630 0.008741 -1.000000 1.000000 -0.000000 -0.000001 0.200000 0.751091
-0.942629 -1.005634 -0.003106 1.000000 0.000001 -0.000001 0.300000 0.500000
-0.942630 0.008741 -1.000000 1.000000 0.000001 -0.000001 0.200000 0.751091
-0.942629 -0.996894 0.005635 1.000000 0.000001 -0.000001 0.200000 0.500000
-0.942629 -0.996894 0.005635 0.809018 0.415626 0.415625 0.200000 0.500000
-0.942630 0.008741 -1.000000 0.809018 0.415626 0.415625 0.200000 0.751091
-0.949896 0.022883 -0.999999 0.809018 0.415626 0.415625 0.100000 0.752857
-0.949894 -0.989823 0.012706 0.809018 0.415626 0.415625 0.100000 0.500000
-0.949894 -0.989823 0.012706 0.309016 0.672499 0.672499 0.100000 0.500000
-0.949896 0.022883 -0.999999 0.309016 0.672499 0.672499 0.100000 0.752857
-0.961651 0.028284 -0.999999 0.309016 0.672499 0.672499 -0.000000 0.753531
-0.949894 -0.989823 0.012706 0.309018 0.672498 0.672498 0.100000 0.500000
-0.961651 0.028284 -0.999999 0.309018 0.672498 0.672498 -0.000000 0.753531
-0.961650 -0.987122 0.015407 0.309018 0.672498 0.672498 -0.000000 0.500000
-0.949894 -0.989823 0.012706 0.000001 -0.707099 0.707115 0.608932 0.444164
-0.961650 -0.987122 0.015407 0.000001 -0.707099 0.707115 0.750000 0.490000
-0.973406 -0.989823 0.012706 0.000001 -0.707099 0.707115 0.891068 0.444164
-0.973406 -0.989823 0.012706 -0.000010 -0.707104 0.707109 0.891068 0.444164
-0.980671 -0.996894 0.005635 -0.000010 -0.707104 0.707109 0.978254 0.324164
-0.980671 -1.005634 -0.003106 -0.000010 -0.707104 0.707109 0.978254 0.175836
-0.980671 -1.005634 -0.003106 -0.000001 -0.707111 0.707103 0.978254 0.175836
-0.973406 -1.012705 -0.010177 -0.000001 -0.707111 0.707103 0.891068 0.055836
-0.961650 -1.015406 -0.012878 -0.000001 -0.707111 0.707103 0.750000 0.010000
-0.961650 -1.015406 -0.012878 0.000003 -0.707111 0.707103 0.750000 0.010000
-0.949894 -1.012705 -0.010177 0.000003 -0.707111 0.707103 0.608932 0.055836
-0.942629 -1.005634 -0.003106 0.000003 -0.707111 0.707103 0.521746 0.175836
-0.942629 -1.005634 -0.003106 0.000011 -0.707104 0.707109 0.521746 0.175836
-0.942629 -0.996894 0.005635 0.000011 -0.707104 0.707109 0.521746 0.324164
-0.949894 -0.989823 0.012706 0.000011 -0.707104 0.707109 0.608932 0.444164
-0.949894 -0.989823 0.012706 0.000001 -0.707107 0.707107 0.608932 0.444164
-0.973406 -0.989823 0.012706 0.000001 -0.707107 0.707107 0.891068 0.444164
-0.980671 -1.005634 -0.003106 0.000001 -0.707107 0.707107 0.978254 0.175836
-0.980671 -1.005634 -0.003106 0.000001 -0.707109 0.707105 0.978254 0.175836
-0.961650 -1.015406 -0.012878 0.000001 -0.707109 0.707105 0.750000 0.010000
-0.942629 -1.005634 -0.003106 0.000001 -0.707109 0.707105 0.521746 0.175836
-0.942629 -1.005634 -0.003106 0.000001 -0.707107 0.707107 0.521746 0.175836
-1.023583 0.021530 0.050599 -1.000000 0.000000 0.000000 0.490000 0.250000
-1.023583 0.027455 0.064903 -1.000000 0.000000 0.000000 0.419706 0.419706
-1.023583 0.041759 0.070828 -1.000000 0.000000 0.000000 0.250000 0.490000
-1.023583 0.056064 0.064903 -1.000000 0.000000 0.000000 0.080295 0.419706
-1.023583 0.061989 0.050599 -1.000000 0.000000 0.000000 0.010000 0.250000
-1.023583 0.061989 0.050599 -1.000000 0.000004 -0.000010 0.010000 0.250000
-1.023583 0.056064 0.036295 -1.000000 0.000004 -0.000010 0.080295 0.080294
-1.023583 0.041759 0.030370 -1.000000 0.000004 -0.000010 0.250000 0.010000
-1.023583 0.041759 0.030370 -1.000000 -0.000004 -0.000010 0.250000 0.010000
-1.023583 0.027455 0.036295 -1.000000 -0.000004 -0.000010 0.419706 0.080294
-1.023583 0.021530 0.050599 -1.000000 -0.000004 -0.000010 0.490000 0.250000
-1.023583 0.061989 0.050599 -1.000000 0.000000 -0.000006 0.010000 0.250000
-1.023583 0.041759 0.030370 -1.000000 0.000000 -0.000006 0.250000 0.010000
-1.023583 0.021530 0.050599 -1.000000 0.000000 -0.000006 0.490000 0.250000
0.090355 0.056064 0.036295 -0.000000 0.923877 -0.382689 0.375000 0.500000
-1.023583 0.056064 0.036295 -0.000000 0.923877 -0.382689 0.375000 1.000000
-1.023583 0.061989 0.050599 -0.000000 0.923877 -0.382689 0.250000 1.000000
0.090355 0.056064 0.036295 -0.000000 0.923881 -0.382680 0.375000 0.500000
-1.023583 0.061989 0.050599 -0.000000 0.923881 -0.382680 0.250000 1.000000
0.090355 0.061989 0.050599 -0.000000 0.923881 -0.382680 0.250000 0.500000
0.090355 0.041760 0.030370 -0.000000 0.382686 -0.923879 0.500000 0.500000
-1.023583 0.041759 0.030370 -0.000000 0.382686 -0.923879 0.500000 1.000000
-1.023583 0.056064 0.036295 -0.000000 0.382686 -0.923879 0.375000 1.000000
0.090355 0.041760 0.030370 -0.000000 0.382683 -0.923880 0.500000 0.500000
-1.023583 0.056064 0.036295 -0.000000 0.382683 -0.923880 0.375000 1.000000
0.090355 0.056064 0.036295 -0.000000 0.382683 -0.923880 0.375000 0.500000
0.090355 0.027455 0.036295 0.000000 -0.382684 -0.923879 0.625000 0.500000
-1.023583 0.027455 0.036295 0.000000 -0.382684 -0.923879 0.625000 1.000000
-1.023583 0.041759 0.030370 0.000000 -0.382684 -0.923879 0.500000 1.000000
0.090355 0.027455 0.036295 0.000000 -0.382683 -0.923880 0.625000 0.500000
-1.023583 0.041759 0.030370 0.000000 -0.382683 -0.923880 0.500000 1.000000
0.090355 0.041760 0.030370 0.000000 -0.382683 -0.923880 0.500000 0.500000
0.090355 0.056064 0.064903 1.000000 -0.000000 0.000000 0.580295 0.419706
0.090355 0.041760 0.070828 1.000000 -0.000000 0.000000 0.750000 0.490000
0.090355 0.027455 0.064903 1.000000 -0.000000 0.000000 0.919706 0.419706
0.090355 0.027455 0.064903 1.000000 -0.000005 0.000002 0.919706 0.419706
0.090355 0.021530 0.050599 1.000000 -0.000005 0.000002 0.990000 0.250000
0.090355 0.027455 0.036295 1.000000 -0.000005 0.000002 0.919706 0.080294
0.090355 0.027455 0.036295 1.000000 0.000000 0.000000 0.919706 0.080294
0.090355 0.041760 0.030370 1.000000 0.000000 0.000000 0.750000 0.010000
0.090355 0.056064 0.036295 1.000000 0.000000 0.000000 0.580295 0.080294
0.090355 0.056064 0.036295 1.000000 0.000005 0.000002 0.580295 0.080294
0.090355 0.061989 0.050599 1.000000 0.000005 0.000002 0.510000 0.250000
0.090355 0.056064 0.064903 1.000000 0.000005 0.000002 0.580295 0.419706
0.090355 0.056064 0.064903 1.000000 -0.000000 0.000002 0.580295 0.419706
0.090355 0.027455 0.064903 1.000000 -0.000000 0.000002 0.919706 0.419706
0.090355 0.027455 0.036295 1.000000 -0.000000 0.000002 0.919706 0.080294
0.090355 0.056064 0.036295 1.000000 0.000000 0.000002 0.580295 0.080294
0.090355 0.021530 0.050599 -0.000000 -0.923880 -0.382683 0.750000 0.500000
-1.023583 0.021530 0.050599 -0.000000 -0.923880 -0.382683 0.750000 1.000000
-1.023583 0.027455 0.036295 -0.000000 -0.923880 -0.382683 0.625000 1.000000
0.090355 0.027455 0.036295 -0.000000 -0.923880 -0.382683 0.625000 0.500000
0.090355 0.056064 0.064903 -0.000000 0.382686 0.923878 0.125000 0.500000
-1.023583 0.056064 0.064903 -0.000000 0.382686 0.923878 0.125000 1.000000
-1.023583 0.041759 0.070828 -0.000000 0.382686 0.923878 0.000000 1.000000
0.090355 0.056064 0.064903 -0.000000 0.382683 0.923880 0.125000 0.500000
-1.023583 0.041759 0.070828 -0.000000 0.382683 0.923880 0.000000 1.000000
0.090355 0.041760 0.070828 -0.000000 0.382683 0.923880 0.000000 0.500000
0.090355 0.027455 0.064903 0.000000 -0.923880 0.382683 0.875000 0.500000
-1.023583 0.027455 0.064903 0.000000 -0.923880 0.382683 0.875000 1.000000
-1.023583 0.021530 0.050599 0.000000 -0.923880 0.382683 0.750000 1.000000
0.090355 0.021530 0.050599 0.000000 -0.923880 0.382683 0.750000 0.500000
0.090355 0.041760 0.070828 0.000000 -0.382685 0.923879 1.000000 0.500000
-1.023583 0.041759 0.070828 0.000000 -0.382685 0.923879 1.000000 1.000000
-1.023583 0.027455 0.064903 0.000000 -0.382685 0.923879 0.875000 1.000000
0.090355 0.041760 0.070828 0.000000 -0.382683 0.923880 1.000000 0.500000
-1.023583 0.027455 0.064903 0.000000 -0.382683 0.923880 0.875000 1.000000
0.090355 0.027455 0.064903 0.000000 -0.382683 0.923880 0.875000 0.500000
0.090355 0.061989 0.050599 0.000000 0.923877 0.382690 0.250000 0.500000
-1.023583 0.061989 0.050599 0.000000 0.923877 0.382690 0.250000 1.000000
-1.023583 0.056064 0.064903 0.000000 0.923877 0.382690 0.125000 1.000000
0.090355 0.061989 0.050599 -0.000000 0.923881 0.382679 0.250000 0.500000
-1.023583 0.056064 0.064903 -0.000000 0.923881 0.382679 0.125000 1.000000
0.090355 0.056064 0.064903 -0.000000 0.923881 0.382679 0.125000 0.500000
-0.637881 -0.417354 0.036295 0.923876 0.002147 -0.382685 0.375000 0.833333
-0.638937 0.037104 0.036295 0.923876 0.002147 -0.382685 0.375000 1.000000
-0.633012 0.037104 0.050599 0.923876 0.002147 -0.382685 0.250000 1.000000
-0.637881 -0.417354 0.036295 0.922774 0.002242 -0.385334 0.375000 0.833333
-0.633012 0.037104 0.050599 0.922774 0.002242 -0.385334 0.250000 1.000000
-0.631921 -0.411989 0.050599 0.922774 0.002242 -0.385334 0.250000 0.833333
-0.652270 -0.430306 0.030370 0.382683 0.000795 -0.923880 0.500000 0.833333
-0.653242 0.037104 0.030370 0.382683 0.000795 -0.923880 0.500000 1.000000
-0.638937 0.037104 0.036295 0.382683 0.000795 -0.923880 0.375000 1.000000
-0.652270 -0.430306 0.030370 0.380075 0.000883 -0.924955 0.500000 0.833333
-0.638937 0.037104 0.036295 0.380075 0.000883 -0.924955 0.375000 1.000000
-0.637881 -0.417354 0.036295 0.380075 0.000883 -0.924955 0.375000 0.833333
-0.666660 -0.443258 0.036295 -0.382685 -0.000706 -0.923879 0.625000 0.833333
-0.667546 0.037104 0.036295 -0.382685 -0.000706 -0.923879 0.625000 1.000000
-0.653242 0.037104 0.030370 -0.382685 -0.000706 -0.923879 0.500000 1.000000
-0.666660 -0.443258 0.036295 -0.380147 -0.000790 -0.924926 0.625000 0.833333
-0.653242 0.037104 0.030370 -0.380147 -0.000790 -0.924926 0.500000 1.000000
-0.652270 -0.430306 0.030370 -0.380147 -0.000790 -0.924926 0.500000 0.833333
-0.672620 -0.448623 0.050599 -0.923877 -0.001619 -0.382685 0.750000 0.833333
-0.673471 0.037104 0.050599 -0.923877 -0.001619 -0.382685 0.750000 1.000000
-0.667546 0.037104 0.036295 -0.923877 -0.001619 -0.382685 0.625000 1.000000
-0.672620 -0.448623 0.050599 -0.922847 -0.001703 -0.385163 0.750000 0.833333
-0.667546 0.037104 0.036295 -0.922847 -0.001703 -0.385163 0.625000 1.000000
-0.666660 -0.443258 0.036295 -0.922847 -0.001703 -0.385163 0.625000 0.833333
-0.637881 -0.417354 0.064903 0.382683 0.000889 0.923879 0.125000 0.833333
-0.638937 0.037104 0.064903 0.382683 0.000889 0.923879 0.125000 1.000000
-0.653242 0.037104 0.070828 0.382683 0.000889 0.923879 0.000000 1.000000
-0.637881 -0.417354 0.064903 0.380146 0.000790 0.924926 0.125000 0.833333
-0.653242 0.037104 0.070828 0.380146 0.000790 0.924926 0.000000 1.000000
-0.652270 -0.430306 0.070828 0.380146 0.000790 0.924926 0.000000 0.833333
-0.666660 -0.443258 0.064903 -0.923877 -0.001705 0.382686 0.875000 0.833333
-0.667546 0.037104 0.064903 -0.923877 -0.001705 0.382686 0.875000 1.000000
-0.673471 0.037104 0.050599 -0.923877 -0.001705 0.382686 0.750000 1.000000
-0.666660 -0.443258 0.064903 -0.922859 -0.001617 0.385135 0.875000 0.833333
-0.673471 0.037104 0.050599 -0.922859 -0.001617 0.385135 0.750000 1.000000
-0.672620 -0.448623 0.050599 -0.922859 -0.001617 0.385135 0.750000 0.833333
-0.652270 -0.430306 0.070828 -0.382686 -0.000795 0.923878 1.000000 0.833333
-0.653242 0.037104 0.070828 -0.382686 -0.000795 0.923878 1.000000 1.000000
-0.667546 0.037104 0.064903 -0.382686 -0.000795 0.923878 0.875000 1.000000
-0.652270 -0.430306 0.070828 -0.380217 -0.000702 0.924897 1.000000 0.833333
-0.667546 0.037104 0.064903 -0.380217 -0.000702 0.924897 0.875000 1.000000
-0.666660 -0.443258 0.064903 -0.380217 -0.000702 0.924897 0.875000 0.833333
-0.631921 -0.411989 0.050599 0.923876 0.002245 0.382685 0.250000 0.833333
-0.633012 0.037104 0.050599 0.923876 0.002245 0.382685 0.250000 1.000000
-0.638937 0.037104 0.064903 0.923876 0.002245 0.382685 0.125000 1.000000
-0.631921 -0.411989 0.050599 0.922787 0.002144 0.385303 0.250000 0.833333
-0.638937 0.037104 0.064903 0.922787 0.002144 0.385303 0.125000 1.000000
-0.637881 -0.417354 0.064903 0.922787 0.002144 0.385303 0.125000 0.833333
-0.299366 0.037104 0.050599 -0.924521 0.003410 0.381115 0.250000 0.500000
-0.301023 -0.411989 0.050599 -0.924521 0.003410 0.381115 0.250000 0.666667
-0.295146 -0.417354 0.064903 -0.924521 0.003410 0.381115 0.125000 0.666667
-0.299366 0.037104 0.050599 -0.923876 0.003466 0.382677 0.250000 0.500000
-0.295146 -0.417354 0.064903 -0.923876 0.003466 0.382677 0.125000 0.666667
-0.293441 0.037104 0.064903 -0.923876 0.003466 0.382677 0.125000 0.500000
-0.301023 -0.411989 0.050599 0.000000 0.936311 0.351172 0.250000 0.666667
-0.631921 -0.411989 0.050599 0.000000 0.936311 0.351172 0.250000 0.833333
-0.637881 -0.417354 0.064903 0.000000 0.936311 0.351172 0.125000 0.833333
-0.301023 -0.411989 0.050599 -0.000000 0.936312 0.351168 0.250000 0.666667
-0.637881 -0.417354 0.064903 -0.000000 0.936312 0.351168 0.125000 0.833333
-0.295146 -0.417354 0.064903 -0.000000 0.936312 0.351168 0.125000 0.666667
-0.279137 0.037104 0.070828 0.384188 -0.001497 0.923254 1.000000 0.500000
-0.280958 -0.430306 0.070828 0.384188 -0.001497 0.923254 1.000000 0.666667
-0.266769 -0.443258 0.064903 0.384188 -0.001497 0.923254 0.875000 0.666667
-0.279137 0.037104 0.070828 0.382682 -0.001543 0.923879 1.000000 0.500000
-0.266769 -0.443258 0.064903 0.382682 -0.001543 0.923879 0.875000 0.666667
-0.264832 0.037104 0.064903 0.382682 -0.001543 0.923879 0.875000 0.500000
-0.280958 -0.430306 0.070828 -0.000000 -0.415994 0.909367 1.000000 0.666667
-0.652270 -0.430306 0.070828 -0.000000 -0.415994 0.909367 1.000000 0.833333
-0.666660 -0.443258 0.064903 -0.000000 -0.415994 0.909367 0.875000 0.833333
-0.280958 -0.430306 0.070828 -0.000000 -0.415995 0.909367 1.000000 0.666667
-0.666660 -0.443258 0.064903 -0.000000 -0.415995 0.909367 0.875000 0.833333
-0.266769 -0.443258 0.064903 -0.000000 -0.415995 0.909367 0.875000 0.666667
-0.264832 0.037104 0.064903 0.924478 -0.003728 0.381216 0.875000 0.500000
-0.266769 -0.443258 0.064903 0.924478 -0.003728 0.381216 0.875000 0.666667
-0.260892 -0.448623 0.050599 0.924478 -0.003728 0.381216 0.750000 0.666667
-0.264832 0.037104 0.064903 0.923873 -0.003776 0.382680 0.875000 0.500000
-0.260892 -0.448623 0.050599 0.923873 -0.003776 0.382680 0.750000 0.666667
-0.258907 0.037104 0.050599 0.923873 -0.003776 0.382680 0.750000 0.500000
-0.266769 -0.443258 0.064903 -0.000000 -0.936311 0.351172 0.875000 0.666667
-0.666660 -0.443258 0.064903 -0.000000 -0.936311 0.351172 0.875000 0.833333
-0.672620 -0.448623 0.050599 -0.000000 -0.936311 0.351172 0.750000 0.833333
-0.266769 -0.443258 0.064903 -0.000000 -0.936312 0.351170 0.875000 0.666667
-0.672620 -0.448623 0.050599 -0.000000 -0.936312 0.351170 0.750000 0.833333
-0.260892 -0.448623 0.050599 -0.000000 -0.936312 0.351170 0.750000 0.666667
-0.293441 0.037104 0.064903 -0.384235 0.001441 0.923234 0.125000 0.500000
-0.295146 -0.417354 0.064903 -0.384235 0.001441 0.923234 0.125000 0.666667
-0.280958 -0.430306 0.070828 -0.384235 0.001441 0.923234 0.000000 0.666667
-0.293441 0.037104 0.064903 -0.382683 0.001491 0.923879 0.125000 0.500000
-0.280958 -0.430306 0.070828 -0.382683 0.001491 0.923879 0.000000 0.666667
-0.279137 0.037104 0.070828 -0.382683 0.001491 0.923879 0.000000 0.500000
-0.295146 -0.417354 0.064903 -0.000000 0.415997 0.909366 0.125000 0.666667
-0.637881 -0.417354 0.064903 -0.000000 0.415997 0.909366 0.125000 0.833333
-0.652270 -0.430306 0.070828 -0.000000 0.415997 0.909366 0.000000 0.833333
-0.295146 -0.417354 0.064903 0.000000 0.415994 0.909368 0.125000 0.666667
-0.652270 -0.430306 0.070828 0.000000 0.415994 0.909368 0.000000 0.833333
-0.280958 -0.430306 0.070828 0.000000 0.415994 0.909368 0.000000 0.666667
-0.258907 0.037104 0.050599 0.924471 -0.003779 -0.381233 0.750000 0.500000
-0.260892 -0.448623 0.050599 0.924471 -0.003779 -0.381233 0.750000 0.666667
-0.266769 -0.443258 0.036295 0.924471 -0.003779 -0.381233 0.625000 0.666667
-0.258907 0.037104 0.050599 0.923874 -0.003726 -0.382679 0.750000 0.500000
-0.266769 -0.443258 0.036295 0.923874 -0.003726 -0.382679 0.625000 0.666667
-0.264832 0.037104 0.036295 0.923874 -0.003726 -0.382679 0.625000 0.500000
-0.260892 -0.448623 0.050599 -0.000000 -0.936311 -0.351172 0.750000 0.666667
-0.672620 -0.448623 0.050599 -0.000000 -0.936311 -0.351172 0.750000 0.833333
-0.666660 -0.443258 0.036295 -0.000000 -0.936311 -0.351172 0.625000 0.833333
-0.260892 -0.448623 0.050599 -0.000000 -0.936312 -0.351170 0.750000 0.666667
-0.666660 -0.443258 0.036295 -0.000000 -0.936312 -0.351170 0.625000 0.833333
-0.266769 -0.443258 0.036295 -0.000000 -0.936312 -0.351170 0.625000 0.666667
-0.264832 0.037104 0.036295 0.384149 -0.001549 -0.923270 0.625000 0.500000
-0.266769 -0.443258 0.036295 0.384149 -0.001549 -0.923270 0.625000 0.666667
-0.280958 -0.430306 0.030370 0.384149 -0.001549 -0.923270 0.500000 0.666667
-0.264832 0.037104 0.036295 0.382683 -0.001491 -0.923879 0.625000 0.500000
-0.280958 -0.430306 0.030370 0.382683 -0.001491 -0.923879 0.500000 0.666667
-0.279137 0.037104 0.030370 0.382683 -0.001491 -0.923879 0.500000 0.500000
-0.266769 -0.443258 0.036295 -0.000000 -0.415996 -0.909367 0.625000 0.666667
-0.666660 -0.443258 0.036295 -0.000000 -0.415996 -0.909367 0.625000 0.833333
-0.652270 -0.430306 0.030370 -0.000000 -0.415996 -0.909367 0.500000 0.833333
-0.266769 -0.443258 0.036295 -0.000000 -0.415995 -0.909367 0.625000 0.666667
-0.652270 -0.430306 0.030370 -0.000000 -0.415995 -0.909367 0.500000 0.833333
-0.280958 -0.430306 0.030370 -0.000000 -0.415995 -0.909367 0.500000 0.666667
-0.279137 0.037104 0.030370 -0.384190 0.001497 -0.923253 0.500000 0.500000
-0.280958 -0.430306 0.030370 -0.384190 0.001497 -0.923253 0.500000 0.666667
-0.295146 -0.417354 0.036295 -0.384190 0.001497 -0.923253 0.375000 0.666667
-0.279137 0.037104 0.030370 -0.382683 0.001436 -0.923879 0.500000 0.500000
-0.295146 -0.417354 0.036295 -0.382683 0.001436 -0.923879 0.375000 0.666667
-0.293441 0.037104 0.036295 -0.382683 0.001436 -0.923879 0.375000 0.500000
-0.280958 -0.430306 0.030370 0.000000 0.415996 -0.909366 0.500000 0.666667
-0.652270 -0.430306 0.030370 0.000000 0.415996 -0.909366 0.500000 0.833333
-0.637881 -0.417354 0.036295 0.000000 0.415996 -0.909366 0.375000 0.833333
-0.280958 -0.430306 0.030370 -0.000000 0.415994 -0.909367 0.500000 0.666667
-0.637881 -0.417354 0.036295 -0.000000 0.415994 -0.909367 0.375000 0.833333
-0.295146 -0.417354 0.036295 -0.000000 0.415994 -0.909367 0.375000 0.666667
-0.293441 0.037104 0.036295 -0.924514 0.003468 -0.381132 0.375000 0.500000
-0.295146 -0.417354 0.036295 -0.924514 0.003468 -0.381132 0.375000 0.666667
-0.301023 -0.411989 0.050599 -0.924514 0.003468 -0.381132 0.250000 0.666667
-0.293441 0.037104 0.036295 -0.923876 0.003408 -0.382677 0.375000 0.500000
-0.301023 -0.411989 0.050599 -0.923876 0.003408 -0.382677 0.250000 0.666667
-0.299366 0.037104 0.050599 -0.923876 0.003408 -0.382677 0.250000 0.500000
-0.295146 -0.417354 0.036295 -0.000000 0.936311 -0.351172 0.375000 0.666667
-0.637881 -0.417354 0.036295 -0.000000 0.936311 -0.351172 0.375000 0.833333
-0.631921 -0.411989 0.050599 -0.000000 0.936311 -0.351172 0.250000 0.833333
-0.295146 -0.417354 0.036295 0.000000 0.936312 -0.351168 0.375000 0.666667
-0.631921 -0.411989 0.050599 0.000000 0.936312 -0.351168 0.250000 0.833333
-0.301023 -0.411989 0.050599 0.000000 0.936312 -0.351168 0.250000 0.666667
3 0 1 2
3 0 2 3
3 4 5 6
3 4 6 7
3 8 9 10
3 8 10 11
3 12 13 14
3 12 14 15
3 16 17 18
3 16 18 19
3 20 21 22
3 20 22 23
3 24 25 26
3 24 26 27
3 28 29 30
3 28 30 31
3 32 33 34
3 34 35 36
3 36 37 38
3 38 39 40
3 40 41 32
3 32 34 36
3 36 38 40
3 36 40 32
3 42 43 44
3 42 44 45
3 46 47 48
3 46 48 49
3 50 51 52
3 50 52 53
3 54 55 56
3 54 56 57
3 58 59 60
3 58 60 61
3 62 63 64
3 62 64 65
3 66 67 68
3 66 68 69
3 70 71 72
3 70 72 73
3 74 75 76
3 74 76 77
3 78 79 80
3 78 80 81
3 82 83 84
3 84 85 86
3 86 87 88
3 88 89 90
3 90 91 82
3 82 84 86
3 86 88 90
3 86 90 82
3 92 93 94
3 92 94 95
3 96 97 98
3 96 98 99
3 100 101 102
3 100 102 103
3 104 105 106
3 104 106 107
3 108 109 110
3 111 112 113
3 114 115 116
3 117 118 119
3 120 121 122
3 123 124 125
3 126 127 128
3 129 130 131
3 132 133 134
3 135 136 137
3 138 139 140
3 141 142 143
3 144 145 146
3 147 148 149
3 150 151 152
3 153 154 155
3 156 157 158
3 159 160 161
3 162 163 164
3 165 166 167
3 168 169 170
3 168 170 171
3 172 173 174
3 172 174 175
3 176 177 178
3 176 178 179
3 180 181 182
3 183 184 185
3 186 187 188
3 189 190 191
3 192 193 194
3 192 194 195
3 196 197 145
3 196 145 144
3 198 199 200
3 198 200 201
3 202 203 204
3 205 206 207
3 208 209 210
3 208 210 211
3 212 213 214
3 215 216 217
3 218 219 115
3 218 115 114
3 220 221 222
3 220 222 223
3 224 225 226
3 224 226 227
3 169 228 229
3 169 229 170
3 103 230 231
3 103 231 100
3 231 232 233
3 231 233 100
3 234 235 236
3 234 236 237
3 104 238 239
3 104 239 105
3 226 240 241
3 226 241 227
3 242 243 244
3 242 244 245
3 246 247 248
3 249 250 251
3 252 253 254
3 255 256 257
3 258 259 260
3 261 262 263
3 264 265 266
3 267 268 269
3 270 271 272
3 273 274 275
3 276 277 278
3 279 280 281
3 282 283 284
3 285 286 287
3 288 289 290
3 291 292 293
3 294 295 296
3 294 296 297
3 298 299 300
3 301 302 303
3 304 305 306
3 307 308 309
3 310 311 312
3 313 314 315
3 316 317 318
3 319 320 321
3 322 323 324
3 321 325 319
3 326 327 328
3 328 329 330
3 331 332 333
3 334 335 336
3 326 328 330
3 337 338 339
3 340 341 342
3 343 344 345
3 346 347 348
3 349 350 351
3 352 353 354
3 355 356 357
3 358 359 360
3 361 362 363
3 364 365 366
3 367 368 369
3 370 371 372
3 372 373 370
3 374 375 376
3 374 376 377
3 378 379 380
3 381 382 383
3 384 385 386
3 384 386 387
3 388 389 390
3 391 392 393
3 394 395 396
3 397 398 399
3 400 401 402
3 403 404 405
3 406 407 408
3 409 410 411
3 412 413 414
3 415 416 417
3 418 419 420
3 421 422 423
3 424 425 426
3 427 428 429
3 430 431 432
3 433 434 435
3 436 437 438
3 439 440 441
3 442 443 444
3 445 446 447
3 448 449 450
3 451 452 453
3 454 455 456
3 457 458 459
3 460 461 462
3 463 464 465
3 466 467 468
3 469 470 471
3 472 473 474
3 475 476 477
3 478 479 480
3 481 482 483
3 484 485 486
3 487 488 489
3 490 491 492
3 493 494 495
3 496 497 498
3 499 500 501
3 502 503 504
3 505 506 507
3 508 509 510
3 511 512 513
3 514 515 516
3 517 518 519
3 520 521 522
3 523 524 525
3 526 527 528
3 529 530 531
3 532 533 534
3 535 536 537
3 538 539 540
3 541 542 543
