ply
format ascii 1.0
comment Created by Blender 2.80 (sub 75) - www.blender.org, source file: 'advance_models.blend'
element vertex 320
property float x
property float y
property float z
property float nx
property float ny
property float nz
property float s
property float t
element face 150
property list uchar uint vertex_indices
end_header
-0.043061 -0.845080 0.044923 -0.000000 -0.000000 -1.000000 0.375000 0.125000
-0.043061 -0.805590 0.044923 -0.000000 -0.000000 -1.000000 0.625000 0.125000
1.000000 -0.805590 0.044923 -0.000000 -0.000000 -1.000000 0.625000 0.250000
1.000000 -0.845080 0.044923 -0.000000 0.000000 -1.000000 0.375000 0.250000
-0.043061 -0.845080 0.894924 -0.000000 0.000000 1.000000 0.375000 0.625000
-0.043061 -0.805590 0.894924 -0.000000 0.000000 1.000000 0.625000 0.625000
-0.069690 -0.805590 0.894924 -0.000000 0.000000 1.000000 0.625000 0.625000
-0.069690 -0.845080 0.894924 -0.000000 0.000000 1.000000 0.375000 0.625000
0.020000 -1.000000 0.018601 0.951057 0.000000 0.309017 1.000000 0.500000
0.020000 1.000000 0.018601 0.951057 0.000000 0.309017 1.000000 1.000000
0.016180 1.000000 0.030357 0.951057 0.000000 0.309017 0.900000 1.000000
0.016180 -1.000000 0.030357 0.951057 -0.000000 0.309017 0.900000 0.500000
0.016180 -1.000000 0.030357 0.587785 0.000000 0.809017 0.900000 0.500000
0.016180 1.000000 0.030357 0.587785 0.000000 0.809017 0.900000 1.000000
0.006180 1.000000 0.037622 0.587785 0.000000 0.809017 0.800000 1.000000
0.006180 -1.000000 0.037622 0.587785 -0.000000 0.809017 0.800000 0.500000
0.006180 -1.000000 0.037622 -0.000000 0.000000 1.000000 0.800000 0.500000
0.006180 1.000000 0.037622 -0.000000 0.000000 1.000000 0.800000 1.000000
-0.006180 1.000000 0.037622 -0.000000 0.000000 1.000000 0.700000 1.000000
-0.006180 -1.000000 0.037622 -0.000000 0.000000 1.000000 0.700000 0.500000
-0.006180 -1.000000 0.037622 -0.587785 0.000000 0.809017 0.700000 0.500000
-0.006180 1.000000 0.037622 -0.587785 0.000000 0.809017 0.700000 1.000000
-0.016180 1.000000 0.030357 -0.587785 0.000000 0.809017 0.600000 1.000000
-0.016180 -1.000000 0.030357 -0.587785 0.000000 0.809017 0.600000 0.500000
-0.016180 -1.000000 0.030357 -0.951056 0.000000 0.309017 0.600000 0.500000
-0.016180 1.000000 0.030357 -0.951056 0.000000 0.309017 0.600000 1.000000
-0.020000 1.000000 0.018601 -0.951056 0.000000 0.309017 0.500000 1.000000
-0.020000 -1.000000 0.018601 -0.951056 0.000000 0.309017 0.500000 0.500000
-0.020000 -1.000000 0.018601 -0.951056 -0.000000 -0.309017 0.500000 0.500000
-0.020000 1.000000 0.018601 -0.951056 -0.000000 -0.309017 0.500000 1.000000
-0.016180 1.000000 0.006845 -0.951056 -0.000000 -0.309017 0.400000 1.000000
-0.016180 -1.000000 0.006845 -0.951056 0.000000 -0.309017 0.400000 0.500000
-0.016180 -1.000000 0.006845 -0.587785 -0.000000 -0.809017 0.400000 0.500000
-0.016180 1.000000 0.006845 -0.587785 -0.000000 -0.809017 0.400000 1.000000
-0.006180 1.000000 -0.000420 -0.587785 -0.000000 -0.809017 0.300000 1.000000
-0.006180 -1.000000 -0.000420 -0.587785 0.000000 -0.809017 0.300000 0.500000
-0.006180 -1.000000 -0.000420 -0.000000 -0.000000 -1.000000 0.300000 0.500000
-0.006180 1.000000 -0.000420 -0.000000 -0.000000 -1.000000 0.300000 1.000000
0.006180 1.000000 -0.000420 -0.000000 -0.000000 -1.000000 0.200000 1.000000
0.006180 -1.000000 -0.000420 -0.000000 0.000000 -1.000000 0.200000 0.500000
0.006180 1.000000 0.037622 0.000000 1.000000 0.000000 0.478254 0.324164
0.016180 1.000000 0.030357 0.000000 1.000000 0.000000 0.391068 0.444164
0.020000 1.000000 0.018601 0.000000 1.000000 0.000000 0.250000 0.490000
0.016180 1.000000 0.006845 0.000000 1.000000 0.000000 0.108932 0.444164
0.006180 1.000000 -0.000420 0.000000 1.000000 0.000000 0.021746 0.324164
-0.006180 1.000000 -0.000420 -0.000000 1.000000 0.000000 0.021746 0.175836
-0.016180 1.000000 0.006845 -0.000000 1.000000 0.000000 0.108932 0.055836
-0.020000 1.000000 0.018601 0.000000 1.000000 0.000000 0.250000 0.010000
-0.016180 1.000000 0.030357 0.000000 1.000000 0.000000 0.391068 0.055836
-0.006180 1.000000 0.037622 0.000000 1.000000 0.000000 0.478254 0.175836
0.006180 -1.000000 -0.000420 0.587785 0.000000 -0.809017 0.200000 0.500000
0.006180 1.000000 -0.000420 0.587785 0.000000 -0.809017 0.200000 1.000000
0.016180 1.000000 0.006845 0.587785 0.000000 -0.809017 0.100000 1.000000
0.016180 -1.000000 0.006845 0.587785 0.000000 -0.809017 0.100000 0.500000
0.016180 -1.000000 0.006845 0.951057 0.000000 -0.309017 0.100000 0.500000
0.016180 1.000000 0.006845 0.951057 0.000000 -0.309017 0.100000 1.000000
0.020000 1.000000 0.018601 0.951057 0.000000 -0.309017 -0.000000 1.000000
0.020000 -1.000000 0.018601 0.951057 0.000000 -0.309017 -0.000000 0.500000
0.020000 -1.000000 0.918502 0.951057 0.000000 0.309017 1.000000 0.500000
0.020000 1.000000 0.918502 0.951057 0.000000 0.309017 1.000000 1.000000
0.016180 1.000000 0.930258 0.951057 0.000000 0.309017 0.900000 1.000000
0.016180 -1.000000 0.930258 0.951057 -0.000000 0.309017 0.900000 0.500000
0.016180 -1.000000 0.930258 0.587786 0.000000 0.809016 0.900000 0.500000
0.016180 1.000000 0.930258 0.587786 0.000000 0.809016 0.900000 1.000000
0.006180 1.000000 0.937523 0.587786 0.000000 0.809016 0.800000 1.000000
0.006180 -1.000000 0.937523 0.587786 -0.000000 0.809016 0.800000 0.500000
0.006180 -1.000000 0.937523 -0.000000 0.000000 1.000000 0.800000 0.500000
0.006180 1.000000 0.937523 -0.000000 0.000000 1.000000 0.800000 1.000000
-0.006180 1.000000 0.937523 -0.000000 0.000000 1.000000 0.700000 1.000000
-0.006180 -1.000000 0.937523 -0.000000 0.000000 1.000000 0.700000 0.500000
-0.006180 -1.000000 0.937523 -0.587786 0.000000 0.809016 0.700000 0.500000
-0.006180 1.000000 0.937523 -0.587786 0.000000 0.809016 0.700000 1.000000
-0.016180 1.000000 0.930258 -0.587786 0.000000 0.809016 0.600000 1.000000
-0.016180 -1.000000 0.930258 -0.587786 0.000000 0.809016 0.600000 0.500000
-0.016180 -1.000000 0.930258 -0.951057 0.000000 0.309017 0.600000 0.500000
-0.016180 1.000000 0.930258 -0.951057 0.000000 0.309017 0.600000 1.000000
-0.020000 1.000000 0.918502 -0.951057 0.000000 0.309017 0.500000 1.000000
-0.020000 -1.000000 0.918502 -0.951057 0.000000 0.309017 0.500000 0.500000
-0.020000 -1.000000 0.918502 -0.951057 -0.000000 -0.309017 0.500000 0.500000
-0.020000 1.000000 0.918502 -0.951057 -0.000000 -0.309017 0.500000 1.000000
-0.016180 1.000000 0.906747 -0.951057 -0.000000 -0.309017 0.400000 1.000000
-0.016180 -1.000000 0.906747 -0.951057 0.000000 -0.309017 0.400000 0.500000
-0.016180 -1.000000 0.906747 -0.587784 -0.000000 -0.809018 0.400000 0.500000
-0.016180 1.000000 0.906747 -0.587784 -0.000000 -0.809018 0.400000 1.000000
-0.006180 1.000000 0.899481 -0.587784 -0.000000 -0.809018 0.300000 1.000000
-0.006180 -1.000000 0.899481 -0.587784 0.000000 -0.809018 0.300000 0.500000
-0.006180 -1.000000 0.899481 -0.000000 -0.000000 -1.000000 0.300000 0.500000
-0.006180 1.000000 0.899481 -0.000000 -0.000000 -1.000000 0.300000 1.000000
0.006180 1.000000 0.899481 -0.000000 -0.000000 -1.000000 0.200000 1.000000
0.006180 -1.000000 0.899481 -0.000000 0.000000 -1.000000 0.200000 0.500000
0.006180 1.000000 0.937523 0.000000 1.000000 0.000000 0.478254 0.324164
0.016180 1.000000 0.930258 0.000000 1.000000 0.000000 0.391068 0.444164
0.020000 1.000000 0.918502 0.000000 1.000000 0.000000 0.250000 0.490000
0.016180 1.000000 0.906747 0.000000 1.000000 0.000000 0.108932 0.444164
0.006180 1.000000 0.899481 0.000000 1.000000 0.000000 0.021746 0.324164
-0.006180 1.000000 0.899481 -0.000000 1.000000 0.000000 0.021746 0.175836
-0.016180 1.000000 0.906747 -0.000000 1.000000 0.000000 0.108932 0.055836
-0.020000 1.000000 0.918502 0.000000 1.000000 0.000000 0.250000 0.010000
-0.016180 1.000000 0.930258 0.000000 1.000000 0.000000 0.391068 0.055836
-0.006180 1.000000 0.937523 0.000000 1.000000 0.000000 0.478254 0.175836
0.006180 -1.000000 0.899481 0.587783 0.000000 -0.809018 0.200000 0.500000
0.006180 1.000000 0.899481 0.587783 0.000000 -0.809018 0.200000 1.000000
0.016180 1.000000 0.906747 0.587783 0.000000 -0.809018 0.100000 1.000000
0.016180 -1.000000 0.906747 0.587783 0.000000 -0.809018 0.100000 0.500000
0.016180 -1.000000 0.906747 0.951057 0.000000 -0.309017 0.100000 0.500000
0.016180 1.000000 0.906747 0.951057 0.000000 -0.309017 0.100000 1.000000
0.020000 1.000000 0.918502 0.951057 0.000000 -0.309017 -0.000000 1.000000
0.020000 -1.000000 0.918502 0.951057 0.000000 -0.309017 -0.000000 0.500000
0.003106 1.005634 0.980671 -0.707111 0.707103 -0.000002 0.478254 0.324164
0.010177 1.012705 0.973406 -0.707111 0.707103 -0.000002 0.391068 0.444164
0.012878 1.015406 0.961650 -0.707111 0.707103 -0.000002 0.250000 0.490000
0.012878 1.015406 0.961650 -0.707111 0.707103 0.000002 0.250000 0.490000
0.010177 1.012705 0.949894 -0.707111 0.707103 0.000002 0.108932 0.444164
0.003106 1.005634 0.942629 -0.707111 0.707103 0.000002 0.021746 0.324164
0.003106 1.005634 0.942629 -0.707104 0.707109 0.000016 0.021746 0.324164
-0.005634 0.996894 0.942629 -0.707104 0.707109 0.000016 0.021746 0.175836
-0.012705 0.989823 0.949894 -0.707104 0.707109 0.000016 0.108932 0.055836
-0.012705 0.989823 0.949894 -0.707107 0.707107 0.000000 0.108932 0.055836
-0.015406 0.987122 0.961650 -0.707107 0.707107 0.000000 0.250000 0.010000
-0.012705 0.989823 0.973406 -0.707107 0.707107 0.000000 0.391068 0.055836
-0.012705 0.989823 0.973406 -0.707104 0.707109 -0.000016 0.391068 0.055836
-0.005634 0.996894 0.980671 -0.707104 0.707109 -0.000016 0.478254 0.175836
0.003106 1.005634 0.980671 -0.707104 0.707109 -0.000016 0.478254 0.324164
0.003106 1.005634 0.980671 -0.707109 0.707105 0.000000 0.478254 0.324164
0.012878 1.015406 0.961650 -0.707109 0.707105 0.000000 0.250000 0.490000
0.003106 1.005634 0.942629 -0.707109 0.707105 0.000000 0.021746 0.324164
0.003106 1.005634 0.942629 -0.707108 0.707105 0.000000 0.021746 0.324164
-0.012705 0.989823 0.949894 -0.707108 0.707105 0.000000 0.108932 0.055836
-0.012705 0.989823 0.973406 -0.707108 0.707105 0.000000 0.391068 0.055836
0.003106 1.005634 0.980671 -0.707108 0.707105 0.000000 0.478254 0.324164
1.000000 0.022883 0.973406 0.672499 0.672499 0.309016 0.900000 0.752857
1.000000 0.028284 0.961650 0.672499 0.672499 0.309016 1.000000 0.753531
0.012878 1.015406 0.961650 0.672499 0.672499 0.309016 1.000000 1.000000
1.000000 0.022883 0.973406 0.672498 0.672498 0.309019 0.900000 0.752857
0.012878 1.015406 0.961650 0.672498 0.672498 0.309019 1.000000 1.000000
0.010177 1.012705 0.973406 0.672498 0.672498 0.309019 0.900000 1.000000
1.000000 0.008740 0.980671 0.415626 0.415626 0.809018 0.800000 0.751091
1.000000 0.022883 0.973406 0.415626 0.415626 0.809018 0.900000 0.752857
0.010177 1.012705 0.973406 0.415626 0.415626 0.809018 0.900000 1.000000
1.000000 0.008740 0.980671 0.415624 0.415624 0.809020 0.800000 0.751091
0.010177 1.012705 0.973406 0.415624 0.415624 0.809020 0.900000 1.000000
0.003106 1.005634 0.980671 0.415624 0.415624 0.809020 0.800000 1.000000
1.000000 -0.008740 0.980671 0.000000 0.000000 1.000000 0.700000 0.748909
1.000000 0.008740 0.980671 0.000000 0.000000 1.000000 0.800000 0.751091
0.003106 1.005634 0.980671 0.000000 0.000000 1.000000 0.800000 1.000000
-0.005634 0.996894 0.980671 0.000000 -0.000000 1.000000 0.700000 1.000000
1.000000 -0.028284 0.961650 -0.672499 -0.672499 0.309016 0.500000 0.746469
1.000000 -0.022882 0.973406 -0.672499 -0.672499 0.309016 0.600000 0.747143
-0.012705 0.989823 0.973406 -0.672499 -0.672499 0.309016 0.600000 1.000000
1.000000 -0.028284 0.961650 -0.672498 -0.672498 0.309019 0.500000 0.746469
-0.012705 0.989823 0.973406 -0.672498 -0.672498 0.309019 0.600000 1.000000
-0.015406 0.987122 0.961650 -0.672498 -0.672498 0.309019 0.500000 1.000000
1.000000 -0.022882 0.973406 -0.415626 -0.415626 0.809018 0.600000 0.747143
1.000000 -0.008740 0.980671 -0.415626 -0.415626 0.809018 0.700000 0.748909
-0.005634 0.996894 0.980671 -0.415626 -0.415626 0.809018 0.700000 1.000000
1.000000 -0.022882 0.973406 -0.415625 -0.415625 0.809019 0.600000 0.747143
-0.005634 0.996894 0.980671 -0.415625 -0.415625 0.809019 0.700000 1.000000
-0.012705 0.989823 0.973406 -0.415625 -0.415625 0.809019 0.600000 1.000000
1.000000 0.022883 0.949894 0.415626 0.415626 -0.809018 0.100000 0.752857
1.000000 0.008740 0.942629 0.415626 0.415626 -0.809018 0.200000 0.751091
0.003106 1.005634 0.942629 0.415626 0.415626 -0.809018 0.200000 1.000000
0.010177 1.012705 0.949894 0.415626 0.415626 -0.809018 0.100000 1.000000
1.000000 -0.022882 0.949894 -0.672499 -0.672499 -0.309016 0.400000 0.747143
1.000000 -0.028284 0.961650 -0.672499 -0.672499 -0.309016 0.500000 0.746469
-0.015406 0.987122 0.961650 -0.672499 -0.672499 -0.309016 0.500000 1.000000
1.000000 -0.022882 0.949894 -0.672498 -0.672498 -0.309019 0.400000 0.747143
-0.015406 0.987122 0.961650 -0.672498 -0.672498 -0.309019 0.500000 1.000000
-0.012705 0.989823 0.949894 -0.672498 -0.672498 -0.309019 0.400000 1.000000
1.000000 0.028284 0.961650 0.672499 0.672499 -0.309016 -0.000000 0.753531
1.000000 0.022883 0.949894 0.672499 0.672499 -0.309016 0.100000 0.752857
0.010177 1.012705 0.949894 0.672499 0.672499 -0.309016 0.100000 1.000000
1.000000 0.028284 0.961650 0.672498 0.672498 -0.309019 -0.000000 0.753531
0.010177 1.012705 0.949894 0.672498 0.672498 -0.309019 0.100000 1.000000
0.012878 1.015406 0.961650 0.672498 0.672498 -0.309019 -0.000000 1.000000
1.000000 0.008740 0.942629 0.000000 0.000000 -1.000000 0.200000 0.751091
1.000000 -0.008740 0.942629 0.000000 0.000000 -1.000000 0.300000 0.748909
-0.005634 0.996894 0.942629 0.000000 0.000000 -1.000000 0.300000 1.000000
0.003106 1.005634 0.942629 0.000000 -0.000000 -1.000000 0.200000 1.000000
1.000000 -0.008740 0.942629 -0.415626 -0.415626 -0.809018 0.300000 0.748909
1.000000 -0.022882 0.949894 -0.415626 -0.415626 -0.809018 0.400000 0.747143
-0.012705 0.989823 0.949894 -0.415626 -0.415626 -0.809018 0.400000 1.000000
1.000000 -0.008740 0.942629 -0.415627 -0.415627 -0.809016 0.300000 0.748909
-0.012705 0.989823 0.949894 -0.415627 -0.415627 -0.809016 0.400000 1.000000
-0.005634 0.996894 0.942629 -0.415627 -0.415627 -0.809016 0.300000 1.000000
0.240426 -0.904711 0.876653 0.487136 0.839885 0.239357 1.000000 0.680953
0.126953 -0.838896 0.876653 0.487136 0.839885 0.239357 1.000000 0.750000
0.122213 -0.838896 0.886300 0.487136 0.839885 0.239357 0.900000 0.750000
0.240426 -0.904711 0.876653 0.485081 0.831670 0.270225 1.000000 0.680953
0.122213 -0.838896 0.886300 0.485081 0.831670 0.270225 0.900000 0.750000
0.240426 -0.907845 0.886300 0.485081 0.831670 0.270225 0.900000 0.680953
0.240426 -0.916052 0.892262 -0.000000 0.000000 1.000000 0.800000 0.680953
0.109803 -0.838896 0.892262 -0.000000 0.000000 1.000000 0.800000 0.750000
0.094464 -0.838896 0.892262 -0.000000 0.000000 1.000000 0.700000 0.750000
0.240426 -0.926195 0.892262 -0.000000 -0.000000 1.000000 0.700000 0.680953
0.240426 -0.926195 0.892262 -0.350762 -0.586468 0.730083 0.700000 0.680953
0.094464 -0.838896 0.892262 -0.350762 -0.586468 0.730083 0.700000 0.750000
0.082054 -0.838896 0.886300 -0.350762 -0.586468 0.730083 0.600000 0.750000
0.240426 -0.926195 0.892262 -0.334093 -0.554012 0.762531 0.700000 0.680953
0.082054 -0.838896 0.886300 -0.334093 -0.554012 0.762531 0.600000 0.750000
0.240426 -0.934401 0.886300 -0.334093 -0.554012 0.762531 0.600000 0.680953
0.240426 -0.934401 0.886300 -0.500548 -0.830037 0.245948 0.600000 0.680953
0.082054 -0.838896 0.886300 -0.500548 -0.830037 0.245948 0.600000 0.750000
0.077314 -0.838896 0.876653 -0.500548 -0.830037 0.245948 0.500000 0.750000
0.240426 -0.934401 0.886300 -0.498560 -0.824428 0.267872 0.600000 0.680953
0.077314 -0.838896 0.876653 -0.498560 -0.824428 0.267872 0.500000 0.750000
0.240426 -0.937536 0.876653 -0.498560 -0.824428 0.267872 0.500000 0.680953
0.240426 -0.937536 0.876653 -0.501514 -0.829313 -0.246423 0.500000 0.680953
0.077314 -0.838896 0.876653 -0.501514 -0.829313 -0.246423 0.500000 0.750000
0.082054 -0.838896 0.867006 -0.501514 -0.829313 -0.246423 0.400000 0.750000
0.240426 -0.937536 0.876653 -0.497511 -0.825001 -0.268058 0.500000 0.680953
0.082054 -0.838896 0.867006 -0.497511 -0.825001 -0.268058 0.400000 0.750000
0.240426 -0.934401 0.867006 -0.497511 -0.825001 -0.268058 0.400000 0.680953
0.240426 -0.934401 0.867006 -0.351754 -0.583299 -0.732141 0.400000 0.680953
0.082054 -0.838896 0.867006 -0.351754 -0.583299 -0.732141 0.400000 0.750000
0.094464 -0.838896 0.861044 -0.351754 -0.583299 -0.732141 0.300000 0.750000
0.240426 -0.934401 0.867006 -0.331655 -0.554521 -0.763224 0.400000 0.680953
0.094464 -0.838896 0.861044 -0.331655 -0.554521 -0.763224 0.300000 0.750000
0.240426 -0.926195 0.861044 -0.331655 -0.554521 -0.763224 0.300000 0.680953
0.240426 -0.926195 0.861044 -0.000000 -0.000000 -1.000000 0.300000 0.680953
0.094464 -0.838896 0.861044 -0.000000 -0.000000 -1.000000 0.300000 0.750000
0.109803 -0.838896 0.861044 -0.000000 -0.000000 -1.000000 0.200000 0.750000
0.240426 -0.916052 0.861044 -0.000000 -0.000000 -1.000000 0.200000 0.680953
0.240426 -0.916052 0.861044 0.349249 0.591272 -0.726927 0.200000 0.680953
0.109803 -0.838896 0.861044 0.349249 0.591272 -0.726927 0.200000 0.750000
0.122213 -0.838896 0.867006 0.349249 0.591272 -0.726927 0.100000 0.750000
0.240426 -0.916052 0.861044 0.324306 0.556021 -0.765289 0.200000 0.680953
0.122213 -0.838896 0.867006 0.324306 0.556021 -0.765289 0.100000 0.750000
0.240426 -0.907845 0.867006 0.324306 0.556021 -0.765289 0.100000 0.680953
0.240426 -0.907845 0.867006 0.489062 0.838494 -0.240303 0.100000 0.680953
0.122213 -0.838896 0.867006 0.489062 0.838494 -0.240303 0.100000 0.750000
0.126953 -0.838896 0.876653 0.489062 0.838494 -0.240303 -0.000000 0.750000
0.240426 -0.907845 0.867006 0.483005 0.832762 -0.270580 0.100000 0.680953
0.126953 -0.838896 0.876653 0.483005 0.832762 -0.270580 -0.000000 0.750000
0.240426 -0.904711 0.876653 0.483005 0.832762 -0.270580 -0.000000 0.680953
0.240426 -0.907845 0.886300 0.347696 0.596123 0.723702 0.900000 0.680953
0.122213 -0.838896 0.886300 0.347696 0.596123 0.723702 0.900000 0.750000
0.109803 -0.838896 0.892262 0.347696 0.596123 0.723702 0.800000 0.750000
0.240426 -0.907845 0.886300 0.327984 0.555271 0.764265 0.900000 0.680953
0.109803 -0.838896 0.892262 0.327984 0.555271 0.764265 0.800000 0.750000
0.240426 -0.916052 0.892262 0.327984 0.555271 0.764265 0.800000 0.680953
1.000000 -0.805590 0.894923 -0.000000 1.000000 0.000000 0.625000 0.500000
1.000000 -0.805590 0.044923 -0.000000 1.000000 0.000000 0.875000 0.500000
-0.043061 -0.805590 0.044923 -0.000000 1.000000 0.000000 0.875000 0.625000
-0.043061 -0.805590 0.894924 -0.000000 1.000000 0.000000 0.625000 0.625000
1.000000 -0.845080 0.044923 0.000000 -1.000000 0.000000 0.125000 0.500000
1.000000 -0.845080 0.894923 0.000000 -1.000000 0.000000 0.375000 0.500000
-0.043061 -0.845080 0.894924 0.000000 -1.000000 0.000000 0.375000 0.625000
-0.043061 -0.845080 0.044923 0.000000 -1.000000 0.000000 0.125000 0.625000
1.000000 -0.845080 0.894923 0.000000 0.000000 1.000000 0.375000 0.500000
1.000000 -0.805590 0.894923 0.000000 0.000000 1.000000 0.625000 0.500000
1.000000 -0.907845 0.886300 -0.000000 0.587786 0.809017 0.900000 0.500000
0.240426 -0.907845 0.886300 -0.000000 0.587786 0.809017 0.900000 0.680953
0.240426 -0.916052 0.892262 -0.000000 0.587786 0.809017 0.800000 0.680953
1.000000 -0.907845 0.886300 0.000000 0.587782 0.809020 0.900000 0.500000
0.240426 -0.916052 0.892262 0.000000 0.587782 0.809020 0.800000 0.680953
1.000000 -0.916052 0.892262 0.000000 0.587782 0.809020 0.800000 0.500000
1.000000 -0.907845 0.867006 -0.000000 0.951057 -0.309016 0.100000 0.500000
0.240426 -0.907845 0.867006 -0.000000 0.951057 -0.309016 0.100000 0.680953
0.240426 -0.904711 0.876653 -0.000000 0.951057 -0.309016 -0.000000 0.680953
1.000000 -0.904711 0.876653 -0.000000 0.951057 -0.309016 -0.000000 0.500000
1.000000 -0.916052 0.861044 -0.000000 0.587789 -0.809014 0.200000 0.500000
0.240426 -0.916052 0.861044 -0.000000 0.587789 -0.809014 0.200000 0.680953
0.240426 -0.907845 0.867006 -0.000000 0.587789 -0.809014 0.100000 0.680953
1.000000 -0.916052 0.861044 -0.000000 0.587786 -0.809017 0.200000 0.500000
0.240426 -0.907845 0.867006 -0.000000 0.587786 -0.809017 0.100000 0.680953
1.000000 -0.907845 0.867006 -0.000000 0.587786 -0.809017 0.100000 0.500000
1.000000 -0.926195 0.861044 0.000000 0.000000 -1.000000 0.300000 0.500000
1.000000 -0.916052 0.861044 0.000000 -0.000000 -1.000000 0.200000 0.500000
1.000000 -0.934401 0.867006 -0.000000 -0.587789 -0.809014 0.400000 0.500000
0.240426 -0.934401 0.867006 -0.000000 -0.587789 -0.809014 0.400000 0.680953
0.240426 -0.926195 0.861044 -0.000000 -0.587789 -0.809014 0.300000 0.680953
1.000000 -0.934401 0.867006 -0.000000 -0.587786 -0.809017 0.400000 0.500000
0.240426 -0.926195 0.861044 -0.000000 -0.587786 -0.809017 0.300000 0.680953
1.000000 -0.926195 0.861044 -0.000000 -0.587786 -0.809017 0.300000 0.500000
1.000000 -0.937536 0.876653 -0.000000 -0.951057 -0.309016 0.500000 0.500000
0.240426 -0.937536 0.876653 -0.000000 -0.951057 -0.309016 0.500000 0.680953
0.240426 -0.934401 0.867006 -0.000000 -0.951057 -0.309016 0.400000 0.680953
1.000000 -0.934401 0.867006 -0.000000 -0.951057 -0.309016 0.400000 0.500000
1.000000 -0.934401 0.886300 0.000000 -0.951057 0.309016 0.600000 0.500000
0.240426 -0.934401 0.886300 0.000000 -0.951057 0.309016 0.600000 0.680953
0.240426 -0.937536 0.876653 0.000000 -0.951057 0.309016 0.500000 0.680953
1.000000 -0.934401 0.886300 0.000000 -0.951057 0.309014 0.600000 0.500000
0.240426 -0.937536 0.876653 0.000000 -0.951057 0.309014 0.500000 0.680953
1.000000 -0.937536 0.876653 0.000000 -0.951057 0.309014 0.500000 0.500000
1.000000 -0.926195 0.892262 0.000000 -0.587786 0.809017 0.700000 0.500000
0.240426 -0.926195 0.892262 0.000000 -0.587786 0.809017 0.700000 0.680953
0.240426 -0.934401 0.886300 0.000000 -0.587786 0.809017 0.600000 0.680953
1.000000 -0.926195 0.892262 0.000000 -0.587782 0.809020 0.700000 0.500000
0.240426 -0.934401 0.886300 0.000000 -0.587782 0.809020 0.600000 0.680953
1.000000 -0.934401 0.886300 0.000000 -0.587782 0.809020 0.600000 0.500000
1.000000 -0.916052 0.892262 0.000000 -0.000000 1.000000 0.800000 0.500000
1.000000 -0.926195 0.892262 0.000000 0.000000 1.000000 0.700000 0.500000
1.000000 -0.904711 0.876653 -0.000000 0.951057 0.309016 1.000000 0.500000
0.240426 -0.904711 0.876653 -0.000000 0.951057 0.309016 1.000000 0.680953
0.240426 -0.907845 0.886300 -0.000000 0.951057 0.309016 0.900000 0.680953
1.000000 -0.904711 0.876653 -0.000000 0.951057 0.309014 1.000000 0.500000
0.240426 -0.907845 0.886300 -0.000000 0.951057 0.309014 0.900000 0.680953
1.000000 -0.907845 0.886300 -0.000000 0.951057 0.309014 0.900000 0.500000
-0.069691 -0.805590 0.044923 -1.000000 0.000000 0.000000 0.625000 0.125000
-0.069691 -0.845080 0.044923 -1.000000 0.000000 0.000000 0.375000 0.125000
-0.069690 -0.845080 0.894924 -1.000000 0.000000 0.000000 0.375000 0.625000
-0.069690 -0.805590 0.894924 -1.000000 0.000000 0.000000 0.625000 0.625000
-0.069691 -0.805590 0.044923 0.000000 1.000000 0.000000 0.875000 0.625000
-0.069690 -0.805590 0.894924 -0.000000 1.000000 0.000000 0.625000 0.625000
-0.069691 -0.845080 0.044923 0.000000 0.000000 -1.000000 0.375000 0.125000
-0.069691 -0.805590 0.044923 0.000000 0.000000 -1.000000 0.625000 0.125000
-0.043061 -0.876614 0.044923 0.000000 0.000000 -1.000000 0.375000 0.125000
-0.069691 -0.876614 0.044923 0.000000 0.000000 -1.000000 0.375000 0.125000
-0.043061 -0.876614 0.044923 0.000000 -1.000000 -0.000000 0.125000 0.625000
-0.043061 -0.876614 0.894924 0.000000 -1.000000 -0.000000 0.375000 0.625000
-0.069690 -0.876614 0.894924 0.000000 -1.000000 -0.000000 0.375000 0.625000
-0.069691 -0.876614 0.044923 0.000000 -1.000000 0.000000 0.125000 0.625000
-0.069690 -0.876614 0.894924 0.000000 0.000000 1.000000 0.375000 0.625000
-0.043061 -0.876614 0.894924 0.000000 -0.000000 1.000000 0.375000 0.625000
-0.069691 -0.876614 0.044923 -1.000000 0.000000 0.000000 0.375000 0.125000
-0.069690 -0.876614 0.894924 -1.000000 0.000000 0.000000 0.375000 0.625000
-0.043061 -0.845080 0.044923 1.000000 0.000000 -0.000000 0.125000 0.625000
-0.043061 -0.845080 0.894924 1.000000 0.000000 -0.000000 0.375000 0.625000
-0.043061 -0.876614 0.894924 1.000000 0.000000 -0.000000 0.375000 0.625000
-0.043061 -0.876614 0.044923 1.000000 0.000000 -0.000000 0.125000 0.625000
3 0 1 2
3 0 2 3
3 4 5 6
3 4 6 7
3 8 9 10
3 8 10 11
3 12 13 14
3 12 14 15
3 16 17 18
3 16 18 19
3 20 21 22
3 20 22 23
3 24 25 26
3 24 26 27
3 28 29 30
3 28 30 31
3 32 33 34
3 32 34 35
3 36 37 38
3 36 38 39
3 40 41 42
3 42 43 44
3 44 45 46
3 46 47 48
3 48 49 40
3 40 42 44
3 44 46 48
3 44 48 40
3 50 51 52
3 50 52 53
3 54 55 56
3 54 56 57
3 58 59 60
3 58 60 61
3 62 63 64
3 62 64 65
3 66 67 68
3 66 68 69
3 70 71 72
3 70 72 73
3 74 75 76
3 74 76 77
3 78 79 80
3 78 80 81
3 82 83 84
3 82 84 85
3 86 87 88
3 86 88 89
3 90 91 92
3 92 93 94
3 94 95 96
3 96 97 98
3 98 99 90
3 90 92 94
3 94 96 98
3 94 98 90
3 100 101 102
3 100 102 103
3 104 105 106
3 104 106 107
3 108 109 110
3 111 112 113
3 114 115 116
3 117 118 119
3 120 121 122
3 123 124 125
3 126 127 128
3 126 128 129
3 130 131 132
3 133 134 135
3 136 137 138
3 139 140 141
3 142 143 144
3 142 144 145
3 146 147 148
3 149 150 151
3 152 153 154
3 155 156 157
3 158 159 160
3 158 160 161
3 162 163 164
3 165 166 167
3 168 169 170
3 171 172 173
3 174 175 176
3 174 176 177
3 178 179 180
3 181 182 183
3 184 185 186
3 187 188 189
3 190 191 192
3 190 192 193
3 194 195 196
3 197 198 199
3 200 201 202
3 203 204 205
3 206 207 208
3 209 210 211
3 212 213 214
3 215 216 217
3 218 219 220
3 218 220 221
3 222 223 224
3 225 226 227
3 228 229 230
3 231 232 233
3 234 235 236
3 237 238 239
3 240 241 242
3 240 242 243
3 244 245 246
3 244 246 247
3 248 249 5
3 248 5 4
3 250 251 252
3 253 254 255
3 256 257 258
3 256 258 259
3 260 261 262
3 263 264 265
3 266 218 221
3 266 221 267
3 268 269 270
3 271 272 273
3 274 275 276
3 274 276 277
3 278 279 280
3 281 282 283
3 284 285 286
3 287 288 289
3 290 190 193
3 290 193 291
3 292 293 294
3 295 296 297
3 298 299 300
3 298 300 301
3 243 242 302
3 243 302 303
3 1 0 304
3 1 304 305
3 304 0 306
3 304 306 307
3 308 309 310
3 308 310 311
3 4 7 312
3 4 312 313
3 300 299 314
3 300 314 315
3 316 317 318
3 316 318 319
