ply
format ascii 1.0
comment Created by Blender 2.80 (sub 75) - www.blender.org, source file: 'advance_models.blend'
element vertex 314
property float x
property float y
property float z
property float nx
property float ny
property float nz
property float s
property float t
element face 140
property list uchar uint vertex_indices
end_header
-0.044923 -0.845080 -1.000000 1.000000 0.000000 0.000000 0.375000 0.000000
-0.044923 -0.805590 -1.000000 1.000000 0.000000 0.000000 0.625000 0.000000
-0.044923 -0.805590 1.000000 1.000000 0.000000 0.000000 0.625000 0.250000
-0.044923 -0.845080 1.000000 1.000000 -0.000000 0.000000 0.375000 0.250000
-0.894924 -0.845080 1.000000 -1.000000 0.000000 0.000000 0.375000 0.500000
-0.894924 -0.805590 1.000000 -1.000000 0.000000 0.000000 0.625000 0.500000
-0.894924 -0.805590 -1.000000 -1.000000 0.000000 0.000000 0.625000 0.750000
-0.894924 -0.845080 -1.000000 -1.000000 0.000000 0.000000 0.375000 0.750000
-0.044923 -0.845080 1.000000 0.000000 -1.000000 0.000000 0.125000 0.500000
-0.894924 -0.845080 1.000000 0.000000 -1.000000 0.000000 0.375000 0.500000
-0.894924 -0.845080 -1.000000 0.000000 -1.000000 0.000000 0.375000 0.750000
-0.044923 -0.845080 -1.000000 0.000000 -1.000000 0.000000 0.125000 0.750000
-0.894924 -0.805590 1.000000 0.000000 1.000000 -0.000000 0.625000 0.500000
-0.044923 -0.805590 1.000000 0.000000 1.000000 -0.000000 0.875000 0.500000
-0.044923 -0.805590 -1.000000 0.000000 1.000000 -0.000000 0.875000 0.750000
-0.894924 -0.805590 -1.000000 0.000000 1.000000 -0.000000 0.625000 0.750000
-0.018601 -1.000000 0.029000 -0.309017 0.000000 0.951056 1.000000 0.500000
-0.018601 1.000000 0.029000 -0.309017 0.000000 0.951056 1.000000 1.000000
-0.035647 1.000000 0.023461 -0.309017 0.000000 0.951056 0.900000 1.000000
-0.035647 -1.000000 0.023461 -0.309017 0.000000 0.951056 0.900000 0.500000
-0.035647 -1.000000 0.023461 -0.809017 0.000000 0.587785 0.900000 0.500000
-0.035647 1.000000 0.023461 -0.809017 0.000000 0.587785 0.900000 1.000000
-0.046181 1.000000 0.008961 -0.809017 0.000000 0.587785 0.800000 1.000000
-0.046181 -1.000000 0.008961 -0.809017 0.000000 0.587785 0.800000 0.500000
-0.046181 -1.000000 0.008961 -1.000000 0.000000 0.000000 0.800000 0.500000
-0.046181 1.000000 0.008961 -1.000000 0.000000 0.000000 0.800000 1.000000
-0.046181 1.000000 -0.008961 -1.000000 0.000000 0.000000 0.700000 1.000000
-0.046181 -1.000000 -0.008961 -1.000000 0.000000 0.000000 0.700000 0.500000
-0.046181 -1.000000 -0.008961 -0.809017 -0.000000 -0.587785 0.700000 0.500000
-0.046181 1.000000 -0.008961 -0.809017 -0.000000 -0.587785 0.700000 1.000000
-0.035647 1.000000 -0.023461 -0.809017 -0.000000 -0.587785 0.600000 1.000000
-0.035647 -1.000000 -0.023461 -0.809017 0.000000 -0.587785 0.600000 0.500000
-0.035647 -1.000000 -0.023461 -0.309017 -0.000000 -0.951056 0.600000 0.500000
-0.035647 1.000000 -0.023461 -0.309017 -0.000000 -0.951056 0.600000 1.000000
-0.018601 1.000000 -0.029000 -0.309017 -0.000000 -0.951056 0.500000 1.000000
-0.018601 -1.000000 -0.029000 -0.309017 0.000000 -0.951056 0.500000 0.500000
-0.018601 -1.000000 -0.029000 0.309017 0.000000 -0.951057 0.500000 0.500000
-0.018601 1.000000 -0.029000 0.309017 0.000000 -0.951057 0.500000 1.000000
-0.001555 1.000000 -0.023461 0.309017 0.000000 -0.951057 0.400000 1.000000
-0.001555 -1.000000 -0.023461 0.309017 0.000000 -0.951057 0.400000 0.500000
-0.001555 -1.000000 -0.023461 0.809017 0.000000 -0.587785 0.400000 0.500000
-0.001555 1.000000 -0.023461 0.809017 0.000000 -0.587785 0.400000 1.000000
0.008980 1.000000 -0.008961 0.809017 0.000000 -0.587785 0.300000 1.000000
0.008980 -1.000000 -0.008961 0.809017 0.000000 -0.587785 0.300000 0.500000
0.008980 -1.000000 -0.008961 1.000000 0.000000 0.000000 0.300000 0.500000
0.008980 1.000000 -0.008961 1.000000 0.000000 0.000000 0.300000 1.000000
0.008980 1.000000 0.008961 1.000000 0.000000 0.000000 0.200000 1.000000
0.008980 -1.000000 0.008961 1.000000 -0.000000 0.000000 0.200000 0.500000
-0.046181 1.000000 0.008961 0.000000 1.000000 0.000000 0.478254 0.324164
-0.035647 1.000000 0.023461 0.000000 1.000000 0.000000 0.391068 0.444164
-0.018601 1.000000 0.029000 0.000000 1.000000 0.000000 0.250000 0.490000
-0.001555 1.000000 0.023462 0.000000 1.000000 0.000000 0.108932 0.444164
0.008980 1.000000 0.008961 0.000000 1.000000 0.000000 0.021746 0.324164
0.008980 1.000000 -0.008961 0.000000 1.000000 0.000000 0.021746 0.175836
-0.001555 1.000000 -0.023461 0.000000 1.000000 0.000000 0.108932 0.055836
-0.018601 1.000000 -0.029000 -0.000000 1.000000 0.000000 0.250000 0.010000
-0.035647 1.000000 -0.023461 -0.000000 1.000000 0.000000 0.391068 0.055836
-0.046181 1.000000 -0.008961 0.000000 1.000000 0.000000 0.478254 0.175836
0.008980 -1.000000 0.008961 0.809017 0.000000 0.587785 0.200000 0.500000
0.008980 1.000000 0.008961 0.809017 0.000000 0.587785 0.200000 1.000000
-0.001555 1.000000 0.023462 0.809017 0.000000 0.587785 0.100000 1.000000
-0.001555 -1.000000 0.023462 0.809017 -0.000000 0.587785 0.100000 0.500000
-0.001555 -1.000000 0.023462 0.309016 0.000000 0.951057 0.100000 0.500000
-0.001555 1.000000 0.023462 0.309016 0.000000 0.951057 0.100000 1.000000
-0.018601 1.000000 0.029000 0.309016 0.000000 0.951057 -0.000000 1.000000
-0.018601 -1.000000 0.029000 0.309016 -0.000000 0.951057 -0.000000 0.500000
-0.918502 -1.000000 0.029000 -0.309018 0.000000 0.951056 1.000000 0.500000
-0.918502 1.000000 0.029000 -0.309018 0.000000 0.951056 1.000000 1.000000
-0.935548 1.000000 0.023461 -0.309018 0.000000 0.951056 0.900000 1.000000
-0.935548 -1.000000 0.023461 -0.309018 0.000000 0.951056 0.900000 0.500000
-0.935548 -1.000000 0.023461 -0.809017 0.000000 0.587786 0.900000 0.500000
-0.935548 1.000000 0.023461 -0.809017 0.000000 0.587786 0.900000 1.000000
-0.946083 1.000000 0.008961 -0.809017 0.000000 0.587786 0.800000 1.000000
-0.946083 -1.000000 0.008961 -0.809017 0.000000 0.587786 0.800000 0.500000
-0.946083 -1.000000 0.008961 -1.000000 0.000000 0.000000 0.800000 0.500000
-0.946083 1.000000 0.008961 -1.000000 0.000000 0.000000 0.800000 1.000000
-0.946083 1.000000 -0.008961 -1.000000 0.000000 0.000000 0.700000 1.000000
-0.946083 -1.000000 -0.008961 -1.000000 0.000000 0.000000 0.700000 0.500000
-0.946083 -1.000000 -0.008961 -0.809017 -0.000000 -0.587786 0.700000 0.500000
-0.946083 1.000000 -0.008961 -0.809017 -0.000000 -0.587786 0.700000 1.000000
-0.935548 1.000000 -0.023461 -0.809017 -0.000000 -0.587786 0.600000 1.000000
-0.935548 -1.000000 -0.023461 -0.809017 0.000000 -0.587786 0.600000 0.500000
-0.935548 -1.000000 -0.023461 -0.309018 -0.000000 -0.951056 0.600000 0.500000
-0.935548 1.000000 -0.023461 -0.309018 -0.000000 -0.951056 0.600000 1.000000
-0.918502 1.000000 -0.029000 -0.309018 -0.000000 -0.951056 0.500000 1.000000
-0.918502 -1.000000 -0.029000 -0.309018 0.000000 -0.951056 0.500000 0.500000
-0.918502 -1.000000 -0.029000 0.309018 0.000000 -0.951056 0.500000 0.500000
-0.918502 1.000000 -0.029000 0.309018 0.000000 -0.951056 0.500000 1.000000
-0.901457 1.000000 -0.023461 0.309018 0.000000 -0.951056 0.400000 1.000000
-0.901457 -1.000000 -0.023461 0.309018 0.000000 -0.951056 0.400000 0.500000
-0.901457 -1.000000 -0.023461 0.809016 0.000000 -0.587786 0.400000 0.500000
-0.901457 1.000000 -0.023461 0.809016 0.000000 -0.587786 0.400000 1.000000
-0.890922 1.000000 -0.008961 0.809016 0.000000 -0.587786 0.300000 1.000000
-0.890922 -1.000000 -0.008961 0.809016 0.000000 -0.587786 0.300000 0.500000
-0.890922 -1.000000 -0.008961 1.000000 0.000000 0.000000 0.300000 0.500000
-0.890922 1.000000 -0.008961 1.000000 0.000000 0.000000 0.300000 1.000000
-0.890922 1.000000 0.008961 1.000000 0.000000 0.000000 0.200000 1.000000
-0.890922 -1.000000 0.008961 1.000000 -0.000000 0.000000 0.200000 0.500000
-0.946083 1.000000 0.008961 0.000000 1.000000 0.000000 0.478254 0.324164
-0.935548 1.000000 0.023461 0.000000 1.000000 0.000000 0.391068 0.444164
-0.918502 1.000000 0.029000 0.000000 1.000000 0.000000 0.250000 0.490000
-0.901457 1.000000 0.023462 0.000000 1.000000 0.000000 0.108932 0.444164
-0.890922 1.000000 0.008961 0.000000 1.000000 0.000000 0.021746 0.324164
-0.890922 1.000000 -0.008961 0.000000 1.000000 0.000000 0.021746 0.175836
-0.901457 1.000000 -0.023461 0.000000 1.000000 0.000000 0.108932 0.055836
-0.918502 1.000000 -0.029000 -0.000000 1.000000 0.000000 0.250000 0.010000
-0.935548 1.000000 -0.023461 -0.000000 1.000000 0.000000 0.391068 0.055836
-0.946083 1.000000 -0.008961 0.000000 1.000000 0.000000 0.478254 0.175836
-0.890922 -1.000000 0.008961 0.809017 0.000000 0.587786 0.200000 0.500000
-0.890922 1.000000 0.008961 0.809017 0.000000 0.587786 0.200000 1.000000
-0.901457 1.000000 0.023462 0.809017 0.000000 0.587786 0.100000 1.000000
-0.901457 -1.000000 0.023462 0.809017 -0.000000 0.587786 0.100000 0.500000
-0.901457 -1.000000 0.023462 0.309017 0.000000 0.951056 0.100000 0.500000
-0.901457 1.000000 0.023462 0.309017 0.000000 0.951056 0.100000 1.000000
-0.918502 1.000000 0.029000 0.309017 0.000000 0.951056 -0.000000 1.000000
-0.918502 -1.000000 0.029000 0.309017 -0.000000 0.951056 -0.000000 0.500000
-0.876653 -0.904711 1.000000 -0.309016 0.951057 -0.000000 1.000000 0.500000
-0.876653 -0.904711 -1.000000 -0.309016 0.951057 -0.000000 1.000000 1.000000
-0.886300 -0.907845 -1.000000 -0.309016 0.951057 -0.000000 0.900000 1.000000
-0.886300 -0.907845 1.000000 -0.309016 0.951057 -0.000000 0.900000 0.500000
-0.886300 -0.907845 1.000000 -0.809017 0.587786 -0.000000 0.900000 0.500000
-0.886300 -0.907845 -1.000000 -0.809017 0.587786 -0.000000 0.900000 1.000000
-0.892262 -0.916052 -1.000000 -0.809017 0.587786 -0.000000 0.800000 1.000000
-0.892262 -0.916052 1.000000 -0.809017 0.587786 -0.000000 0.800000 0.500000
-0.892262 -0.916052 1.000000 -1.000000 0.000000 0.000000 0.800000 0.500000
-0.892262 -0.916052 -1.000000 -1.000000 0.000000 0.000000 0.800000 1.000000
-0.892262 -0.926195 -1.000000 -1.000000 0.000000 0.000000 0.700000 1.000000
-0.892262 -0.926195 1.000000 -1.000000 0.000000 -0.000000 0.700000 0.500000
-0.892262 -0.926195 1.000000 -0.809017 -0.587786 0.000000 0.700000 0.500000
-0.892262 -0.926195 -1.000000 -0.809017 -0.587786 0.000000 0.700000 1.000000
-0.886300 -0.934401 -1.000000 -0.809017 -0.587786 0.000000 0.600000 1.000000
-0.886300 -0.934401 1.000000 -0.809017 -0.587786 0.000000 0.600000 0.500000
-0.886300 -0.934401 1.000000 -0.309016 -0.951057 0.000000 0.600000 0.500000
-0.886300 -0.934401 -1.000000 -0.309016 -0.951057 0.000000 0.600000 1.000000
-0.876653 -0.937536 -1.000000 -0.309016 -0.951057 0.000000 0.500000 1.000000
-0.876653 -0.937536 1.000000 -0.309016 -0.951057 0.000000 0.500000 0.500000
-0.876653 -0.937536 1.000000 0.309016 -0.951057 0.000000 0.500000 0.500000
-0.876653 -0.937536 -1.000000 0.309016 -0.951057 0.000000 0.500000 1.000000
-0.867006 -0.934401 -1.000000 0.309016 -0.951057 0.000000 0.400000 1.000000
-0.867006 -0.934401 1.000000 0.309016 -0.951057 0.000000 0.400000 0.500000
-0.867006 -0.934401 1.000000 0.809014 -0.587789 0.000000 0.400000 0.500000
-0.867006 -0.934401 -1.000000 0.809014 -0.587789 0.000000 0.400000 1.000000
-0.861044 -0.926195 -1.000000 0.809014 -0.587789 0.000000 0.300000 1.000000
-0.861044 -0.926195 1.000000 0.809014 -0.587789 0.000000 0.300000 0.500000
-0.861044 -0.926195 1.000000 1.000000 0.000000 -0.000000 0.300000 0.500000
-0.861044 -0.926195 -1.000000 1.000000 0.000000 -0.000000 0.300000 1.000000
-0.861044 -0.916052 -1.000000 1.000000 0.000000 -0.000000 0.200000 1.000000
-0.861044 -0.916052 1.000000 1.000000 0.000000 0.000000 0.200000 0.500000
-0.861044 -0.916052 1.000000 0.809014 0.587789 -0.000000 0.200000 0.500000
-0.861044 -0.916052 -1.000000 0.809014 0.587789 -0.000000 0.200000 1.000000
-0.867006 -0.907845 -1.000000 0.809014 0.587789 -0.000000 0.100000 1.000000
-0.867006 -0.907845 1.000000 0.809014 0.587789 -0.000000 0.100000 0.500000
-0.867006 -0.907845 1.000000 0.309016 0.951057 -0.000000 0.100000 0.500000
-0.867006 -0.907845 -1.000000 0.309016 0.951057 -0.000000 0.100000 1.000000
-0.876653 -0.904711 -1.000000 0.309016 0.951057 -0.000000 -0.000000 1.000000
-0.876653 -0.904711 1.000000 0.309016 0.951057 -0.000000 -0.000000 0.500000
-0.980671 1.005634 0.003106 -0.000011 0.707115 -0.707098 0.478254 0.324164
-0.973406 1.012705 0.010177 -0.000011 0.707115 -0.707098 0.391068 0.444164
-0.961650 1.015406 0.012878 -0.000011 0.707115 -0.707098 0.250000 0.490000
-0.961650 1.015406 0.012878 0.000011 0.707116 -0.707098 0.250000 0.490000
-0.949894 1.012705 0.010177 0.000011 0.707116 -0.707098 0.108932 0.444164
-0.942629 1.005634 0.003106 0.000011 0.707116 -0.707098 0.021746 0.324164
-0.942629 1.005634 0.003106 -0.000012 0.707107 -0.707107 0.021746 0.324164
-0.942629 0.996894 -0.005634 -0.000012 0.707107 -0.707107 0.021746 0.175836
-0.949894 0.989823 -0.012705 -0.000012 0.707107 -0.707107 0.108932 0.055836
-0.949894 0.989823 -0.012705 0.000000 0.707107 -0.707107 0.108932 0.055836
-0.961650 0.987122 -0.015406 0.000000 0.707107 -0.707107 0.250000 0.010000
-0.973406 0.989823 -0.012705 0.000000 0.707107 -0.707107 0.391068 0.055836
-0.973406 0.989823 -0.012705 0.000012 0.707107 -0.707107 0.391068 0.055836
-0.980671 0.996894 -0.005634 0.000012 0.707107 -0.707107 0.478254 0.175836
-0.980671 1.005634 0.003106 0.000012 0.707107 -0.707107 0.478254 0.324164
-0.980671 1.005634 0.003106 0.000000 0.707105 -0.707109 0.478254 0.324164
-0.961650 1.015406 0.012878 0.000000 0.707105 -0.707109 0.250000 0.490000
-0.942629 1.005634 0.003106 0.000000 0.707105 -0.707109 0.021746 0.324164
-0.942629 1.005634 0.003106 0.000000 0.707104 -0.707109 0.021746 0.324164
-0.949894 0.989823 -0.012705 0.000000 0.707104 -0.707109 0.108932 0.055836
-0.973406 0.989823 -0.012705 0.000000 0.707104 -0.707109 0.391068 0.055836
-0.942629 1.005634 0.003106 0.000000 0.707104 -0.707110 0.021746 0.324164
-0.973406 0.989823 -0.012705 0.000000 0.707104 -0.707110 0.391068 0.055836
-0.980671 1.005634 0.003106 0.000000 0.707104 -0.707110 0.478254 0.324164
-0.973406 0.022883 1.000000 -0.309016 0.672499 0.672499 0.900000 0.752857
-0.961650 0.028284 1.000000 -0.309016 0.672499 0.672499 1.000000 0.753531
-0.961650 1.015406 0.012878 -0.309016 0.672499 0.672499 1.000000 1.000000
-0.973406 0.022883 1.000000 -0.309025 0.672497 0.672497 0.900000 0.752857
-0.961650 1.015406 0.012878 -0.309025 0.672497 0.672497 1.000000 1.000000
-0.973406 1.012705 0.010177 -0.309025 0.672497 0.672497 0.900000 1.000000
-0.980671 0.008740 1.000000 -0.809019 0.415625 0.415625 0.800000 0.751091
-0.973406 0.022883 1.000000 -0.809019 0.415625 0.415625 0.900000 0.752857
-0.973406 1.012705 0.010177 -0.809019 0.415625 0.415625 0.900000 1.000000
-0.980671 0.008740 1.000000 -0.809018 0.415626 0.415626 0.800000 0.751091
-0.973406 1.012705 0.010177 -0.809018 0.415626 0.415626 0.900000 1.000000
-0.980671 1.005634 0.003106 -0.809018 0.415626 0.415626 0.800000 1.000000
-0.980671 -0.008740 1.000000 -1.000000 0.000000 0.000000 0.700000 0.748909
-0.980671 0.008740 1.000000 -1.000000 0.000000 0.000000 0.800000 0.751091
-0.980671 1.005634 0.003106 -1.000000 0.000000 0.000000 0.800000 1.000000
-0.980671 0.996894 -0.005634 -1.000000 0.000000 0.000000 0.700000 1.000000
-0.961650 -0.028284 1.000000 -0.309016 -0.672499 -0.672499 0.500000 0.746469
-0.973406 -0.022882 1.000000 -0.309016 -0.672499 -0.672499 0.600000 0.747143
-0.973406 0.989823 -0.012705 -0.309016 -0.672499 -0.672499 0.600000 1.000000
-0.961650 -0.028284 1.000000 -0.309019 -0.672498 -0.672498 0.500000 0.746469
-0.973406 0.989823 -0.012705 -0.309019 -0.672498 -0.672498 0.600000 1.000000
-0.961650 0.987122 -0.015406 -0.309019 -0.672498 -0.672498 0.500000 1.000000
-0.973406 -0.022882 1.000000 -0.809018 -0.415626 -0.415626 0.600000 0.747143
-0.980671 -0.008740 1.000000 -0.809018 -0.415626 -0.415626 0.700000 0.748909
-0.980671 0.996894 -0.005634 -0.809018 -0.415626 -0.415626 0.700000 1.000000
-0.973406 -0.022882 1.000000 -0.809019 -0.415625 -0.415625 0.600000 0.747143
-0.980671 0.996894 -0.005634 -0.809019 -0.415625 -0.415625 0.700000 1.000000
-0.973406 0.989823 -0.012705 -0.809019 -0.415625 -0.415625 0.600000 1.000000
-0.949894 0.022883 1.000000 0.809017 0.415627 0.415627 0.100000 0.752857
-0.942629 0.008740 1.000000 0.809017 0.415627 0.415627 0.200000 0.751091
-0.942629 1.005634 0.003106 0.809017 0.415627 0.415627 0.200000 1.000000
-0.949894 0.022883 1.000000 0.809015 0.415629 0.415629 0.100000 0.752857
-0.942629 1.005634 0.003106 0.809015 0.415629 0.415629 0.200000 1.000000
-0.949894 1.012705 0.010177 0.809015 0.415629 0.415629 0.100000 1.000000
-0.949894 -0.022882 1.000000 0.309016 -0.672499 -0.672499 0.400000 0.747143
-0.961650 -0.028284 1.000000 0.309016 -0.672499 -0.672499 0.500000 0.746469
-0.961650 0.987122 -0.015406 0.309016 -0.672499 -0.672499 0.500000 1.000000
-0.949894 -0.022882 1.000000 0.309019 -0.672498 -0.672498 0.400000 0.747143
-0.961650 0.987122 -0.015406 0.309019 -0.672498 -0.672498 0.500000 1.000000
-0.949894 0.989823 -0.012705 0.309019 -0.672498 -0.672498 0.400000 1.000000
-0.961650 0.028284 1.000000 0.309016 0.672499 0.672499 -0.000000 0.753531
-0.949894 0.022883 1.000000 0.309016 0.672499 0.672499 0.100000 0.752857
-0.949894 1.012705 0.010177 0.309016 0.672499 0.672499 0.100000 1.000000
-0.961650 0.028284 1.000000 0.309025 0.672497 0.672497 -0.000000 0.753531
-0.949894 1.012705 0.010177 0.309025 0.672497 0.672497 0.100000 1.000000
-0.961650 1.015406 0.012878 0.309025 0.672497 0.672497 -0.000000 1.000000
-0.942629 0.008740 1.000000 1.000000 -0.000000 -0.000000 0.200000 0.751091
-0.942629 -0.008740 1.000000 1.000000 -0.000000 -0.000000 0.300000 0.748909
-0.942629 0.996894 -0.005634 1.000000 -0.000000 -0.000000 0.300000 1.000000
-0.942629 1.005634 0.003106 1.000000 0.000000 0.000000 0.200000 1.000000
-0.942629 -0.008740 1.000000 0.809015 -0.415629 -0.415629 0.300000 0.748909
-0.949894 -0.022882 1.000000 0.809015 -0.415629 -0.415629 0.400000 0.747143
-0.949894 0.989823 -0.012705 0.809015 -0.415629 -0.415629 0.400000 1.000000
-0.942629 -0.008740 1.000000 0.809016 -0.415627 -0.415627 0.300000 0.748909
-0.949894 0.989823 -0.012705 0.809016 -0.415627 -0.415627 0.400000 1.000000
-0.942629 0.996894 -0.005634 0.809016 -0.415627 -0.415627 0.300000 1.000000
-0.961650 -0.987122 0.015406 -0.309016 0.672499 0.672499 1.000000 0.500000
-0.961650 0.028284 -1.000000 -0.309016 0.672499 0.672499 1.000000 0.753531
-0.973406 0.022883 -1.000000 -0.309016 0.672499 0.672499 0.900000 0.752857
-0.961650 -0.987122 0.015406 -0.309027 0.672496 0.672496 1.000000 0.500000
-0.973406 0.022883 -1.000000 -0.309027 0.672496 0.672496 0.900000 0.752857
-0.973406 -0.989823 0.012705 -0.309027 0.672496 0.672496 0.900000 0.500000
-0.973406 -0.989823 0.012705 -0.809020 0.415624 0.415624 0.900000 0.500000
-0.973406 0.022883 -1.000000 -0.809020 0.415624 0.415624 0.900000 0.752857
-0.980671 0.008740 -1.000000 -0.809020 0.415624 0.415624 0.800000 0.751091
-0.973406 -0.989823 0.012705 -0.809013 0.415631 0.415631 0.900000 0.500000
-0.980671 0.008740 -1.000000 -0.809013 0.415631 0.415631 0.800000 0.751091
-0.980671 -0.996894 0.005634 -0.809013 0.415631 0.415631 0.800000 0.500000
-0.980671 -0.996894 0.005634 -1.000000 0.000000 0.000000 0.800000 0.500000
-0.980671 0.008740 -1.000000 -1.000000 0.000000 0.000000 0.800000 0.751091
-0.980671 -0.008740 -1.000000 -1.000000 0.000000 0.000000 0.700000 0.748909
-0.980671 -1.005634 -0.003106 -1.000000 0.000000 0.000000 0.700000 0.500000
-0.980671 -1.005634 -0.003106 -0.809019 -0.415625 -0.415625 0.700000 0.500000
-0.980671 -0.008740 -1.000000 -0.809019 -0.415625 -0.415625 0.700000 0.748909
-0.973406 -0.022882 -1.000000 -0.809019 -0.415625 -0.415625 0.600000 0.747143
-0.980671 -1.005634 -0.003106 -0.809017 -0.415627 -0.415627 0.700000 0.500000
-0.973406 -0.022882 -1.000000 -0.809017 -0.415627 -0.415627 0.600000 0.747143
-0.973406 -1.012705 -0.010177 -0.809017 -0.415627 -0.415627 0.600000 0.500000
-0.973406 -1.012705 -0.010177 -0.309016 -0.672499 -0.672499 0.600000 0.500000
-0.973406 -0.022882 -1.000000 -0.309016 -0.672499 -0.672499 0.600000 0.747143
-0.961650 -0.028284 -1.000000 -0.309016 -0.672499 -0.672499 0.500000 0.746469
-0.973406 -1.012705 -0.010177 -0.309019 -0.672498 -0.672498 0.600000 0.500000
-0.961650 -0.028284 -1.000000 -0.309019 -0.672498 -0.672498 0.500000 0.746469
-0.961650 -1.015406 -0.012878 -0.309019 -0.672498 -0.672498 0.500000 0.500000
-0.961650 -1.015406 -0.012878 0.309016 -0.672499 -0.672499 0.500000 0.500000
-0.961650 -0.028284 -1.000000 0.309016 -0.672499 -0.672499 0.500000 0.746469
-0.949894 -0.022882 -1.000000 0.309016 -0.672499 -0.672499 0.400000 0.747143
-0.961650 -1.015406 -0.012878 0.309020 -0.672498 -0.672498 0.500000 0.500000
-0.949894 -0.022882 -1.000000 0.309020 -0.672498 -0.672498 0.400000 0.747143
-0.949894 -1.012705 -0.010177 0.309020 -0.672498 -0.672498 0.400000 0.500000
-0.949894 -1.012705 -0.010177 0.809016 -0.415627 -0.415627 0.400000 0.500000
-0.949894 -0.022882 -1.000000 0.809016 -0.415627 -0.415627 0.400000 0.747143
-0.942629 -0.008740 -1.000000 0.809016 -0.415627 -0.415627 0.300000 0.748909
-0.949894 -1.012705 -0.010177 0.809018 -0.415626 -0.415626 0.400000 0.500000
-0.942629 -0.008740 -1.000000 0.809018 -0.415626 -0.415626 0.300000 0.748909
-0.942629 -1.005634 -0.003106 0.809018 -0.415626 -0.415626 0.300000 0.500000
-0.942629 -1.005634 -0.003106 1.000000 0.000000 0.000000 0.300000 0.500000
-0.942629 -0.008740 -1.000000 1.000000 0.000000 0.000000 0.300000 0.748909
-0.942629 0.008740 -1.000000 1.000000 0.000000 0.000000 0.200000 0.751091
-0.942629 -0.996894 0.005634 1.000000 0.000000 0.000000 0.200000 0.500000
-0.942629 -0.996894 0.005634 0.809018 0.415626 0.415626 0.200000 0.500000
-0.942629 0.008740 -1.000000 0.809018 0.415626 0.415626 0.200000 0.751091
-0.949894 0.022883 -1.000000 0.809018 0.415626 0.415626 0.100000 0.752857
-0.942629 -0.996894 0.005634 0.809014 0.415630 0.415630 0.200000 0.500000
-0.949894 0.022883 -1.000000 0.809014 0.415630 0.415630 0.100000 0.752857
-0.949894 -0.989823 0.012705 0.809014 0.415630 0.415630 0.100000 0.500000
-0.949894 -0.989823 0.012705 0.309016 0.672499 0.672499 0.100000 0.500000
-0.949894 0.022883 -1.000000 0.309016 0.672499 0.672499 0.100000 0.752857
-0.961650 0.028284 -1.000000 0.309016 0.672499 0.672499 -0.000000 0.753531
-0.949894 -0.989823 0.012705 0.309018 0.672498 0.672498 0.100000 0.500000
-0.961650 0.028284 -1.000000 0.309018 0.672498 0.672498 -0.000000 0.753531
-0.961650 -0.987122 0.015406 0.309018 0.672498 0.672498 -0.000000 0.500000
-0.949894 -0.989823 0.012705 0.000000 -0.707099 0.707115 0.608932 0.444164
-0.961650 -0.987122 0.015406 0.000000 -0.707099 0.707115 0.750000 0.490000
-0.973406 -0.989823 0.012705 0.000000 -0.707099 0.707115 0.891068 0.444164
-0.973406 -0.989823 0.012705 -0.000011 -0.707104 0.707109 0.891068 0.444164
-0.980671 -0.996894 0.005634 -0.000011 -0.707104 0.707109 0.978254 0.324164
-0.980671 -1.005634 -0.003106 -0.000011 -0.707104 0.707109 0.978254 0.175836
-0.980671 -1.005634 -0.003106 -0.000002 -0.707111 0.707103 0.978254 0.175836
-0.973406 -1.012705 -0.010177 -0.000002 -0.707111 0.707103 0.891068 0.055836
-0.961650 -1.015406 -0.012878 -0.000002 -0.707111 0.707103 0.750000 0.010000
-0.961650 -1.015406 -0.012878 0.000002 -0.707111 0.707103 0.750000 0.010000
-0.949894 -1.012705 -0.010177 0.000002 -0.707111 0.707103 0.608932 0.055836
-0.942629 -1.005634 -0.003106 0.000002 -0.707111 0.707103 0.521746 0.175836
-0.942629 -1.005634 -0.003106 0.000011 -0.707104 0.707109 0.521746 0.175836
-0.942629 -0.996894 0.005634 0.000011 -0.707104 0.707109 0.521746 0.324164
-0.949894 -0.989823 0.012705 0.000011 -0.707104 0.707109 0.608932 0.444164
-0.949894 -0.989823 0.012705 0.000000 -0.707107 0.707107 0.608932 0.444164
-0.973406 -0.989823 0.012705 0.000000 -0.707107 0.707107 0.891068 0.444164
-0.980671 -1.005634 -0.003106 0.000000 -0.707107 0.707107 0.978254 0.175836
-0.980671 -1.005634 -0.003106 0.000000 -0.707109 0.707105 0.978254 0.175836
-0.961650 -1.015406 -0.012878 0.000000 -0.707109 0.707105 0.750000 0.010000
-0.942629 -1.005634 -0.003106 0.000000 -0.707109 0.707105 0.521746 0.175836
-0.942629 -1.005634 -0.003106 0.000000 -0.707107 0.707107 0.521746 0.175836
3 0 1 2
3 0 2 3
3 4 5 6
3 4 6 7
3 8 9 10
3 8 10 11
3 12 13 14
3 12 14 15
3 16 17 18
3 16 18 19
3 20 21 22
3 20 22 23
3 24 25 26
3 24 26 27
3 28 29 30
3 28 30 31
3 32 33 34
3 32 34 35
3 36 37 38
3 36 38 39
3 40 41 42
3 40 42 43
3 44 45 46
3 44 46 47
3 48 49 50
3 50 51 52
3 52 53 54
3 54 55 56
3 56 57 48
3 48 50 52
3 52 54 56
3 52 56 48
3 58 59 60
3 58 60 61
3 62 63 64
3 62 64 65
3 66 67 68
3 66 68 69
3 70 71 72
3 70 72 73
3 74 75 76
3 74 76 77
3 78 79 80
3 78 80 81
3 82 83 84
3 82 84 85
3 86 87 88
3 86 88 89
3 90 91 92
3 90 92 93
3 94 95 96
3 94 96 97
3 98 99 100
3 100 101 102
3 102 103 104
3 104 105 106
3 106 107 98
3 98 100 102
3 102 104 106
3 102 106 98
3 108 109 110
3 108 110 111
3 112 113 114
3 112 114 115
3 116 117 118
3 116 118 119
3 120 121 122
3 120 122 123
3 124 125 126
3 124 126 127
3 128 129 130
3 128 130 131
3 132 133 134
3 132 134 135
3 136 137 138
3 136 138 139
3 140 141 142
3 140 142 143
3 144 145 146
3 144 146 147
3 148 149 150
3 148 150 151
3 152 153 154
3 152 154 155
3 156 157 158
3 159 160 161
3 162 163 164
3 165 166 167
3 168 169 170
3 171 172 173
3 174 175 176
3 177 178 179
3 180 181 182
3 183 184 185
3 186 187 188
3 189 190 191
3 192 193 194
3 192 194 195
3 196 197 198
3 199 200 201
3 202 203 204
3 205 206 207
3 208 209 210
3 211 212 213
3 214 215 216
3 217 218 219
3 220 221 222
3 223 224 225
3 226 227 228
3 226 228 229
3 230 231 232
3 233 234 235
3 236 237 238
3 239 240 241
3 242 243 244
3 245 246 247
3 248 249 250
3 248 250 251
3 252 253 254
3 255 256 257
3 258 259 260
3 261 262 263
3 264 265 266
3 267 268 269
3 270 271 272
3 273 274 275
3 276 277 278
3 276 278 279
3 280 281 282
3 283 284 285
3 286 287 288
3 289 290 291
3 292 293 294
3 295 296 297
3 298 299 300
3 301 302 303
3 304 305 306
3 307 308 309
3 310 311 312
3 309 313 307
