ply
format ascii 1.0
comment Created by Blender 2.80 (sub 75) - www.blender.org, source file: 'advance_models.blend'
element vertex 320
property float x
property float y
property float z
property float nx
property float ny
property float nz
property float s
property float t
element face 140
property list uchar uint vertex_indices
end_header
-1.000000 -0.845080 0.044924 -0.000000 -0.000000 -1.000000 0.375000 0.000000
-1.000000 -0.805590 0.044924 -0.000000 -0.000000 -1.000000 0.625000 0.000000
1.000000 -0.805590 0.044923 -0.000000 -0.000000 -1.000000 0.625000 0.250000
1.000000 -0.845080 0.044923 -0.000000 0.000000 -1.000000 0.375000 0.250000
1.000000 -0.845080 0.894923 0.000000 0.000000 1.000000 0.375000 0.500000
1.000000 -0.805590 0.894923 0.000000 0.000000 1.000000 0.625000 0.500000
-1.000000 -0.805590 0.894924 0.000000 0.000000 1.000000 0.625000 0.750000
-1.000000 -0.845080 0.894924 0.000000 -0.000000 1.000000 0.375000 0.750000
1.000000 -0.845080 0.044923 0.000000 -1.000000 0.000000 0.125000 0.500000
1.000000 -0.845080 0.894923 0.000000 -1.000000 0.000000 0.375000 0.500000
-1.000000 -0.845080 0.894924 0.000000 -1.000000 0.000000 0.375000 0.750000
-1.000000 -0.845080 0.044924 0.000000 -1.000000 0.000000 0.125000 0.750000
1.000000 -0.805590 0.894923 -0.000000 1.000000 0.000000 0.625000 0.500000
1.000000 -0.805590 0.044923 -0.000000 1.000000 0.000000 0.875000 0.500000
-1.000000 -0.805590 0.044924 -0.000000 1.000000 0.000000 0.875000 0.750000
-1.000000 -0.805590 0.894924 -0.000000 1.000000 0.000000 0.625000 0.750000
0.020000 -1.000000 0.018601 0.951057 0.000000 0.309017 1.000000 0.500000
0.020000 1.000000 0.018601 0.951057 0.000000 0.309017 1.000000 1.000000
0.016180 1.000000 0.030357 0.951057 0.000000 0.309017 0.900000 1.000000
0.016180 -1.000000 0.030357 0.951057 -0.000000 0.309017 0.900000 0.500000
0.016180 -1.000000 0.030357 0.587785 0.000000 0.809017 0.900000 0.500000
0.016180 1.000000 0.030357 0.587785 0.000000 0.809017 0.900000 1.000000
0.006180 1.000000 0.037622 0.587785 0.000000 0.809017 0.800000 1.000000
0.006180 -1.000000 0.037622 0.587785 -0.000000 0.809017 0.800000 0.500000
0.006180 -1.000000 0.037622 -0.000000 0.000000 1.000000 0.800000 0.500000
0.006180 1.000000 0.037622 -0.000000 0.000000 1.000000 0.800000 1.000000
-0.006180 1.000000 0.037622 -0.000000 0.000000 1.000000 0.700000 1.000000
-0.006180 -1.000000 0.037622 -0.000000 0.000000 1.000000 0.700000 0.500000
-0.006180 -1.000000 0.037622 -0.587785 0.000000 0.809017 0.700000 0.500000
-0.006180 1.000000 0.037622 -0.587785 0.000000 0.809017 0.700000 1.000000
-0.016180 1.000000 0.030357 -0.587785 0.000000 0.809017 0.600000 1.000000
-0.016180 -1.000000 0.030357 -0.587785 0.000000 0.809017 0.600000 0.500000
-0.016180 -1.000000 0.030357 -0.951056 0.000000 0.309017 0.600000 0.500000
-0.016180 1.000000 0.030357 -0.951056 0.000000 0.309017 0.600000 1.000000
-0.020000 1.000000 0.018601 -0.951056 0.000000 0.309017 0.500000 1.000000
-0.020000 -1.000000 0.018601 -0.951056 0.000000 0.309017 0.500000 0.500000
-0.020000 -1.000000 0.018601 -0.951056 -0.000000 -0.309017 0.500000 0.500000
-0.020000 1.000000 0.018601 -0.951056 -0.000000 -0.309017 0.500000 1.000000
-0.016180 1.000000 0.006845 -0.951056 -0.000000 -0.309017 0.400000 1.000000
-0.016180 -1.000000 0.006845 -0.951056 0.000000 -0.309017 0.400000 0.500000
-0.016180 -1.000000 0.006845 -0.587785 -0.000000 -0.809017 0.400000 0.500000
-0.016180 1.000000 0.006845 -0.587785 -0.000000 -0.809017 0.400000 1.000000
-0.006180 1.000000 -0.000420 -0.587785 -0.000000 -0.809017 0.300000 1.000000
-0.006180 -1.000000 -0.000420 -0.587785 0.000000 -0.809017 0.300000 0.500000
-0.006180 -1.000000 -0.000420 -0.000000 -0.000000 -1.000000 0.300000 0.500000
-0.006180 1.000000 -0.000420 -0.000000 -0.000000 -1.000000 0.300000 1.000000
0.006180 1.000000 -0.000420 -0.000000 -0.000000 -1.000000 0.200000 1.000000
0.006180 -1.000000 -0.000420 -0.000000 0.000000 -1.000000 0.200000 0.500000
0.006180 1.000000 0.037622 0.000000 1.000000 0.000000 0.478254 0.324164
0.016180 1.000000 0.030357 0.000000 1.000000 0.000000 0.391068 0.444164
0.020000 1.000000 0.018601 0.000000 1.000000 0.000000 0.250000 0.490000
0.016180 1.000000 0.006845 0.000000 1.000000 0.000000 0.108932 0.444164
0.006180 1.000000 -0.000420 0.000000 1.000000 0.000000 0.021746 0.324164
-0.006180 1.000000 -0.000420 -0.000000 1.000000 0.000000 0.021746 0.175836
-0.016180 1.000000 0.006845 -0.000000 1.000000 0.000000 0.108932 0.055836
-0.020000 1.000000 0.018601 0.000000 1.000000 0.000000 0.250000 0.010000
-0.016180 1.000000 0.030357 0.000000 1.000000 0.000000 0.391068 0.055836
-0.006180 1.000000 0.037622 0.000000 1.000000 0.000000 0.478254 0.175836
0.006180 -1.000000 -0.000420 0.587785 0.000000 -0.809017 0.200000 0.500000
0.006180 1.000000 -0.000420 0.587785 0.000000 -0.809017 0.200000 1.000000
0.016180 1.000000 0.006845 0.587785 0.000000 -0.809017 0.100000 1.000000
0.016180 -1.000000 0.006845 0.587785 0.000000 -0.809017 0.100000 0.500000
0.016180 -1.000000 0.006845 0.951057 0.000000 -0.309017 0.100000 0.500000
0.016180 1.000000 0.006845 0.951057 0.000000 -0.309017 0.100000 1.000000
0.020000 1.000000 0.018601 0.951057 0.000000 -0.309017 -0.000000 1.000000
0.020000 -1.000000 0.018601 0.951057 0.000000 -0.309017 -0.000000 0.500000
0.020000 -1.000000 0.918502 0.951057 0.000000 0.309017 1.000000 0.500000
0.020000 1.000000 0.918502 0.951057 0.000000 0.309017 1.000000 1.000000
0.016180 1.000000 0.930258 0.951057 0.000000 0.309017 0.900000 1.000000
0.016180 -1.000000 0.930258 0.951057 -0.000000 0.309017 0.900000 0.500000
0.016180 -1.000000 0.930258 0.587786 0.000000 0.809016 0.900000 0.500000
0.016180 1.000000 0.930258 0.587786 0.000000 0.809016 0.900000 1.000000
0.006180 1.000000 0.937523 0.587786 0.000000 0.809016 0.800000 1.000000
0.006180 -1.000000 0.937523 0.587786 -0.000000 0.809016 0.800000 0.500000
0.006180 -1.000000 0.937523 -0.000000 0.000000 1.000000 0.800000 0.500000
0.006180 1.000000 0.937523 -0.000000 0.000000 1.000000 0.800000 1.000000
-0.006180 1.000000 0.937523 -0.000000 0.000000 1.000000 0.700000 1.000000
-0.006180 -1.000000 0.937523 -0.000000 0.000000 1.000000 0.700000 0.500000
-0.006180 -1.000000 0.937523 -0.587786 0.000000 0.809016 0.700000 0.500000
-0.006180 1.000000 0.937523 -0.587786 0.000000 0.809016 0.700000 1.000000
-0.016180 1.000000 0.930258 -0.587786 0.000000 0.809016 0.600000 1.000000
-0.016180 -1.000000 0.930258 -0.587786 0.000000 0.809016 0.600000 0.500000
-0.016180 -1.000000 0.930258 -0.951057 0.000000 0.309017 0.600000 0.500000
-0.016180 1.000000 0.930258 -0.951057 0.000000 0.309017 0.600000 1.000000
-0.020000 1.000000 0.918502 -0.951057 0.000000 0.309017 0.500000 1.000000
-0.020000 -1.000000 0.918502 -0.951057 0.000000 0.309017 0.500000 0.500000
-0.020000 -1.000000 0.918502 -0.951057 -0.000000 -0.309017 0.500000 0.500000
-0.020000 1.000000 0.918502 -0.951057 -0.000000 -0.309017 0.500000 1.000000
-0.016180 1.000000 0.906747 -0.951057 -0.000000 -0.309017 0.400000 1.000000
-0.016180 -1.000000 0.906747 -0.951057 0.000000 -0.309017 0.400000 0.500000
-0.016180 -1.000000 0.906747 -0.587784 -0.000000 -0.809018 0.400000 0.500000
-0.016180 1.000000 0.906747 -0.587784 -0.000000 -0.809018 0.400000 1.000000
-0.006180 1.000000 0.899481 -0.587784 -0.000000 -0.809018 0.300000 1.000000
-0.006180 -1.000000 0.899481 -0.587784 0.000000 -0.809018 0.300000 0.500000
-0.006180 -1.000000 0.899481 -0.000000 -0.000000 -1.000000 0.300000 0.500000
-0.006180 1.000000 0.899481 -0.000000 -0.000000 -1.000000 0.300000 1.000000
0.006180 1.000000 0.899481 -0.000000 -0.000000 -1.000000 0.200000 1.000000
0.006180 -1.000000 0.899481 -0.000000 0.000000 -1.000000 0.200000 0.500000
0.006180 1.000000 0.937523 0.000000 1.000000 0.000000 0.478254 0.324164
0.016180 1.000000 0.930258 0.000000 1.000000 0.000000 0.391068 0.444164
0.020000 1.000000 0.918502 0.000000 1.000000 0.000000 0.250000 0.490000
0.016180 1.000000 0.906747 0.000000 1.000000 0.000000 0.108932 0.444164
0.006180 1.000000 0.899481 0.000000 1.000000 0.000000 0.021746 0.324164
-0.006180 1.000000 0.899481 -0.000000 1.000000 0.000000 0.021746 0.175836
-0.016180 1.000000 0.906747 -0.000000 1.000000 0.000000 0.108932 0.055836
-0.020000 1.000000 0.918502 0.000000 1.000000 0.000000 0.250000 0.010000
-0.016180 1.000000 0.930258 0.000000 1.000000 0.000000 0.391068 0.055836
-0.006180 1.000000 0.937523 0.000000 1.000000 0.000000 0.478254 0.175836
0.006180 -1.000000 0.899481 0.587783 0.000000 -0.809018 0.200000 0.500000
0.006180 1.000000 0.899481 0.587783 0.000000 -0.809018 0.200000 1.000000
0.016180 1.000000 0.906747 0.587783 0.000000 -0.809018 0.100000 1.000000
0.016180 -1.000000 0.906747 0.587783 0.000000 -0.809018 0.100000 0.500000
0.016180 -1.000000 0.906747 0.951057 0.000000 -0.309017 0.100000 0.500000
0.016180 1.000000 0.906747 0.951057 0.000000 -0.309017 0.100000 1.000000
0.020000 1.000000 0.918502 0.951057 0.000000 -0.309017 -0.000000 1.000000
0.020000 -1.000000 0.918502 0.951057 0.000000 -0.309017 -0.000000 0.500000
1.000000 -0.904711 0.876653 -0.000000 0.951055 0.309021 1.000000 0.500000
-1.000000 -0.904711 0.876653 -0.000000 0.951055 0.309021 1.000000 1.000000
-1.000000 -0.907845 0.886300 -0.000000 0.951055 0.309021 0.900000 1.000000
1.000000 -0.904711 0.876653 -0.000000 0.951058 0.309014 1.000000 0.500000
-1.000000 -0.907845 0.886300 -0.000000 0.951058 0.309014 0.900000 1.000000
1.000000 -0.907845 0.886300 -0.000000 0.951058 0.309014 0.900000 0.500000
1.000000 -0.907845 0.886300 -0.000000 0.587789 0.809014 0.900000 0.500000
-1.000000 -0.907845 0.886300 -0.000000 0.587789 0.809014 0.900000 1.000000
-1.000000 -0.916052 0.892262 -0.000000 0.587789 0.809014 0.800000 1.000000
1.000000 -0.907845 0.886300 0.000000 0.587782 0.809020 0.900000 0.500000
-1.000000 -0.916052 0.892262 0.000000 0.587782 0.809020 0.800000 1.000000
1.000000 -0.916052 0.892262 0.000000 0.587782 0.809020 0.800000 0.500000
1.000000 -0.916052 0.892262 0.000000 -0.000000 1.000000 0.800000 0.500000
-1.000000 -0.916052 0.892262 0.000000 -0.000000 1.000000 0.800000 1.000000
-1.000000 -0.926195 0.892262 0.000000 -0.000000 1.000000 0.700000 1.000000
1.000000 -0.926195 0.892262 0.000000 0.000000 1.000000 0.700000 0.500000
1.000000 -0.926195 0.892262 0.000000 -0.587789 0.809014 0.700000 0.500000
-1.000000 -0.926195 0.892262 0.000000 -0.587789 0.809014 0.700000 1.000000
-1.000000 -0.934401 0.886300 0.000000 -0.587789 0.809014 0.600000 1.000000
1.000000 -0.926195 0.892262 0.000000 -0.587782 0.809020 0.700000 0.500000
-1.000000 -0.934401 0.886300 0.000000 -0.587782 0.809020 0.600000 1.000000
1.000000 -0.934401 0.886300 0.000000 -0.587782 0.809020 0.600000 0.500000
1.000000 -0.934401 0.886300 0.000000 -0.951057 0.309016 0.600000 0.500000
-1.000000 -0.934401 0.886300 0.000000 -0.951057 0.309016 0.600000 1.000000
-1.000000 -0.937536 0.876653 0.000000 -0.951057 0.309016 0.500000 1.000000
1.000000 -0.934401 0.886300 0.000000 -0.951058 0.309014 0.600000 0.500000
-1.000000 -0.937536 0.876653 0.000000 -0.951058 0.309014 0.500000 1.000000
1.000000 -0.937536 0.876653 0.000000 -0.951058 0.309014 0.500000 0.500000
1.000000 -0.937536 0.876653 0.000000 -0.951057 -0.309016 0.500000 0.500000
-1.000000 -0.937536 0.876653 0.000000 -0.951057 -0.309016 0.500000 1.000000
-1.000000 -0.934401 0.867006 0.000000 -0.951057 -0.309016 0.400000 1.000000
1.000000 -0.934401 0.867006 0.000000 -0.951057 -0.309016 0.400000 0.500000
1.000000 -0.934401 0.867006 -0.000000 -0.587786 -0.809017 0.400000 0.500000
-1.000000 -0.934401 0.867006 -0.000000 -0.587786 -0.809017 0.400000 1.000000
-1.000000 -0.926195 0.861044 -0.000000 -0.587786 -0.809017 0.300000 1.000000
1.000000 -0.926195 0.861044 -0.000000 -0.587786 -0.809017 0.300000 0.500000
1.000000 -0.926195 0.861044 -0.000000 -0.000000 -1.000000 0.300000 0.500000
-1.000000 -0.926195 0.861044 -0.000000 -0.000000 -1.000000 0.300000 1.000000
-1.000000 -0.916052 0.861044 -0.000000 -0.000000 -1.000000 0.200000 1.000000
1.000000 -0.916052 0.861044 -0.000000 0.000000 -1.000000 0.200000 0.500000
1.000000 -0.916052 0.861044 -0.000000 0.587786 -0.809017 0.200000 0.500000
-1.000000 -0.916052 0.861044 -0.000000 0.587786 -0.809017 0.200000 1.000000
-1.000000 -0.907845 0.867006 -0.000000 0.587786 -0.809017 0.100000 1.000000
1.000000 -0.907845 0.867006 -0.000000 0.587786 -0.809017 0.100000 0.500000
1.000000 -0.907845 0.867006 -0.000000 0.951055 -0.309021 0.100000 0.500000
-1.000000 -0.907845 0.867006 -0.000000 0.951055 -0.309021 0.100000 1.000000
-1.000000 -0.904711 0.876653 -0.000000 0.951055 -0.309021 -0.000000 1.000000
1.000000 -0.907845 0.867006 -0.000000 0.951057 -0.309016 0.100000 0.500000
-1.000000 -0.904711 0.876653 -0.000000 0.951057 -0.309016 -0.000000 1.000000
1.000000 -0.904711 0.876653 -0.000000 0.951057 -0.309016 -0.000000 0.500000
0.003106 1.005634 0.980671 -0.707111 0.707103 -0.000002 0.478254 0.324164
0.010177 1.012705 0.973406 -0.707111 0.707103 -0.000002 0.391068 0.444164
0.012878 1.015406 0.961650 -0.707111 0.707103 -0.000002 0.250000 0.490000
0.012878 1.015406 0.961650 -0.707111 0.707103 0.000002 0.250000 0.490000
0.010177 1.012705 0.949894 -0.707111 0.707103 0.000002 0.108932 0.444164
0.003106 1.005634 0.942629 -0.707111 0.707103 0.000002 0.021746 0.324164
0.003106 1.005634 0.942629 -0.707104 0.707109 0.000016 0.021746 0.324164
-0.005634 0.996894 0.942629 -0.707104 0.707109 0.000016 0.021746 0.175836
-0.012705 0.989823 0.949894 -0.707104 0.707109 0.000016 0.108932 0.055836
-0.012705 0.989823 0.949894 -0.707107 0.707107 0.000000 0.108932 0.055836
-0.015406 0.987122 0.961650 -0.707107 0.707107 0.000000 0.250000 0.010000
-0.012705 0.989823 0.973406 -0.707107 0.707107 0.000000 0.391068 0.055836
-0.012705 0.989823 0.973406 -0.707104 0.707109 -0.000016 0.391068 0.055836
-0.005634 0.996894 0.980671 -0.707104 0.707109 -0.000016 0.478254 0.175836
0.003106 1.005634 0.980671 -0.707104 0.707109 -0.000016 0.478254 0.324164
0.003106 1.005634 0.980671 -0.707109 0.707105 0.000000 0.478254 0.324164
0.012878 1.015406 0.961650 -0.707109 0.707105 0.000000 0.250000 0.490000
0.003106 1.005634 0.942629 -0.707109 0.707105 0.000000 0.021746 0.324164
0.003106 1.005634 0.942629 -0.707108 0.707105 0.000000 0.021746 0.324164
-0.012705 0.989823 0.949894 -0.707108 0.707105 0.000000 0.108932 0.055836
-0.012705 0.989823 0.973406 -0.707108 0.707105 0.000000 0.391068 0.055836
0.003106 1.005634 0.980671 -0.707108 0.707105 0.000000 0.478254 0.324164
1.000000 0.022883 0.973406 0.672499 0.672499 0.309016 0.900000 0.752857
1.000000 0.028284 0.961650 0.672499 0.672499 0.309016 1.000000 0.753531
0.012878 1.015406 0.961650 0.672499 0.672499 0.309016 1.000000 1.000000
1.000000 0.022883 0.973406 0.672498 0.672498 0.309019 0.900000 0.752857
0.012878 1.015406 0.961650 0.672498 0.672498 0.309019 1.000000 1.000000
0.010177 1.012705 0.973406 0.672498 0.672498 0.309019 0.900000 1.000000
1.000000 0.008740 0.980671 0.415626 0.415626 0.809018 0.800000 0.751091
1.000000 0.022883 0.973406 0.415626 0.415626 0.809018 0.900000 0.752857
0.010177 1.012705 0.973406 0.415626 0.415626 0.809018 0.900000 1.000000
1.000000 0.008740 0.980671 0.415624 0.415624 0.809020 0.800000 0.751091
0.010177 1.012705 0.973406 0.415624 0.415624 0.809020 0.900000 1.000000
0.003106 1.005634 0.980671 0.415624 0.415624 0.809020 0.800000 1.000000
1.000000 -0.008740 0.980671 0.000000 0.000000 1.000000 0.700000 0.748909
1.000000 0.008740 0.980671 0.000000 0.000000 1.000000 0.800000 0.751091
0.003106 1.005634 0.980671 0.000000 0.000000 1.000000 0.800000 1.000000
-0.005634 0.996894 0.980671 0.000000 -0.000000 1.000000 0.700000 1.000000
1.000000 -0.028284 0.961650 -0.672499 -0.672499 0.309016 0.500000 0.746469
1.000000 -0.022882 0.973406 -0.672499 -0.672499 0.309016 0.600000 0.747143
-0.012705 0.989823 0.973406 -0.672499 -0.672499 0.309016 0.600000 1.000000
1.000000 -0.028284 0.961650 -0.672498 -0.672498 0.309019 0.500000 0.746469
-0.012705 0.989823 0.973406 -0.672498 -0.672498 0.309019 0.600000 1.000000
-0.015406 0.987122 0.961650 -0.672498 -0.672498 0.309019 0.500000 1.000000
1.000000 -0.022882 0.973406 -0.415626 -0.415626 0.809018 0.600000 0.747143
1.000000 -0.008740 0.980671 -0.415626 -0.415626 0.809018 0.700000 0.748909
-0.005634 0.996894 0.980671 -0.415626 -0.415626 0.809018 0.700000 1.000000
1.000000 -0.022882 0.973406 -0.415625 -0.415625 0.809019 0.600000 0.747143
-0.005634 0.996894 0.980671 -0.415625 -0.415625 0.809019 0.700000 1.000000
-0.012705 0.989823 0.973406 -0.415625 -0.415625 0.809019 0.600000 1.000000
1.000000 0.022883 0.949894 0.415626 0.415626 -0.809018 0.100000 0.752857
1.000000 0.008740 0.942629 0.415626 0.415626 -0.809018 0.200000 0.751091
0.003106 1.005634 0.942629 0.415626 0.415626 -0.809018 0.200000 1.000000
0.010177 1.012705 0.949894 0.415626 0.415626 -0.809018 0.100000 1.000000
1.000000 -0.022882 0.949894 -0.672499 -0.672499 -0.309016 0.400000 0.747143
1.000000 -0.028284 0.961650 -0.672499 -0.672499 -0.309016 0.500000 0.746469
-0.015406 0.987122 0.961650 -0.672499 -0.672499 -0.309016 0.500000 1.000000
1.000000 -0.022882 0.949894 -0.672498 -0.672498 -0.309019 0.400000 0.747143
-0.015406 0.987122 0.961650 -0.672498 -0.672498 -0.309019 0.500000 1.000000
-0.012705 0.989823 0.949894 -0.672498 -0.672498 -0.309019 0.400000 1.000000
1.000000 0.028284 0.961650 0.672499 0.672499 -0.309016 -0.000000 0.753531
1.000000 0.022883 0.949894 0.672499 0.672499 -0.309016 0.100000 0.752857
0.010177 1.012705 0.949894 0.672499 0.672499 -0.309016 0.100000 1.000000
1.000000 0.028284 0.961650 0.672498 0.672498 -0.309019 -0.000000 0.753531
0.010177 1.012705 0.949894 0.672498 0.672498 -0.309019 0.100000 1.000000
0.012878 1.015406 0.961650 0.672498 0.672498 -0.309019 -0.000000 1.000000
1.000000 0.008740 0.942629 0.000000 0.000000 -1.000000 0.200000 0.751091
1.000000 -0.008740 0.942629 0.000000 0.000000 -1.000000 0.300000 0.748909
-0.005634 0.996894 0.942629 0.000000 0.000000 -1.000000 0.300000 1.000000
0.003106 1.005634 0.942629 0.000000 -0.000000 -1.000000 0.200000 1.000000
1.000000 -0.008740 0.942629 -0.415626 -0.415626 -0.809018 0.300000 0.748909
1.000000 -0.022882 0.949894 -0.415626 -0.415626 -0.809018 0.400000 0.747143
-0.012705 0.989823 0.949894 -0.415626 -0.415626 -0.809018 0.400000 1.000000
1.000000 -0.008740 0.942629 -0.415627 -0.415627 -0.809016 0.300000 0.748909
-0.012705 0.989823 0.949894 -0.415627 -0.415627 -0.809016 0.400000 1.000000
-0.005634 0.996894 0.942629 -0.415627 -0.415627 -0.809016 0.300000 1.000000
0.015406 -0.987122 0.961650 0.672499 0.672499 0.309014 1.000000 0.500000
-1.000000 0.028284 0.961650 0.672499 0.672499 0.309014 1.000000 0.753531
-1.000000 0.022883 0.973406 0.672499 0.672499 0.309014 0.900000 0.752857
0.015406 -0.987122 0.961650 0.672496 0.672496 0.309027 1.000000 0.500000
-1.000000 0.022883 0.973406 0.672496 0.672496 0.309027 0.900000 0.752857
0.012705 -0.989823 0.973406 0.672496 0.672496 0.309027 0.900000 0.500000
0.012705 -0.989823 0.973406 0.415624 0.415624 0.809020 0.900000 0.500000
-1.000000 0.022883 0.973406 0.415624 0.415624 0.809020 0.900000 0.752857
-1.000000 0.008740 0.980671 0.415624 0.415624 0.809020 0.800000 0.751091
0.012705 -0.989823 0.973406 0.415628 0.415628 0.809015 0.900000 0.500000
-1.000000 0.008740 0.980671 0.415628 0.415628 0.809015 0.800000 0.751091
0.005634 -0.996894 0.980671 0.415628 0.415628 0.809015 0.800000 0.500000
0.005634 -0.996894 0.980671 0.000000 0.000000 1.000000 0.800000 0.500000
-1.000000 0.008740 0.980671 0.000000 0.000000 1.000000 0.800000 0.751091
-1.000000 -0.008740 0.980671 0.000000 0.000000 1.000000 0.700000 0.748909
-0.003106 -1.005634 0.980671 0.000000 -0.000000 1.000000 0.700000 0.500000
-0.003106 -1.005634 0.980671 -0.415624 -0.415624 0.809020 0.700000 0.500000
-1.000000 -0.008740 0.980671 -0.415624 -0.415624 0.809020 0.700000 0.748909
-1.000000 -0.022882 0.973406 -0.415624 -0.415624 0.809020 0.600000 0.747143
-0.003106 -1.005634 0.980671 -0.415627 -0.415627 0.809017 0.700000 0.500000
-1.000000 -0.022882 0.973406 -0.415627 -0.415627 0.809017 0.600000 0.747143
-0.010177 -1.012705 0.973406 -0.415627 -0.415627 0.809017 0.600000 0.500000
-0.010177 -1.012705 0.973406 -0.672499 -0.672499 0.309014 0.600000 0.500000
-1.000000 -0.022882 0.973406 -0.672499 -0.672499 0.309014 0.600000 0.747143
-1.000000 -0.028284 0.961650 -0.672499 -0.672499 0.309014 0.500000 0.746469
-0.010177 -1.012705 0.973406 -0.672497 -0.672497 0.309025 0.600000 0.500000
-1.000000 -0.028284 0.961650 -0.672497 -0.672497 0.309025 0.500000 0.746469
-0.012878 -1.015406 0.961650 -0.672497 -0.672497 0.309025 0.500000 0.500000
-0.012878 -1.015406 0.961650 -0.672499 -0.672499 -0.309016 0.500000 0.500000
-1.000000 -0.028284 0.961650 -0.672499 -0.672499 -0.309016 0.500000 0.746469
-1.000000 -0.022882 0.949894 -0.672499 -0.672499 -0.309016 0.400000 0.747143
-0.012878 -1.015406 0.961650 -0.672496 -0.672496 -0.309026 0.500000 0.500000
-1.000000 -0.022882 0.949894 -0.672496 -0.672496 -0.309026 0.400000 0.747143
-0.010177 -1.012705 0.949894 -0.672496 -0.672496 -0.309026 0.400000 0.500000
-0.010177 -1.012705 0.949894 -0.415626 -0.415626 -0.809018 0.400000 0.500000
-1.000000 -0.022882 0.949894 -0.415626 -0.415626 -0.809018 0.400000 0.747143
-1.000000 -0.008740 0.942629 -0.415626 -0.415626 -0.809018 0.300000 0.748909
-0.010177 -1.012705 0.949894 -0.415627 -0.415627 -0.809017 0.400000 0.500000
-1.000000 -0.008740 0.942629 -0.415627 -0.415627 -0.809017 0.300000 0.748909
-0.003106 -1.005634 0.942629 -0.415627 -0.415627 -0.809017 0.300000 0.500000
-0.003106 -1.005634 0.942629 0.000000 0.000000 -1.000000 0.300000 0.500000
-1.000000 -0.008740 0.942629 0.000000 0.000000 -1.000000 0.300000 0.748909
-1.000000 0.008740 0.942629 0.000000 0.000000 -1.000000 0.200000 0.751091
0.005634 -0.996894 0.942629 -0.000000 -0.000000 -1.000000 0.200000 0.500000
0.005634 -0.996894 0.942629 0.415626 0.415626 -0.809018 0.200000 0.500000
-1.000000 0.008740 0.942629 0.415626 0.415626 -0.809018 0.200000 0.751091
-1.000000 0.022883 0.949894 0.415626 0.415626 -0.809018 0.100000 0.752857
0.005634 -0.996894 0.942629 0.415628 0.415628 -0.809016 0.200000 0.500000
-1.000000 0.022883 0.949894 0.415628 0.415628 -0.809016 0.100000 0.752857
0.012705 -0.989823 0.949894 0.415628 0.415628 -0.809016 0.100000 0.500000
0.012705 -0.989823 0.949894 0.672499 0.672499 -0.309016 0.100000 0.500000
-1.000000 0.022883 0.949894 0.672499 0.672499 -0.309016 0.100000 0.752857
-1.000000 0.028284 0.961650 0.672499 0.672499 -0.309016 -0.000000 0.753531
0.012705 -0.989823 0.949894 0.672498 0.672498 -0.309018 0.100000 0.500000
-1.000000 0.028284 0.961650 0.672498 0.672498 -0.309018 -0.000000 0.753531
0.015406 -0.987122 0.961650 0.672498 0.672498 -0.309018 -0.000000 0.500000
0.012705 -0.989823 0.949894 0.707115 -0.707099 -0.000000 0.608932 0.444164
0.015406 -0.987122 0.961650 0.707115 -0.707099 -0.000000 0.750000 0.490000
0.012705 -0.989823 0.973406 0.707115 -0.707099 -0.000000 0.891068 0.444164
0.012705 -0.989823 0.973406 0.707104 -0.707109 -0.000005 0.891068 0.444164
0.005634 -0.996894 0.980671 0.707104 -0.707109 -0.000005 0.978254 0.324164
-0.003106 -1.005634 0.980671 0.707104 -0.707109 -0.000005 0.978254 0.175836
-0.003106 -1.005634 0.980671 0.707098 -0.707115 0.000011 0.978254 0.175836
-0.010177 -1.012705 0.973406 0.707098 -0.707115 0.000011 0.891068 0.055836
-0.012878 -1.015406 0.961650 0.707098 -0.707115 0.000011 0.750000 0.010000
-0.012878 -1.015406 0.961650 0.707098 -0.707115 -0.000011 0.750000 0.010000
-0.010177 -1.012705 0.949894 0.707098 -0.707115 -0.000011 0.608932 0.055836
-0.003106 -1.005634 0.942629 0.707098 -0.707115 -0.000011 0.521746 0.175836
-0.003106 -1.005634 0.942629 0.707104 -0.707109 0.000005 0.521746 0.175836
0.005634 -0.996894 0.942629 0.707104 -0.707109 0.000005 0.521746 0.324164
0.012705 -0.989823 0.949894 0.707104 -0.707109 0.000005 0.608932 0.444164
0.012705 -0.989823 0.949894 0.707105 -0.707108 -0.000000 0.608932 0.444164
0.012705 -0.989823 0.973406 0.707105 -0.707108 -0.000000 0.891068 0.444164
-0.003106 -1.005634 0.980671 0.707105 -0.707108 -0.000000 0.978254 0.175836
-0.003106 -1.005634 0.980671 0.707109 -0.707105 -0.000000 0.978254 0.175836
-0.012878 -1.015406 0.961650 0.707109 -0.707105 -0.000000 0.750000 0.010000
-0.003106 -1.005634 0.942629 0.707109 -0.707105 -0.000000 0.521746 0.175836
-0.003106 -1.005634 0.942629 0.707105 -0.707108 -0.000000 0.521746 0.175836
3 0 1 2
3 0 2 3
3 4 5 6
3 4 6 7
3 8 9 10
3 8 10 11
3 12 13 14
3 12 14 15
3 16 17 18
3 16 18 19
3 20 21 22
3 20 22 23
3 24 25 26
3 24 26 27
3 28 29 30
3 28 30 31
3 32 33 34
3 32 34 35
3 36 37 38
3 36 38 39
3 40 41 42
3 40 42 43
3 44 45 46
3 44 46 47
3 48 49 50
3 50 51 52
3 52 53 54
3 54 55 56
3 56 57 48
3 48 50 52
3 52 54 56
3 52 56 48
3 58 59 60
3 58 60 61
3 62 63 64
3 62 64 65
3 66 67 68
3 66 68 69
3 70 71 72
3 70 72 73
3 74 75 76
3 74 76 77
3 78 79 80
3 78 80 81
3 82 83 84
3 82 84 85
3 86 87 88
3 86 88 89
3 90 91 92
3 90 92 93
3 94 95 96
3 94 96 97
3 98 99 100
3 100 101 102
3 102 103 104
3 104 105 106
3 106 107 98
3 98 100 102
3 102 104 106
3 102 106 98
3 108 109 110
3 108 110 111
3 112 113 114
3 112 114 115
3 116 117 118
3 119 120 121
3 122 123 124
3 125 126 127
3 128 129 130
3 128 130 131
3 132 133 134
3 135 136 137
3 138 139 140
3 141 142 143
3 144 145 146
3 144 146 147
3 148 149 150
3 148 150 151
3 152 153 154
3 152 154 155
3 156 157 158
3 156 158 159
3 160 161 162
3 163 164 165
3 166 167 168
3 169 170 171
3 172 173 174
3 175 176 177
3 178 179 180
3 181 182 183
3 184 185 186
3 184 186 187
3 188 189 190
3 191 192 193
3 194 195 196
3 197 198 199
3 200 201 202
3 200 202 203
3 204 205 206
3 207 208 209
3 210 211 212
3 213 214 215
3 216 217 218
3 216 218 219
3 220 221 222
3 223 224 225
3 226 227 228
3 229 230 231
3 232 233 234
3 232 234 235
3 236 237 238
3 239 240 241
3 242 243 244
3 245 246 247
3 248 249 250
3 251 252 253
3 254 255 256
3 254 256 257
3 258 259 260
3 261 262 263
3 264 265 266
3 267 268 269
3 270 271 272
3 273 274 275
3 276 277 278
3 279 280 281
3 282 283 284
3 282 284 285
3 286 287 288
3 289 290 291
3 292 293 294
3 295 296 297
3 298 299 300
3 301 302 303
3 304 305 306
3 307 308 309
3 310 311 312
3 313 314 315
3 316 317 318
3 315 319 313
